%TF.GenerationSoftware,KiCad,Pcbnew,9.0.4*%
%TF.CreationDate,2025-09-16T11:07:58+03:00*%
%TF.ProjectId,5 to 15v,3520746f-2031-4357-962e-6b696361645f,rev?*%
%TF.SameCoordinates,Original*%
%TF.FileFunction,Soldermask,Top*%
%TF.FilePolarity,Negative*%
%FSLAX46Y46*%
G04 Gerber Fmt 4.6, Leading zero omitted, Abs format (unit mm)*
G04 Created by KiCad (PCBNEW 9.0.4) date 2025-09-16 11:07:58*
%MOMM*%
%LPD*%
G01*
G04 APERTURE LIST*
G04 Aperture macros list*
%AMRoundRect*
0 Rectangle with rounded corners*
0 $1 Rounding radius*
0 $2 $3 $4 $5 $6 $7 $8 $9 X,Y pos of 4 corners*
0 Add a 4 corners polygon primitive as box body*
4,1,4,$2,$3,$4,$5,$6,$7,$8,$9,$2,$3,0*
0 Add four circle primitives for the rounded corners*
1,1,$1+$1,$2,$3*
1,1,$1+$1,$4,$5*
1,1,$1+$1,$6,$7*
1,1,$1+$1,$8,$9*
0 Add four rect primitives between the rounded corners*
20,1,$1+$1,$2,$3,$4,$5,0*
20,1,$1+$1,$4,$5,$6,$7,0*
20,1,$1+$1,$6,$7,$8,$9,0*
20,1,$1+$1,$8,$9,$2,$3,0*%
G04 Aperture macros list end*
%ADD10C,0.010000*%
%ADD11R,1.700000X1.700000*%
%ADD12C,1.700000*%
%ADD13RoundRect,0.102000X-1.350000X0.850000X-1.350000X-0.850000X1.350000X-0.850000X1.350000X0.850000X0*%
%ADD14RoundRect,0.225000X-0.250000X0.225000X-0.250000X-0.225000X0.250000X-0.225000X0.250000X0.225000X0*%
%ADD15C,3.800000*%
%ADD16RoundRect,0.200000X-0.275000X0.200000X-0.275000X-0.200000X0.275000X-0.200000X0.275000X0.200000X0*%
%ADD17RoundRect,0.250000X-0.475000X0.250000X-0.475000X-0.250000X0.475000X-0.250000X0.475000X0.250000X0*%
%ADD18RoundRect,0.250000X-0.650000X0.325000X-0.650000X-0.325000X0.650000X-0.325000X0.650000X0.325000X0*%
%ADD19RoundRect,0.200000X-0.200000X-0.275000X0.200000X-0.275000X0.200000X0.275000X-0.200000X0.275000X0*%
%ADD20RoundRect,0.102000X0.611000X0.611000X-0.611000X0.611000X-0.611000X-0.611000X0.611000X-0.611000X0*%
%ADD21C,1.426000*%
%ADD22RoundRect,0.225000X-0.225000X-0.250000X0.225000X-0.250000X0.225000X0.250000X-0.225000X0.250000X0*%
%ADD23RoundRect,0.250000X0.650000X-0.325000X0.650000X0.325000X-0.650000X0.325000X-0.650000X-0.325000X0*%
G04 APERTURE END LIST*
D10*
%TO.C,TPS1*%
X173630000Y-85576000D02*
X173631000Y-85576000D01*
X173633000Y-85576000D01*
X173634000Y-85577000D01*
X173635000Y-85577000D01*
X173636000Y-85578000D01*
X173637000Y-85578000D01*
X173639000Y-85579000D01*
X173640000Y-85580000D01*
X173641000Y-85581000D01*
X173642000Y-85581000D01*
X173643000Y-85582000D01*
X173644000Y-85583000D01*
X173644000Y-85584000D01*
X173645000Y-85585000D01*
X173646000Y-85586000D01*
X173647000Y-85587000D01*
X173647000Y-85589000D01*
X173648000Y-85590000D01*
X173648000Y-85591000D01*
X173649000Y-85592000D01*
X173649000Y-85594000D01*
X173649000Y-85595000D01*
X173650000Y-85596000D01*
X173650000Y-85597000D01*
X173650000Y-85599000D01*
X173650000Y-85600000D01*
X173650000Y-85900000D01*
X173650000Y-85901000D01*
X173650000Y-85903000D01*
X173650000Y-85904000D01*
X173649000Y-85905000D01*
X173649000Y-85906000D01*
X173649000Y-85908000D01*
X173648000Y-85909000D01*
X173648000Y-85910000D01*
X173647000Y-85911000D01*
X173647000Y-85912000D01*
X173646000Y-85914000D01*
X173645000Y-85915000D01*
X173644000Y-85916000D01*
X173644000Y-85917000D01*
X173643000Y-85918000D01*
X173642000Y-85919000D01*
X173641000Y-85919000D01*
X173640000Y-85920000D01*
X173639000Y-85921000D01*
X173637000Y-85922000D01*
X173636000Y-85922000D01*
X173635000Y-85923000D01*
X173634000Y-85923000D01*
X173633000Y-85924000D01*
X173631000Y-85924000D01*
X173630000Y-85924000D01*
X173629000Y-85925000D01*
X173628000Y-85925000D01*
X173626000Y-85925000D01*
X173625000Y-85925000D01*
X173025000Y-85925000D01*
X173024000Y-85925000D01*
X173022000Y-85925000D01*
X173021000Y-85925000D01*
X173020000Y-85924000D01*
X173019000Y-85924000D01*
X173017000Y-85924000D01*
X173016000Y-85923000D01*
X173015000Y-85923000D01*
X173014000Y-85922000D01*
X173012000Y-85922000D01*
X173011000Y-85921000D01*
X173010000Y-85920000D01*
X173009000Y-85919000D01*
X173008000Y-85919000D01*
X173007000Y-85918000D01*
X173006000Y-85917000D01*
X173006000Y-85916000D01*
X173005000Y-85915000D01*
X173004000Y-85914000D01*
X173003000Y-85913000D01*
X173003000Y-85911000D01*
X173002000Y-85910000D01*
X173002000Y-85909000D01*
X173001000Y-85908000D01*
X173001000Y-85906000D01*
X173001000Y-85905000D01*
X173000000Y-85904000D01*
X173000000Y-85903000D01*
X173000000Y-85901000D01*
X173000000Y-85900000D01*
X173000000Y-85600000D01*
X173000000Y-85599000D01*
X173000000Y-85597000D01*
X173000000Y-85596000D01*
X173001000Y-85595000D01*
X173001000Y-85594000D01*
X173001000Y-85592000D01*
X173002000Y-85591000D01*
X173002000Y-85590000D01*
X173003000Y-85589000D01*
X173003000Y-85587000D01*
X173004000Y-85586000D01*
X173005000Y-85585000D01*
X173006000Y-85584000D01*
X173006000Y-85583000D01*
X173007000Y-85582000D01*
X173008000Y-85581000D01*
X173009000Y-85581000D01*
X173010000Y-85580000D01*
X173011000Y-85579000D01*
X173012000Y-85578000D01*
X173014000Y-85578000D01*
X173015000Y-85577000D01*
X173016000Y-85577000D01*
X173017000Y-85576000D01*
X173019000Y-85576000D01*
X173020000Y-85576000D01*
X173021000Y-85575000D01*
X173022000Y-85575000D01*
X173024000Y-85575000D01*
X173025000Y-85575000D01*
X173625000Y-85575000D01*
X173626000Y-85575000D01*
X173628000Y-85575000D01*
X173629000Y-85575000D01*
X173630000Y-85576000D01*
G36*
X173630000Y-85576000D02*
G01*
X173631000Y-85576000D01*
X173633000Y-85576000D01*
X173634000Y-85577000D01*
X173635000Y-85577000D01*
X173636000Y-85578000D01*
X173637000Y-85578000D01*
X173639000Y-85579000D01*
X173640000Y-85580000D01*
X173641000Y-85581000D01*
X173642000Y-85581000D01*
X173643000Y-85582000D01*
X173644000Y-85583000D01*
X173644000Y-85584000D01*
X173645000Y-85585000D01*
X173646000Y-85586000D01*
X173647000Y-85587000D01*
X173647000Y-85589000D01*
X173648000Y-85590000D01*
X173648000Y-85591000D01*
X173649000Y-85592000D01*
X173649000Y-85594000D01*
X173649000Y-85595000D01*
X173650000Y-85596000D01*
X173650000Y-85597000D01*
X173650000Y-85599000D01*
X173650000Y-85600000D01*
X173650000Y-85900000D01*
X173650000Y-85901000D01*
X173650000Y-85903000D01*
X173650000Y-85904000D01*
X173649000Y-85905000D01*
X173649000Y-85906000D01*
X173649000Y-85908000D01*
X173648000Y-85909000D01*
X173648000Y-85910000D01*
X173647000Y-85911000D01*
X173647000Y-85912000D01*
X173646000Y-85914000D01*
X173645000Y-85915000D01*
X173644000Y-85916000D01*
X173644000Y-85917000D01*
X173643000Y-85918000D01*
X173642000Y-85919000D01*
X173641000Y-85919000D01*
X173640000Y-85920000D01*
X173639000Y-85921000D01*
X173637000Y-85922000D01*
X173636000Y-85922000D01*
X173635000Y-85923000D01*
X173634000Y-85923000D01*
X173633000Y-85924000D01*
X173631000Y-85924000D01*
X173630000Y-85924000D01*
X173629000Y-85925000D01*
X173628000Y-85925000D01*
X173626000Y-85925000D01*
X173625000Y-85925000D01*
X173025000Y-85925000D01*
X173024000Y-85925000D01*
X173022000Y-85925000D01*
X173021000Y-85925000D01*
X173020000Y-85924000D01*
X173019000Y-85924000D01*
X173017000Y-85924000D01*
X173016000Y-85923000D01*
X173015000Y-85923000D01*
X173014000Y-85922000D01*
X173012000Y-85922000D01*
X173011000Y-85921000D01*
X173010000Y-85920000D01*
X173009000Y-85919000D01*
X173008000Y-85919000D01*
X173007000Y-85918000D01*
X173006000Y-85917000D01*
X173006000Y-85916000D01*
X173005000Y-85915000D01*
X173004000Y-85914000D01*
X173003000Y-85913000D01*
X173003000Y-85911000D01*
X173002000Y-85910000D01*
X173002000Y-85909000D01*
X173001000Y-85908000D01*
X173001000Y-85906000D01*
X173001000Y-85905000D01*
X173000000Y-85904000D01*
X173000000Y-85903000D01*
X173000000Y-85901000D01*
X173000000Y-85900000D01*
X173000000Y-85600000D01*
X173000000Y-85599000D01*
X173000000Y-85597000D01*
X173000000Y-85596000D01*
X173001000Y-85595000D01*
X173001000Y-85594000D01*
X173001000Y-85592000D01*
X173002000Y-85591000D01*
X173002000Y-85590000D01*
X173003000Y-85589000D01*
X173003000Y-85587000D01*
X173004000Y-85586000D01*
X173005000Y-85585000D01*
X173006000Y-85584000D01*
X173006000Y-85583000D01*
X173007000Y-85582000D01*
X173008000Y-85581000D01*
X173009000Y-85581000D01*
X173010000Y-85580000D01*
X173011000Y-85579000D01*
X173012000Y-85578000D01*
X173014000Y-85578000D01*
X173015000Y-85577000D01*
X173016000Y-85577000D01*
X173017000Y-85576000D01*
X173019000Y-85576000D01*
X173020000Y-85576000D01*
X173021000Y-85575000D01*
X173022000Y-85575000D01*
X173024000Y-85575000D01*
X173025000Y-85575000D01*
X173625000Y-85575000D01*
X173626000Y-85575000D01*
X173628000Y-85575000D01*
X173629000Y-85575000D01*
X173630000Y-85576000D01*
G37*
X173630000Y-86076000D02*
X173631000Y-86076000D01*
X173633000Y-86076000D01*
X173634000Y-86077000D01*
X173635000Y-86077000D01*
X173636000Y-86078000D01*
X173637000Y-86078000D01*
X173639000Y-86079000D01*
X173640000Y-86080000D01*
X173641000Y-86081000D01*
X173642000Y-86081000D01*
X173643000Y-86082000D01*
X173644000Y-86083000D01*
X173644000Y-86084000D01*
X173645000Y-86085000D01*
X173646000Y-86086000D01*
X173647000Y-86088000D01*
X173647000Y-86089000D01*
X173648000Y-86090000D01*
X173648000Y-86091000D01*
X173649000Y-86092000D01*
X173649000Y-86094000D01*
X173649000Y-86095000D01*
X173650000Y-86096000D01*
X173650000Y-86097000D01*
X173650000Y-86099000D01*
X173650000Y-86100000D01*
X173650000Y-86400000D01*
X173650000Y-86401000D01*
X173650000Y-86403000D01*
X173650000Y-86404000D01*
X173649000Y-86405000D01*
X173649000Y-86406000D01*
X173649000Y-86408000D01*
X173648000Y-86409000D01*
X173648000Y-86410000D01*
X173647000Y-86411000D01*
X173647000Y-86413000D01*
X173646000Y-86414000D01*
X173645000Y-86415000D01*
X173644000Y-86416000D01*
X173644000Y-86417000D01*
X173643000Y-86418000D01*
X173642000Y-86419000D01*
X173641000Y-86419000D01*
X173640000Y-86420000D01*
X173639000Y-86421000D01*
X173637000Y-86422000D01*
X173636000Y-86422000D01*
X173635000Y-86423000D01*
X173634000Y-86423000D01*
X173633000Y-86424000D01*
X173631000Y-86424000D01*
X173630000Y-86424000D01*
X173629000Y-86425000D01*
X173628000Y-86425000D01*
X173626000Y-86425000D01*
X173625000Y-86425000D01*
X173025000Y-86425000D01*
X173024000Y-86425000D01*
X173022000Y-86425000D01*
X173021000Y-86425000D01*
X173020000Y-86424000D01*
X173019000Y-86424000D01*
X173017000Y-86424000D01*
X173016000Y-86423000D01*
X173015000Y-86423000D01*
X173014000Y-86422000D01*
X173012000Y-86422000D01*
X173011000Y-86421000D01*
X173010000Y-86420000D01*
X173009000Y-86419000D01*
X173008000Y-86419000D01*
X173007000Y-86418000D01*
X173006000Y-86417000D01*
X173006000Y-86416000D01*
X173005000Y-86415000D01*
X173004000Y-86414000D01*
X173003000Y-86413000D01*
X173003000Y-86411000D01*
X173002000Y-86410000D01*
X173002000Y-86409000D01*
X173001000Y-86408000D01*
X173001000Y-86406000D01*
X173001000Y-86405000D01*
X173000000Y-86404000D01*
X173000000Y-86403000D01*
X173000000Y-86401000D01*
X173000000Y-86400000D01*
X173000000Y-86100000D01*
X173000000Y-86099000D01*
X173000000Y-86097000D01*
X173000000Y-86096000D01*
X173001000Y-86095000D01*
X173001000Y-86094000D01*
X173001000Y-86092000D01*
X173002000Y-86091000D01*
X173002000Y-86090000D01*
X173003000Y-86089000D01*
X173003000Y-86088000D01*
X173004000Y-86086000D01*
X173005000Y-86085000D01*
X173006000Y-86084000D01*
X173006000Y-86083000D01*
X173007000Y-86082000D01*
X173008000Y-86081000D01*
X173009000Y-86081000D01*
X173010000Y-86080000D01*
X173011000Y-86079000D01*
X173012000Y-86078000D01*
X173014000Y-86078000D01*
X173015000Y-86077000D01*
X173016000Y-86077000D01*
X173017000Y-86076000D01*
X173019000Y-86076000D01*
X173020000Y-86076000D01*
X173021000Y-86075000D01*
X173022000Y-86075000D01*
X173024000Y-86075000D01*
X173025000Y-86075000D01*
X173625000Y-86075000D01*
X173626000Y-86075000D01*
X173628000Y-86075000D01*
X173629000Y-86075000D01*
X173630000Y-86076000D01*
G36*
X173630000Y-86076000D02*
G01*
X173631000Y-86076000D01*
X173633000Y-86076000D01*
X173634000Y-86077000D01*
X173635000Y-86077000D01*
X173636000Y-86078000D01*
X173637000Y-86078000D01*
X173639000Y-86079000D01*
X173640000Y-86080000D01*
X173641000Y-86081000D01*
X173642000Y-86081000D01*
X173643000Y-86082000D01*
X173644000Y-86083000D01*
X173644000Y-86084000D01*
X173645000Y-86085000D01*
X173646000Y-86086000D01*
X173647000Y-86088000D01*
X173647000Y-86089000D01*
X173648000Y-86090000D01*
X173648000Y-86091000D01*
X173649000Y-86092000D01*
X173649000Y-86094000D01*
X173649000Y-86095000D01*
X173650000Y-86096000D01*
X173650000Y-86097000D01*
X173650000Y-86099000D01*
X173650000Y-86100000D01*
X173650000Y-86400000D01*
X173650000Y-86401000D01*
X173650000Y-86403000D01*
X173650000Y-86404000D01*
X173649000Y-86405000D01*
X173649000Y-86406000D01*
X173649000Y-86408000D01*
X173648000Y-86409000D01*
X173648000Y-86410000D01*
X173647000Y-86411000D01*
X173647000Y-86413000D01*
X173646000Y-86414000D01*
X173645000Y-86415000D01*
X173644000Y-86416000D01*
X173644000Y-86417000D01*
X173643000Y-86418000D01*
X173642000Y-86419000D01*
X173641000Y-86419000D01*
X173640000Y-86420000D01*
X173639000Y-86421000D01*
X173637000Y-86422000D01*
X173636000Y-86422000D01*
X173635000Y-86423000D01*
X173634000Y-86423000D01*
X173633000Y-86424000D01*
X173631000Y-86424000D01*
X173630000Y-86424000D01*
X173629000Y-86425000D01*
X173628000Y-86425000D01*
X173626000Y-86425000D01*
X173625000Y-86425000D01*
X173025000Y-86425000D01*
X173024000Y-86425000D01*
X173022000Y-86425000D01*
X173021000Y-86425000D01*
X173020000Y-86424000D01*
X173019000Y-86424000D01*
X173017000Y-86424000D01*
X173016000Y-86423000D01*
X173015000Y-86423000D01*
X173014000Y-86422000D01*
X173012000Y-86422000D01*
X173011000Y-86421000D01*
X173010000Y-86420000D01*
X173009000Y-86419000D01*
X173008000Y-86419000D01*
X173007000Y-86418000D01*
X173006000Y-86417000D01*
X173006000Y-86416000D01*
X173005000Y-86415000D01*
X173004000Y-86414000D01*
X173003000Y-86413000D01*
X173003000Y-86411000D01*
X173002000Y-86410000D01*
X173002000Y-86409000D01*
X173001000Y-86408000D01*
X173001000Y-86406000D01*
X173001000Y-86405000D01*
X173000000Y-86404000D01*
X173000000Y-86403000D01*
X173000000Y-86401000D01*
X173000000Y-86400000D01*
X173000000Y-86100000D01*
X173000000Y-86099000D01*
X173000000Y-86097000D01*
X173000000Y-86096000D01*
X173001000Y-86095000D01*
X173001000Y-86094000D01*
X173001000Y-86092000D01*
X173002000Y-86091000D01*
X173002000Y-86090000D01*
X173003000Y-86089000D01*
X173003000Y-86088000D01*
X173004000Y-86086000D01*
X173005000Y-86085000D01*
X173006000Y-86084000D01*
X173006000Y-86083000D01*
X173007000Y-86082000D01*
X173008000Y-86081000D01*
X173009000Y-86081000D01*
X173010000Y-86080000D01*
X173011000Y-86079000D01*
X173012000Y-86078000D01*
X173014000Y-86078000D01*
X173015000Y-86077000D01*
X173016000Y-86077000D01*
X173017000Y-86076000D01*
X173019000Y-86076000D01*
X173020000Y-86076000D01*
X173021000Y-86075000D01*
X173022000Y-86075000D01*
X173024000Y-86075000D01*
X173025000Y-86075000D01*
X173625000Y-86075000D01*
X173626000Y-86075000D01*
X173628000Y-86075000D01*
X173629000Y-86075000D01*
X173630000Y-86076000D01*
G37*
X173630000Y-86576000D02*
X173631000Y-86576000D01*
X173633000Y-86576000D01*
X173634000Y-86577000D01*
X173635000Y-86577000D01*
X173636000Y-86578000D01*
X173637000Y-86578000D01*
X173639000Y-86579000D01*
X173640000Y-86580000D01*
X173641000Y-86581000D01*
X173642000Y-86581000D01*
X173643000Y-86582000D01*
X173644000Y-86583000D01*
X173644000Y-86584000D01*
X173645000Y-86585000D01*
X173646000Y-86586000D01*
X173647000Y-86587000D01*
X173647000Y-86589000D01*
X173648000Y-86590000D01*
X173648000Y-86591000D01*
X173649000Y-86592000D01*
X173649000Y-86594000D01*
X173649000Y-86595000D01*
X173650000Y-86596000D01*
X173650000Y-86597000D01*
X173650000Y-86599000D01*
X173650000Y-86600000D01*
X173650000Y-86900000D01*
X173650000Y-86901000D01*
X173650000Y-86903000D01*
X173650000Y-86904000D01*
X173649000Y-86905000D01*
X173649000Y-86906000D01*
X173649000Y-86908000D01*
X173648000Y-86909000D01*
X173648000Y-86910000D01*
X173647000Y-86911000D01*
X173647000Y-86912000D01*
X173646000Y-86914000D01*
X173645000Y-86915000D01*
X173644000Y-86916000D01*
X173644000Y-86917000D01*
X173643000Y-86918000D01*
X173642000Y-86919000D01*
X173641000Y-86919000D01*
X173640000Y-86920000D01*
X173639000Y-86921000D01*
X173637000Y-86922000D01*
X173636000Y-86922000D01*
X173635000Y-86923000D01*
X173634000Y-86923000D01*
X173633000Y-86924000D01*
X173631000Y-86924000D01*
X173630000Y-86924000D01*
X173629000Y-86925000D01*
X173628000Y-86925000D01*
X173626000Y-86925000D01*
X173625000Y-86925000D01*
X173025000Y-86925000D01*
X173024000Y-86925000D01*
X173022000Y-86925000D01*
X173021000Y-86925000D01*
X173020000Y-86924000D01*
X173019000Y-86924000D01*
X173017000Y-86924000D01*
X173016000Y-86923000D01*
X173015000Y-86923000D01*
X173014000Y-86922000D01*
X173012000Y-86922000D01*
X173011000Y-86921000D01*
X173010000Y-86920000D01*
X173009000Y-86919000D01*
X173008000Y-86919000D01*
X173007000Y-86918000D01*
X173006000Y-86917000D01*
X173006000Y-86916000D01*
X173005000Y-86915000D01*
X173004000Y-86914000D01*
X173003000Y-86912000D01*
X173003000Y-86911000D01*
X173002000Y-86910000D01*
X173002000Y-86909000D01*
X173001000Y-86908000D01*
X173001000Y-86906000D01*
X173001000Y-86905000D01*
X173000000Y-86904000D01*
X173000000Y-86903000D01*
X173000000Y-86901000D01*
X173000000Y-86900000D01*
X173000000Y-86600000D01*
X173000000Y-86599000D01*
X173000000Y-86597000D01*
X173000000Y-86596000D01*
X173001000Y-86595000D01*
X173001000Y-86594000D01*
X173001000Y-86592000D01*
X173002000Y-86591000D01*
X173002000Y-86590000D01*
X173003000Y-86589000D01*
X173003000Y-86587000D01*
X173004000Y-86586000D01*
X173005000Y-86585000D01*
X173006000Y-86584000D01*
X173006000Y-86583000D01*
X173007000Y-86582000D01*
X173008000Y-86581000D01*
X173009000Y-86581000D01*
X173010000Y-86580000D01*
X173011000Y-86579000D01*
X173012000Y-86578000D01*
X173014000Y-86578000D01*
X173015000Y-86577000D01*
X173016000Y-86577000D01*
X173017000Y-86576000D01*
X173019000Y-86576000D01*
X173020000Y-86576000D01*
X173021000Y-86575000D01*
X173022000Y-86575000D01*
X173024000Y-86575000D01*
X173025000Y-86575000D01*
X173625000Y-86575000D01*
X173626000Y-86575000D01*
X173628000Y-86575000D01*
X173629000Y-86575000D01*
X173630000Y-86576000D01*
G36*
X173630000Y-86576000D02*
G01*
X173631000Y-86576000D01*
X173633000Y-86576000D01*
X173634000Y-86577000D01*
X173635000Y-86577000D01*
X173636000Y-86578000D01*
X173637000Y-86578000D01*
X173639000Y-86579000D01*
X173640000Y-86580000D01*
X173641000Y-86581000D01*
X173642000Y-86581000D01*
X173643000Y-86582000D01*
X173644000Y-86583000D01*
X173644000Y-86584000D01*
X173645000Y-86585000D01*
X173646000Y-86586000D01*
X173647000Y-86587000D01*
X173647000Y-86589000D01*
X173648000Y-86590000D01*
X173648000Y-86591000D01*
X173649000Y-86592000D01*
X173649000Y-86594000D01*
X173649000Y-86595000D01*
X173650000Y-86596000D01*
X173650000Y-86597000D01*
X173650000Y-86599000D01*
X173650000Y-86600000D01*
X173650000Y-86900000D01*
X173650000Y-86901000D01*
X173650000Y-86903000D01*
X173650000Y-86904000D01*
X173649000Y-86905000D01*
X173649000Y-86906000D01*
X173649000Y-86908000D01*
X173648000Y-86909000D01*
X173648000Y-86910000D01*
X173647000Y-86911000D01*
X173647000Y-86912000D01*
X173646000Y-86914000D01*
X173645000Y-86915000D01*
X173644000Y-86916000D01*
X173644000Y-86917000D01*
X173643000Y-86918000D01*
X173642000Y-86919000D01*
X173641000Y-86919000D01*
X173640000Y-86920000D01*
X173639000Y-86921000D01*
X173637000Y-86922000D01*
X173636000Y-86922000D01*
X173635000Y-86923000D01*
X173634000Y-86923000D01*
X173633000Y-86924000D01*
X173631000Y-86924000D01*
X173630000Y-86924000D01*
X173629000Y-86925000D01*
X173628000Y-86925000D01*
X173626000Y-86925000D01*
X173625000Y-86925000D01*
X173025000Y-86925000D01*
X173024000Y-86925000D01*
X173022000Y-86925000D01*
X173021000Y-86925000D01*
X173020000Y-86924000D01*
X173019000Y-86924000D01*
X173017000Y-86924000D01*
X173016000Y-86923000D01*
X173015000Y-86923000D01*
X173014000Y-86922000D01*
X173012000Y-86922000D01*
X173011000Y-86921000D01*
X173010000Y-86920000D01*
X173009000Y-86919000D01*
X173008000Y-86919000D01*
X173007000Y-86918000D01*
X173006000Y-86917000D01*
X173006000Y-86916000D01*
X173005000Y-86915000D01*
X173004000Y-86914000D01*
X173003000Y-86912000D01*
X173003000Y-86911000D01*
X173002000Y-86910000D01*
X173002000Y-86909000D01*
X173001000Y-86908000D01*
X173001000Y-86906000D01*
X173001000Y-86905000D01*
X173000000Y-86904000D01*
X173000000Y-86903000D01*
X173000000Y-86901000D01*
X173000000Y-86900000D01*
X173000000Y-86600000D01*
X173000000Y-86599000D01*
X173000000Y-86597000D01*
X173000000Y-86596000D01*
X173001000Y-86595000D01*
X173001000Y-86594000D01*
X173001000Y-86592000D01*
X173002000Y-86591000D01*
X173002000Y-86590000D01*
X173003000Y-86589000D01*
X173003000Y-86587000D01*
X173004000Y-86586000D01*
X173005000Y-86585000D01*
X173006000Y-86584000D01*
X173006000Y-86583000D01*
X173007000Y-86582000D01*
X173008000Y-86581000D01*
X173009000Y-86581000D01*
X173010000Y-86580000D01*
X173011000Y-86579000D01*
X173012000Y-86578000D01*
X173014000Y-86578000D01*
X173015000Y-86577000D01*
X173016000Y-86577000D01*
X173017000Y-86576000D01*
X173019000Y-86576000D01*
X173020000Y-86576000D01*
X173021000Y-86575000D01*
X173022000Y-86575000D01*
X173024000Y-86575000D01*
X173025000Y-86575000D01*
X173625000Y-86575000D01*
X173626000Y-86575000D01*
X173628000Y-86575000D01*
X173629000Y-86575000D01*
X173630000Y-86576000D01*
G37*
X173630000Y-87076000D02*
X173631000Y-87076000D01*
X173633000Y-87076000D01*
X173634000Y-87077000D01*
X173635000Y-87077000D01*
X173636000Y-87078000D01*
X173637000Y-87078000D01*
X173639000Y-87079000D01*
X173640000Y-87080000D01*
X173641000Y-87081000D01*
X173642000Y-87081000D01*
X173643000Y-87082000D01*
X173644000Y-87083000D01*
X173644000Y-87084000D01*
X173645000Y-87085000D01*
X173646000Y-87086000D01*
X173647000Y-87087000D01*
X173647000Y-87089000D01*
X173648000Y-87090000D01*
X173648000Y-87091000D01*
X173649000Y-87092000D01*
X173649000Y-87094000D01*
X173649000Y-87095000D01*
X173650000Y-87096000D01*
X173650000Y-87097000D01*
X173650000Y-87099000D01*
X173650000Y-87100000D01*
X173650000Y-87400000D01*
X173650000Y-87401000D01*
X173650000Y-87403000D01*
X173650000Y-87404000D01*
X173649000Y-87405000D01*
X173649000Y-87406000D01*
X173649000Y-87408000D01*
X173648000Y-87409000D01*
X173648000Y-87410000D01*
X173647000Y-87411000D01*
X173647000Y-87412000D01*
X173646000Y-87414000D01*
X173645000Y-87415000D01*
X173644000Y-87416000D01*
X173644000Y-87417000D01*
X173643000Y-87418000D01*
X173642000Y-87419000D01*
X173641000Y-87419000D01*
X173640000Y-87420000D01*
X173639000Y-87421000D01*
X173637000Y-87422000D01*
X173636000Y-87422000D01*
X173635000Y-87423000D01*
X173634000Y-87423000D01*
X173633000Y-87424000D01*
X173631000Y-87424000D01*
X173630000Y-87424000D01*
X173629000Y-87425000D01*
X173628000Y-87425000D01*
X173626000Y-87425000D01*
X173625000Y-87425000D01*
X173025000Y-87425000D01*
X173024000Y-87425000D01*
X173022000Y-87425000D01*
X173021000Y-87425000D01*
X173020000Y-87424000D01*
X173019000Y-87424000D01*
X173017000Y-87424000D01*
X173016000Y-87423000D01*
X173015000Y-87423000D01*
X173014000Y-87422000D01*
X173012000Y-87422000D01*
X173011000Y-87421000D01*
X173010000Y-87420000D01*
X173009000Y-87419000D01*
X173008000Y-87419000D01*
X173007000Y-87418000D01*
X173006000Y-87417000D01*
X173006000Y-87416000D01*
X173005000Y-87415000D01*
X173004000Y-87414000D01*
X173003000Y-87413000D01*
X173003000Y-87411000D01*
X173002000Y-87410000D01*
X173002000Y-87409000D01*
X173001000Y-87408000D01*
X173001000Y-87406000D01*
X173001000Y-87405000D01*
X173000000Y-87404000D01*
X173000000Y-87403000D01*
X173000000Y-87401000D01*
X173000000Y-87400000D01*
X173000000Y-87100000D01*
X173000000Y-87099000D01*
X173000000Y-87097000D01*
X173000000Y-87096000D01*
X173001000Y-87095000D01*
X173001000Y-87094000D01*
X173001000Y-87092000D01*
X173002000Y-87091000D01*
X173002000Y-87090000D01*
X173003000Y-87089000D01*
X173003000Y-87087000D01*
X173004000Y-87086000D01*
X173005000Y-87085000D01*
X173006000Y-87084000D01*
X173006000Y-87083000D01*
X173007000Y-87082000D01*
X173008000Y-87081000D01*
X173009000Y-87081000D01*
X173010000Y-87080000D01*
X173011000Y-87079000D01*
X173012000Y-87078000D01*
X173014000Y-87078000D01*
X173015000Y-87077000D01*
X173016000Y-87077000D01*
X173017000Y-87076000D01*
X173019000Y-87076000D01*
X173020000Y-87076000D01*
X173021000Y-87075000D01*
X173022000Y-87075000D01*
X173024000Y-87075000D01*
X173025000Y-87075000D01*
X173625000Y-87075000D01*
X173626000Y-87075000D01*
X173628000Y-87075000D01*
X173629000Y-87075000D01*
X173630000Y-87076000D01*
G36*
X173630000Y-87076000D02*
G01*
X173631000Y-87076000D01*
X173633000Y-87076000D01*
X173634000Y-87077000D01*
X173635000Y-87077000D01*
X173636000Y-87078000D01*
X173637000Y-87078000D01*
X173639000Y-87079000D01*
X173640000Y-87080000D01*
X173641000Y-87081000D01*
X173642000Y-87081000D01*
X173643000Y-87082000D01*
X173644000Y-87083000D01*
X173644000Y-87084000D01*
X173645000Y-87085000D01*
X173646000Y-87086000D01*
X173647000Y-87087000D01*
X173647000Y-87089000D01*
X173648000Y-87090000D01*
X173648000Y-87091000D01*
X173649000Y-87092000D01*
X173649000Y-87094000D01*
X173649000Y-87095000D01*
X173650000Y-87096000D01*
X173650000Y-87097000D01*
X173650000Y-87099000D01*
X173650000Y-87100000D01*
X173650000Y-87400000D01*
X173650000Y-87401000D01*
X173650000Y-87403000D01*
X173650000Y-87404000D01*
X173649000Y-87405000D01*
X173649000Y-87406000D01*
X173649000Y-87408000D01*
X173648000Y-87409000D01*
X173648000Y-87410000D01*
X173647000Y-87411000D01*
X173647000Y-87412000D01*
X173646000Y-87414000D01*
X173645000Y-87415000D01*
X173644000Y-87416000D01*
X173644000Y-87417000D01*
X173643000Y-87418000D01*
X173642000Y-87419000D01*
X173641000Y-87419000D01*
X173640000Y-87420000D01*
X173639000Y-87421000D01*
X173637000Y-87422000D01*
X173636000Y-87422000D01*
X173635000Y-87423000D01*
X173634000Y-87423000D01*
X173633000Y-87424000D01*
X173631000Y-87424000D01*
X173630000Y-87424000D01*
X173629000Y-87425000D01*
X173628000Y-87425000D01*
X173626000Y-87425000D01*
X173625000Y-87425000D01*
X173025000Y-87425000D01*
X173024000Y-87425000D01*
X173022000Y-87425000D01*
X173021000Y-87425000D01*
X173020000Y-87424000D01*
X173019000Y-87424000D01*
X173017000Y-87424000D01*
X173016000Y-87423000D01*
X173015000Y-87423000D01*
X173014000Y-87422000D01*
X173012000Y-87422000D01*
X173011000Y-87421000D01*
X173010000Y-87420000D01*
X173009000Y-87419000D01*
X173008000Y-87419000D01*
X173007000Y-87418000D01*
X173006000Y-87417000D01*
X173006000Y-87416000D01*
X173005000Y-87415000D01*
X173004000Y-87414000D01*
X173003000Y-87413000D01*
X173003000Y-87411000D01*
X173002000Y-87410000D01*
X173002000Y-87409000D01*
X173001000Y-87408000D01*
X173001000Y-87406000D01*
X173001000Y-87405000D01*
X173000000Y-87404000D01*
X173000000Y-87403000D01*
X173000000Y-87401000D01*
X173000000Y-87400000D01*
X173000000Y-87100000D01*
X173000000Y-87099000D01*
X173000000Y-87097000D01*
X173000000Y-87096000D01*
X173001000Y-87095000D01*
X173001000Y-87094000D01*
X173001000Y-87092000D01*
X173002000Y-87091000D01*
X173002000Y-87090000D01*
X173003000Y-87089000D01*
X173003000Y-87087000D01*
X173004000Y-87086000D01*
X173005000Y-87085000D01*
X173006000Y-87084000D01*
X173006000Y-87083000D01*
X173007000Y-87082000D01*
X173008000Y-87081000D01*
X173009000Y-87081000D01*
X173010000Y-87080000D01*
X173011000Y-87079000D01*
X173012000Y-87078000D01*
X173014000Y-87078000D01*
X173015000Y-87077000D01*
X173016000Y-87077000D01*
X173017000Y-87076000D01*
X173019000Y-87076000D01*
X173020000Y-87076000D01*
X173021000Y-87075000D01*
X173022000Y-87075000D01*
X173024000Y-87075000D01*
X173025000Y-87075000D01*
X173625000Y-87075000D01*
X173626000Y-87075000D01*
X173628000Y-87075000D01*
X173629000Y-87075000D01*
X173630000Y-87076000D01*
G37*
X174280000Y-84751000D02*
X174281000Y-84751000D01*
X174283000Y-84751000D01*
X174284000Y-84752000D01*
X174285000Y-84752000D01*
X174286000Y-84753000D01*
X174288000Y-84753000D01*
X174289000Y-84754000D01*
X174290000Y-84755000D01*
X174291000Y-84756000D01*
X174292000Y-84756000D01*
X174293000Y-84757000D01*
X174294000Y-84758000D01*
X174294000Y-84759000D01*
X174295000Y-84760000D01*
X174296000Y-84761000D01*
X174297000Y-84762000D01*
X174297000Y-84764000D01*
X174298000Y-84765000D01*
X174298000Y-84766000D01*
X174299000Y-84767000D01*
X174299000Y-84769000D01*
X174299000Y-84770000D01*
X174300000Y-84771000D01*
X174300000Y-84772000D01*
X174300000Y-84774000D01*
X174300000Y-84775000D01*
X174300000Y-85375000D01*
X174300000Y-85376000D01*
X174300000Y-85378000D01*
X174300000Y-85379000D01*
X174299000Y-85380000D01*
X174299000Y-85381000D01*
X174299000Y-85383000D01*
X174298000Y-85384000D01*
X174298000Y-85385000D01*
X174297000Y-85386000D01*
X174297000Y-85387000D01*
X174296000Y-85389000D01*
X174295000Y-85390000D01*
X174294000Y-85391000D01*
X174294000Y-85392000D01*
X174293000Y-85393000D01*
X174292000Y-85394000D01*
X174291000Y-85394000D01*
X174290000Y-85395000D01*
X174289000Y-85396000D01*
X174288000Y-85397000D01*
X174286000Y-85397000D01*
X174285000Y-85398000D01*
X174284000Y-85398000D01*
X174283000Y-85399000D01*
X174281000Y-85399000D01*
X174280000Y-85399000D01*
X174279000Y-85400000D01*
X174278000Y-85400000D01*
X174276000Y-85400000D01*
X174275000Y-85400000D01*
X173975000Y-85400000D01*
X173974000Y-85400000D01*
X173972000Y-85400000D01*
X173971000Y-85400000D01*
X173970000Y-85399000D01*
X173969000Y-85399000D01*
X173967000Y-85399000D01*
X173966000Y-85398000D01*
X173965000Y-85398000D01*
X173964000Y-85397000D01*
X173962000Y-85397000D01*
X173961000Y-85396000D01*
X173960000Y-85395000D01*
X173959000Y-85394000D01*
X173958000Y-85394000D01*
X173957000Y-85393000D01*
X173956000Y-85392000D01*
X173956000Y-85391000D01*
X173955000Y-85390000D01*
X173954000Y-85389000D01*
X173953000Y-85387000D01*
X173953000Y-85386000D01*
X173952000Y-85385000D01*
X173952000Y-85384000D01*
X173951000Y-85383000D01*
X173951000Y-85381000D01*
X173951000Y-85380000D01*
X173950000Y-85379000D01*
X173950000Y-85378000D01*
X173950000Y-85376000D01*
X173950000Y-85375000D01*
X173950000Y-84775000D01*
X173950000Y-84774000D01*
X173950000Y-84772000D01*
X173950000Y-84771000D01*
X173951000Y-84770000D01*
X173951000Y-84769000D01*
X173951000Y-84767000D01*
X173952000Y-84766000D01*
X173952000Y-84765000D01*
X173953000Y-84764000D01*
X173953000Y-84762000D01*
X173954000Y-84761000D01*
X173955000Y-84760000D01*
X173956000Y-84759000D01*
X173956000Y-84758000D01*
X173957000Y-84757000D01*
X173958000Y-84756000D01*
X173959000Y-84756000D01*
X173960000Y-84755000D01*
X173961000Y-84754000D01*
X173962000Y-84753000D01*
X173964000Y-84753000D01*
X173965000Y-84752000D01*
X173966000Y-84752000D01*
X173967000Y-84751000D01*
X173969000Y-84751000D01*
X173970000Y-84751000D01*
X173971000Y-84750000D01*
X173972000Y-84750000D01*
X173974000Y-84750000D01*
X173975000Y-84750000D01*
X174275000Y-84750000D01*
X174276000Y-84750000D01*
X174278000Y-84750000D01*
X174279000Y-84750000D01*
X174280000Y-84751000D01*
G36*
X174280000Y-84751000D02*
G01*
X174281000Y-84751000D01*
X174283000Y-84751000D01*
X174284000Y-84752000D01*
X174285000Y-84752000D01*
X174286000Y-84753000D01*
X174288000Y-84753000D01*
X174289000Y-84754000D01*
X174290000Y-84755000D01*
X174291000Y-84756000D01*
X174292000Y-84756000D01*
X174293000Y-84757000D01*
X174294000Y-84758000D01*
X174294000Y-84759000D01*
X174295000Y-84760000D01*
X174296000Y-84761000D01*
X174297000Y-84762000D01*
X174297000Y-84764000D01*
X174298000Y-84765000D01*
X174298000Y-84766000D01*
X174299000Y-84767000D01*
X174299000Y-84769000D01*
X174299000Y-84770000D01*
X174300000Y-84771000D01*
X174300000Y-84772000D01*
X174300000Y-84774000D01*
X174300000Y-84775000D01*
X174300000Y-85375000D01*
X174300000Y-85376000D01*
X174300000Y-85378000D01*
X174300000Y-85379000D01*
X174299000Y-85380000D01*
X174299000Y-85381000D01*
X174299000Y-85383000D01*
X174298000Y-85384000D01*
X174298000Y-85385000D01*
X174297000Y-85386000D01*
X174297000Y-85387000D01*
X174296000Y-85389000D01*
X174295000Y-85390000D01*
X174294000Y-85391000D01*
X174294000Y-85392000D01*
X174293000Y-85393000D01*
X174292000Y-85394000D01*
X174291000Y-85394000D01*
X174290000Y-85395000D01*
X174289000Y-85396000D01*
X174288000Y-85397000D01*
X174286000Y-85397000D01*
X174285000Y-85398000D01*
X174284000Y-85398000D01*
X174283000Y-85399000D01*
X174281000Y-85399000D01*
X174280000Y-85399000D01*
X174279000Y-85400000D01*
X174278000Y-85400000D01*
X174276000Y-85400000D01*
X174275000Y-85400000D01*
X173975000Y-85400000D01*
X173974000Y-85400000D01*
X173972000Y-85400000D01*
X173971000Y-85400000D01*
X173970000Y-85399000D01*
X173969000Y-85399000D01*
X173967000Y-85399000D01*
X173966000Y-85398000D01*
X173965000Y-85398000D01*
X173964000Y-85397000D01*
X173962000Y-85397000D01*
X173961000Y-85396000D01*
X173960000Y-85395000D01*
X173959000Y-85394000D01*
X173958000Y-85394000D01*
X173957000Y-85393000D01*
X173956000Y-85392000D01*
X173956000Y-85391000D01*
X173955000Y-85390000D01*
X173954000Y-85389000D01*
X173953000Y-85387000D01*
X173953000Y-85386000D01*
X173952000Y-85385000D01*
X173952000Y-85384000D01*
X173951000Y-85383000D01*
X173951000Y-85381000D01*
X173951000Y-85380000D01*
X173950000Y-85379000D01*
X173950000Y-85378000D01*
X173950000Y-85376000D01*
X173950000Y-85375000D01*
X173950000Y-84775000D01*
X173950000Y-84774000D01*
X173950000Y-84772000D01*
X173950000Y-84771000D01*
X173951000Y-84770000D01*
X173951000Y-84769000D01*
X173951000Y-84767000D01*
X173952000Y-84766000D01*
X173952000Y-84765000D01*
X173953000Y-84764000D01*
X173953000Y-84762000D01*
X173954000Y-84761000D01*
X173955000Y-84760000D01*
X173956000Y-84759000D01*
X173956000Y-84758000D01*
X173957000Y-84757000D01*
X173958000Y-84756000D01*
X173959000Y-84756000D01*
X173960000Y-84755000D01*
X173961000Y-84754000D01*
X173962000Y-84753000D01*
X173964000Y-84753000D01*
X173965000Y-84752000D01*
X173966000Y-84752000D01*
X173967000Y-84751000D01*
X173969000Y-84751000D01*
X173970000Y-84751000D01*
X173971000Y-84750000D01*
X173972000Y-84750000D01*
X173974000Y-84750000D01*
X173975000Y-84750000D01*
X174275000Y-84750000D01*
X174276000Y-84750000D01*
X174278000Y-84750000D01*
X174279000Y-84750000D01*
X174280000Y-84751000D01*
G37*
X174280000Y-87601000D02*
X174281000Y-87601000D01*
X174283000Y-87601000D01*
X174284000Y-87602000D01*
X174285000Y-87602000D01*
X174286000Y-87603000D01*
X174288000Y-87603000D01*
X174289000Y-87604000D01*
X174290000Y-87605000D01*
X174291000Y-87606000D01*
X174292000Y-87606000D01*
X174293000Y-87607000D01*
X174294000Y-87608000D01*
X174294000Y-87609000D01*
X174295000Y-87610000D01*
X174296000Y-87611000D01*
X174297000Y-87613000D01*
X174297000Y-87614000D01*
X174298000Y-87615000D01*
X174298000Y-87616000D01*
X174299000Y-87617000D01*
X174299000Y-87619000D01*
X174299000Y-87620000D01*
X174300000Y-87621000D01*
X174300000Y-87622000D01*
X174300000Y-87624000D01*
X174300000Y-87625000D01*
X174300000Y-88225000D01*
X174300000Y-88226000D01*
X174300000Y-88228000D01*
X174300000Y-88229000D01*
X174299000Y-88230000D01*
X174299000Y-88231000D01*
X174299000Y-88233000D01*
X174298000Y-88234000D01*
X174298000Y-88235000D01*
X174297000Y-88236000D01*
X174297000Y-88238000D01*
X174296000Y-88239000D01*
X174295000Y-88240000D01*
X174294000Y-88241000D01*
X174294000Y-88242000D01*
X174293000Y-88243000D01*
X174292000Y-88244000D01*
X174291000Y-88244000D01*
X174290000Y-88245000D01*
X174289000Y-88246000D01*
X174288000Y-88247000D01*
X174286000Y-88247000D01*
X174285000Y-88248000D01*
X174284000Y-88248000D01*
X174283000Y-88249000D01*
X174281000Y-88249000D01*
X174280000Y-88249000D01*
X174279000Y-88250000D01*
X174278000Y-88250000D01*
X174276000Y-88250000D01*
X174275000Y-88250000D01*
X173975000Y-88250000D01*
X173974000Y-88250000D01*
X173972000Y-88250000D01*
X173971000Y-88250000D01*
X173970000Y-88249000D01*
X173969000Y-88249000D01*
X173967000Y-88249000D01*
X173966000Y-88248000D01*
X173965000Y-88248000D01*
X173964000Y-88247000D01*
X173962000Y-88247000D01*
X173961000Y-88246000D01*
X173960000Y-88245000D01*
X173959000Y-88244000D01*
X173958000Y-88244000D01*
X173957000Y-88243000D01*
X173956000Y-88242000D01*
X173956000Y-88241000D01*
X173955000Y-88240000D01*
X173954000Y-88239000D01*
X173953000Y-88238000D01*
X173953000Y-88236000D01*
X173952000Y-88235000D01*
X173952000Y-88234000D01*
X173951000Y-88233000D01*
X173951000Y-88231000D01*
X173951000Y-88230000D01*
X173950000Y-88229000D01*
X173950000Y-88228000D01*
X173950000Y-88226000D01*
X173950000Y-88225000D01*
X173950000Y-87625000D01*
X173950000Y-87624000D01*
X173950000Y-87622000D01*
X173950000Y-87621000D01*
X173951000Y-87620000D01*
X173951000Y-87619000D01*
X173951000Y-87617000D01*
X173952000Y-87616000D01*
X173952000Y-87615000D01*
X173953000Y-87614000D01*
X173953000Y-87613000D01*
X173954000Y-87611000D01*
X173955000Y-87610000D01*
X173956000Y-87609000D01*
X173956000Y-87608000D01*
X173957000Y-87607000D01*
X173958000Y-87606000D01*
X173959000Y-87606000D01*
X173960000Y-87605000D01*
X173961000Y-87604000D01*
X173962000Y-87603000D01*
X173964000Y-87603000D01*
X173965000Y-87602000D01*
X173966000Y-87602000D01*
X173967000Y-87601000D01*
X173969000Y-87601000D01*
X173970000Y-87601000D01*
X173971000Y-87600000D01*
X173972000Y-87600000D01*
X173974000Y-87600000D01*
X173975000Y-87600000D01*
X174275000Y-87600000D01*
X174276000Y-87600000D01*
X174278000Y-87600000D01*
X174279000Y-87600000D01*
X174280000Y-87601000D01*
G36*
X174280000Y-87601000D02*
G01*
X174281000Y-87601000D01*
X174283000Y-87601000D01*
X174284000Y-87602000D01*
X174285000Y-87602000D01*
X174286000Y-87603000D01*
X174288000Y-87603000D01*
X174289000Y-87604000D01*
X174290000Y-87605000D01*
X174291000Y-87606000D01*
X174292000Y-87606000D01*
X174293000Y-87607000D01*
X174294000Y-87608000D01*
X174294000Y-87609000D01*
X174295000Y-87610000D01*
X174296000Y-87611000D01*
X174297000Y-87613000D01*
X174297000Y-87614000D01*
X174298000Y-87615000D01*
X174298000Y-87616000D01*
X174299000Y-87617000D01*
X174299000Y-87619000D01*
X174299000Y-87620000D01*
X174300000Y-87621000D01*
X174300000Y-87622000D01*
X174300000Y-87624000D01*
X174300000Y-87625000D01*
X174300000Y-88225000D01*
X174300000Y-88226000D01*
X174300000Y-88228000D01*
X174300000Y-88229000D01*
X174299000Y-88230000D01*
X174299000Y-88231000D01*
X174299000Y-88233000D01*
X174298000Y-88234000D01*
X174298000Y-88235000D01*
X174297000Y-88236000D01*
X174297000Y-88238000D01*
X174296000Y-88239000D01*
X174295000Y-88240000D01*
X174294000Y-88241000D01*
X174294000Y-88242000D01*
X174293000Y-88243000D01*
X174292000Y-88244000D01*
X174291000Y-88244000D01*
X174290000Y-88245000D01*
X174289000Y-88246000D01*
X174288000Y-88247000D01*
X174286000Y-88247000D01*
X174285000Y-88248000D01*
X174284000Y-88248000D01*
X174283000Y-88249000D01*
X174281000Y-88249000D01*
X174280000Y-88249000D01*
X174279000Y-88250000D01*
X174278000Y-88250000D01*
X174276000Y-88250000D01*
X174275000Y-88250000D01*
X173975000Y-88250000D01*
X173974000Y-88250000D01*
X173972000Y-88250000D01*
X173971000Y-88250000D01*
X173970000Y-88249000D01*
X173969000Y-88249000D01*
X173967000Y-88249000D01*
X173966000Y-88248000D01*
X173965000Y-88248000D01*
X173964000Y-88247000D01*
X173962000Y-88247000D01*
X173961000Y-88246000D01*
X173960000Y-88245000D01*
X173959000Y-88244000D01*
X173958000Y-88244000D01*
X173957000Y-88243000D01*
X173956000Y-88242000D01*
X173956000Y-88241000D01*
X173955000Y-88240000D01*
X173954000Y-88239000D01*
X173953000Y-88238000D01*
X173953000Y-88236000D01*
X173952000Y-88235000D01*
X173952000Y-88234000D01*
X173951000Y-88233000D01*
X173951000Y-88231000D01*
X173951000Y-88230000D01*
X173950000Y-88229000D01*
X173950000Y-88228000D01*
X173950000Y-88226000D01*
X173950000Y-88225000D01*
X173950000Y-87625000D01*
X173950000Y-87624000D01*
X173950000Y-87622000D01*
X173950000Y-87621000D01*
X173951000Y-87620000D01*
X173951000Y-87619000D01*
X173951000Y-87617000D01*
X173952000Y-87616000D01*
X173952000Y-87615000D01*
X173953000Y-87614000D01*
X173953000Y-87613000D01*
X173954000Y-87611000D01*
X173955000Y-87610000D01*
X173956000Y-87609000D01*
X173956000Y-87608000D01*
X173957000Y-87607000D01*
X173958000Y-87606000D01*
X173959000Y-87606000D01*
X173960000Y-87605000D01*
X173961000Y-87604000D01*
X173962000Y-87603000D01*
X173964000Y-87603000D01*
X173965000Y-87602000D01*
X173966000Y-87602000D01*
X173967000Y-87601000D01*
X173969000Y-87601000D01*
X173970000Y-87601000D01*
X173971000Y-87600000D01*
X173972000Y-87600000D01*
X173974000Y-87600000D01*
X173975000Y-87600000D01*
X174275000Y-87600000D01*
X174276000Y-87600000D01*
X174278000Y-87600000D01*
X174279000Y-87600000D01*
X174280000Y-87601000D01*
G37*
X175280000Y-86251000D02*
X175281000Y-86251000D01*
X175283000Y-86251000D01*
X175284000Y-86252000D01*
X175285000Y-86252000D01*
X175286000Y-86253000D01*
X175288000Y-86253000D01*
X175289000Y-86254000D01*
X175290000Y-86255000D01*
X175291000Y-86256000D01*
X175292000Y-86256000D01*
X175293000Y-86257000D01*
X175294000Y-86258000D01*
X175294000Y-86259000D01*
X175295000Y-86260000D01*
X175296000Y-86261000D01*
X175297000Y-86263000D01*
X175297000Y-86264000D01*
X175298000Y-86265000D01*
X175298000Y-86266000D01*
X175299000Y-86267000D01*
X175299000Y-86269000D01*
X175299000Y-86270000D01*
X175300000Y-86271000D01*
X175300000Y-86272000D01*
X175300000Y-86274000D01*
X175300000Y-86275000D01*
X175300000Y-86725000D01*
X175300000Y-86726000D01*
X175300000Y-86728000D01*
X175300000Y-86729000D01*
X175299000Y-86730000D01*
X175299000Y-86731000D01*
X175299000Y-86733000D01*
X175298000Y-86734000D01*
X175298000Y-86735000D01*
X175297000Y-86736000D01*
X175297000Y-86737000D01*
X175296000Y-86739000D01*
X175295000Y-86740000D01*
X175294000Y-86741000D01*
X175294000Y-86742000D01*
X175293000Y-86743000D01*
X175292000Y-86744000D01*
X175291000Y-86744000D01*
X175290000Y-86745000D01*
X175289000Y-86746000D01*
X175288000Y-86747000D01*
X175286000Y-86747000D01*
X175285000Y-86748000D01*
X175284000Y-86748000D01*
X175283000Y-86749000D01*
X175281000Y-86749000D01*
X175280000Y-86749000D01*
X175279000Y-86750000D01*
X175278000Y-86750000D01*
X175276000Y-86750000D01*
X175275000Y-86750000D01*
X174225000Y-86750000D01*
X174224000Y-86750000D01*
X174222000Y-86750000D01*
X174221000Y-86750000D01*
X174220000Y-86749000D01*
X174219000Y-86749000D01*
X174217000Y-86749000D01*
X174216000Y-86748000D01*
X174215000Y-86748000D01*
X174214000Y-86747000D01*
X174213000Y-86747000D01*
X174211000Y-86746000D01*
X174210000Y-86745000D01*
X174209000Y-86744000D01*
X174208000Y-86744000D01*
X174207000Y-86743000D01*
X174206000Y-86742000D01*
X174206000Y-86741000D01*
X174205000Y-86740000D01*
X174204000Y-86739000D01*
X174203000Y-86737000D01*
X174203000Y-86736000D01*
X174202000Y-86735000D01*
X174202000Y-86734000D01*
X174201000Y-86733000D01*
X174201000Y-86731000D01*
X174201000Y-86730000D01*
X174200000Y-86729000D01*
X174200000Y-86728000D01*
X174200000Y-86726000D01*
X174200000Y-86725000D01*
X174200000Y-86275000D01*
X174200000Y-86274000D01*
X174200000Y-86272000D01*
X174200000Y-86271000D01*
X174201000Y-86270000D01*
X174201000Y-86269000D01*
X174201000Y-86267000D01*
X174202000Y-86266000D01*
X174202000Y-86265000D01*
X174203000Y-86264000D01*
X174203000Y-86263000D01*
X174204000Y-86261000D01*
X174205000Y-86260000D01*
X174206000Y-86259000D01*
X174206000Y-86258000D01*
X174207000Y-86257000D01*
X174208000Y-86256000D01*
X174209000Y-86256000D01*
X174210000Y-86255000D01*
X174211000Y-86254000D01*
X174213000Y-86253000D01*
X174214000Y-86253000D01*
X174215000Y-86252000D01*
X174216000Y-86252000D01*
X174217000Y-86251000D01*
X174219000Y-86251000D01*
X174220000Y-86251000D01*
X174221000Y-86250000D01*
X174222000Y-86250000D01*
X174224000Y-86250000D01*
X174225000Y-86250000D01*
X175275000Y-86250000D01*
X175276000Y-86250000D01*
X175278000Y-86250000D01*
X175279000Y-86250000D01*
X175280000Y-86251000D01*
G36*
X175280000Y-86251000D02*
G01*
X175281000Y-86251000D01*
X175283000Y-86251000D01*
X175284000Y-86252000D01*
X175285000Y-86252000D01*
X175286000Y-86253000D01*
X175288000Y-86253000D01*
X175289000Y-86254000D01*
X175290000Y-86255000D01*
X175291000Y-86256000D01*
X175292000Y-86256000D01*
X175293000Y-86257000D01*
X175294000Y-86258000D01*
X175294000Y-86259000D01*
X175295000Y-86260000D01*
X175296000Y-86261000D01*
X175297000Y-86263000D01*
X175297000Y-86264000D01*
X175298000Y-86265000D01*
X175298000Y-86266000D01*
X175299000Y-86267000D01*
X175299000Y-86269000D01*
X175299000Y-86270000D01*
X175300000Y-86271000D01*
X175300000Y-86272000D01*
X175300000Y-86274000D01*
X175300000Y-86275000D01*
X175300000Y-86725000D01*
X175300000Y-86726000D01*
X175300000Y-86728000D01*
X175300000Y-86729000D01*
X175299000Y-86730000D01*
X175299000Y-86731000D01*
X175299000Y-86733000D01*
X175298000Y-86734000D01*
X175298000Y-86735000D01*
X175297000Y-86736000D01*
X175297000Y-86737000D01*
X175296000Y-86739000D01*
X175295000Y-86740000D01*
X175294000Y-86741000D01*
X175294000Y-86742000D01*
X175293000Y-86743000D01*
X175292000Y-86744000D01*
X175291000Y-86744000D01*
X175290000Y-86745000D01*
X175289000Y-86746000D01*
X175288000Y-86747000D01*
X175286000Y-86747000D01*
X175285000Y-86748000D01*
X175284000Y-86748000D01*
X175283000Y-86749000D01*
X175281000Y-86749000D01*
X175280000Y-86749000D01*
X175279000Y-86750000D01*
X175278000Y-86750000D01*
X175276000Y-86750000D01*
X175275000Y-86750000D01*
X174225000Y-86750000D01*
X174224000Y-86750000D01*
X174222000Y-86750000D01*
X174221000Y-86750000D01*
X174220000Y-86749000D01*
X174219000Y-86749000D01*
X174217000Y-86749000D01*
X174216000Y-86748000D01*
X174215000Y-86748000D01*
X174214000Y-86747000D01*
X174213000Y-86747000D01*
X174211000Y-86746000D01*
X174210000Y-86745000D01*
X174209000Y-86744000D01*
X174208000Y-86744000D01*
X174207000Y-86743000D01*
X174206000Y-86742000D01*
X174206000Y-86741000D01*
X174205000Y-86740000D01*
X174204000Y-86739000D01*
X174203000Y-86737000D01*
X174203000Y-86736000D01*
X174202000Y-86735000D01*
X174202000Y-86734000D01*
X174201000Y-86733000D01*
X174201000Y-86731000D01*
X174201000Y-86730000D01*
X174200000Y-86729000D01*
X174200000Y-86728000D01*
X174200000Y-86726000D01*
X174200000Y-86725000D01*
X174200000Y-86275000D01*
X174200000Y-86274000D01*
X174200000Y-86272000D01*
X174200000Y-86271000D01*
X174201000Y-86270000D01*
X174201000Y-86269000D01*
X174201000Y-86267000D01*
X174202000Y-86266000D01*
X174202000Y-86265000D01*
X174203000Y-86264000D01*
X174203000Y-86263000D01*
X174204000Y-86261000D01*
X174205000Y-86260000D01*
X174206000Y-86259000D01*
X174206000Y-86258000D01*
X174207000Y-86257000D01*
X174208000Y-86256000D01*
X174209000Y-86256000D01*
X174210000Y-86255000D01*
X174211000Y-86254000D01*
X174213000Y-86253000D01*
X174214000Y-86253000D01*
X174215000Y-86252000D01*
X174216000Y-86252000D01*
X174217000Y-86251000D01*
X174219000Y-86251000D01*
X174220000Y-86251000D01*
X174221000Y-86250000D01*
X174222000Y-86250000D01*
X174224000Y-86250000D01*
X174225000Y-86250000D01*
X175275000Y-86250000D01*
X175276000Y-86250000D01*
X175278000Y-86250000D01*
X175279000Y-86250000D01*
X175280000Y-86251000D01*
G37*
X173780000Y-87576000D02*
X173781000Y-87576000D01*
X173783000Y-87576000D01*
X173784000Y-87577000D01*
X173785000Y-87577000D01*
X173786000Y-87578000D01*
X173788000Y-87578000D01*
X173789000Y-87579000D01*
X173790000Y-87580000D01*
X173791000Y-87581000D01*
X173792000Y-87581000D01*
X173793000Y-87582000D01*
X173794000Y-87583000D01*
X173794000Y-87584000D01*
X173795000Y-87585000D01*
X173796000Y-87586000D01*
X173797000Y-87587000D01*
X173797000Y-87589000D01*
X173798000Y-87590000D01*
X173798000Y-87591000D01*
X173799000Y-87592000D01*
X173799000Y-87594000D01*
X173799000Y-87595000D01*
X173800000Y-87596000D01*
X173800000Y-87597000D01*
X173800000Y-87599000D01*
X173800000Y-87600000D01*
X173800000Y-88225000D01*
X173800000Y-88226000D01*
X173800000Y-88228000D01*
X173800000Y-88229000D01*
X173799000Y-88230000D01*
X173799000Y-88231000D01*
X173799000Y-88233000D01*
X173798000Y-88234000D01*
X173798000Y-88235000D01*
X173797000Y-88236000D01*
X173797000Y-88238000D01*
X173796000Y-88239000D01*
X173795000Y-88240000D01*
X173794000Y-88241000D01*
X173794000Y-88242000D01*
X173793000Y-88243000D01*
X173792000Y-88244000D01*
X173791000Y-88244000D01*
X173790000Y-88245000D01*
X173789000Y-88246000D01*
X173788000Y-88247000D01*
X173786000Y-88247000D01*
X173785000Y-88248000D01*
X173784000Y-88248000D01*
X173783000Y-88249000D01*
X173781000Y-88249000D01*
X173780000Y-88249000D01*
X173779000Y-88250000D01*
X173778000Y-88250000D01*
X173776000Y-88250000D01*
X173775000Y-88250000D01*
X173475000Y-88250000D01*
X173474000Y-88250000D01*
X173472000Y-88250000D01*
X173471000Y-88250000D01*
X173470000Y-88249000D01*
X173469000Y-88249000D01*
X173467000Y-88249000D01*
X173466000Y-88248000D01*
X173465000Y-88248000D01*
X173464000Y-88247000D01*
X173462000Y-88247000D01*
X173461000Y-88246000D01*
X173460000Y-88245000D01*
X173459000Y-88244000D01*
X173458000Y-88244000D01*
X173457000Y-88243000D01*
X173456000Y-88242000D01*
X173456000Y-88241000D01*
X173455000Y-88240000D01*
X173454000Y-88239000D01*
X173453000Y-88237000D01*
X173453000Y-88236000D01*
X173452000Y-88235000D01*
X173452000Y-88234000D01*
X173451000Y-88233000D01*
X173451000Y-88231000D01*
X173451000Y-88230000D01*
X173450000Y-88229000D01*
X173450000Y-88228000D01*
X173450000Y-88226000D01*
X173450000Y-88225000D01*
X173450000Y-87925000D01*
X173450000Y-87924000D01*
X173450000Y-87922000D01*
X173450000Y-87921000D01*
X173449000Y-87920000D01*
X173449000Y-87919000D01*
X173449000Y-87917000D01*
X173448000Y-87916000D01*
X173448000Y-87915000D01*
X173447000Y-87914000D01*
X173447000Y-87913000D01*
X173446000Y-87911000D01*
X173445000Y-87910000D01*
X173444000Y-87909000D01*
X173444000Y-87908000D01*
X173443000Y-87907000D01*
X173442000Y-87906000D01*
X173441000Y-87906000D01*
X173440000Y-87905000D01*
X173439000Y-87904000D01*
X173437000Y-87903000D01*
X173436000Y-87903000D01*
X173435000Y-87902000D01*
X173434000Y-87902000D01*
X173433000Y-87901000D01*
X173431000Y-87901000D01*
X173430000Y-87901000D01*
X173429000Y-87900000D01*
X173428000Y-87900000D01*
X173426000Y-87900000D01*
X173425000Y-87900000D01*
X173025000Y-87900000D01*
X173024000Y-87900000D01*
X173022000Y-87900000D01*
X173021000Y-87900000D01*
X173020000Y-87899000D01*
X173019000Y-87899000D01*
X173017000Y-87899000D01*
X173016000Y-87898000D01*
X173015000Y-87898000D01*
X173014000Y-87897000D01*
X173012000Y-87897000D01*
X173011000Y-87896000D01*
X173010000Y-87895000D01*
X173009000Y-87894000D01*
X173008000Y-87894000D01*
X173007000Y-87893000D01*
X173006000Y-87892000D01*
X173006000Y-87891000D01*
X173005000Y-87890000D01*
X173004000Y-87889000D01*
X173003000Y-87887000D01*
X173003000Y-87886000D01*
X173002000Y-87885000D01*
X173002000Y-87884000D01*
X173001000Y-87883000D01*
X173001000Y-87881000D01*
X173001000Y-87880000D01*
X173000000Y-87879000D01*
X173000000Y-87878000D01*
X173000000Y-87876000D01*
X173000000Y-87875000D01*
X173000000Y-87600000D01*
X173000000Y-87599000D01*
X173000000Y-87597000D01*
X173000000Y-87596000D01*
X173001000Y-87595000D01*
X173001000Y-87594000D01*
X173001000Y-87592000D01*
X173002000Y-87591000D01*
X173002000Y-87590000D01*
X173003000Y-87589000D01*
X173003000Y-87587000D01*
X173004000Y-87586000D01*
X173005000Y-87585000D01*
X173006000Y-87584000D01*
X173006000Y-87583000D01*
X173007000Y-87582000D01*
X173008000Y-87581000D01*
X173009000Y-87581000D01*
X173010000Y-87580000D01*
X173011000Y-87579000D01*
X173013000Y-87578000D01*
X173014000Y-87578000D01*
X173015000Y-87577000D01*
X173016000Y-87577000D01*
X173017000Y-87576000D01*
X173019000Y-87576000D01*
X173020000Y-87576000D01*
X173021000Y-87575000D01*
X173022000Y-87575000D01*
X173024000Y-87575000D01*
X173025000Y-87575000D01*
X173775000Y-87575000D01*
X173776000Y-87575000D01*
X173778000Y-87575000D01*
X173779000Y-87575000D01*
X173780000Y-87576000D01*
G36*
X173780000Y-87576000D02*
G01*
X173781000Y-87576000D01*
X173783000Y-87576000D01*
X173784000Y-87577000D01*
X173785000Y-87577000D01*
X173786000Y-87578000D01*
X173788000Y-87578000D01*
X173789000Y-87579000D01*
X173790000Y-87580000D01*
X173791000Y-87581000D01*
X173792000Y-87581000D01*
X173793000Y-87582000D01*
X173794000Y-87583000D01*
X173794000Y-87584000D01*
X173795000Y-87585000D01*
X173796000Y-87586000D01*
X173797000Y-87587000D01*
X173797000Y-87589000D01*
X173798000Y-87590000D01*
X173798000Y-87591000D01*
X173799000Y-87592000D01*
X173799000Y-87594000D01*
X173799000Y-87595000D01*
X173800000Y-87596000D01*
X173800000Y-87597000D01*
X173800000Y-87599000D01*
X173800000Y-87600000D01*
X173800000Y-88225000D01*
X173800000Y-88226000D01*
X173800000Y-88228000D01*
X173800000Y-88229000D01*
X173799000Y-88230000D01*
X173799000Y-88231000D01*
X173799000Y-88233000D01*
X173798000Y-88234000D01*
X173798000Y-88235000D01*
X173797000Y-88236000D01*
X173797000Y-88238000D01*
X173796000Y-88239000D01*
X173795000Y-88240000D01*
X173794000Y-88241000D01*
X173794000Y-88242000D01*
X173793000Y-88243000D01*
X173792000Y-88244000D01*
X173791000Y-88244000D01*
X173790000Y-88245000D01*
X173789000Y-88246000D01*
X173788000Y-88247000D01*
X173786000Y-88247000D01*
X173785000Y-88248000D01*
X173784000Y-88248000D01*
X173783000Y-88249000D01*
X173781000Y-88249000D01*
X173780000Y-88249000D01*
X173779000Y-88250000D01*
X173778000Y-88250000D01*
X173776000Y-88250000D01*
X173775000Y-88250000D01*
X173475000Y-88250000D01*
X173474000Y-88250000D01*
X173472000Y-88250000D01*
X173471000Y-88250000D01*
X173470000Y-88249000D01*
X173469000Y-88249000D01*
X173467000Y-88249000D01*
X173466000Y-88248000D01*
X173465000Y-88248000D01*
X173464000Y-88247000D01*
X173462000Y-88247000D01*
X173461000Y-88246000D01*
X173460000Y-88245000D01*
X173459000Y-88244000D01*
X173458000Y-88244000D01*
X173457000Y-88243000D01*
X173456000Y-88242000D01*
X173456000Y-88241000D01*
X173455000Y-88240000D01*
X173454000Y-88239000D01*
X173453000Y-88237000D01*
X173453000Y-88236000D01*
X173452000Y-88235000D01*
X173452000Y-88234000D01*
X173451000Y-88233000D01*
X173451000Y-88231000D01*
X173451000Y-88230000D01*
X173450000Y-88229000D01*
X173450000Y-88228000D01*
X173450000Y-88226000D01*
X173450000Y-88225000D01*
X173450000Y-87925000D01*
X173450000Y-87924000D01*
X173450000Y-87922000D01*
X173450000Y-87921000D01*
X173449000Y-87920000D01*
X173449000Y-87919000D01*
X173449000Y-87917000D01*
X173448000Y-87916000D01*
X173448000Y-87915000D01*
X173447000Y-87914000D01*
X173447000Y-87913000D01*
X173446000Y-87911000D01*
X173445000Y-87910000D01*
X173444000Y-87909000D01*
X173444000Y-87908000D01*
X173443000Y-87907000D01*
X173442000Y-87906000D01*
X173441000Y-87906000D01*
X173440000Y-87905000D01*
X173439000Y-87904000D01*
X173437000Y-87903000D01*
X173436000Y-87903000D01*
X173435000Y-87902000D01*
X173434000Y-87902000D01*
X173433000Y-87901000D01*
X173431000Y-87901000D01*
X173430000Y-87901000D01*
X173429000Y-87900000D01*
X173428000Y-87900000D01*
X173426000Y-87900000D01*
X173425000Y-87900000D01*
X173025000Y-87900000D01*
X173024000Y-87900000D01*
X173022000Y-87900000D01*
X173021000Y-87900000D01*
X173020000Y-87899000D01*
X173019000Y-87899000D01*
X173017000Y-87899000D01*
X173016000Y-87898000D01*
X173015000Y-87898000D01*
X173014000Y-87897000D01*
X173012000Y-87897000D01*
X173011000Y-87896000D01*
X173010000Y-87895000D01*
X173009000Y-87894000D01*
X173008000Y-87894000D01*
X173007000Y-87893000D01*
X173006000Y-87892000D01*
X173006000Y-87891000D01*
X173005000Y-87890000D01*
X173004000Y-87889000D01*
X173003000Y-87887000D01*
X173003000Y-87886000D01*
X173002000Y-87885000D01*
X173002000Y-87884000D01*
X173001000Y-87883000D01*
X173001000Y-87881000D01*
X173001000Y-87880000D01*
X173000000Y-87879000D01*
X173000000Y-87878000D01*
X173000000Y-87876000D01*
X173000000Y-87875000D01*
X173000000Y-87600000D01*
X173000000Y-87599000D01*
X173000000Y-87597000D01*
X173000000Y-87596000D01*
X173001000Y-87595000D01*
X173001000Y-87594000D01*
X173001000Y-87592000D01*
X173002000Y-87591000D01*
X173002000Y-87590000D01*
X173003000Y-87589000D01*
X173003000Y-87587000D01*
X173004000Y-87586000D01*
X173005000Y-87585000D01*
X173006000Y-87584000D01*
X173006000Y-87583000D01*
X173007000Y-87582000D01*
X173008000Y-87581000D01*
X173009000Y-87581000D01*
X173010000Y-87580000D01*
X173011000Y-87579000D01*
X173013000Y-87578000D01*
X173014000Y-87578000D01*
X173015000Y-87577000D01*
X173016000Y-87577000D01*
X173017000Y-87576000D01*
X173019000Y-87576000D01*
X173020000Y-87576000D01*
X173021000Y-87575000D01*
X173022000Y-87575000D01*
X173024000Y-87575000D01*
X173025000Y-87575000D01*
X173775000Y-87575000D01*
X173776000Y-87575000D01*
X173778000Y-87575000D01*
X173779000Y-87575000D01*
X173780000Y-87576000D01*
G37*
X173780000Y-84751000D02*
X173781000Y-84751000D01*
X173783000Y-84751000D01*
X173784000Y-84752000D01*
X173785000Y-84752000D01*
X173786000Y-84753000D01*
X173788000Y-84753000D01*
X173789000Y-84754000D01*
X173790000Y-84755000D01*
X173791000Y-84756000D01*
X173792000Y-84756000D01*
X173793000Y-84757000D01*
X173794000Y-84758000D01*
X173794000Y-84759000D01*
X173795000Y-84760000D01*
X173796000Y-84761000D01*
X173797000Y-84762000D01*
X173797000Y-84764000D01*
X173798000Y-84765000D01*
X173798000Y-84766000D01*
X173799000Y-84767000D01*
X173799000Y-84769000D01*
X173799000Y-84770000D01*
X173800000Y-84771000D01*
X173800000Y-84772000D01*
X173800000Y-84774000D01*
X173800000Y-84775000D01*
X173800000Y-85400000D01*
X173800000Y-85401000D01*
X173800000Y-85403000D01*
X173800000Y-85404000D01*
X173799000Y-85405000D01*
X173799000Y-85406000D01*
X173799000Y-85408000D01*
X173798000Y-85409000D01*
X173798000Y-85410000D01*
X173797000Y-85411000D01*
X173797000Y-85413000D01*
X173796000Y-85414000D01*
X173795000Y-85415000D01*
X173794000Y-85416000D01*
X173794000Y-85417000D01*
X173793000Y-85418000D01*
X173792000Y-85419000D01*
X173791000Y-85419000D01*
X173790000Y-85420000D01*
X173789000Y-85421000D01*
X173788000Y-85422000D01*
X173786000Y-85422000D01*
X173785000Y-85423000D01*
X173784000Y-85423000D01*
X173783000Y-85424000D01*
X173781000Y-85424000D01*
X173780000Y-85424000D01*
X173779000Y-85425000D01*
X173778000Y-85425000D01*
X173776000Y-85425000D01*
X173775000Y-85425000D01*
X173025000Y-85425000D01*
X173024000Y-85425000D01*
X173022000Y-85425000D01*
X173021000Y-85425000D01*
X173020000Y-85424000D01*
X173019000Y-85424000D01*
X173017000Y-85424000D01*
X173016000Y-85423000D01*
X173015000Y-85423000D01*
X173014000Y-85422000D01*
X173013000Y-85422000D01*
X173011000Y-85421000D01*
X173010000Y-85420000D01*
X173009000Y-85419000D01*
X173008000Y-85419000D01*
X173007000Y-85418000D01*
X173006000Y-85417000D01*
X173006000Y-85416000D01*
X173005000Y-85415000D01*
X173004000Y-85414000D01*
X173003000Y-85413000D01*
X173003000Y-85411000D01*
X173002000Y-85410000D01*
X173002000Y-85409000D01*
X173001000Y-85408000D01*
X173001000Y-85406000D01*
X173001000Y-85405000D01*
X173000000Y-85404000D01*
X173000000Y-85403000D01*
X173000000Y-85401000D01*
X173000000Y-85400000D01*
X173000000Y-85125000D01*
X173000000Y-85124000D01*
X173000000Y-85122000D01*
X173000000Y-85121000D01*
X173001000Y-85120000D01*
X173001000Y-85119000D01*
X173001000Y-85117000D01*
X173002000Y-85116000D01*
X173002000Y-85115000D01*
X173003000Y-85114000D01*
X173003000Y-85113000D01*
X173004000Y-85111000D01*
X173005000Y-85110000D01*
X173006000Y-85109000D01*
X173006000Y-85108000D01*
X173007000Y-85107000D01*
X173008000Y-85106000D01*
X173009000Y-85106000D01*
X173010000Y-85105000D01*
X173011000Y-85104000D01*
X173012000Y-85103000D01*
X173014000Y-85103000D01*
X173015000Y-85102000D01*
X173016000Y-85102000D01*
X173017000Y-85101000D01*
X173019000Y-85101000D01*
X173020000Y-85101000D01*
X173021000Y-85100000D01*
X173022000Y-85100000D01*
X173024000Y-85100000D01*
X173025000Y-85100000D01*
X173425000Y-85100000D01*
X173426000Y-85100000D01*
X173428000Y-85100000D01*
X173429000Y-85100000D01*
X173430000Y-85099000D01*
X173431000Y-85099000D01*
X173433000Y-85099000D01*
X173434000Y-85098000D01*
X173435000Y-85098000D01*
X173436000Y-85097000D01*
X173437000Y-85097000D01*
X173439000Y-85096000D01*
X173440000Y-85095000D01*
X173441000Y-85094000D01*
X173442000Y-85094000D01*
X173443000Y-85093000D01*
X173444000Y-85092000D01*
X173444000Y-85091000D01*
X173445000Y-85090000D01*
X173446000Y-85089000D01*
X173447000Y-85087000D01*
X173447000Y-85086000D01*
X173448000Y-85085000D01*
X173448000Y-85084000D01*
X173449000Y-85083000D01*
X173449000Y-85081000D01*
X173449000Y-85080000D01*
X173450000Y-85079000D01*
X173450000Y-85078000D01*
X173450000Y-85076000D01*
X173450000Y-85075000D01*
X173450000Y-84775000D01*
X173450000Y-84774000D01*
X173450000Y-84772000D01*
X173450000Y-84771000D01*
X173451000Y-84770000D01*
X173451000Y-84769000D01*
X173451000Y-84767000D01*
X173452000Y-84766000D01*
X173452000Y-84765000D01*
X173453000Y-84764000D01*
X173453000Y-84763000D01*
X173454000Y-84761000D01*
X173455000Y-84760000D01*
X173456000Y-84759000D01*
X173456000Y-84758000D01*
X173457000Y-84757000D01*
X173458000Y-84756000D01*
X173459000Y-84756000D01*
X173460000Y-84755000D01*
X173461000Y-84754000D01*
X173462000Y-84753000D01*
X173464000Y-84753000D01*
X173465000Y-84752000D01*
X173466000Y-84752000D01*
X173467000Y-84751000D01*
X173469000Y-84751000D01*
X173470000Y-84751000D01*
X173471000Y-84750000D01*
X173472000Y-84750000D01*
X173474000Y-84750000D01*
X173475000Y-84750000D01*
X173775000Y-84750000D01*
X173776000Y-84750000D01*
X173778000Y-84750000D01*
X173779000Y-84750000D01*
X173780000Y-84751000D01*
G36*
X173780000Y-84751000D02*
G01*
X173781000Y-84751000D01*
X173783000Y-84751000D01*
X173784000Y-84752000D01*
X173785000Y-84752000D01*
X173786000Y-84753000D01*
X173788000Y-84753000D01*
X173789000Y-84754000D01*
X173790000Y-84755000D01*
X173791000Y-84756000D01*
X173792000Y-84756000D01*
X173793000Y-84757000D01*
X173794000Y-84758000D01*
X173794000Y-84759000D01*
X173795000Y-84760000D01*
X173796000Y-84761000D01*
X173797000Y-84762000D01*
X173797000Y-84764000D01*
X173798000Y-84765000D01*
X173798000Y-84766000D01*
X173799000Y-84767000D01*
X173799000Y-84769000D01*
X173799000Y-84770000D01*
X173800000Y-84771000D01*
X173800000Y-84772000D01*
X173800000Y-84774000D01*
X173800000Y-84775000D01*
X173800000Y-85400000D01*
X173800000Y-85401000D01*
X173800000Y-85403000D01*
X173800000Y-85404000D01*
X173799000Y-85405000D01*
X173799000Y-85406000D01*
X173799000Y-85408000D01*
X173798000Y-85409000D01*
X173798000Y-85410000D01*
X173797000Y-85411000D01*
X173797000Y-85413000D01*
X173796000Y-85414000D01*
X173795000Y-85415000D01*
X173794000Y-85416000D01*
X173794000Y-85417000D01*
X173793000Y-85418000D01*
X173792000Y-85419000D01*
X173791000Y-85419000D01*
X173790000Y-85420000D01*
X173789000Y-85421000D01*
X173788000Y-85422000D01*
X173786000Y-85422000D01*
X173785000Y-85423000D01*
X173784000Y-85423000D01*
X173783000Y-85424000D01*
X173781000Y-85424000D01*
X173780000Y-85424000D01*
X173779000Y-85425000D01*
X173778000Y-85425000D01*
X173776000Y-85425000D01*
X173775000Y-85425000D01*
X173025000Y-85425000D01*
X173024000Y-85425000D01*
X173022000Y-85425000D01*
X173021000Y-85425000D01*
X173020000Y-85424000D01*
X173019000Y-85424000D01*
X173017000Y-85424000D01*
X173016000Y-85423000D01*
X173015000Y-85423000D01*
X173014000Y-85422000D01*
X173013000Y-85422000D01*
X173011000Y-85421000D01*
X173010000Y-85420000D01*
X173009000Y-85419000D01*
X173008000Y-85419000D01*
X173007000Y-85418000D01*
X173006000Y-85417000D01*
X173006000Y-85416000D01*
X173005000Y-85415000D01*
X173004000Y-85414000D01*
X173003000Y-85413000D01*
X173003000Y-85411000D01*
X173002000Y-85410000D01*
X173002000Y-85409000D01*
X173001000Y-85408000D01*
X173001000Y-85406000D01*
X173001000Y-85405000D01*
X173000000Y-85404000D01*
X173000000Y-85403000D01*
X173000000Y-85401000D01*
X173000000Y-85400000D01*
X173000000Y-85125000D01*
X173000000Y-85124000D01*
X173000000Y-85122000D01*
X173000000Y-85121000D01*
X173001000Y-85120000D01*
X173001000Y-85119000D01*
X173001000Y-85117000D01*
X173002000Y-85116000D01*
X173002000Y-85115000D01*
X173003000Y-85114000D01*
X173003000Y-85113000D01*
X173004000Y-85111000D01*
X173005000Y-85110000D01*
X173006000Y-85109000D01*
X173006000Y-85108000D01*
X173007000Y-85107000D01*
X173008000Y-85106000D01*
X173009000Y-85106000D01*
X173010000Y-85105000D01*
X173011000Y-85104000D01*
X173012000Y-85103000D01*
X173014000Y-85103000D01*
X173015000Y-85102000D01*
X173016000Y-85102000D01*
X173017000Y-85101000D01*
X173019000Y-85101000D01*
X173020000Y-85101000D01*
X173021000Y-85100000D01*
X173022000Y-85100000D01*
X173024000Y-85100000D01*
X173025000Y-85100000D01*
X173425000Y-85100000D01*
X173426000Y-85100000D01*
X173428000Y-85100000D01*
X173429000Y-85100000D01*
X173430000Y-85099000D01*
X173431000Y-85099000D01*
X173433000Y-85099000D01*
X173434000Y-85098000D01*
X173435000Y-85098000D01*
X173436000Y-85097000D01*
X173437000Y-85097000D01*
X173439000Y-85096000D01*
X173440000Y-85095000D01*
X173441000Y-85094000D01*
X173442000Y-85094000D01*
X173443000Y-85093000D01*
X173444000Y-85092000D01*
X173444000Y-85091000D01*
X173445000Y-85090000D01*
X173446000Y-85089000D01*
X173447000Y-85087000D01*
X173447000Y-85086000D01*
X173448000Y-85085000D01*
X173448000Y-85084000D01*
X173449000Y-85083000D01*
X173449000Y-85081000D01*
X173449000Y-85080000D01*
X173450000Y-85079000D01*
X173450000Y-85078000D01*
X173450000Y-85076000D01*
X173450000Y-85075000D01*
X173450000Y-84775000D01*
X173450000Y-84774000D01*
X173450000Y-84772000D01*
X173450000Y-84771000D01*
X173451000Y-84770000D01*
X173451000Y-84769000D01*
X173451000Y-84767000D01*
X173452000Y-84766000D01*
X173452000Y-84765000D01*
X173453000Y-84764000D01*
X173453000Y-84763000D01*
X173454000Y-84761000D01*
X173455000Y-84760000D01*
X173456000Y-84759000D01*
X173456000Y-84758000D01*
X173457000Y-84757000D01*
X173458000Y-84756000D01*
X173459000Y-84756000D01*
X173460000Y-84755000D01*
X173461000Y-84754000D01*
X173462000Y-84753000D01*
X173464000Y-84753000D01*
X173465000Y-84752000D01*
X173466000Y-84752000D01*
X173467000Y-84751000D01*
X173469000Y-84751000D01*
X173470000Y-84751000D01*
X173471000Y-84750000D01*
X173472000Y-84750000D01*
X173474000Y-84750000D01*
X173475000Y-84750000D01*
X173775000Y-84750000D01*
X173776000Y-84750000D01*
X173778000Y-84750000D01*
X173779000Y-84750000D01*
X173780000Y-84751000D01*
G37*
X175980000Y-86901000D02*
X175981000Y-86901000D01*
X175983000Y-86901000D01*
X175984000Y-86902000D01*
X175985000Y-86902000D01*
X175986000Y-86903000D01*
X175988000Y-86903000D01*
X175989000Y-86904000D01*
X175990000Y-86905000D01*
X175991000Y-86906000D01*
X175992000Y-86906000D01*
X175993000Y-86907000D01*
X175994000Y-86908000D01*
X175994000Y-86909000D01*
X175995000Y-86910000D01*
X175996000Y-86911000D01*
X175997000Y-86912000D01*
X175997000Y-86914000D01*
X175998000Y-86915000D01*
X175998000Y-86916000D01*
X175999000Y-86917000D01*
X175999000Y-86919000D01*
X175999000Y-86920000D01*
X176000000Y-86921000D01*
X176000000Y-86922000D01*
X176000000Y-86924000D01*
X176000000Y-86925000D01*
X176000000Y-87375000D01*
X176000000Y-87376000D01*
X176000000Y-87378000D01*
X176000000Y-87379000D01*
X175999000Y-87380000D01*
X175999000Y-87381000D01*
X175999000Y-87383000D01*
X175998000Y-87384000D01*
X175998000Y-87385000D01*
X175997000Y-87386000D01*
X175997000Y-87387000D01*
X175996000Y-87389000D01*
X175995000Y-87390000D01*
X175994000Y-87391000D01*
X175994000Y-87392000D01*
X175993000Y-87393000D01*
X175992000Y-87394000D01*
X175991000Y-87394000D01*
X175990000Y-87395000D01*
X175989000Y-87396000D01*
X175988000Y-87397000D01*
X175986000Y-87397000D01*
X175985000Y-87398000D01*
X175984000Y-87398000D01*
X175983000Y-87399000D01*
X175981000Y-87399000D01*
X175980000Y-87399000D01*
X175979000Y-87400000D01*
X175978000Y-87400000D01*
X175976000Y-87400000D01*
X175975000Y-87400000D01*
X174975000Y-87400000D01*
X174974000Y-87400000D01*
X174972000Y-87400000D01*
X174971000Y-87400000D01*
X174970000Y-87401000D01*
X174969000Y-87401000D01*
X174967000Y-87401000D01*
X174966000Y-87402000D01*
X174965000Y-87402000D01*
X174964000Y-87403000D01*
X174963000Y-87403000D01*
X174961000Y-87404000D01*
X174960000Y-87405000D01*
X174959000Y-87406000D01*
X174958000Y-87406000D01*
X174957000Y-87407000D01*
X174956000Y-87408000D01*
X174956000Y-87409000D01*
X174955000Y-87410000D01*
X174954000Y-87411000D01*
X174953000Y-87413000D01*
X174953000Y-87414000D01*
X174952000Y-87415000D01*
X174952000Y-87416000D01*
X174951000Y-87417000D01*
X174951000Y-87419000D01*
X174951000Y-87420000D01*
X174950000Y-87421000D01*
X174950000Y-87422000D01*
X174950000Y-87424000D01*
X174950000Y-87425000D01*
X174950000Y-88225000D01*
X174950000Y-88226000D01*
X174950000Y-88228000D01*
X174950000Y-88229000D01*
X174949000Y-88230000D01*
X174949000Y-88231000D01*
X174949000Y-88233000D01*
X174948000Y-88234000D01*
X174948000Y-88235000D01*
X174947000Y-88236000D01*
X174947000Y-88238000D01*
X174946000Y-88239000D01*
X174945000Y-88240000D01*
X174944000Y-88241000D01*
X174944000Y-88242000D01*
X174943000Y-88243000D01*
X174942000Y-88244000D01*
X174941000Y-88244000D01*
X174940000Y-88245000D01*
X174939000Y-88246000D01*
X174938000Y-88247000D01*
X174936000Y-88247000D01*
X174935000Y-88248000D01*
X174934000Y-88248000D01*
X174933000Y-88249000D01*
X174931000Y-88249000D01*
X174930000Y-88249000D01*
X174929000Y-88250000D01*
X174928000Y-88250000D01*
X174926000Y-88250000D01*
X174925000Y-88250000D01*
X174475000Y-88250000D01*
X174474000Y-88250000D01*
X174472000Y-88250000D01*
X174471000Y-88250000D01*
X174470000Y-88249000D01*
X174469000Y-88249000D01*
X174467000Y-88249000D01*
X174466000Y-88248000D01*
X174465000Y-88248000D01*
X174464000Y-88247000D01*
X174462000Y-88247000D01*
X174461000Y-88246000D01*
X174460000Y-88245000D01*
X174459000Y-88244000D01*
X174458000Y-88244000D01*
X174457000Y-88243000D01*
X174456000Y-88242000D01*
X174456000Y-88241000D01*
X174455000Y-88240000D01*
X174454000Y-88239000D01*
X174453000Y-88238000D01*
X174453000Y-88236000D01*
X174452000Y-88235000D01*
X174452000Y-88234000D01*
X174451000Y-88233000D01*
X174451000Y-88231000D01*
X174451000Y-88230000D01*
X174450000Y-88229000D01*
X174450000Y-88228000D01*
X174450000Y-88226000D01*
X174450000Y-88225000D01*
X174450000Y-86925000D01*
X174450000Y-86924000D01*
X174450000Y-86922000D01*
X174450000Y-86921000D01*
X174451000Y-86920000D01*
X174451000Y-86919000D01*
X174451000Y-86917000D01*
X174452000Y-86916000D01*
X174452000Y-86915000D01*
X174453000Y-86914000D01*
X174453000Y-86912000D01*
X174454000Y-86911000D01*
X174455000Y-86910000D01*
X174456000Y-86909000D01*
X174456000Y-86908000D01*
X174457000Y-86907000D01*
X174458000Y-86906000D01*
X174459000Y-86906000D01*
X174460000Y-86905000D01*
X174461000Y-86904000D01*
X174462000Y-86903000D01*
X174464000Y-86903000D01*
X174465000Y-86902000D01*
X174466000Y-86902000D01*
X174467000Y-86901000D01*
X174469000Y-86901000D01*
X174470000Y-86901000D01*
X174471000Y-86900000D01*
X174472000Y-86900000D01*
X174474000Y-86900000D01*
X174475000Y-86900000D01*
X175975000Y-86900000D01*
X175976000Y-86900000D01*
X175978000Y-86900000D01*
X175979000Y-86900000D01*
X175980000Y-86901000D01*
G36*
X175980000Y-86901000D02*
G01*
X175981000Y-86901000D01*
X175983000Y-86901000D01*
X175984000Y-86902000D01*
X175985000Y-86902000D01*
X175986000Y-86903000D01*
X175988000Y-86903000D01*
X175989000Y-86904000D01*
X175990000Y-86905000D01*
X175991000Y-86906000D01*
X175992000Y-86906000D01*
X175993000Y-86907000D01*
X175994000Y-86908000D01*
X175994000Y-86909000D01*
X175995000Y-86910000D01*
X175996000Y-86911000D01*
X175997000Y-86912000D01*
X175997000Y-86914000D01*
X175998000Y-86915000D01*
X175998000Y-86916000D01*
X175999000Y-86917000D01*
X175999000Y-86919000D01*
X175999000Y-86920000D01*
X176000000Y-86921000D01*
X176000000Y-86922000D01*
X176000000Y-86924000D01*
X176000000Y-86925000D01*
X176000000Y-87375000D01*
X176000000Y-87376000D01*
X176000000Y-87378000D01*
X176000000Y-87379000D01*
X175999000Y-87380000D01*
X175999000Y-87381000D01*
X175999000Y-87383000D01*
X175998000Y-87384000D01*
X175998000Y-87385000D01*
X175997000Y-87386000D01*
X175997000Y-87387000D01*
X175996000Y-87389000D01*
X175995000Y-87390000D01*
X175994000Y-87391000D01*
X175994000Y-87392000D01*
X175993000Y-87393000D01*
X175992000Y-87394000D01*
X175991000Y-87394000D01*
X175990000Y-87395000D01*
X175989000Y-87396000D01*
X175988000Y-87397000D01*
X175986000Y-87397000D01*
X175985000Y-87398000D01*
X175984000Y-87398000D01*
X175983000Y-87399000D01*
X175981000Y-87399000D01*
X175980000Y-87399000D01*
X175979000Y-87400000D01*
X175978000Y-87400000D01*
X175976000Y-87400000D01*
X175975000Y-87400000D01*
X174975000Y-87400000D01*
X174974000Y-87400000D01*
X174972000Y-87400000D01*
X174971000Y-87400000D01*
X174970000Y-87401000D01*
X174969000Y-87401000D01*
X174967000Y-87401000D01*
X174966000Y-87402000D01*
X174965000Y-87402000D01*
X174964000Y-87403000D01*
X174963000Y-87403000D01*
X174961000Y-87404000D01*
X174960000Y-87405000D01*
X174959000Y-87406000D01*
X174958000Y-87406000D01*
X174957000Y-87407000D01*
X174956000Y-87408000D01*
X174956000Y-87409000D01*
X174955000Y-87410000D01*
X174954000Y-87411000D01*
X174953000Y-87413000D01*
X174953000Y-87414000D01*
X174952000Y-87415000D01*
X174952000Y-87416000D01*
X174951000Y-87417000D01*
X174951000Y-87419000D01*
X174951000Y-87420000D01*
X174950000Y-87421000D01*
X174950000Y-87422000D01*
X174950000Y-87424000D01*
X174950000Y-87425000D01*
X174950000Y-88225000D01*
X174950000Y-88226000D01*
X174950000Y-88228000D01*
X174950000Y-88229000D01*
X174949000Y-88230000D01*
X174949000Y-88231000D01*
X174949000Y-88233000D01*
X174948000Y-88234000D01*
X174948000Y-88235000D01*
X174947000Y-88236000D01*
X174947000Y-88238000D01*
X174946000Y-88239000D01*
X174945000Y-88240000D01*
X174944000Y-88241000D01*
X174944000Y-88242000D01*
X174943000Y-88243000D01*
X174942000Y-88244000D01*
X174941000Y-88244000D01*
X174940000Y-88245000D01*
X174939000Y-88246000D01*
X174938000Y-88247000D01*
X174936000Y-88247000D01*
X174935000Y-88248000D01*
X174934000Y-88248000D01*
X174933000Y-88249000D01*
X174931000Y-88249000D01*
X174930000Y-88249000D01*
X174929000Y-88250000D01*
X174928000Y-88250000D01*
X174926000Y-88250000D01*
X174925000Y-88250000D01*
X174475000Y-88250000D01*
X174474000Y-88250000D01*
X174472000Y-88250000D01*
X174471000Y-88250000D01*
X174470000Y-88249000D01*
X174469000Y-88249000D01*
X174467000Y-88249000D01*
X174466000Y-88248000D01*
X174465000Y-88248000D01*
X174464000Y-88247000D01*
X174462000Y-88247000D01*
X174461000Y-88246000D01*
X174460000Y-88245000D01*
X174459000Y-88244000D01*
X174458000Y-88244000D01*
X174457000Y-88243000D01*
X174456000Y-88242000D01*
X174456000Y-88241000D01*
X174455000Y-88240000D01*
X174454000Y-88239000D01*
X174453000Y-88238000D01*
X174453000Y-88236000D01*
X174452000Y-88235000D01*
X174452000Y-88234000D01*
X174451000Y-88233000D01*
X174451000Y-88231000D01*
X174451000Y-88230000D01*
X174450000Y-88229000D01*
X174450000Y-88228000D01*
X174450000Y-88226000D01*
X174450000Y-88225000D01*
X174450000Y-86925000D01*
X174450000Y-86924000D01*
X174450000Y-86922000D01*
X174450000Y-86921000D01*
X174451000Y-86920000D01*
X174451000Y-86919000D01*
X174451000Y-86917000D01*
X174452000Y-86916000D01*
X174452000Y-86915000D01*
X174453000Y-86914000D01*
X174453000Y-86912000D01*
X174454000Y-86911000D01*
X174455000Y-86910000D01*
X174456000Y-86909000D01*
X174456000Y-86908000D01*
X174457000Y-86907000D01*
X174458000Y-86906000D01*
X174459000Y-86906000D01*
X174460000Y-86905000D01*
X174461000Y-86904000D01*
X174462000Y-86903000D01*
X174464000Y-86903000D01*
X174465000Y-86902000D01*
X174466000Y-86902000D01*
X174467000Y-86901000D01*
X174469000Y-86901000D01*
X174470000Y-86901000D01*
X174471000Y-86900000D01*
X174472000Y-86900000D01*
X174474000Y-86900000D01*
X174475000Y-86900000D01*
X175975000Y-86900000D01*
X175976000Y-86900000D01*
X175978000Y-86900000D01*
X175979000Y-86900000D01*
X175980000Y-86901000D01*
G37*
X174930000Y-84751000D02*
X174931000Y-84751000D01*
X174933000Y-84751000D01*
X174934000Y-84752000D01*
X174935000Y-84752000D01*
X174936000Y-84753000D01*
X174938000Y-84753000D01*
X174939000Y-84754000D01*
X174940000Y-84755000D01*
X174941000Y-84756000D01*
X174942000Y-84756000D01*
X174943000Y-84757000D01*
X174944000Y-84758000D01*
X174944000Y-84759000D01*
X174945000Y-84760000D01*
X174946000Y-84761000D01*
X174947000Y-84762000D01*
X174947000Y-84764000D01*
X174948000Y-84765000D01*
X174948000Y-84766000D01*
X174949000Y-84767000D01*
X174949000Y-84769000D01*
X174949000Y-84770000D01*
X174950000Y-84771000D01*
X174950000Y-84772000D01*
X174950000Y-84774000D01*
X174950000Y-84775000D01*
X174950000Y-85575000D01*
X174950000Y-85576000D01*
X174950000Y-85578000D01*
X174950000Y-85579000D01*
X174951000Y-85580000D01*
X174951000Y-85581000D01*
X174951000Y-85583000D01*
X174952000Y-85584000D01*
X174952000Y-85585000D01*
X174953000Y-85586000D01*
X174953000Y-85587000D01*
X174954000Y-85589000D01*
X174955000Y-85590000D01*
X174956000Y-85591000D01*
X174956000Y-85592000D01*
X174957000Y-85593000D01*
X174958000Y-85594000D01*
X174959000Y-85594000D01*
X174960000Y-85595000D01*
X174961000Y-85596000D01*
X174963000Y-85597000D01*
X174964000Y-85597000D01*
X174965000Y-85598000D01*
X174966000Y-85598000D01*
X174967000Y-85599000D01*
X174969000Y-85599000D01*
X174970000Y-85599000D01*
X174971000Y-85600000D01*
X174972000Y-85600000D01*
X174974000Y-85600000D01*
X174975000Y-85600000D01*
X175975000Y-85600000D01*
X175976000Y-85600000D01*
X175978000Y-85600000D01*
X175979000Y-85600000D01*
X175980000Y-85601000D01*
X175981000Y-85601000D01*
X175983000Y-85601000D01*
X175984000Y-85602000D01*
X175985000Y-85602000D01*
X175986000Y-85603000D01*
X175988000Y-85603000D01*
X175989000Y-85604000D01*
X175990000Y-85605000D01*
X175991000Y-85606000D01*
X175992000Y-85606000D01*
X175993000Y-85607000D01*
X175994000Y-85608000D01*
X175994000Y-85609000D01*
X175995000Y-85610000D01*
X175996000Y-85611000D01*
X175997000Y-85613000D01*
X175997000Y-85614000D01*
X175998000Y-85615000D01*
X175998000Y-85616000D01*
X175999000Y-85617000D01*
X175999000Y-85619000D01*
X175999000Y-85620000D01*
X176000000Y-85621000D01*
X176000000Y-85622000D01*
X176000000Y-85624000D01*
X176000000Y-85625000D01*
X176000000Y-86075000D01*
X176000000Y-86076000D01*
X176000000Y-86078000D01*
X176000000Y-86079000D01*
X175999000Y-86080000D01*
X175999000Y-86081000D01*
X175999000Y-86083000D01*
X175998000Y-86084000D01*
X175998000Y-86085000D01*
X175997000Y-86086000D01*
X175997000Y-86088000D01*
X175996000Y-86089000D01*
X175995000Y-86090000D01*
X175994000Y-86091000D01*
X175994000Y-86092000D01*
X175993000Y-86093000D01*
X175992000Y-86094000D01*
X175991000Y-86094000D01*
X175990000Y-86095000D01*
X175989000Y-86096000D01*
X175988000Y-86097000D01*
X175986000Y-86097000D01*
X175985000Y-86098000D01*
X175984000Y-86098000D01*
X175983000Y-86099000D01*
X175981000Y-86099000D01*
X175980000Y-86099000D01*
X175979000Y-86100000D01*
X175978000Y-86100000D01*
X175976000Y-86100000D01*
X175975000Y-86100000D01*
X174475000Y-86100000D01*
X174474000Y-86100000D01*
X174472000Y-86100000D01*
X174471000Y-86100000D01*
X174470000Y-86099000D01*
X174469000Y-86099000D01*
X174467000Y-86099000D01*
X174466000Y-86098000D01*
X174465000Y-86098000D01*
X174464000Y-86097000D01*
X174462000Y-86097000D01*
X174461000Y-86096000D01*
X174460000Y-86095000D01*
X174459000Y-86094000D01*
X174458000Y-86094000D01*
X174457000Y-86093000D01*
X174456000Y-86092000D01*
X174456000Y-86091000D01*
X174455000Y-86090000D01*
X174454000Y-86089000D01*
X174453000Y-86088000D01*
X174453000Y-86086000D01*
X174452000Y-86085000D01*
X174452000Y-86084000D01*
X174451000Y-86083000D01*
X174451000Y-86081000D01*
X174451000Y-86080000D01*
X174450000Y-86079000D01*
X174450000Y-86078000D01*
X174450000Y-86076000D01*
X174450000Y-86075000D01*
X174450000Y-84775000D01*
X174450000Y-84774000D01*
X174450000Y-84772000D01*
X174450000Y-84771000D01*
X174451000Y-84770000D01*
X174451000Y-84769000D01*
X174451000Y-84767000D01*
X174452000Y-84766000D01*
X174452000Y-84765000D01*
X174453000Y-84764000D01*
X174453000Y-84762000D01*
X174454000Y-84761000D01*
X174455000Y-84760000D01*
X174456000Y-84759000D01*
X174456000Y-84758000D01*
X174457000Y-84757000D01*
X174458000Y-84756000D01*
X174459000Y-84756000D01*
X174460000Y-84755000D01*
X174461000Y-84754000D01*
X174462000Y-84753000D01*
X174464000Y-84753000D01*
X174465000Y-84752000D01*
X174466000Y-84752000D01*
X174467000Y-84751000D01*
X174469000Y-84751000D01*
X174470000Y-84751000D01*
X174471000Y-84750000D01*
X174472000Y-84750000D01*
X174474000Y-84750000D01*
X174475000Y-84750000D01*
X174925000Y-84750000D01*
X174926000Y-84750000D01*
X174928000Y-84750000D01*
X174929000Y-84750000D01*
X174930000Y-84751000D01*
G36*
X174930000Y-84751000D02*
G01*
X174931000Y-84751000D01*
X174933000Y-84751000D01*
X174934000Y-84752000D01*
X174935000Y-84752000D01*
X174936000Y-84753000D01*
X174938000Y-84753000D01*
X174939000Y-84754000D01*
X174940000Y-84755000D01*
X174941000Y-84756000D01*
X174942000Y-84756000D01*
X174943000Y-84757000D01*
X174944000Y-84758000D01*
X174944000Y-84759000D01*
X174945000Y-84760000D01*
X174946000Y-84761000D01*
X174947000Y-84762000D01*
X174947000Y-84764000D01*
X174948000Y-84765000D01*
X174948000Y-84766000D01*
X174949000Y-84767000D01*
X174949000Y-84769000D01*
X174949000Y-84770000D01*
X174950000Y-84771000D01*
X174950000Y-84772000D01*
X174950000Y-84774000D01*
X174950000Y-84775000D01*
X174950000Y-85575000D01*
X174950000Y-85576000D01*
X174950000Y-85578000D01*
X174950000Y-85579000D01*
X174951000Y-85580000D01*
X174951000Y-85581000D01*
X174951000Y-85583000D01*
X174952000Y-85584000D01*
X174952000Y-85585000D01*
X174953000Y-85586000D01*
X174953000Y-85587000D01*
X174954000Y-85589000D01*
X174955000Y-85590000D01*
X174956000Y-85591000D01*
X174956000Y-85592000D01*
X174957000Y-85593000D01*
X174958000Y-85594000D01*
X174959000Y-85594000D01*
X174960000Y-85595000D01*
X174961000Y-85596000D01*
X174963000Y-85597000D01*
X174964000Y-85597000D01*
X174965000Y-85598000D01*
X174966000Y-85598000D01*
X174967000Y-85599000D01*
X174969000Y-85599000D01*
X174970000Y-85599000D01*
X174971000Y-85600000D01*
X174972000Y-85600000D01*
X174974000Y-85600000D01*
X174975000Y-85600000D01*
X175975000Y-85600000D01*
X175976000Y-85600000D01*
X175978000Y-85600000D01*
X175979000Y-85600000D01*
X175980000Y-85601000D01*
X175981000Y-85601000D01*
X175983000Y-85601000D01*
X175984000Y-85602000D01*
X175985000Y-85602000D01*
X175986000Y-85603000D01*
X175988000Y-85603000D01*
X175989000Y-85604000D01*
X175990000Y-85605000D01*
X175991000Y-85606000D01*
X175992000Y-85606000D01*
X175993000Y-85607000D01*
X175994000Y-85608000D01*
X175994000Y-85609000D01*
X175995000Y-85610000D01*
X175996000Y-85611000D01*
X175997000Y-85613000D01*
X175997000Y-85614000D01*
X175998000Y-85615000D01*
X175998000Y-85616000D01*
X175999000Y-85617000D01*
X175999000Y-85619000D01*
X175999000Y-85620000D01*
X176000000Y-85621000D01*
X176000000Y-85622000D01*
X176000000Y-85624000D01*
X176000000Y-85625000D01*
X176000000Y-86075000D01*
X176000000Y-86076000D01*
X176000000Y-86078000D01*
X176000000Y-86079000D01*
X175999000Y-86080000D01*
X175999000Y-86081000D01*
X175999000Y-86083000D01*
X175998000Y-86084000D01*
X175998000Y-86085000D01*
X175997000Y-86086000D01*
X175997000Y-86088000D01*
X175996000Y-86089000D01*
X175995000Y-86090000D01*
X175994000Y-86091000D01*
X175994000Y-86092000D01*
X175993000Y-86093000D01*
X175992000Y-86094000D01*
X175991000Y-86094000D01*
X175990000Y-86095000D01*
X175989000Y-86096000D01*
X175988000Y-86097000D01*
X175986000Y-86097000D01*
X175985000Y-86098000D01*
X175984000Y-86098000D01*
X175983000Y-86099000D01*
X175981000Y-86099000D01*
X175980000Y-86099000D01*
X175979000Y-86100000D01*
X175978000Y-86100000D01*
X175976000Y-86100000D01*
X175975000Y-86100000D01*
X174475000Y-86100000D01*
X174474000Y-86100000D01*
X174472000Y-86100000D01*
X174471000Y-86100000D01*
X174470000Y-86099000D01*
X174469000Y-86099000D01*
X174467000Y-86099000D01*
X174466000Y-86098000D01*
X174465000Y-86098000D01*
X174464000Y-86097000D01*
X174462000Y-86097000D01*
X174461000Y-86096000D01*
X174460000Y-86095000D01*
X174459000Y-86094000D01*
X174458000Y-86094000D01*
X174457000Y-86093000D01*
X174456000Y-86092000D01*
X174456000Y-86091000D01*
X174455000Y-86090000D01*
X174454000Y-86089000D01*
X174453000Y-86088000D01*
X174453000Y-86086000D01*
X174452000Y-86085000D01*
X174452000Y-86084000D01*
X174451000Y-86083000D01*
X174451000Y-86081000D01*
X174451000Y-86080000D01*
X174450000Y-86079000D01*
X174450000Y-86078000D01*
X174450000Y-86076000D01*
X174450000Y-86075000D01*
X174450000Y-84775000D01*
X174450000Y-84774000D01*
X174450000Y-84772000D01*
X174450000Y-84771000D01*
X174451000Y-84770000D01*
X174451000Y-84769000D01*
X174451000Y-84767000D01*
X174452000Y-84766000D01*
X174452000Y-84765000D01*
X174453000Y-84764000D01*
X174453000Y-84762000D01*
X174454000Y-84761000D01*
X174455000Y-84760000D01*
X174456000Y-84759000D01*
X174456000Y-84758000D01*
X174457000Y-84757000D01*
X174458000Y-84756000D01*
X174459000Y-84756000D01*
X174460000Y-84755000D01*
X174461000Y-84754000D01*
X174462000Y-84753000D01*
X174464000Y-84753000D01*
X174465000Y-84752000D01*
X174466000Y-84752000D01*
X174467000Y-84751000D01*
X174469000Y-84751000D01*
X174470000Y-84751000D01*
X174471000Y-84750000D01*
X174472000Y-84750000D01*
X174474000Y-84750000D01*
X174475000Y-84750000D01*
X174925000Y-84750000D01*
X174926000Y-84750000D01*
X174928000Y-84750000D01*
X174929000Y-84750000D01*
X174930000Y-84751000D01*
G37*
%TD*%
D11*
%TO.C,J1*%
X152930000Y-89495000D03*
D12*
X152930000Y-86955000D03*
%TD*%
D13*
%TO.C,*%
X193800000Y-91680000D03*
%TD*%
D14*
%TO.C,C11*%
X175500000Y-91525000D03*
X175500000Y-93075000D03*
%TD*%
D15*
%TO.C,H1*%
X2175000Y-2175000D03*
%TD*%
%TO.C,H4*%
X194370000Y-99510000D03*
%TD*%
D14*
%TO.C,C1*%
X171500000Y-82625000D03*
X171500000Y-84175000D03*
%TD*%
D16*
%TO.C,R4*%
X173500000Y-90075000D03*
X173500000Y-91725000D03*
%TD*%
D17*
%TO.C,C9*%
X163090000Y-94350000D03*
X163090000Y-96250000D03*
%TD*%
D18*
%TO.C,C2*%
X187500000Y-88510000D03*
X187500000Y-91460000D03*
%TD*%
D17*
%TO.C,C7*%
X171550000Y-91530000D03*
X171550000Y-93430000D03*
%TD*%
D14*
%TO.C,C10*%
X179520000Y-91425000D03*
X179520000Y-92975000D03*
%TD*%
D19*
%TO.C,R3*%
X175875000Y-89500000D03*
X177525000Y-89500000D03*
%TD*%
D20*
%TO.C,RV1*%
X178995500Y-97730000D03*
D21*
X176455500Y-100270000D03*
X173915500Y-97730000D03*
%TD*%
D14*
%TO.C,C12*%
X177460000Y-91600000D03*
X177460000Y-93150000D03*
%TD*%
D13*
%TO.C,*%
X153000000Y-92470000D03*
%TD*%
D15*
%TO.C,H1*%
X152100000Y-77400000D03*
%TD*%
D22*
%TO.C,C8*%
X173625000Y-83800000D03*
X175175000Y-83800000D03*
%TD*%
D18*
%TO.C,C4*%
X182500000Y-88510000D03*
X182500000Y-91460000D03*
%TD*%
D23*
%TO.C,C6*%
X187500000Y-86475000D03*
X187500000Y-83525000D03*
%TD*%
D11*
%TO.C,J2*%
X193670000Y-86165000D03*
D12*
X193670000Y-88705000D03*
%TD*%
D15*
%TO.C,H3*%
X194640000Y-77300000D03*
%TD*%
D17*
%TO.C,C14*%
X158150000Y-94350000D03*
X158150000Y-96250000D03*
%TD*%
D23*
%TO.C,C15*%
X182500000Y-86460000D03*
X182500000Y-83510000D03*
%TD*%
D17*
%TO.C,C13*%
X160620000Y-94350000D03*
X160620000Y-96250000D03*
%TD*%
D18*
%TO.C,C3*%
X185000000Y-88510000D03*
X185000000Y-91460000D03*
%TD*%
D23*
%TO.C,C5*%
X185000000Y-86475000D03*
X185000000Y-83525000D03*
%TD*%
D15*
%TO.C,H2*%
X151870000Y-99470000D03*
%TD*%
M02*
