%TF.GenerationSoftware,KiCad,Pcbnew,9.0.4*%
%TF.CreationDate,2025-09-16T11:07:58+03:00*%
%TF.ProjectId,5 to 15v,3520746f-2031-4357-962e-6b696361645f,rev?*%
%TF.SameCoordinates,Original*%
%TF.FileFunction,Copper,L2,Bot*%
%TF.FilePolarity,Positive*%
%FSLAX46Y46*%
G04 Gerber Fmt 4.6, Leading zero omitted, Abs format (unit mm)*
G04 Created by KiCad (PCBNEW 9.0.4) date 2025-09-16 11:07:58*
%MOMM*%
%LPD*%
G01*
G04 APERTURE LIST*
%TA.AperFunction,ComponentPad*%
%ADD10R,1.700000X1.700000*%
%TD*%
%TA.AperFunction,ComponentPad*%
%ADD11C,1.700000*%
%TD*%
%TA.AperFunction,ComponentPad*%
%ADD12C,3.800000*%
%TD*%
%TA.AperFunction,ComponentPad*%
%ADD13R,1.222000X1.222000*%
%TD*%
%TA.AperFunction,ComponentPad*%
%ADD14C,1.222000*%
%TD*%
%TA.AperFunction,ViaPad*%
%ADD15C,0.600000*%
%TD*%
G04 APERTURE END LIST*
D10*
%TO.P,J1,1,Pin_1*%
%TO.N,GND*%
X152930000Y-89495000D03*
D11*
%TO.P,J1,2,Pin_2*%
%TO.N,Vin*%
X152930000Y-86955000D03*
%TD*%
D12*
%TO.P,H1,1*%
%TO.N,N/C*%
X2175000Y-2175000D03*
%TD*%
%TO.P,H4,1*%
%TO.N,N/C*%
X194370000Y-99510000D03*
%TD*%
D13*
%TO.P,RV1,1,1*%
%TO.N,Vout*%
X178995500Y-97730000D03*
D14*
%TO.P,RV1,2,2*%
%TO.N,Net-(TPS1-FB)*%
X176455500Y-100270000D03*
%TO.P,RV1,3,3*%
X173915500Y-97730000D03*
%TD*%
D12*
%TO.P,H1,1*%
%TO.N,N/C*%
X152100000Y-77400000D03*
%TD*%
D10*
%TO.P,J2,1,Pin_1*%
%TO.N,Vout*%
X193670000Y-86165000D03*
D11*
%TO.P,J2,2,Pin_2*%
%TO.N,GND*%
X193670000Y-88705000D03*
%TD*%
D12*
%TO.P,H3,1*%
%TO.N,N/C*%
X194640000Y-77300000D03*
%TD*%
%TO.P,H2,1*%
%TO.N,N/C*%
X151870000Y-99470000D03*
%TD*%
D15*
%TO.N,GND*%
X190000000Y-95500000D03*
X184000000Y-93000000D03*
X182500000Y-95500000D03*
X182500000Y-94200000D03*
X187000000Y-93000000D03*
X188500000Y-95500000D03*
X185500000Y-95500000D03*
X185500000Y-96800000D03*
X182500000Y-93000000D03*
X187000000Y-98000000D03*
X185500000Y-93000000D03*
X190000000Y-98000000D03*
X185500000Y-98000000D03*
X187000000Y-96800000D03*
X188500000Y-93000000D03*
X190000000Y-94200000D03*
X184000000Y-95500000D03*
X188500000Y-96800000D03*
X188500000Y-94200000D03*
X182500000Y-98000000D03*
X190000000Y-93000000D03*
X184000000Y-98000000D03*
X184000000Y-96800000D03*
X190000000Y-96800000D03*
X185500000Y-94200000D03*
X184000000Y-94200000D03*
X187000000Y-95500000D03*
X182500000Y-96800000D03*
X187000000Y-94200000D03*
X188500000Y-98000000D03*
X190000000Y-77200000D03*
X187000000Y-81000000D03*
X190000000Y-81000000D03*
X190000000Y-79800000D03*
X190000000Y-77200000D03*
X188500000Y-79800000D03*
X187000000Y-78600000D03*
X190000000Y-79800000D03*
X188500000Y-81000000D03*
X187000000Y-77200000D03*
X190000000Y-78600000D03*
X188500000Y-78600000D03*
X188500000Y-77200000D03*
X187000000Y-79800000D03*
X185000000Y-77200000D03*
X182000000Y-81000000D03*
X185000000Y-81000000D03*
X185000000Y-79800000D03*
X185000000Y-77200000D03*
X183500000Y-79800000D03*
X182000000Y-78600000D03*
X185000000Y-79800000D03*
X183500000Y-81000000D03*
X182000000Y-77200000D03*
X185000000Y-78600000D03*
X183500000Y-78600000D03*
X183500000Y-77200000D03*
X182000000Y-79800000D03*
X180000000Y-77200000D03*
X177000000Y-81000000D03*
X180000000Y-81000000D03*
X180000000Y-79800000D03*
X180000000Y-77200000D03*
X178500000Y-79800000D03*
X177000000Y-78600000D03*
X180000000Y-79800000D03*
X178500000Y-81000000D03*
X177000000Y-77200000D03*
X180000000Y-78600000D03*
X178500000Y-78600000D03*
X178500000Y-77200000D03*
X177000000Y-79800000D03*
X152000000Y-81750000D03*
X153500000Y-80550000D03*
X153500000Y-81750000D03*
X150500000Y-80550000D03*
X150500000Y-81750000D03*
X153500000Y-80550000D03*
X152000000Y-80550000D03*
X166300000Y-98920000D03*
X163700000Y-76300000D03*
X161950000Y-97640000D03*
X170840000Y-100050000D03*
X166340000Y-100050000D03*
X172600000Y-77500000D03*
X162200000Y-77500000D03*
X163450000Y-97640000D03*
X165100000Y-77500000D03*
X168100000Y-76300000D03*
X157370000Y-97690000D03*
X170800000Y-98920000D03*
X162200000Y-76300000D03*
X156200000Y-76300000D03*
X164950000Y-97640000D03*
X155870000Y-97690000D03*
X163700000Y-77500000D03*
X176600000Y-88100000D03*
X168100000Y-76300000D03*
X166600000Y-77500000D03*
X169300000Y-98920000D03*
X167200000Y-94700000D03*
X164950000Y-98940000D03*
X167200000Y-93200000D03*
X166300000Y-97620000D03*
X169300000Y-97620000D03*
X168500000Y-93200000D03*
X160700000Y-77500000D03*
X171100000Y-77500000D03*
X167800000Y-98920000D03*
X167200000Y-96200000D03*
X169600000Y-76300000D03*
X162200000Y-76300000D03*
X168500000Y-96200000D03*
X167840000Y-100050000D03*
X172600000Y-76300000D03*
X157700000Y-76300000D03*
X168500000Y-94700000D03*
X165100000Y-76300000D03*
X171100000Y-76300000D03*
X171100000Y-76300000D03*
X160450000Y-97640000D03*
X160700000Y-76300000D03*
X176600000Y-87200000D03*
X167200000Y-91700000D03*
X159200000Y-76300000D03*
X178400000Y-90600000D03*
X159200000Y-77500000D03*
X166600000Y-76300000D03*
X170800000Y-97620000D03*
X168500000Y-91700000D03*
X158870000Y-97690000D03*
X157700000Y-77500000D03*
X167800000Y-97620000D03*
X164950000Y-100080000D03*
X168100000Y-77500000D03*
X169600000Y-77500000D03*
X159200000Y-76300000D03*
X169340000Y-100050000D03*
X156200000Y-77500000D03*
%TO.N,Vout*%
X180800000Y-88400000D03*
X176600000Y-85400000D03*
X178400000Y-86400000D03*
X180000000Y-86500000D03*
X180000000Y-85400000D03*
X180000000Y-87600000D03*
X178400000Y-85400000D03*
%TO.N,GND*%
X163450000Y-100090000D03*
X163450000Y-98950000D03*
%TD*%
%TA.AperFunction,Conductor*%
%TO.N,Vout*%
G36*
X195095677Y-82139685D02*
G01*
X195116319Y-82156319D01*
X195403681Y-82443681D01*
X195437166Y-82505004D01*
X195440000Y-82531362D01*
X195440000Y-87216000D01*
X195420315Y-87283039D01*
X195367511Y-87328794D01*
X195316000Y-87340000D01*
X190971362Y-87340000D01*
X190904323Y-87320315D01*
X190883681Y-87303681D01*
X190830000Y-87250000D01*
X189590000Y-86010000D01*
X189590000Y-82631362D01*
X189609685Y-82564323D01*
X189626319Y-82543681D01*
X190013681Y-82156319D01*
X190075004Y-82122834D01*
X190101362Y-82120000D01*
X195028638Y-82120000D01*
X195095677Y-82139685D01*
G37*
%TD.AperFunction*%
%TD*%
%TA.AperFunction,Conductor*%
%TO.N,Vout*%
G36*
X187799272Y-84705402D02*
G01*
X187833089Y-84707555D01*
X189590000Y-84707555D01*
X189590000Y-86010000D01*
X190830000Y-87250000D01*
X190750000Y-87250000D01*
X190749999Y-87250000D01*
X188051319Y-89948681D01*
X187989996Y-89982166D01*
X187963638Y-89985000D01*
X181536362Y-89985000D01*
X181469323Y-89965315D01*
X181448681Y-89948681D01*
X177750000Y-86250000D01*
X174624000Y-86250000D01*
X174556961Y-86230315D01*
X174511206Y-86177511D01*
X174500000Y-86126000D01*
X174500000Y-84874000D01*
X174519685Y-84806961D01*
X174572489Y-84761206D01*
X174624000Y-84750000D01*
X182000037Y-84750000D01*
X184724131Y-84728903D01*
X187790454Y-84705157D01*
X187799272Y-84705402D01*
G37*
%TD.AperFunction*%
%TD*%
%TA.AperFunction,Conductor*%
%TO.N,GND*%
G36*
X196506922Y-74801280D02*
G01*
X196597266Y-74811459D01*
X196624331Y-74817636D01*
X196703540Y-74845352D01*
X196728553Y-74857398D01*
X196799606Y-74902043D01*
X196821313Y-74919355D01*
X196880644Y-74978686D01*
X196897957Y-75000395D01*
X196942600Y-75071444D01*
X196954648Y-75096462D01*
X196982362Y-75175666D01*
X196988540Y-75202735D01*
X196998720Y-75293076D01*
X196999500Y-75306961D01*
X196999500Y-101393038D01*
X196998720Y-101406922D01*
X196998720Y-101406923D01*
X196988540Y-101497264D01*
X196982362Y-101524333D01*
X196954648Y-101603537D01*
X196942600Y-101628555D01*
X196897957Y-101699604D01*
X196880644Y-101721313D01*
X196821313Y-101780644D01*
X196799604Y-101797957D01*
X196728555Y-101842600D01*
X196703537Y-101854648D01*
X196624333Y-101882362D01*
X196597264Y-101888540D01*
X196517075Y-101897576D01*
X196506921Y-101898720D01*
X196493038Y-101899500D01*
X149906962Y-101899500D01*
X149893078Y-101898720D01*
X149880553Y-101897308D01*
X149802735Y-101888540D01*
X149775666Y-101882362D01*
X149696462Y-101854648D01*
X149671444Y-101842600D01*
X149600395Y-101797957D01*
X149578686Y-101780644D01*
X149519355Y-101721313D01*
X149502042Y-101699604D01*
X149457399Y-101628555D01*
X149445351Y-101603537D01*
X149433790Y-101570498D01*
X149417636Y-101524331D01*
X149411459Y-101497263D01*
X149401280Y-101406922D01*
X149400500Y-101393038D01*
X149400500Y-99332332D01*
X149769500Y-99332332D01*
X149769500Y-99607667D01*
X149769501Y-99607684D01*
X149805438Y-99880655D01*
X149805439Y-99880660D01*
X149805440Y-99880666D01*
X149841072Y-100013649D01*
X149876704Y-100146630D01*
X149982075Y-100401017D01*
X149982080Y-100401028D01*
X150043094Y-100506706D01*
X150119751Y-100639479D01*
X150119753Y-100639482D01*
X150119754Y-100639483D01*
X150287370Y-100857926D01*
X150287376Y-100857933D01*
X150482066Y-101052623D01*
X150482073Y-101052629D01*
X150610403Y-101151099D01*
X150700521Y-101220249D01*
X150853778Y-101308732D01*
X150938971Y-101357919D01*
X150938976Y-101357921D01*
X150938979Y-101357923D01*
X151193368Y-101463295D01*
X151459334Y-101534560D01*
X151732326Y-101570500D01*
X151732333Y-101570500D01*
X152007667Y-101570500D01*
X152007674Y-101570500D01*
X152280666Y-101534560D01*
X152546632Y-101463295D01*
X152801021Y-101357923D01*
X153039479Y-101220249D01*
X153257928Y-101052628D01*
X153452628Y-100857928D01*
X153620249Y-100639479D01*
X153757923Y-100401021D01*
X153845303Y-100190069D01*
X175644000Y-100190069D01*
X175644000Y-100349930D01*
X175675183Y-100506698D01*
X175675185Y-100506706D01*
X175736356Y-100654387D01*
X175736361Y-100654396D01*
X175825165Y-100787300D01*
X175825168Y-100787304D01*
X175938195Y-100900331D01*
X175938199Y-100900334D01*
X176071103Y-100989138D01*
X176071109Y-100989141D01*
X176071110Y-100989142D01*
X176218794Y-101050315D01*
X176375569Y-101081499D01*
X176375573Y-101081500D01*
X176375574Y-101081500D01*
X176535427Y-101081500D01*
X176535428Y-101081499D01*
X176692206Y-101050315D01*
X176839890Y-100989142D01*
X176972801Y-100900334D01*
X177085834Y-100787301D01*
X177174642Y-100654390D01*
X177235815Y-100506706D01*
X177267000Y-100349926D01*
X177267000Y-100190074D01*
X177235815Y-100033294D01*
X177174642Y-99885610D01*
X177174641Y-99885609D01*
X177174638Y-99885603D01*
X177085834Y-99752699D01*
X177085831Y-99752695D01*
X176972804Y-99639668D01*
X176972800Y-99639665D01*
X176839896Y-99550861D01*
X176839887Y-99550856D01*
X176692206Y-99489685D01*
X176692198Y-99489683D01*
X176535430Y-99458500D01*
X176535426Y-99458500D01*
X176375574Y-99458500D01*
X176375569Y-99458500D01*
X176218801Y-99489683D01*
X176218793Y-99489685D01*
X176071112Y-99550856D01*
X176071103Y-99550861D01*
X175938199Y-99639665D01*
X175938195Y-99639668D01*
X175825168Y-99752695D01*
X175825165Y-99752699D01*
X175736361Y-99885603D01*
X175736356Y-99885612D01*
X175675185Y-100033293D01*
X175675183Y-100033301D01*
X175644000Y-100190069D01*
X153845303Y-100190069D01*
X153863295Y-100146632D01*
X153934560Y-99880666D01*
X153970500Y-99607674D01*
X153970500Y-99372332D01*
X192269500Y-99372332D01*
X192269500Y-99647667D01*
X192269501Y-99647684D01*
X192305438Y-99920655D01*
X192305439Y-99920660D01*
X192305440Y-99920666D01*
X192305441Y-99920668D01*
X192376704Y-100186630D01*
X192482075Y-100441017D01*
X192482080Y-100441028D01*
X192520000Y-100506706D01*
X192619751Y-100679479D01*
X192619753Y-100679482D01*
X192619754Y-100679483D01*
X192787370Y-100897926D01*
X192787376Y-100897933D01*
X192982066Y-101092623D01*
X192982072Y-101092628D01*
X193200521Y-101260249D01*
X193353778Y-101348732D01*
X193438971Y-101397919D01*
X193438976Y-101397921D01*
X193438979Y-101397923D01*
X193693368Y-101503295D01*
X193959334Y-101574560D01*
X194232326Y-101610500D01*
X194232333Y-101610500D01*
X194507667Y-101610500D01*
X194507674Y-101610500D01*
X194780666Y-101574560D01*
X195046632Y-101503295D01*
X195301021Y-101397923D01*
X195539479Y-101260249D01*
X195757928Y-101092628D01*
X195952628Y-100897928D01*
X196120249Y-100679479D01*
X196257923Y-100441021D01*
X196363295Y-100186632D01*
X196434560Y-99920666D01*
X196470500Y-99647674D01*
X196470500Y-99372326D01*
X196434560Y-99099334D01*
X196363295Y-98833368D01*
X196257923Y-98578979D01*
X196257921Y-98578976D01*
X196257919Y-98578971D01*
X196165692Y-98419231D01*
X196120249Y-98340521D01*
X195952628Y-98122072D01*
X195952623Y-98122066D01*
X195757933Y-97927376D01*
X195757926Y-97927370D01*
X195539483Y-97759754D01*
X195539482Y-97759753D01*
X195539479Y-97759751D01*
X195444407Y-97704861D01*
X195301028Y-97622080D01*
X195301017Y-97622075D01*
X195046630Y-97516704D01*
X194897345Y-97476704D01*
X194780666Y-97445440D01*
X194780660Y-97445439D01*
X194780655Y-97445438D01*
X194507684Y-97409501D01*
X194507679Y-97409500D01*
X194507674Y-97409500D01*
X194232326Y-97409500D01*
X194232320Y-97409500D01*
X194232315Y-97409501D01*
X193959344Y-97445438D01*
X193959337Y-97445439D01*
X193959334Y-97445440D01*
X193903125Y-97460500D01*
X193693369Y-97516704D01*
X193438982Y-97622075D01*
X193438971Y-97622080D01*
X193200516Y-97759754D01*
X192982073Y-97927370D01*
X192982066Y-97927376D01*
X192787376Y-98122066D01*
X192787370Y-98122073D01*
X192619754Y-98340516D01*
X192482080Y-98578971D01*
X192482075Y-98578982D01*
X192376704Y-98833369D01*
X192305441Y-99099331D01*
X192305438Y-99099344D01*
X192269501Y-99372315D01*
X192269500Y-99372332D01*
X153970500Y-99372332D01*
X153970500Y-99332326D01*
X153934560Y-99059334D01*
X153863295Y-98793368D01*
X153757923Y-98538979D01*
X153757921Y-98538976D01*
X153757919Y-98538971D01*
X153706056Y-98449143D01*
X153620249Y-98300521D01*
X153477431Y-98114396D01*
X153452629Y-98082073D01*
X153452623Y-98082066D01*
X153257933Y-97887376D01*
X153257926Y-97887370D01*
X153068942Y-97742358D01*
X153039482Y-97719753D01*
X152918787Y-97650069D01*
X173104000Y-97650069D01*
X173104000Y-97809930D01*
X173135183Y-97966698D01*
X173135185Y-97966706D01*
X173196356Y-98114387D01*
X173196361Y-98114396D01*
X173285165Y-98247300D01*
X173285168Y-98247304D01*
X173398195Y-98360331D01*
X173398199Y-98360334D01*
X173531103Y-98449138D01*
X173531109Y-98449141D01*
X173531110Y-98449142D01*
X173678794Y-98510315D01*
X173822860Y-98538971D01*
X173835569Y-98541499D01*
X173835573Y-98541500D01*
X173835574Y-98541500D01*
X173995427Y-98541500D01*
X173995428Y-98541499D01*
X174152206Y-98510315D01*
X174299890Y-98449142D01*
X174432801Y-98360334D01*
X174545834Y-98247301D01*
X174634642Y-98114390D01*
X174695815Y-97966706D01*
X174727000Y-97809926D01*
X174727000Y-97650074D01*
X174695815Y-97493294D01*
X174634642Y-97345610D01*
X174634641Y-97345609D01*
X174634638Y-97345603D01*
X174545834Y-97212699D01*
X174545831Y-97212695D01*
X174432804Y-97099668D01*
X174432800Y-97099665D01*
X174432174Y-97099247D01*
X178184000Y-97099247D01*
X178184000Y-98360752D01*
X178195631Y-98419229D01*
X178195632Y-98419230D01*
X178239947Y-98485552D01*
X178306269Y-98529867D01*
X178306270Y-98529868D01*
X178364747Y-98541499D01*
X178364750Y-98541500D01*
X178364752Y-98541500D01*
X179626250Y-98541500D01*
X179626251Y-98541499D01*
X179641068Y-98538552D01*
X179684729Y-98529868D01*
X179684729Y-98529867D01*
X179684731Y-98529867D01*
X179751052Y-98485552D01*
X179795367Y-98419231D01*
X179795367Y-98419229D01*
X179795368Y-98419229D01*
X179806999Y-98360752D01*
X179807000Y-98360750D01*
X179807000Y-97099249D01*
X179806999Y-97099247D01*
X179795368Y-97040770D01*
X179795367Y-97040769D01*
X179751052Y-96974447D01*
X179684730Y-96930132D01*
X179684729Y-96930131D01*
X179626252Y-96918500D01*
X179626248Y-96918500D01*
X178364752Y-96918500D01*
X178364747Y-96918500D01*
X178306270Y-96930131D01*
X178306269Y-96930132D01*
X178239947Y-96974447D01*
X178195632Y-97040769D01*
X178195631Y-97040770D01*
X178184000Y-97099247D01*
X174432174Y-97099247D01*
X174299896Y-97010861D01*
X174299887Y-97010856D01*
X174152206Y-96949685D01*
X174152198Y-96949683D01*
X173995430Y-96918500D01*
X173995426Y-96918500D01*
X173835574Y-96918500D01*
X173835569Y-96918500D01*
X173678801Y-96949683D01*
X173678793Y-96949685D01*
X173531112Y-97010856D01*
X173531103Y-97010861D01*
X173398199Y-97099665D01*
X173398195Y-97099668D01*
X173285168Y-97212695D01*
X173285165Y-97212699D01*
X173196361Y-97345603D01*
X173196356Y-97345612D01*
X173135185Y-97493293D01*
X173135183Y-97493301D01*
X173104000Y-97650069D01*
X152918787Y-97650069D01*
X152801028Y-97582080D01*
X152801017Y-97582075D01*
X152546630Y-97476704D01*
X152413649Y-97441072D01*
X152280666Y-97405440D01*
X152280660Y-97405439D01*
X152280655Y-97405438D01*
X152007684Y-97369501D01*
X152007679Y-97369500D01*
X152007674Y-97369500D01*
X151732326Y-97369500D01*
X151732320Y-97369500D01*
X151732315Y-97369501D01*
X151459344Y-97405438D01*
X151459337Y-97405439D01*
X151459334Y-97405440D01*
X151403125Y-97420500D01*
X151193369Y-97476704D01*
X150938982Y-97582075D01*
X150938971Y-97582080D01*
X150700516Y-97719754D01*
X150482073Y-97887370D01*
X150482066Y-97887376D01*
X150287376Y-98082066D01*
X150287370Y-98082073D01*
X150119754Y-98300516D01*
X149982080Y-98538971D01*
X149982075Y-98538982D01*
X149876704Y-98793369D01*
X149805441Y-99059331D01*
X149805438Y-99059344D01*
X149769501Y-99332315D01*
X149769500Y-99332332D01*
X149400500Y-99332332D01*
X149400500Y-86851530D01*
X151879500Y-86851530D01*
X151879500Y-87058469D01*
X151910835Y-87216000D01*
X151919870Y-87261420D01*
X151999059Y-87452598D01*
X152020108Y-87484100D01*
X152114024Y-87624657D01*
X152260342Y-87770975D01*
X152260345Y-87770977D01*
X152432402Y-87885941D01*
X152623580Y-87965130D01*
X152826530Y-88005499D01*
X152826534Y-88005500D01*
X152826535Y-88005500D01*
X153033466Y-88005500D01*
X153033467Y-88005499D01*
X153236420Y-87965130D01*
X153427598Y-87885941D01*
X153599655Y-87770977D01*
X153745977Y-87624655D01*
X153860941Y-87452598D01*
X153940130Y-87261420D01*
X153980500Y-87058465D01*
X153980500Y-86851535D01*
X153940130Y-86648580D01*
X153860941Y-86457402D01*
X153745977Y-86285345D01*
X153745975Y-86285342D01*
X153599657Y-86139024D01*
X153513626Y-86081541D01*
X153427598Y-86024059D01*
X153236420Y-85944870D01*
X153236412Y-85944868D01*
X153033469Y-85904500D01*
X153033465Y-85904500D01*
X152826535Y-85904500D01*
X152826530Y-85904500D01*
X152623587Y-85944868D01*
X152623579Y-85944870D01*
X152432403Y-86024058D01*
X152260342Y-86139024D01*
X152114024Y-86285342D01*
X151999058Y-86457403D01*
X151919870Y-86648579D01*
X151919868Y-86648587D01*
X151879500Y-86851530D01*
X149400500Y-86851530D01*
X149400500Y-84874003D01*
X174294500Y-84874003D01*
X174294500Y-86126007D01*
X174299197Y-86169686D01*
X174310397Y-86221174D01*
X174312890Y-86231372D01*
X174312891Y-86231375D01*
X174355899Y-86312083D01*
X174355901Y-86312086D01*
X174401660Y-86364895D01*
X174419242Y-86382839D01*
X174419246Y-86382843D01*
X174419247Y-86382844D01*
X174419249Y-86382845D01*
X174499059Y-86427488D01*
X174499063Y-86427490D01*
X174566102Y-86447175D01*
X174624000Y-86455500D01*
X177613518Y-86455500D01*
X177680557Y-86475185D01*
X177701199Y-86491819D01*
X181303365Y-90093986D01*
X181303366Y-90093987D01*
X181319716Y-90108674D01*
X181319730Y-90108686D01*
X181319738Y-90108693D01*
X181328136Y-90115460D01*
X181340379Y-90125327D01*
X181411424Y-90162490D01*
X181478456Y-90182173D01*
X181478458Y-90182173D01*
X181478464Y-90182175D01*
X181536362Y-90190500D01*
X181536366Y-90190500D01*
X187963639Y-90190500D01*
X187966180Y-90190363D01*
X187985607Y-90189322D01*
X187985614Y-90189321D01*
X187985618Y-90189321D01*
X188011965Y-90186488D01*
X188088482Y-90162529D01*
X188149805Y-90129044D01*
X188196629Y-90093991D01*
X190737741Y-87552875D01*
X190799062Y-87519392D01*
X190860356Y-87521581D01*
X190913456Y-87537173D01*
X190913458Y-87537173D01*
X190913464Y-87537175D01*
X190971362Y-87545500D01*
X190971366Y-87545500D01*
X195315991Y-87545500D01*
X195316000Y-87545500D01*
X195359684Y-87540803D01*
X195388875Y-87534452D01*
X195411174Y-87529602D01*
X195411190Y-87529598D01*
X195411195Y-87529597D01*
X195421373Y-87527110D01*
X195502085Y-87484100D01*
X195554889Y-87438345D01*
X195572843Y-87420754D01*
X195617490Y-87340937D01*
X195637175Y-87273898D01*
X195645500Y-87216000D01*
X195645500Y-82531362D01*
X195644322Y-82509393D01*
X195641488Y-82483035D01*
X195617529Y-82406518D01*
X195584044Y-82345195D01*
X195548991Y-82298371D01*
X195548983Y-82298363D01*
X195261634Y-82011013D01*
X195261633Y-82011012D01*
X195245283Y-81996325D01*
X195245269Y-81996313D01*
X195224620Y-81979672D01*
X195153575Y-81942509D01*
X195086543Y-81922826D01*
X195085894Y-81922732D01*
X195028638Y-81914500D01*
X190101362Y-81914500D01*
X190101361Y-81914500D01*
X190079381Y-81915678D01*
X190053034Y-81918511D01*
X190053032Y-81918512D01*
X189976521Y-81942470D01*
X189976516Y-81942471D01*
X189915188Y-81975960D01*
X189868384Y-82010998D01*
X189868363Y-82011016D01*
X189481013Y-82398365D01*
X189481012Y-82398366D01*
X189466325Y-82414716D01*
X189466313Y-82414730D01*
X189449672Y-82435379D01*
X189412509Y-82506424D01*
X189392826Y-82573456D01*
X189384500Y-82631365D01*
X189384500Y-84378055D01*
X189364815Y-84445094D01*
X189312011Y-84490849D01*
X189260500Y-84502055D01*
X187843566Y-84502055D01*
X187835686Y-84501804D01*
X187812358Y-84500318D01*
X187809093Y-84500169D01*
X187804979Y-84499981D01*
X187800018Y-84499843D01*
X187796168Y-84499736D01*
X187788835Y-84499662D01*
X181999738Y-84544496D01*
X181998778Y-84544500D01*
X174623992Y-84544500D01*
X174580313Y-84549197D01*
X174528825Y-84560397D01*
X174518627Y-84562890D01*
X174518624Y-84562891D01*
X174437916Y-84605899D01*
X174437913Y-84605901D01*
X174385104Y-84651660D01*
X174367160Y-84669242D01*
X174367154Y-84669249D01*
X174322511Y-84749059D01*
X174322509Y-84749064D01*
X174302826Y-84816096D01*
X174294500Y-84874003D01*
X149400500Y-84874003D01*
X149400500Y-77262332D01*
X149999500Y-77262332D01*
X149999500Y-77537667D01*
X149999501Y-77537684D01*
X150035438Y-77810655D01*
X150035439Y-77810660D01*
X150035440Y-77810666D01*
X150035441Y-77810668D01*
X150106704Y-78076630D01*
X150212075Y-78331017D01*
X150212080Y-78331028D01*
X150292016Y-78469479D01*
X150349751Y-78569479D01*
X150349753Y-78569482D01*
X150349754Y-78569483D01*
X150517370Y-78787926D01*
X150517376Y-78787933D01*
X150712066Y-78982623D01*
X150712072Y-78982628D01*
X150930521Y-79150249D01*
X151083778Y-79238732D01*
X151168971Y-79287919D01*
X151168976Y-79287921D01*
X151168979Y-79287923D01*
X151423368Y-79393295D01*
X151689334Y-79464560D01*
X151962326Y-79500500D01*
X151962333Y-79500500D01*
X152237667Y-79500500D01*
X152237674Y-79500500D01*
X152510666Y-79464560D01*
X152776632Y-79393295D01*
X153031021Y-79287923D01*
X153269479Y-79150249D01*
X153487928Y-78982628D01*
X153682628Y-78787928D01*
X153850249Y-78569479D01*
X153987923Y-78331021D01*
X154093295Y-78076632D01*
X154164560Y-77810666D01*
X154200500Y-77537674D01*
X154200500Y-77262326D01*
X154187336Y-77162332D01*
X192539500Y-77162332D01*
X192539500Y-77437667D01*
X192539501Y-77437684D01*
X192575438Y-77710655D01*
X192575439Y-77710660D01*
X192575440Y-77710666D01*
X192575441Y-77710668D01*
X192646704Y-77976630D01*
X192752075Y-78231017D01*
X192752080Y-78231028D01*
X192809812Y-78331021D01*
X192889751Y-78469479D01*
X192889753Y-78469482D01*
X192889754Y-78469483D01*
X193057370Y-78687926D01*
X193057376Y-78687933D01*
X193252066Y-78882623D01*
X193252072Y-78882628D01*
X193470521Y-79050249D01*
X193623778Y-79138732D01*
X193708971Y-79187919D01*
X193708976Y-79187921D01*
X193708979Y-79187923D01*
X193963368Y-79293295D01*
X194229334Y-79364560D01*
X194502326Y-79400500D01*
X194502333Y-79400500D01*
X194777667Y-79400500D01*
X194777674Y-79400500D01*
X195050666Y-79364560D01*
X195316632Y-79293295D01*
X195571021Y-79187923D01*
X195809479Y-79050249D01*
X196027928Y-78882628D01*
X196222628Y-78687928D01*
X196390249Y-78469479D01*
X196527923Y-78231021D01*
X196633295Y-77976632D01*
X196704560Y-77710666D01*
X196740500Y-77437674D01*
X196740500Y-77162326D01*
X196704560Y-76889334D01*
X196633295Y-76623368D01*
X196527923Y-76368979D01*
X196527921Y-76368976D01*
X196527919Y-76368971D01*
X196447981Y-76230516D01*
X196390249Y-76130521D01*
X196222628Y-75912072D01*
X196222623Y-75912066D01*
X196027933Y-75717376D01*
X196027926Y-75717370D01*
X195809483Y-75549754D01*
X195809482Y-75549753D01*
X195809479Y-75549751D01*
X195714407Y-75494861D01*
X195571028Y-75412080D01*
X195571017Y-75412075D01*
X195316630Y-75306704D01*
X195183649Y-75271072D01*
X195050666Y-75235440D01*
X195050660Y-75235439D01*
X195050655Y-75235438D01*
X194777684Y-75199501D01*
X194777679Y-75199500D01*
X194777674Y-75199500D01*
X194502326Y-75199500D01*
X194502320Y-75199500D01*
X194502315Y-75199501D01*
X194229344Y-75235438D01*
X194229337Y-75235439D01*
X194229334Y-75235440D01*
X194173125Y-75250500D01*
X193963369Y-75306704D01*
X193708982Y-75412075D01*
X193708971Y-75412080D01*
X193470516Y-75549754D01*
X193252073Y-75717370D01*
X193252066Y-75717376D01*
X193057376Y-75912066D01*
X193057370Y-75912073D01*
X192889754Y-76130516D01*
X192752080Y-76368971D01*
X192752075Y-76368982D01*
X192646704Y-76623369D01*
X192575441Y-76889331D01*
X192575438Y-76889344D01*
X192539501Y-77162315D01*
X192539500Y-77162332D01*
X154187336Y-77162332D01*
X154164560Y-76989334D01*
X154093295Y-76723368D01*
X153987923Y-76468979D01*
X153987921Y-76468976D01*
X153987919Y-76468971D01*
X153930183Y-76368971D01*
X153850249Y-76230521D01*
X153682628Y-76012072D01*
X153682623Y-76012066D01*
X153487933Y-75817376D01*
X153487926Y-75817370D01*
X153269483Y-75649754D01*
X153269482Y-75649753D01*
X153269479Y-75649751D01*
X153174407Y-75594861D01*
X153031028Y-75512080D01*
X153031017Y-75512075D01*
X152776630Y-75406704D01*
X152643649Y-75371072D01*
X152510666Y-75335440D01*
X152510660Y-75335439D01*
X152510655Y-75335438D01*
X152237684Y-75299501D01*
X152237679Y-75299500D01*
X152237674Y-75299500D01*
X151962326Y-75299500D01*
X151962320Y-75299500D01*
X151962315Y-75299501D01*
X151689344Y-75335438D01*
X151689337Y-75335439D01*
X151689334Y-75335440D01*
X151633125Y-75350500D01*
X151423369Y-75406704D01*
X151168982Y-75512075D01*
X151168971Y-75512080D01*
X150930516Y-75649754D01*
X150712073Y-75817370D01*
X150712066Y-75817376D01*
X150517376Y-76012066D01*
X150517370Y-76012073D01*
X150349754Y-76230516D01*
X150212080Y-76468971D01*
X150212075Y-76468982D01*
X150106704Y-76723369D01*
X150035441Y-76989331D01*
X150035438Y-76989344D01*
X149999501Y-77262315D01*
X149999500Y-77262332D01*
X149400500Y-77262332D01*
X149400500Y-75306961D01*
X149401280Y-75293077D01*
X149407774Y-75235440D01*
X149411460Y-75202729D01*
X149417635Y-75175670D01*
X149445353Y-75096456D01*
X149457396Y-75071450D01*
X149502046Y-75000389D01*
X149519351Y-74978690D01*
X149578690Y-74919351D01*
X149600389Y-74902046D01*
X149671450Y-74857396D01*
X149696456Y-74845353D01*
X149775670Y-74817635D01*
X149802733Y-74811459D01*
X149865419Y-74804396D01*
X149893079Y-74801280D01*
X149906962Y-74800500D01*
X149965892Y-74800500D01*
X196434108Y-74800500D01*
X196493038Y-74800500D01*
X196506922Y-74801280D01*
G37*
%TD.AperFunction*%
%TD*%
M02*
