M48
; DRILL file {KiCad 9.0.4} date 2025-09-16T11:07:52+0300
; FORMAT={-:-/ absolute / metric / decimal}
; #@! TF.CreationDate,2025-09-16T11:07:52+03:00
; #@! TF.GenerationSoftware,Kicad,Pcbnew,9.0.4
; #@! TF.FileFunction,Plated,1,2,PTH
FMAT,2
METRIC
; #@! TA.AperFunction,Plated,PTH,ViaDrill
T1C0.300
; #@! TA.AperFunction,Plated,PTH,ComponentDrill
T2C0.714
; #@! TA.AperFunction,Plated,PTH,ComponentDrill
T3C1.000
; #@! TA.AperFunction,Plated,PTH,ComponentDrill
T4C2.200
%
G90
G05
T1
X150.5Y-80.55
X150.5Y-81.75
X152.0Y-80.55
X152.0Y-81.75
X153.5Y-80.55
X153.5Y-80.55
X153.5Y-81.75
X155.87Y-97.69
X156.2Y-76.3
X156.2Y-77.5
X157.37Y-97.69
X157.7Y-76.3
X157.7Y-77.5
X158.87Y-97.69
X159.2Y-76.3
X159.2Y-76.3
X159.2Y-77.5
X160.45Y-97.64
X160.7Y-76.3
X160.7Y-77.5
X161.95Y-97.64
X162.2Y-76.3
X162.2Y-76.3
X162.2Y-77.5
X163.45Y-97.64
X163.45Y-98.95
X163.45Y-100.09
X163.7Y-76.3
X163.7Y-77.5
X164.95Y-97.64
X164.95Y-98.94
X164.95Y-100.08
X165.1Y-76.3
X165.1Y-77.5
X166.3Y-97.62
X166.3Y-98.92
X166.34Y-100.05
X166.6Y-76.3
X166.6Y-77.5
X167.2Y-91.7
X167.2Y-93.2
X167.2Y-94.7
X167.2Y-96.2
X167.8Y-97.62
X167.8Y-98.92
X167.84Y-100.05
X168.1Y-76.3
X168.1Y-76.3
X168.1Y-77.5
X168.5Y-91.7
X168.5Y-93.2
X168.5Y-94.7
X168.5Y-96.2
X169.3Y-97.62
X169.3Y-98.92
X169.34Y-100.05
X169.6Y-76.3
X169.6Y-77.5
X170.8Y-97.62
X170.8Y-98.92
X170.84Y-100.05
X171.1Y-76.3
X171.1Y-76.3
X171.1Y-77.5
X172.6Y-76.3
X172.6Y-77.5
X176.6Y-85.4
X176.6Y-87.2
X176.6Y-88.1
X177.0Y-77.2
X177.0Y-78.6
X177.0Y-79.8
X177.0Y-81.0
X178.4Y-85.4
X178.4Y-86.4
X178.4Y-90.6
X178.5Y-77.2
X178.5Y-78.6
X178.5Y-79.8
X178.5Y-81.0
X180.0Y-77.2
X180.0Y-77.2
X180.0Y-78.6
X180.0Y-79.8
X180.0Y-79.8
X180.0Y-81.0
X180.0Y-85.4
X180.0Y-86.5
X180.0Y-87.6
X180.8Y-88.4
X182.0Y-77.2
X182.0Y-78.6
X182.0Y-79.8
X182.0Y-81.0
X182.5Y-93.0
X182.5Y-94.2
X182.5Y-95.5
X182.5Y-96.8
X182.5Y-98.0
X183.5Y-77.2
X183.5Y-78.6
X183.5Y-79.8
X183.5Y-81.0
X184.0Y-93.0
X184.0Y-94.2
X184.0Y-95.5
X184.0Y-96.8
X184.0Y-98.0
X185.0Y-77.2
X185.0Y-77.2
X185.0Y-78.6
X185.0Y-79.8
X185.0Y-79.8
X185.0Y-81.0
X185.5Y-93.0
X185.5Y-94.2
X185.5Y-95.5
X185.5Y-96.8
X185.5Y-98.0
X187.0Y-77.2
X187.0Y-78.6
X187.0Y-79.8
X187.0Y-81.0
X187.0Y-93.0
X187.0Y-94.2
X187.0Y-95.5
X187.0Y-96.8
X187.0Y-98.0
X188.5Y-77.2
X188.5Y-78.6
X188.5Y-79.8
X188.5Y-81.0
X188.5Y-93.0
X188.5Y-94.2
X188.5Y-95.5
X188.5Y-96.8
X188.5Y-98.0
X190.0Y-77.2
X190.0Y-77.2
X190.0Y-78.6
X190.0Y-79.8
X190.0Y-79.8
X190.0Y-81.0
X190.0Y-93.0
X190.0Y-94.2
X190.0Y-95.5
X190.0Y-96.8
X190.0Y-98.0
T2
X173.915Y-97.73
X176.456Y-100.27
X178.995Y-97.73
T3
X152.93Y-86.955
X152.93Y-89.495
X193.67Y-86.165
X193.67Y-88.705
T4
X2.175Y-2.175
X151.87Y-99.47
X152.1Y-77.4
X194.37Y-99.51
X194.64Y-77.3
M30
