%TF.GenerationSoftware,KiCad,Pcbnew,9.0.4*%
%TF.CreationDate,2025-09-16T11:07:58+03:00*%
%TF.ProjectId,5 to 15v,3520746f-2031-4357-962e-6b696361645f,rev?*%
%TF.SameCoordinates,Original*%
%TF.FileFunction,Copper,L1,Top*%
%TF.FilePolarity,Positive*%
%FSLAX46Y46*%
G04 Gerber Fmt 4.6, Leading zero omitted, Abs format (unit mm)*
G04 Created by KiCad (PCBNEW 9.0.4) date 2025-09-16 11:07:58*
%MOMM*%
%LPD*%
G01*
G04 APERTURE LIST*
G04 Aperture macros list*
%AMRoundRect*
0 Rectangle with rounded corners*
0 $1 Rounding radius*
0 $2 $3 $4 $5 $6 $7 $8 $9 X,Y pos of 4 corners*
0 Add a 4 corners polygon primitive as box body*
4,1,4,$2,$3,$4,$5,$6,$7,$8,$9,$2,$3,0*
0 Add four circle primitives for the rounded corners*
1,1,$1+$1,$2,$3*
1,1,$1+$1,$4,$5*
1,1,$1+$1,$6,$7*
1,1,$1+$1,$8,$9*
0 Add four rect primitives between the rounded corners*
20,1,$1+$1,$2,$3,$4,$5,0*
20,1,$1+$1,$4,$5,$6,$7,0*
20,1,$1+$1,$6,$7,$8,$9,0*
20,1,$1+$1,$8,$9,$2,$3,0*%
%AMFreePoly0*
4,1,120,0.093915,0.279000,0.095500,0.279000,0.099036,0.277536,0.099329,0.277242,0.099915,0.277000,0.100500,0.277000,0.104036,0.275536,0.106329,0.273242,0.108036,0.272536,0.110036,0.270536,0.110742,0.268829,0.113036,0.266536,0.114500,0.263000,0.114500,0.262415,0.114742,0.261829,0.115036,0.261536,0.116500,0.258000,0.116500,0.256415,0.117500,0.254000,0.117500,-0.404000,
0.116500,-0.406415,0.116500,-0.408000,0.115036,-0.411536,0.114742,-0.411829,0.114500,-0.412415,0.114500,-0.413000,0.113036,-0.416536,0.110742,-0.418829,0.110036,-0.420536,0.108036,-0.422536,0.106329,-0.423242,0.104036,-0.425536,0.100500,-0.427000,0.099915,-0.427000,0.099329,-0.427242,0.099036,-0.427536,0.095500,-0.429000,0.093915,-0.429000,0.091500,-0.430000,-0.441500,-0.430000,
-0.443915,-0.429000,-0.445500,-0.429000,-0.449036,-0.427536,-0.449329,-0.427242,-0.449915,-0.427000,-0.450500,-0.427000,-0.454036,-0.425536,-0.456329,-0.423242,-0.458036,-0.422536,-0.460036,-0.420536,-0.460742,-0.418829,-0.463036,-0.416536,-0.464500,-0.413000,-0.464500,-0.412415,-0.464742,-0.411829,-0.465036,-0.411536,-0.466500,-0.408000,-0.466500,-0.406415,-0.467500,-0.404000,-0.467500,-0.196000,
-0.466500,-0.193584,-0.466500,-0.192000,-0.465036,-0.188464,-0.464742,-0.188170,-0.464500,-0.187584,-0.464500,-0.187000,-0.463036,-0.183464,-0.460742,-0.181170,-0.460036,-0.179464,-0.458036,-0.177464,-0.456329,-0.176757,-0.454036,-0.174464,-0.450500,-0.173000,-0.449915,-0.173000,-0.449329,-0.172757,-0.449036,-0.172464,-0.445500,-0.171000,-0.443915,-0.171000,-0.441500,-0.170000,-0.134915,-0.170000,
-0.132500,-0.169000,-0.130915,-0.169000,-0.130329,-0.168757,-0.130036,-0.168464,-0.127546,-0.167433,-0.126464,-0.166892,-0.125036,-0.165464,-0.123329,-0.164757,-0.122742,-0.164170,-0.122036,-0.162464,-0.120449,-0.160877,-0.119036,-0.157464,-0.118742,-0.157170,-0.118500,-0.156584,-0.118500,-0.155000,-0.117500,-0.152584,-0.117500,0.254000,-0.116500,0.256415,-0.116500,0.258000,-0.115036,0.261536,
-0.114742,0.261829,-0.114271,0.262966,-0.113972,0.264236,-0.112972,0.266236,-0.112036,0.267536,-0.110742,0.268829,-0.110036,0.270536,-0.108036,0.272536,-0.106329,0.273242,-0.105036,0.274536,-0.103736,0.275472,-0.101736,0.276472,-0.100466,0.276771,-0.099329,0.277242,-0.099036,0.277536,-0.095500,0.279000,-0.093915,0.279000,-0.091500,0.280000,0.091500,0.280000,0.093915,0.279000,
0.093915,0.279000,$1*%
%AMFreePoly1*
4,1,121,0.956415,0.204000,0.958000,0.204000,0.961536,0.202536,0.961829,0.202242,0.962966,0.201771,0.964236,0.201472,0.966236,0.200472,0.967536,0.199536,0.968829,0.198242,0.970536,0.197536,0.972536,0.195536,0.973242,0.193829,0.975536,0.191536,0.977000,0.188000,0.977000,0.187415,0.977242,0.186829,0.977536,0.186536,0.979000,0.183000,0.979000,0.181415,0.980000,0.179000,
0.980000,-1.229000,0.979000,-1.231415,0.979000,-1.233000,0.977536,-1.236536,0.977242,-1.236829,0.977000,-1.237415,0.977000,-1.238000,0.975536,-1.241536,0.973242,-1.243829,0.972536,-1.245536,0.970536,-1.247536,0.968829,-1.248242,0.967536,-1.249536,0.966236,-1.250472,0.964236,-1.251472,0.962966,-1.251771,0.961829,-1.252242,0.961536,-1.252536,0.958000,-1.254000,0.956415,-1.254000,
0.954000,-1.255000,0.596000,-1.255000,0.593585,-1.254000,0.592000,-1.254000,0.588464,-1.252536,0.588170,-1.252242,0.587033,-1.251771,0.585764,-1.251472,0.583764,-1.250472,0.582464,-1.249536,0.581170,-1.248242,0.579464,-1.247536,0.577464,-1.245536,0.576757,-1.243829,0.574464,-1.241536,0.573000,-1.238000,0.573000,-1.237415,0.572757,-1.236829,0.572464,-1.236536,0.571000,-1.233000,
0.571000,-1.231415,0.570000,-1.229000,0.570000,-0.222415,0.569000,-0.220000,0.569000,-0.218415,0.568757,-0.217829,0.568464,-0.217536,0.567050,-0.214122,0.565464,-0.212536,0.564757,-0.210829,0.564170,-0.210242,0.562464,-0.209536,0.561036,-0.208108,0.559953,-0.207566,0.557464,-0.206536,0.557170,-0.206242,0.556585,-0.206000,0.555000,-0.206000,0.552585,-0.205000,-0.254000,-0.205000,
-0.256415,-0.204000,-0.258000,-0.204000,-0.261536,-0.202536,-0.261829,-0.202242,-0.262415,-0.202000,-0.263000,-0.202000,-0.266536,-0.200536,-0.268829,-0.198242,-0.270536,-0.197536,-0.272536,-0.195536,-0.273242,-0.193829,-0.275536,-0.191536,-0.277000,-0.188000,-0.277000,-0.187415,-0.277242,-0.186829,-0.277536,-0.186536,-0.279000,-0.183000,-0.279000,-0.181415,-0.280000,-0.179000,-0.280000,0.179000,
-0.279000,0.181415,-0.279000,0.183000,-0.277536,0.186536,-0.277242,0.186829,-0.277000,0.187415,-0.277000,0.188000,-0.275536,0.191536,-0.273242,0.193829,-0.272536,0.195536,-0.270536,0.197536,-0.268829,0.198242,-0.266536,0.200536,-0.263000,0.202000,-0.262415,0.202000,-0.261829,0.202242,-0.261536,0.202536,-0.258000,0.204000,-0.256415,0.204000,-0.254000,0.205000,0.954000,0.205000,
0.956415,0.204000,0.956415,0.204000,$1*%
%AMFreePoly2*
4,1,121,0.256415,0.204000,0.258000,0.204000,0.261536,0.202536,0.261829,0.202242,0.262415,0.202000,0.263000,0.202000,0.266536,0.200536,0.268829,0.198242,0.270536,0.197536,0.272536,0.195536,0.273242,0.193829,0.275536,0.191536,0.277000,0.188000,0.277000,0.187415,0.277242,0.186829,0.277536,0.186536,0.279000,0.183000,0.279000,0.181415,0.280000,0.179000,0.280000,-0.179000,
0.279000,-0.181415,0.279000,-0.183000,0.277536,-0.186536,0.277242,-0.186829,0.277000,-0.187415,0.277000,-0.188000,0.275536,-0.191536,0.273242,-0.193829,0.272536,-0.195536,0.270536,-0.197536,0.268829,-0.198242,0.266536,-0.200536,0.263000,-0.202000,0.262415,-0.202000,0.261829,-0.202242,0.261536,-0.202536,0.258000,-0.204000,0.256415,-0.204000,0.254000,-0.205000,-0.552585,-0.205000,
-0.555000,-0.206000,-0.556585,-0.206000,-0.557170,-0.206242,-0.557464,-0.206536,-0.559953,-0.207566,-0.561036,-0.208108,-0.562464,-0.209536,-0.564170,-0.210242,-0.564757,-0.210829,-0.565464,-0.212536,-0.567050,-0.214122,-0.568464,-0.217536,-0.568757,-0.217829,-0.569000,-0.218415,-0.569000,-0.220000,-0.570000,-0.222415,-0.570000,-1.229000,-0.571000,-1.231415,-0.571000,-1.233000,-0.572464,-1.236536,
-0.572757,-1.236829,-0.573000,-1.237415,-0.573000,-1.238000,-0.574464,-1.241536,-0.576757,-1.243829,-0.577464,-1.245536,-0.579464,-1.247536,-0.581170,-1.248242,-0.582464,-1.249536,-0.583764,-1.250472,-0.585764,-1.251472,-0.587033,-1.251771,-0.588170,-1.252242,-0.588464,-1.252536,-0.592000,-1.254000,-0.593585,-1.254000,-0.596000,-1.255000,-0.954000,-1.255000,-0.956415,-1.254000,-0.958000,-1.254000,
-0.961536,-1.252536,-0.961829,-1.252242,-0.962966,-1.251771,-0.964236,-1.251472,-0.966236,-1.250472,-0.967536,-1.249536,-0.968829,-1.248242,-0.970536,-1.247536,-0.972536,-1.245536,-0.973242,-1.243829,-0.975536,-1.241536,-0.977000,-1.238000,-0.977000,-1.237415,-0.977242,-1.236829,-0.977536,-1.236536,-0.979000,-1.233000,-0.979000,-1.231415,-0.980000,-1.229000,-0.980000,0.179000,-0.979000,0.181415,
-0.979000,0.183000,-0.977536,0.186536,-0.977242,0.186829,-0.977000,0.187415,-0.977000,0.188000,-0.975536,0.191536,-0.973242,0.193829,-0.972536,0.195536,-0.970536,0.197536,-0.968829,0.198242,-0.967536,0.199536,-0.966236,0.200472,-0.964236,0.201472,-0.962966,0.201771,-0.961829,0.202242,-0.961536,0.202536,-0.958000,0.204000,-0.956415,0.204000,-0.954000,0.205000,0.254000,0.205000,
0.256415,0.204000,0.256415,0.204000,$1*%
%AMFreePoly3*
4,1,120,0.093915,0.279000,0.095500,0.279000,0.099036,0.277536,0.099329,0.277242,0.100466,0.276771,0.101736,0.276472,0.103736,0.275472,0.105036,0.274536,0.106329,0.273242,0.108036,0.272536,0.110036,0.270536,0.110742,0.268829,0.112036,0.267536,0.112972,0.266236,0.113972,0.264236,0.114271,0.262966,0.114742,0.261829,0.115036,0.261536,0.116500,0.258000,0.116500,0.256415,
0.117500,0.254000,0.117500,-0.152584,0.118500,-0.155000,0.118500,-0.156584,0.118742,-0.157170,0.119036,-0.157464,0.120449,-0.160877,0.122036,-0.162464,0.122742,-0.164170,0.123329,-0.164757,0.125036,-0.165464,0.126464,-0.166892,0.127546,-0.167433,0.130036,-0.168464,0.130329,-0.168757,0.130915,-0.169000,0.132500,-0.169000,0.134915,-0.170000,0.441500,-0.170000,0.443915,-0.171000,
0.445500,-0.171000,0.449036,-0.172464,0.449329,-0.172757,0.449915,-0.173000,0.450500,-0.173000,0.454036,-0.174464,0.456329,-0.176757,0.458036,-0.177464,0.460036,-0.179464,0.460742,-0.181170,0.463036,-0.183464,0.464500,-0.187000,0.464500,-0.187584,0.464742,-0.188170,0.465036,-0.188464,0.466500,-0.192000,0.466500,-0.193584,0.467500,-0.196000,0.467500,-0.404000,0.466500,-0.406415,
0.466500,-0.408000,0.465036,-0.411536,0.464742,-0.411829,0.464500,-0.412415,0.464500,-0.413000,0.463036,-0.416536,0.460742,-0.418829,0.460036,-0.420536,0.458036,-0.422536,0.456329,-0.423242,0.454036,-0.425536,0.450500,-0.427000,0.449915,-0.427000,0.449329,-0.427242,0.449036,-0.427536,0.445500,-0.429000,0.443915,-0.429000,0.441500,-0.430000,-0.091500,-0.430000,-0.093915,-0.429000,
-0.095500,-0.429000,-0.099036,-0.427536,-0.099329,-0.427242,-0.099915,-0.427000,-0.100500,-0.427000,-0.104036,-0.425536,-0.106329,-0.423242,-0.108036,-0.422536,-0.110036,-0.420536,-0.110742,-0.418829,-0.113036,-0.416536,-0.114500,-0.413000,-0.114500,-0.412415,-0.114742,-0.411829,-0.115036,-0.411536,-0.116500,-0.408000,-0.116500,-0.406415,-0.117500,-0.404000,-0.117500,0.254000,-0.116500,0.256415,
-0.116500,0.258000,-0.115036,0.261536,-0.114742,0.261829,-0.114500,0.262415,-0.114500,0.263000,-0.113036,0.266536,-0.110742,0.268829,-0.110036,0.270536,-0.108036,0.272536,-0.106329,0.273242,-0.104036,0.275536,-0.100500,0.277000,-0.099915,0.277000,-0.099329,0.277242,-0.099036,0.277536,-0.095500,0.279000,-0.093915,0.279000,-0.091500,0.280000,0.091500,0.280000,0.093915,0.279000,
0.093915,0.279000,$1*%
G04 Aperture macros list end*
%TA.AperFunction,ComponentPad*%
%ADD10R,1.700000X1.700000*%
%TD*%
%TA.AperFunction,ComponentPad*%
%ADD11C,1.700000*%
%TD*%
%TA.AperFunction,SMDPad,CuDef*%
%ADD12R,2.700000X1.700000*%
%TD*%
%TA.AperFunction,SMDPad,CuDef*%
%ADD13FreePoly0,90.000000*%
%TD*%
%TA.AperFunction,SMDPad,CuDef*%
%ADD14RoundRect,0.018750X0.106250X-0.256250X0.106250X0.256250X-0.106250X0.256250X-0.106250X-0.256250X0*%
%TD*%
%TA.AperFunction,SMDPad,CuDef*%
%ADD15FreePoly1,90.000000*%
%TD*%
%TA.AperFunction,SMDPad,CuDef*%
%ADD16RoundRect,0.030000X0.470000X-0.170000X0.470000X0.170000X-0.470000X0.170000X-0.470000X-0.170000X0*%
%TD*%
%TA.AperFunction,SMDPad,CuDef*%
%ADD17FreePoly2,90.000000*%
%TD*%
%TA.AperFunction,SMDPad,CuDef*%
%ADD18FreePoly3,90.000000*%
%TD*%
%TA.AperFunction,SMDPad,CuDef*%
%ADD19RoundRect,0.018750X0.256250X-0.106250X0.256250X0.106250X-0.256250X0.106250X-0.256250X-0.106250X0*%
%TD*%
%TA.AperFunction,SMDPad,CuDef*%
%ADD20RoundRect,0.225000X-0.250000X0.225000X-0.250000X-0.225000X0.250000X-0.225000X0.250000X0.225000X0*%
%TD*%
%TA.AperFunction,ComponentPad*%
%ADD21C,3.800000*%
%TD*%
%TA.AperFunction,SMDPad,CuDef*%
%ADD22RoundRect,0.200000X-0.275000X0.200000X-0.275000X-0.200000X0.275000X-0.200000X0.275000X0.200000X0*%
%TD*%
%TA.AperFunction,SMDPad,CuDef*%
%ADD23RoundRect,0.250000X-0.475000X0.250000X-0.475000X-0.250000X0.475000X-0.250000X0.475000X0.250000X0*%
%TD*%
%TA.AperFunction,SMDPad,CuDef*%
%ADD24RoundRect,0.250000X-0.650000X0.325000X-0.650000X-0.325000X0.650000X-0.325000X0.650000X0.325000X0*%
%TD*%
%TA.AperFunction,SMDPad,CuDef*%
%ADD25RoundRect,0.200000X-0.200000X-0.275000X0.200000X-0.275000X0.200000X0.275000X-0.200000X0.275000X0*%
%TD*%
%TA.AperFunction,ComponentPad*%
%ADD26R,1.222000X1.222000*%
%TD*%
%TA.AperFunction,ComponentPad*%
%ADD27C,1.222000*%
%TD*%
%TA.AperFunction,SMDPad,CuDef*%
%ADD28RoundRect,0.225000X-0.225000X-0.250000X0.225000X-0.250000X0.225000X0.250000X-0.225000X0.250000X0*%
%TD*%
%TA.AperFunction,SMDPad,CuDef*%
%ADD29RoundRect,0.250000X0.650000X-0.325000X0.650000X0.325000X-0.650000X0.325000X-0.650000X-0.325000X0*%
%TD*%
%TA.AperFunction,SMDPad,CuDef*%
%ADD30R,4.100000X4.100000*%
%TD*%
%TA.AperFunction,ViaPad*%
%ADD31C,0.600000*%
%TD*%
%TA.AperFunction,Conductor*%
%ADD32C,0.254000*%
%TD*%
%TA.AperFunction,Conductor*%
%ADD33C,0.200000*%
%TD*%
%TA.AperFunction,Conductor*%
%ADD34C,0.350000*%
%TD*%
G04 APERTURE END LIST*
D10*
%TO.P,J1,1,Pin_1*%
%TO.N,GND*%
X152930000Y-89495000D03*
D11*
%TO.P,J1,2,Pin_2*%
%TO.N,Vin*%
X152930000Y-86955000D03*
%TD*%
D12*
%TO.P,,2*%
%TO.N,GND*%
X193800000Y-91680000D03*
%TD*%
D13*
%TO.P,TPS1,1,FB*%
%TO.N,Net-(TPS1-FB)*%
X173325000Y-87737500D03*
D14*
%TO.P,TPS1,2,COMP*%
%TO.N,Net-(TPS1-COMP)*%
X174125000Y-87925000D03*
D15*
%TO.P,TPS1,3,PGND*%
%TO.N,GND*%
X174700000Y-87925000D03*
D16*
%TO.P,TPS1,4,SW*%
%TO.N,Net-(C1-Pad1)*%
X174750000Y-86500000D03*
D17*
%TO.P,TPS1,5,VOUT*%
%TO.N,Vout*%
X174700000Y-85075000D03*
D14*
%TO.P,TPS1,6,EN*%
%TO.N,Vin*%
X174125000Y-85075000D03*
D18*
%TO.P,TPS1,7,VIN*%
X173325000Y-85262500D03*
D19*
%TO.P,TPS1,8,BST*%
%TO.N,Net-(TPS1-BST)*%
X173325000Y-85750000D03*
%TO.P,TPS1,9,SW*%
%TO.N,Net-(C1-Pad1)*%
X173325000Y-86250000D03*
%TO.P,TPS1,10,AGND*%
%TO.N,GND*%
X173325000Y-86750000D03*
%TO.P,TPS1,11,VCC*%
%TO.N,Net-(TPS1-VCC)*%
X173325000Y-87250000D03*
%TD*%
D20*
%TO.P,C11,1*%
%TO.N,Net-(TPS1-FB)*%
X175500000Y-91525000D03*
%TO.P,C11,2*%
%TO.N,GND*%
X175500000Y-93075000D03*
%TD*%
D21*
%TO.P,H1,1*%
%TO.N,N/C*%
X2175000Y-2175000D03*
%TD*%
%TO.P,H4,1*%
%TO.N,N/C*%
X194370000Y-99510000D03*
%TD*%
D20*
%TO.P,C1,1*%
%TO.N,Net-(C1-Pad1)*%
X171500000Y-82625000D03*
%TO.P,C1,2*%
%TO.N,Net-(TPS1-BST)*%
X171500000Y-84175000D03*
%TD*%
D22*
%TO.P,R4,1*%
%TO.N,Net-(TPS1-FB)*%
X173500000Y-90075000D03*
%TO.P,R4,2*%
%TO.N,GND*%
X173500000Y-91725000D03*
%TD*%
D23*
%TO.P,C9,1*%
%TO.N,Vin*%
X163090000Y-94350000D03*
%TO.P,C9,2*%
%TO.N,GND*%
X163090000Y-96250000D03*
%TD*%
D24*
%TO.P,C2,1*%
%TO.N,Vout*%
X187500000Y-88510000D03*
%TO.P,C2,2*%
%TO.N,GND*%
X187500000Y-91460000D03*
%TD*%
D23*
%TO.P,C7,1*%
%TO.N,Net-(TPS1-VCC)*%
X171550000Y-91530000D03*
%TO.P,C7,2*%
%TO.N,GND*%
X171550000Y-93430000D03*
%TD*%
D20*
%TO.P,C10,1*%
%TO.N,Net-(TPS1-COMP)*%
X179520000Y-91425000D03*
%TO.P,C10,2*%
%TO.N,GND*%
X179520000Y-92975000D03*
%TD*%
D25*
%TO.P,R3,1*%
%TO.N,Net-(TPS1-COMP)*%
X175875000Y-89500000D03*
%TO.P,R3,2*%
%TO.N,Net-(C12-Pad1)*%
X177525000Y-89500000D03*
%TD*%
D26*
%TO.P,RV1,1,1*%
%TO.N,Vout*%
X178995500Y-97730000D03*
D27*
%TO.P,RV1,2,2*%
%TO.N,Net-(TPS1-FB)*%
X176455500Y-100270000D03*
%TO.P,RV1,3,3*%
X173915500Y-97730000D03*
%TD*%
D20*
%TO.P,C12,1*%
%TO.N,Net-(C12-Pad1)*%
X177460000Y-91600000D03*
%TO.P,C12,2*%
%TO.N,GND*%
X177460000Y-93150000D03*
%TD*%
D12*
%TO.P,,2*%
%TO.N,GND*%
X153000000Y-92470000D03*
%TD*%
D21*
%TO.P,H1,1*%
%TO.N,N/C*%
X152100000Y-77400000D03*
%TD*%
D28*
%TO.P,C8,1*%
%TO.N,Vin*%
X173625000Y-83800000D03*
%TO.P,C8,2*%
%TO.N,GND*%
X175175000Y-83800000D03*
%TD*%
D24*
%TO.P,C4,1*%
%TO.N,Vout*%
X182500000Y-88510000D03*
%TO.P,C4,2*%
%TO.N,GND*%
X182500000Y-91460000D03*
%TD*%
D29*
%TO.P,C6,1*%
%TO.N,Vout*%
X187500000Y-86475000D03*
%TO.P,C6,2*%
%TO.N,GND*%
X187500000Y-83525000D03*
%TD*%
D10*
%TO.P,J2,1,Pin_1*%
%TO.N,Vout*%
X193670000Y-86165000D03*
D11*
%TO.P,J2,2,Pin_2*%
%TO.N,GND*%
X193670000Y-88705000D03*
%TD*%
D21*
%TO.P,H3,1*%
%TO.N,N/C*%
X194640000Y-77300000D03*
%TD*%
D23*
%TO.P,C14,1*%
%TO.N,Vin*%
X158150000Y-94350000D03*
%TO.P,C14,2*%
%TO.N,GND*%
X158150000Y-96250000D03*
%TD*%
D29*
%TO.P,C15,1*%
%TO.N,Vout*%
X182500000Y-86460000D03*
%TO.P,C15,2*%
%TO.N,GND*%
X182500000Y-83510000D03*
%TD*%
D12*
%TO.P,,1*%
%TO.N,+5V*%
X152960000Y-83970000D03*
%TD*%
D23*
%TO.P,C13,1*%
%TO.N,Vin*%
X160620000Y-94350000D03*
%TO.P,C13,2*%
%TO.N,GND*%
X160620000Y-96250000D03*
%TD*%
D24*
%TO.P,C3,1*%
%TO.N,Vout*%
X185000000Y-88510000D03*
%TO.P,C3,2*%
%TO.N,GND*%
X185000000Y-91460000D03*
%TD*%
D30*
%TO.P,L1,1,1*%
%TO.N,Vin*%
X159250000Y-86000000D03*
%TO.P,L1,2,2*%
%TO.N,Net-(C1-Pad1)*%
X168750000Y-86000000D03*
%TD*%
D29*
%TO.P,C5,1*%
%TO.N,Vout*%
X185000000Y-86475000D03*
%TO.P,C5,2*%
%TO.N,GND*%
X185000000Y-83525000D03*
%TD*%
D21*
%TO.P,H2,1*%
%TO.N,N/C*%
X151870000Y-99470000D03*
%TD*%
D12*
%TO.P,,1*%
%TO.N,+15V*%
X193680000Y-83210000D03*
%TD*%
D31*
%TO.N,GND*%
X190000000Y-95500000D03*
X184000000Y-93000000D03*
X182500000Y-95500000D03*
X182500000Y-94200000D03*
X187000000Y-93000000D03*
X188500000Y-95500000D03*
X185500000Y-95500000D03*
X185500000Y-96800000D03*
X182500000Y-93000000D03*
X187000000Y-98000000D03*
X185500000Y-93000000D03*
X190000000Y-98000000D03*
X185500000Y-98000000D03*
X187000000Y-96800000D03*
X188500000Y-93000000D03*
X190000000Y-94200000D03*
X184000000Y-95500000D03*
X188500000Y-96800000D03*
X188500000Y-94200000D03*
X182500000Y-98000000D03*
X190000000Y-93000000D03*
X184000000Y-98000000D03*
X184000000Y-96800000D03*
X190000000Y-96800000D03*
X185500000Y-94200000D03*
X184000000Y-94200000D03*
X187000000Y-95500000D03*
X182500000Y-96800000D03*
X187000000Y-94200000D03*
X188500000Y-98000000D03*
X190000000Y-77200000D03*
X187000000Y-81000000D03*
X190000000Y-81000000D03*
X190000000Y-79800000D03*
X190000000Y-77200000D03*
X188500000Y-79800000D03*
X187000000Y-78600000D03*
X190000000Y-79800000D03*
X188500000Y-81000000D03*
X187000000Y-77200000D03*
X190000000Y-78600000D03*
X188500000Y-78600000D03*
X188500000Y-77200000D03*
X187000000Y-79800000D03*
X185000000Y-77200000D03*
X182000000Y-81000000D03*
X185000000Y-81000000D03*
X185000000Y-79800000D03*
X185000000Y-77200000D03*
X183500000Y-79800000D03*
X182000000Y-78600000D03*
X185000000Y-79800000D03*
X183500000Y-81000000D03*
X182000000Y-77200000D03*
X185000000Y-78600000D03*
X183500000Y-78600000D03*
X183500000Y-77200000D03*
X182000000Y-79800000D03*
X180000000Y-77200000D03*
X177000000Y-81000000D03*
X180000000Y-81000000D03*
X180000000Y-79800000D03*
X180000000Y-77200000D03*
X178500000Y-79800000D03*
X177000000Y-78600000D03*
X180000000Y-79800000D03*
X178500000Y-81000000D03*
X177000000Y-77200000D03*
X180000000Y-78600000D03*
X178500000Y-78600000D03*
X178500000Y-77200000D03*
X177000000Y-79800000D03*
X152000000Y-81750000D03*
X153500000Y-80550000D03*
X153500000Y-81750000D03*
X150500000Y-80550000D03*
X150500000Y-81750000D03*
X153500000Y-80550000D03*
X152000000Y-80550000D03*
X166300000Y-98920000D03*
X163700000Y-76300000D03*
X161950000Y-97640000D03*
X170840000Y-100050000D03*
X166340000Y-100050000D03*
X172600000Y-77500000D03*
X162200000Y-77500000D03*
X163450000Y-97640000D03*
X165100000Y-77500000D03*
X168100000Y-76300000D03*
X157370000Y-97690000D03*
X170800000Y-98920000D03*
X162200000Y-76300000D03*
X156200000Y-76300000D03*
X164950000Y-97640000D03*
X155870000Y-97690000D03*
X163700000Y-77500000D03*
X176600000Y-88100000D03*
X168100000Y-76300000D03*
X166600000Y-77500000D03*
X169300000Y-98920000D03*
X167200000Y-94700000D03*
X164950000Y-98940000D03*
X167200000Y-93200000D03*
X166300000Y-97620000D03*
X169300000Y-97620000D03*
X168500000Y-93200000D03*
X160700000Y-77500000D03*
X171100000Y-77500000D03*
X167800000Y-98920000D03*
X167200000Y-96200000D03*
X169600000Y-76300000D03*
X162200000Y-76300000D03*
X168500000Y-96200000D03*
X167840000Y-100050000D03*
X172600000Y-76300000D03*
X157700000Y-76300000D03*
X168500000Y-94700000D03*
X165100000Y-76300000D03*
X171100000Y-76300000D03*
X171100000Y-76300000D03*
X160450000Y-97640000D03*
X160700000Y-76300000D03*
X176600000Y-87200000D03*
X167200000Y-91700000D03*
X159200000Y-76300000D03*
X178400000Y-90600000D03*
X159200000Y-77500000D03*
X166600000Y-76300000D03*
X170800000Y-97620000D03*
X168500000Y-91700000D03*
X158870000Y-97690000D03*
X157700000Y-77500000D03*
X167800000Y-97620000D03*
X164950000Y-100080000D03*
X168100000Y-77500000D03*
X169600000Y-77500000D03*
X159200000Y-76300000D03*
X169340000Y-100050000D03*
X156200000Y-77500000D03*
%TO.N,Vout*%
X180800000Y-88400000D03*
X176600000Y-85400000D03*
X178400000Y-86400000D03*
X180000000Y-86500000D03*
X180000000Y-85400000D03*
X180000000Y-87600000D03*
X178400000Y-85400000D03*
%TO.N,GND*%
X163450000Y-100090000D03*
X163450000Y-98950000D03*
%TD*%
D32*
%TO.N,GND*%
X174700000Y-87646602D02*
X174700000Y-87925000D01*
X173803398Y-86750000D02*
X174700000Y-87646602D01*
X173325000Y-86750000D02*
X173803398Y-86750000D01*
D33*
%TO.N,Net-(TPS1-COMP)*%
X175875000Y-89500000D02*
X175875000Y-88825000D01*
X176000000Y-88700000D02*
X178590000Y-88700000D01*
D32*
X174125000Y-87925000D02*
X174125000Y-88625000D01*
D33*
X175875000Y-88825000D02*
X176000000Y-88700000D01*
X175875000Y-89500000D02*
X175000000Y-89500000D01*
X174125000Y-88625000D02*
X174905000Y-89405000D01*
X175000000Y-89500000D02*
X174905000Y-89405000D01*
X179500000Y-89610000D02*
X179500000Y-91180000D01*
X178590000Y-88700000D02*
X179500000Y-89610000D01*
D32*
%TO.N,Vout*%
X174700000Y-85075000D02*
X174915000Y-85075000D01*
D33*
%TO.N,Net-(C12-Pad1)*%
X177525000Y-91625000D02*
X177500000Y-91650000D01*
X177525000Y-89600000D02*
X177525000Y-91625000D01*
D32*
%TO.N,Net-(TPS1-BST)*%
X172953924Y-85750000D02*
X171500000Y-84296076D01*
X172953924Y-85750000D02*
X173325000Y-85750000D01*
X171500000Y-84296076D02*
X171500000Y-84225000D01*
%TO.N,Net-(TPS1-VCC)*%
X172750000Y-87250000D02*
X172000000Y-88000000D01*
D33*
X172000000Y-88000000D02*
X171550000Y-88450000D01*
D32*
X173325000Y-87250000D02*
X172750000Y-87250000D01*
D33*
X171550000Y-88450000D02*
X171550000Y-91530000D01*
%TO.N,Net-(TPS1-FB)*%
X173500000Y-87912500D02*
X173500000Y-90075000D01*
X173325000Y-87737500D02*
X173500000Y-87912500D01*
X175500000Y-90900000D02*
X175500000Y-91300000D01*
X173925000Y-90500000D02*
X175100000Y-90500000D01*
X175100000Y-90500000D02*
X175500000Y-90900000D01*
D34*
X176455500Y-100270000D02*
X173915500Y-97730000D01*
D33*
X173500000Y-90075000D02*
X173925000Y-90500000D01*
D32*
X173915500Y-97730000D02*
X173915500Y-93084500D01*
X175500000Y-91500000D02*
X175500000Y-91300000D01*
X173915500Y-93084500D02*
X175500000Y-91500000D01*
%TD*%
%TA.AperFunction,Conductor*%
%TO.N,Vout*%
G36*
X181485000Y-89985000D02*
G01*
X181485000Y-90830107D01*
X181465315Y-90897146D01*
X181460770Y-90903740D01*
X181447209Y-90922113D01*
X181447206Y-90922119D01*
X181402353Y-91050298D01*
X181402353Y-91050300D01*
X181399500Y-91080730D01*
X181399500Y-91839269D01*
X181402353Y-91869699D01*
X181402353Y-91869701D01*
X181447206Y-91997881D01*
X181447207Y-91997882D01*
X181460769Y-92016258D01*
X181484741Y-92081885D01*
X181485000Y-92089892D01*
X181485000Y-97563638D01*
X181465315Y-97630677D01*
X181448681Y-97651319D01*
X180436319Y-98663681D01*
X180374996Y-98697166D01*
X180348638Y-98700000D01*
X177624000Y-98700000D01*
X177556961Y-98680315D01*
X177511206Y-98627511D01*
X177500000Y-98576000D01*
X177500000Y-97024000D01*
X177519685Y-96956961D01*
X177572489Y-96911206D01*
X177624000Y-96900000D01*
X179500000Y-96900000D01*
X180100000Y-96300000D01*
X180100000Y-93519011D01*
X180116418Y-93463097D01*
X180114097Y-93461915D01*
X180118526Y-93453221D01*
X180118528Y-93453220D01*
X180179719Y-93333126D01*
X180179720Y-93333121D01*
X180195500Y-93233493D01*
X180195500Y-92716506D01*
X180179720Y-92616878D01*
X180179719Y-92616876D01*
X180179719Y-92616874D01*
X180118528Y-92496780D01*
X180118526Y-92496778D01*
X180114097Y-92488085D01*
X180117432Y-92486385D01*
X180100198Y-92437998D01*
X180100000Y-92430988D01*
X180100000Y-91969011D01*
X180116418Y-91913097D01*
X180114097Y-91911915D01*
X180118526Y-91903221D01*
X180118528Y-91903220D01*
X180179719Y-91783126D01*
X180179720Y-91783121D01*
X180195500Y-91683493D01*
X180195500Y-91166506D01*
X180179720Y-91066878D01*
X180179719Y-91066876D01*
X180179719Y-91066874D01*
X180118528Y-90946780D01*
X180118526Y-90946778D01*
X180114097Y-90938085D01*
X180117432Y-90936385D01*
X180100198Y-90887998D01*
X180100000Y-90880988D01*
X180100000Y-88600000D01*
X181485000Y-89985000D01*
G37*
%TD.AperFunction*%
%TD*%
%TA.AperFunction,Conductor*%
%TO.N,Net-(C1-Pad1)*%
G36*
X171972568Y-81400070D02*
G01*
X172039268Y-81420869D01*
X172084137Y-81474428D01*
X172094500Y-81524053D01*
X172094500Y-83176000D01*
X172074815Y-83243039D01*
X172022011Y-83288794D01*
X171970500Y-83300000D01*
X171000000Y-83300000D01*
X171000000Y-83546889D01*
X170980315Y-83613928D01*
X170963681Y-83634570D01*
X170901476Y-83696774D01*
X170901473Y-83696778D01*
X170840279Y-83816878D01*
X170824500Y-83916506D01*
X170824500Y-84433493D01*
X170840279Y-84533121D01*
X170840280Y-84533124D01*
X170840281Y-84533126D01*
X170901472Y-84653220D01*
X170901473Y-84653221D01*
X170901476Y-84653225D01*
X170996774Y-84748523D01*
X170996778Y-84748526D01*
X170996780Y-84748528D01*
X171116874Y-84809719D01*
X171116876Y-84809719D01*
X171116878Y-84809720D01*
X171216507Y-84825500D01*
X171216512Y-84825500D01*
X171514907Y-84825500D01*
X171581946Y-84845185D01*
X171602588Y-84861819D01*
X172691859Y-85951090D01*
X172752834Y-86012065D01*
X172827514Y-86055181D01*
X172910808Y-86077500D01*
X172910810Y-86077500D01*
X173368118Y-86077500D01*
X173375248Y-86076561D01*
X173378555Y-86077076D01*
X173381686Y-86075883D01*
X173391439Y-86075499D01*
X173602841Y-86075499D01*
X173602842Y-86075499D01*
X173666797Y-86062779D01*
X173729475Y-86020897D01*
X173796152Y-86000020D01*
X173798366Y-86000000D01*
X174175188Y-86000000D01*
X174197923Y-86006675D01*
X174221511Y-86008977D01*
X174230833Y-86016339D01*
X174242227Y-86019685D01*
X174257743Y-86037591D01*
X174276343Y-86052281D01*
X174283882Y-86067757D01*
X174287982Y-86072489D01*
X174292451Y-86083685D01*
X174293797Y-86087601D01*
X174294053Y-86088684D01*
X174296323Y-86094949D01*
X174296676Y-86095974D01*
X174296703Y-86096580D01*
X174298198Y-86101933D01*
X174298396Y-86101874D01*
X174298993Y-86103846D01*
X174300009Y-86107902D01*
X174301149Y-86111657D01*
X174312970Y-86140193D01*
X174314026Y-86141017D01*
X174317498Y-86145701D01*
X174328338Y-86163619D01*
X174330211Y-86166218D01*
X174349618Y-86189028D01*
X174352096Y-86192371D01*
X174352198Y-86192650D01*
X174353621Y-86194383D01*
X174355615Y-86196378D01*
X174357770Y-86198146D01*
X174426276Y-86243921D01*
X174426285Y-86243927D01*
X174433356Y-86246856D01*
X174434066Y-86247150D01*
X174434806Y-86247385D01*
X174438353Y-86248855D01*
X174441204Y-86249421D01*
X174441650Y-86249563D01*
X174442353Y-86249855D01*
X174442924Y-86249968D01*
X174447055Y-86251283D01*
X174447469Y-86251409D01*
X174447525Y-86251432D01*
X174447824Y-86251528D01*
X174447952Y-86251614D01*
X174471980Y-86261840D01*
X174499063Y-86276990D01*
X174566102Y-86296675D01*
X174624000Y-86305000D01*
X175175070Y-86305000D01*
X175240590Y-86323723D01*
X175256333Y-86333521D01*
X175262937Y-86341494D01*
X175299000Y-86376918D01*
X175305291Y-86382843D01*
X175385108Y-86427490D01*
X175427166Y-86439839D01*
X175441520Y-86448773D01*
X175453974Y-86462732D01*
X175469712Y-86472846D01*
X175476753Y-86488262D01*
X175488035Y-86500908D01*
X175490965Y-86519382D01*
X175498738Y-86536401D01*
X175500000Y-86554050D01*
X175500000Y-86610500D01*
X175480315Y-86677539D01*
X175427511Y-86723294D01*
X175376000Y-86734500D01*
X174520998Y-86734500D01*
X174442945Y-86750027D01*
X174442943Y-86750027D01*
X174442353Y-86750145D01*
X174441616Y-86750449D01*
X174441233Y-86750571D01*
X174438353Y-86751145D01*
X174434758Y-86752633D01*
X174434003Y-86752874D01*
X174426294Y-86756068D01*
X174426271Y-86756081D01*
X174418778Y-86761087D01*
X174352099Y-86781960D01*
X174284720Y-86763471D01*
X174262214Y-86745661D01*
X174004489Y-86487936D01*
X174004488Y-86487935D01*
X173929808Y-86444819D01*
X173929809Y-86444819D01*
X173901452Y-86437221D01*
X173846514Y-86422500D01*
X173281884Y-86422500D01*
X173281882Y-86422500D01*
X173274738Y-86423440D01*
X173269121Y-86423808D01*
X173268314Y-86424116D01*
X173267387Y-86423921D01*
X173258562Y-86424500D01*
X173047159Y-86424500D01*
X172983202Y-86437221D01*
X172910679Y-86485679D01*
X172862220Y-86558204D01*
X172862219Y-86558205D01*
X172849800Y-86620644D01*
X172817415Y-86682555D01*
X172815864Y-86684134D01*
X170536319Y-88963681D01*
X170474996Y-88997166D01*
X170448638Y-89000000D01*
X166629500Y-89000000D01*
X166562461Y-88980315D01*
X166516706Y-88927511D01*
X166505500Y-88876000D01*
X166505500Y-81435037D01*
X166525185Y-81367998D01*
X166577989Y-81322243D01*
X166631565Y-81311054D01*
X171972568Y-81400070D01*
G37*
%TD.AperFunction*%
%TD*%
%TA.AperFunction,Conductor*%
%TO.N,Vin*%
G36*
X151424411Y-82809685D02*
G01*
X151470166Y-82862489D01*
X151480110Y-82931647D01*
X151460474Y-82982891D01*
X151421132Y-83041769D01*
X151421131Y-83041770D01*
X151409500Y-83100247D01*
X151409500Y-84839752D01*
X151421131Y-84898229D01*
X151421132Y-84898230D01*
X151465447Y-84964552D01*
X151531769Y-85008867D01*
X151531770Y-85008868D01*
X151590247Y-85020499D01*
X151590250Y-85020500D01*
X151590252Y-85020500D01*
X154329750Y-85020500D01*
X154329751Y-85020499D01*
X154344568Y-85017552D01*
X154388229Y-85008868D01*
X154388229Y-85008867D01*
X154388231Y-85008867D01*
X154454552Y-84964552D01*
X154498867Y-84898231D01*
X154498867Y-84898229D01*
X154498868Y-84898229D01*
X154510499Y-84839752D01*
X154510500Y-84839750D01*
X154510500Y-83100249D01*
X154510499Y-83100247D01*
X154498868Y-83041770D01*
X154498867Y-83041769D01*
X154459526Y-82982891D01*
X154438648Y-82916214D01*
X154457132Y-82848833D01*
X154509111Y-82802143D01*
X154562628Y-82790000D01*
X155000000Y-82790000D01*
X156770000Y-82790000D01*
X156770000Y-88050000D01*
X156390000Y-88430000D01*
X150511362Y-88430000D01*
X150481921Y-88421355D01*
X150451935Y-88414832D01*
X150446919Y-88411077D01*
X150444323Y-88410315D01*
X150423681Y-88393681D01*
X150266319Y-88236319D01*
X150232834Y-88174996D01*
X150230000Y-88148638D01*
X150230000Y-82914000D01*
X150249685Y-82846961D01*
X150302489Y-82801206D01*
X150354000Y-82790000D01*
X151357372Y-82790000D01*
X151424411Y-82809685D01*
G37*
%TD.AperFunction*%
%TD*%
%TA.AperFunction,Conductor*%
%TO.N,Vin*%
G36*
X174243039Y-79019685D02*
G01*
X174288794Y-79072489D01*
X174300000Y-79124000D01*
X174300000Y-84730867D01*
X174297617Y-84755060D01*
X174284500Y-84820998D01*
X174284500Y-85276000D01*
X174264815Y-85343039D01*
X174212011Y-85388794D01*
X174160500Y-85400000D01*
X173118441Y-85400000D01*
X173051402Y-85380315D01*
X173030760Y-85363681D01*
X172336319Y-84669240D01*
X172302834Y-84607917D01*
X172300000Y-84581559D01*
X172300000Y-81200000D01*
X166300000Y-81100000D01*
X166300000Y-95101000D01*
X166280315Y-95168039D01*
X166227511Y-95213794D01*
X166176000Y-95225000D01*
X155876362Y-95225000D01*
X155809323Y-95205315D01*
X155788681Y-95188681D01*
X155036319Y-94436319D01*
X155002834Y-94374996D01*
X155000000Y-94348638D01*
X155000000Y-88430000D01*
X156390000Y-88430000D01*
X156770000Y-88050000D01*
X156770000Y-82790000D01*
X155000000Y-82790000D01*
X155000000Y-79124000D01*
X155019685Y-79056961D01*
X155072489Y-79011206D01*
X155124000Y-79000000D01*
X174176000Y-79000000D01*
X174243039Y-79019685D01*
G37*
%TD.AperFunction*%
%TD*%
%TA.AperFunction,Conductor*%
%TO.N,Vout*%
G36*
X192089599Y-82139685D02*
G01*
X192135354Y-82192489D01*
X192145298Y-82261647D01*
X192143088Y-82269705D01*
X192143515Y-82269790D01*
X192129500Y-82340247D01*
X192129500Y-84079752D01*
X192141131Y-84138229D01*
X192141132Y-84138230D01*
X192185447Y-84204552D01*
X192251769Y-84248867D01*
X192251770Y-84248868D01*
X192310247Y-84260499D01*
X192310250Y-84260500D01*
X192310252Y-84260500D01*
X195049750Y-84260500D01*
X195049751Y-84260499D01*
X195064568Y-84257552D01*
X195108229Y-84248868D01*
X195108229Y-84248867D01*
X195108231Y-84248867D01*
X195174552Y-84204552D01*
X195212898Y-84147163D01*
X195266510Y-84102359D01*
X195335835Y-84093652D01*
X195398863Y-84123807D01*
X195435582Y-84183250D01*
X195440000Y-84216055D01*
X195440000Y-87216000D01*
X195420315Y-87283039D01*
X195367511Y-87328794D01*
X195316000Y-87340000D01*
X190971362Y-87340000D01*
X190904323Y-87320315D01*
X190883681Y-87303681D01*
X190830000Y-87250000D01*
X189590000Y-86010000D01*
X189590000Y-82631362D01*
X189609685Y-82564323D01*
X189626319Y-82543681D01*
X190013681Y-82156319D01*
X190075004Y-82122834D01*
X190101362Y-82120000D01*
X192022560Y-82120000D01*
X192089599Y-82139685D01*
G37*
%TD.AperFunction*%
%TD*%
%TA.AperFunction,Conductor*%
%TO.N,Vout*%
G36*
X187799272Y-84705402D02*
G01*
X187833089Y-84707555D01*
X189590000Y-84707555D01*
X189590000Y-86010000D01*
X190830000Y-87250000D01*
X190750000Y-87250000D01*
X190749999Y-87250000D01*
X188051319Y-89948681D01*
X187989996Y-89982166D01*
X187963638Y-89985000D01*
X181485000Y-89985000D01*
X177750000Y-86250000D01*
X175510045Y-86250000D01*
X175443006Y-86230315D01*
X175406943Y-86194891D01*
X175386180Y-86163817D01*
X175309939Y-86112875D01*
X175309933Y-86112872D01*
X175242705Y-86099500D01*
X174624000Y-86099500D01*
X174556961Y-86079815D01*
X174511206Y-86027011D01*
X174500000Y-85975500D01*
X174500000Y-84874000D01*
X174519685Y-84806961D01*
X174572489Y-84761206D01*
X174624000Y-84750000D01*
X182000037Y-84750000D01*
X184724131Y-84728903D01*
X187790454Y-84705157D01*
X187799272Y-84705402D01*
G37*
%TD.AperFunction*%
%TD*%
%TA.AperFunction,Conductor*%
%TO.N,GND*%
G36*
X177680557Y-86475185D02*
G01*
X177701199Y-86491819D01*
X179858181Y-88648801D01*
X179891666Y-88710124D01*
X179894500Y-88736482D01*
X179894500Y-89280167D01*
X179874815Y-89347206D01*
X179822011Y-89392961D01*
X179752853Y-89402905D01*
X179689297Y-89373880D01*
X179682819Y-89367848D01*
X178774512Y-88459541D01*
X178774504Y-88459535D01*
X178705995Y-88419982D01*
X178705990Y-88419979D01*
X178680513Y-88413152D01*
X178629562Y-88399500D01*
X176039562Y-88399500D01*
X175960438Y-88399500D01*
X175884010Y-88419978D01*
X175815489Y-88459540D01*
X175815486Y-88459542D01*
X175634541Y-88640487D01*
X175634535Y-88640495D01*
X175594982Y-88709004D01*
X175594977Y-88709015D01*
X175575979Y-88779916D01*
X175539614Y-88839576D01*
X175512501Y-88858305D01*
X175436659Y-88896949D01*
X175436652Y-88896954D01*
X175346954Y-88986652D01*
X175346951Y-88986657D01*
X175346950Y-88986658D01*
X175322764Y-89034126D01*
X175289349Y-89099705D01*
X175286967Y-89107036D01*
X175247524Y-89164708D01*
X175183163Y-89191900D01*
X175114318Y-89179979D01*
X175081359Y-89156388D01*
X174488819Y-88563848D01*
X174455334Y-88502525D01*
X174452500Y-88476167D01*
X174452500Y-87881881D01*
X174451560Y-87874742D01*
X174450499Y-87858557D01*
X174450499Y-87647158D01*
X174445962Y-87624347D01*
X174437779Y-87583203D01*
X174407024Y-87537175D01*
X174389320Y-87510679D01*
X174335050Y-87474417D01*
X174316797Y-87462221D01*
X174316796Y-87462220D01*
X174316795Y-87462220D01*
X174316794Y-87462219D01*
X174252845Y-87449500D01*
X173997158Y-87449500D01*
X173997157Y-87449501D01*
X173948687Y-87459141D01*
X173879095Y-87452912D01*
X173823919Y-87410047D01*
X173800677Y-87344157D01*
X173800499Y-87337554D01*
X173800499Y-87122158D01*
X173787779Y-87058203D01*
X173771699Y-87034138D01*
X173739320Y-86985679D01*
X173670956Y-86940000D01*
X173666797Y-86937221D01*
X173666796Y-86937220D01*
X173666795Y-86937220D01*
X173666794Y-86937219D01*
X173602847Y-86924500D01*
X173602843Y-86924500D01*
X173391437Y-86924500D01*
X173383287Y-86922475D01*
X173375255Y-86923440D01*
X173368118Y-86922500D01*
X173368116Y-86922500D01*
X173368113Y-86922500D01*
X173128622Y-86922500D01*
X173061583Y-86902815D01*
X173015828Y-86850011D01*
X173005884Y-86780853D01*
X173018746Y-86741026D01*
X173021668Y-86735440D01*
X173031892Y-86715895D01*
X173033004Y-86712744D01*
X173033661Y-86711832D01*
X173033666Y-86711822D01*
X173033668Y-86711822D01*
X173073872Y-86656073D01*
X173138891Y-86630493D01*
X173149940Y-86630000D01*
X173236299Y-86630000D01*
X173258562Y-86630000D01*
X173272016Y-86629559D01*
X173280841Y-86628980D01*
X173280840Y-86628979D01*
X173282555Y-86628867D01*
X173282556Y-86628868D01*
X173288173Y-86628500D01*
X173288190Y-86628498D01*
X173290164Y-86628369D01*
X173290237Y-86628363D01*
X173291751Y-86628264D01*
X173299842Y-86628000D01*
X173802571Y-86628000D01*
X173869610Y-86647685D01*
X173890252Y-86664319D01*
X174116904Y-86890971D01*
X174134691Y-86906808D01*
X174157197Y-86924618D01*
X174230340Y-86961645D01*
X174230342Y-86961645D01*
X174230346Y-86961647D01*
X174297692Y-86980127D01*
X174297700Y-86980128D01*
X174297719Y-86980134D01*
X174322319Y-86985291D01*
X174413490Y-86978076D01*
X174413495Y-86978074D01*
X174413498Y-86978074D01*
X174480160Y-86957206D01*
X174480161Y-86957205D01*
X174480169Y-86957203D01*
X174484203Y-86955272D01*
X174513522Y-86945513D01*
X174529275Y-86942380D01*
X174553454Y-86940000D01*
X175375991Y-86940000D01*
X175376000Y-86940000D01*
X175419684Y-86935303D01*
X175448875Y-86928952D01*
X175471174Y-86924102D01*
X175471190Y-86924098D01*
X175471195Y-86924097D01*
X175481373Y-86921610D01*
X175562085Y-86878600D01*
X175614889Y-86832845D01*
X175632843Y-86815254D01*
X175677490Y-86735437D01*
X175697175Y-86668398D01*
X175705500Y-86610500D01*
X175705500Y-86579500D01*
X175725185Y-86512461D01*
X175777989Y-86466706D01*
X175829500Y-86455500D01*
X177613518Y-86455500D01*
X177680557Y-86475185D01*
G37*
%TD.AperFunction*%
%TA.AperFunction,Conductor*%
G36*
X196506922Y-74801280D02*
G01*
X196597266Y-74811459D01*
X196624331Y-74817636D01*
X196703540Y-74845352D01*
X196728553Y-74857398D01*
X196799606Y-74902043D01*
X196821313Y-74919355D01*
X196880644Y-74978686D01*
X196897957Y-75000395D01*
X196942600Y-75071444D01*
X196954648Y-75096462D01*
X196982362Y-75175666D01*
X196988540Y-75202735D01*
X196998720Y-75293076D01*
X196999500Y-75306961D01*
X196999500Y-101393038D01*
X196998720Y-101406922D01*
X196998720Y-101406923D01*
X196988540Y-101497264D01*
X196982362Y-101524333D01*
X196954648Y-101603537D01*
X196942600Y-101628555D01*
X196897957Y-101699604D01*
X196880644Y-101721313D01*
X196821313Y-101780644D01*
X196799604Y-101797957D01*
X196728555Y-101842600D01*
X196703537Y-101854648D01*
X196624333Y-101882362D01*
X196597264Y-101888540D01*
X196517075Y-101897576D01*
X196506921Y-101898720D01*
X196493038Y-101899500D01*
X149906962Y-101899500D01*
X149893078Y-101898720D01*
X149880553Y-101897308D01*
X149802735Y-101888540D01*
X149775666Y-101882362D01*
X149696462Y-101854648D01*
X149671444Y-101842600D01*
X149600395Y-101797957D01*
X149578686Y-101780644D01*
X149519355Y-101721313D01*
X149502042Y-101699604D01*
X149457399Y-101628555D01*
X149445351Y-101603537D01*
X149433790Y-101570498D01*
X149417636Y-101524331D01*
X149411459Y-101497263D01*
X149401280Y-101406922D01*
X149400500Y-101393038D01*
X149400500Y-99332332D01*
X149769500Y-99332332D01*
X149769500Y-99607667D01*
X149769501Y-99607684D01*
X149805438Y-99880655D01*
X149805439Y-99880660D01*
X149805440Y-99880666D01*
X149841072Y-100013649D01*
X149876704Y-100146630D01*
X149982075Y-100401017D01*
X149982080Y-100401028D01*
X150043094Y-100506706D01*
X150119751Y-100639479D01*
X150119753Y-100639482D01*
X150119754Y-100639483D01*
X150287370Y-100857926D01*
X150287376Y-100857933D01*
X150482066Y-101052623D01*
X150482073Y-101052629D01*
X150610403Y-101151099D01*
X150700521Y-101220249D01*
X150853778Y-101308732D01*
X150938971Y-101357919D01*
X150938976Y-101357921D01*
X150938979Y-101357923D01*
X151193368Y-101463295D01*
X151459334Y-101534560D01*
X151732326Y-101570500D01*
X151732333Y-101570500D01*
X152007667Y-101570500D01*
X152007674Y-101570500D01*
X152280666Y-101534560D01*
X152546632Y-101463295D01*
X152801021Y-101357923D01*
X153039479Y-101220249D01*
X153257928Y-101052628D01*
X153452628Y-100857928D01*
X153620249Y-100639479D01*
X153757923Y-100401021D01*
X153863295Y-100146632D01*
X153934560Y-99880666D01*
X153970500Y-99607674D01*
X153970500Y-99332326D01*
X153934560Y-99059334D01*
X153863295Y-98793368D01*
X153757923Y-98538979D01*
X153757921Y-98538976D01*
X153757919Y-98538971D01*
X153706056Y-98449143D01*
X153620249Y-98300521D01*
X153477431Y-98114396D01*
X153452629Y-98082073D01*
X153452623Y-98082066D01*
X153257933Y-97887376D01*
X153257926Y-97887370D01*
X153039483Y-97719754D01*
X153039482Y-97719753D01*
X153039479Y-97719751D01*
X152918795Y-97650074D01*
X152801028Y-97582080D01*
X152801017Y-97582075D01*
X152546630Y-97476704D01*
X152413649Y-97441072D01*
X152280666Y-97405440D01*
X152280660Y-97405439D01*
X152280655Y-97405438D01*
X152007684Y-97369501D01*
X152007679Y-97369500D01*
X152007674Y-97369500D01*
X151732326Y-97369500D01*
X151732320Y-97369500D01*
X151732315Y-97369501D01*
X151459344Y-97405438D01*
X151459337Y-97405439D01*
X151459334Y-97405440D01*
X151403125Y-97420500D01*
X151193369Y-97476704D01*
X150938982Y-97582075D01*
X150938971Y-97582080D01*
X150700516Y-97719754D01*
X150482073Y-97887370D01*
X150482066Y-97887376D01*
X150287376Y-98082066D01*
X150287370Y-98082073D01*
X150119754Y-98300516D01*
X149982080Y-98538971D01*
X149982075Y-98538982D01*
X149876704Y-98793369D01*
X149805441Y-99059331D01*
X149805438Y-99059344D01*
X149769501Y-99332315D01*
X149769500Y-99332332D01*
X149400500Y-99332332D01*
X149400500Y-82914003D01*
X150024500Y-82914003D01*
X150024500Y-88148638D01*
X150025678Y-88170618D01*
X150028511Y-88196965D01*
X150028512Y-88196967D01*
X150045586Y-88251494D01*
X150048895Y-88262063D01*
X150052470Y-88273478D01*
X150052471Y-88273483D01*
X150066872Y-88299855D01*
X150085956Y-88334805D01*
X150085958Y-88334808D01*
X150085960Y-88334811D01*
X150120998Y-88381615D01*
X150121002Y-88381619D01*
X150121009Y-88381629D01*
X150215547Y-88476167D01*
X150278379Y-88538999D01*
X150289669Y-88549141D01*
X150289695Y-88549163D01*
X150294738Y-88553693D01*
X150315380Y-88570327D01*
X150315387Y-88570330D01*
X150320477Y-88573667D01*
X150320320Y-88573905D01*
X150327884Y-88578670D01*
X150328782Y-88579342D01*
X150359013Y-88593148D01*
X150386445Y-88607496D01*
X150389041Y-88608258D01*
X150389402Y-88607026D01*
X150408253Y-88615636D01*
X150426762Y-88619662D01*
X150435310Y-88621844D01*
X150453464Y-88627175D01*
X150511362Y-88635500D01*
X154670500Y-88635500D01*
X154737539Y-88655185D01*
X154783294Y-88707989D01*
X154794500Y-88759500D01*
X154794500Y-94348638D01*
X154795678Y-94370618D01*
X154798511Y-94396965D01*
X154798512Y-94396967D01*
X154822470Y-94473478D01*
X154822471Y-94473483D01*
X154836872Y-94499855D01*
X154855956Y-94534805D01*
X154855958Y-94534808D01*
X154855960Y-94534811D01*
X154890998Y-94581615D01*
X154891002Y-94581619D01*
X154891009Y-94581629D01*
X154891016Y-94581636D01*
X155643365Y-95333986D01*
X155643366Y-95333987D01*
X155659716Y-95348674D01*
X155659730Y-95348686D01*
X155659738Y-95348693D01*
X155668136Y-95355460D01*
X155680379Y-95365327D01*
X155751424Y-95402490D01*
X155818456Y-95422173D01*
X155818458Y-95422173D01*
X155818464Y-95422175D01*
X155876362Y-95430500D01*
X155876366Y-95430500D01*
X166175991Y-95430500D01*
X166176000Y-95430500D01*
X166219684Y-95425803D01*
X166248875Y-95419452D01*
X166271174Y-95414602D01*
X166271190Y-95414598D01*
X166271195Y-95414597D01*
X166281373Y-95412110D01*
X166362085Y-95369100D01*
X166414889Y-95323345D01*
X166432843Y-95305754D01*
X166477490Y-95225937D01*
X166497175Y-95158898D01*
X166505500Y-95101000D01*
X166505500Y-89329500D01*
X166525185Y-89262461D01*
X166577989Y-89216706D01*
X166629500Y-89205500D01*
X170448639Y-89205500D01*
X170451180Y-89205363D01*
X170470607Y-89204322D01*
X170470614Y-89204321D01*
X170470618Y-89204321D01*
X170496965Y-89201488D01*
X170573482Y-89177529D01*
X170634805Y-89144044D01*
X170681630Y-89108991D01*
X171037819Y-88752800D01*
X171099142Y-88719316D01*
X171168833Y-88724300D01*
X171224767Y-88766171D01*
X171249184Y-88831636D01*
X171249500Y-88840482D01*
X171249500Y-90705500D01*
X171229815Y-90772539D01*
X171177011Y-90818294D01*
X171125500Y-90829500D01*
X171020730Y-90829500D01*
X170990300Y-90832353D01*
X170990298Y-90832353D01*
X170862119Y-90877206D01*
X170862117Y-90877207D01*
X170752850Y-90957850D01*
X170672207Y-91067117D01*
X170672206Y-91067119D01*
X170627353Y-91195298D01*
X170627353Y-91195300D01*
X170624500Y-91225730D01*
X170624500Y-91834269D01*
X170627353Y-91864699D01*
X170627353Y-91864701D01*
X170660045Y-91958126D01*
X170672207Y-91992882D01*
X170752850Y-92102150D01*
X170862118Y-92182793D01*
X170904845Y-92197744D01*
X170990299Y-92227646D01*
X171020730Y-92230500D01*
X171020734Y-92230500D01*
X172079270Y-92230500D01*
X172109699Y-92227646D01*
X172109701Y-92227646D01*
X172173790Y-92205219D01*
X172237882Y-92182793D01*
X172347150Y-92102150D01*
X172427793Y-91992882D01*
X172457569Y-91907786D01*
X172472646Y-91864701D01*
X172472646Y-91864699D01*
X172475500Y-91834269D01*
X172475500Y-91225730D01*
X172472646Y-91195300D01*
X172472646Y-91195298D01*
X172427793Y-91067119D01*
X172427792Y-91067117D01*
X172412781Y-91046778D01*
X172347150Y-90957850D01*
X172237882Y-90877207D01*
X172237880Y-90877206D01*
X172109700Y-90832353D01*
X172079270Y-90829500D01*
X172079266Y-90829500D01*
X171974500Y-90829500D01*
X171907461Y-90809815D01*
X171861706Y-90757011D01*
X171850500Y-90705500D01*
X171850500Y-88625832D01*
X171870185Y-88558793D01*
X171886815Y-88538155D01*
X172099203Y-88325766D01*
X172124881Y-88306063D01*
X172126407Y-88305181D01*
X172126410Y-88305181D01*
X172201090Y-88262065D01*
X172635303Y-87827850D01*
X172638481Y-87826115D01*
X172640396Y-87823037D01*
X172668918Y-87809495D01*
X172696624Y-87794367D01*
X172700238Y-87794625D01*
X172703513Y-87793071D01*
X172734821Y-87797098D01*
X172766315Y-87799351D01*
X172769217Y-87801523D01*
X172772812Y-87801986D01*
X172796973Y-87822301D01*
X172822249Y-87841222D01*
X172824329Y-87845302D01*
X172826290Y-87846951D01*
X172832638Y-87861597D01*
X172841427Y-87878834D01*
X172843673Y-87886085D01*
X172843452Y-87886138D01*
X172844053Y-87888684D01*
X172846988Y-87896783D01*
X172847858Y-87899590D01*
X172847875Y-87900779D01*
X172848198Y-87901933D01*
X172848396Y-87901874D01*
X172848993Y-87903846D01*
X172850009Y-87907902D01*
X172851149Y-87911657D01*
X172862970Y-87940193D01*
X172864026Y-87941017D01*
X172867498Y-87945701D01*
X172878338Y-87963619D01*
X172880211Y-87966218D01*
X172899618Y-87989028D01*
X172902096Y-87992371D01*
X172902198Y-87992650D01*
X172903617Y-87994378D01*
X172903619Y-87994381D01*
X172905619Y-87996381D01*
X172905624Y-87996384D01*
X172909621Y-87999664D01*
X172914134Y-88003072D01*
X172933782Y-88019789D01*
X172936381Y-88021662D01*
X172949369Y-88029519D01*
X172954063Y-88034648D01*
X172982422Y-88046396D01*
X172982422Y-88046398D01*
X172988348Y-88048853D01*
X172988354Y-88048854D01*
X172988356Y-88048855D01*
X172989878Y-88049317D01*
X172991192Y-88049617D01*
X172994689Y-88050519D01*
X172995358Y-88050918D01*
X172996245Y-88051035D01*
X172998218Y-88051634D01*
X172998158Y-88051830D01*
X173005974Y-88054011D01*
X173008758Y-88055019D01*
X173011316Y-88055947D01*
X173013862Y-88056548D01*
X173013862Y-88056546D01*
X173039793Y-88062669D01*
X173042663Y-88061881D01*
X173053316Y-88062526D01*
X173059040Y-88063120D01*
X173071000Y-88065500D01*
X173081930Y-88065500D01*
X173088319Y-88066164D01*
X173114940Y-88077081D01*
X173142539Y-88085185D01*
X173146858Y-88090170D01*
X173152964Y-88092674D01*
X173169457Y-88116250D01*
X173188294Y-88137989D01*
X173189931Y-88145517D01*
X173193015Y-88149925D01*
X173193482Y-88161840D01*
X173199500Y-88189500D01*
X173199500Y-89367640D01*
X173179815Y-89434679D01*
X173127011Y-89480434D01*
X173108842Y-89485911D01*
X173108981Y-89486337D01*
X173099699Y-89489352D01*
X173044297Y-89517580D01*
X172986658Y-89546950D01*
X172986657Y-89546951D01*
X172986652Y-89546954D01*
X172896954Y-89636652D01*
X172896951Y-89636657D01*
X172839352Y-89749698D01*
X172824500Y-89843475D01*
X172824500Y-90306517D01*
X172829173Y-90336021D01*
X172839354Y-90400304D01*
X172896950Y-90513342D01*
X172896952Y-90513344D01*
X172896954Y-90513347D01*
X172986652Y-90603045D01*
X172986654Y-90603046D01*
X172986658Y-90603050D01*
X173097525Y-90659540D01*
X173099698Y-90660647D01*
X173193475Y-90675499D01*
X173193481Y-90675500D01*
X173624166Y-90675499D01*
X173691205Y-90695183D01*
X173711847Y-90711818D01*
X173740489Y-90740460D01*
X173809012Y-90780022D01*
X173885438Y-90800500D01*
X173964562Y-90800500D01*
X174848389Y-90800500D01*
X174915428Y-90820185D01*
X174961183Y-90872989D01*
X174971127Y-90942147D01*
X174942102Y-91005703D01*
X174936070Y-91012181D01*
X174901476Y-91046774D01*
X174901473Y-91046778D01*
X174901472Y-91046780D01*
X174866999Y-91114438D01*
X174840279Y-91166878D01*
X174824500Y-91266506D01*
X174824500Y-91660983D01*
X174804815Y-91728022D01*
X174788181Y-91748664D01*
X173653436Y-92883408D01*
X173653434Y-92883411D01*
X173610319Y-92958089D01*
X173588000Y-93041385D01*
X173588000Y-96439380D01*
X173577601Y-96489087D01*
X173398213Y-96899063D01*
X173223127Y-97299207D01*
X173221238Y-97303523D01*
X173220832Y-97303345D01*
X173209729Y-97325597D01*
X173196360Y-97345605D01*
X173196357Y-97345610D01*
X173135185Y-97493293D01*
X173135183Y-97493301D01*
X173104000Y-97650069D01*
X173104000Y-97809930D01*
X173135183Y-97966698D01*
X173135185Y-97966706D01*
X173196356Y-98114387D01*
X173196361Y-98114396D01*
X173285165Y-98247300D01*
X173285168Y-98247304D01*
X173398195Y-98360331D01*
X173398199Y-98360334D01*
X173531103Y-98449138D01*
X173531109Y-98449141D01*
X173531110Y-98449142D01*
X173678794Y-98510315D01*
X173678795Y-98510315D01*
X173678797Y-98510316D01*
X173684628Y-98512085D01*
X173684520Y-98512437D01*
X173701837Y-98517896D01*
X174520823Y-98878282D01*
X174558561Y-98904098D01*
X175281398Y-99626935D01*
X175307214Y-99664673D01*
X175667465Y-100483353D01*
X175673075Y-100496101D01*
X175675185Y-100506706D01*
X175736358Y-100654390D01*
X175755583Y-100683163D01*
X175760283Y-100692703D01*
X175760285Y-100692706D01*
X175761620Y-100695415D01*
X175762590Y-100697185D01*
X175765668Y-100702612D01*
X175768559Y-100705679D01*
X175781423Y-100721836D01*
X175825162Y-100787296D01*
X175825168Y-100787304D01*
X175938195Y-100900331D01*
X175938199Y-100900334D01*
X176071103Y-100989138D01*
X176071109Y-100989141D01*
X176071110Y-100989142D01*
X176218794Y-101050315D01*
X176375569Y-101081499D01*
X176375573Y-101081500D01*
X176375574Y-101081500D01*
X176535427Y-101081500D01*
X176535428Y-101081499D01*
X176692206Y-101050315D01*
X176839890Y-100989142D01*
X176972801Y-100900334D01*
X177085834Y-100787301D01*
X177174642Y-100654390D01*
X177235815Y-100506706D01*
X177267000Y-100349926D01*
X177267000Y-100190074D01*
X177235815Y-100033294D01*
X177174642Y-99885610D01*
X177174641Y-99885609D01*
X177174638Y-99885603D01*
X177085834Y-99752699D01*
X177085831Y-99752695D01*
X176972804Y-99639668D01*
X176972800Y-99639665D01*
X176839896Y-99550861D01*
X176839887Y-99550856D01*
X176692208Y-99489686D01*
X176692209Y-99489686D01*
X176692206Y-99489685D01*
X176692202Y-99489684D01*
X176686376Y-99487917D01*
X176686482Y-99487564D01*
X176669141Y-99482094D01*
X176668368Y-99481754D01*
X176419704Y-99372332D01*
X192269500Y-99372332D01*
X192269500Y-99647667D01*
X192269501Y-99647684D01*
X192305438Y-99920655D01*
X192305439Y-99920660D01*
X192305440Y-99920666D01*
X192305441Y-99920668D01*
X192376704Y-100186630D01*
X192482075Y-100441017D01*
X192482080Y-100441028D01*
X192520000Y-100506706D01*
X192619751Y-100679479D01*
X192619753Y-100679482D01*
X192619754Y-100679483D01*
X192787370Y-100897926D01*
X192787376Y-100897933D01*
X192982066Y-101092623D01*
X192982072Y-101092628D01*
X193200521Y-101260249D01*
X193353778Y-101348732D01*
X193438971Y-101397919D01*
X193438976Y-101397921D01*
X193438979Y-101397923D01*
X193693368Y-101503295D01*
X193959334Y-101574560D01*
X194232326Y-101610500D01*
X194232333Y-101610500D01*
X194507667Y-101610500D01*
X194507674Y-101610500D01*
X194780666Y-101574560D01*
X195046632Y-101503295D01*
X195301021Y-101397923D01*
X195539479Y-101260249D01*
X195757928Y-101092628D01*
X195952628Y-100897928D01*
X196120249Y-100679479D01*
X196257923Y-100441021D01*
X196363295Y-100186632D01*
X196434560Y-99920666D01*
X196470500Y-99647674D01*
X196470500Y-99372326D01*
X196434560Y-99099334D01*
X196363295Y-98833368D01*
X196257923Y-98578979D01*
X196257921Y-98578976D01*
X196257919Y-98578971D01*
X196182959Y-98449138D01*
X196120249Y-98340521D01*
X195952628Y-98122072D01*
X195952623Y-98122066D01*
X195757933Y-97927376D01*
X195757926Y-97927370D01*
X195539483Y-97759754D01*
X195539482Y-97759753D01*
X195539479Y-97759751D01*
X195416199Y-97688575D01*
X195301028Y-97622080D01*
X195301017Y-97622075D01*
X195046630Y-97516704D01*
X194897345Y-97476704D01*
X194780666Y-97445440D01*
X194780660Y-97445439D01*
X194780655Y-97445438D01*
X194507684Y-97409501D01*
X194507679Y-97409500D01*
X194507674Y-97409500D01*
X194232326Y-97409500D01*
X194232320Y-97409500D01*
X194232315Y-97409501D01*
X193959344Y-97445438D01*
X193959337Y-97445439D01*
X193959334Y-97445440D01*
X193903125Y-97460500D01*
X193693369Y-97516704D01*
X193438982Y-97622075D01*
X193438971Y-97622080D01*
X193200516Y-97759754D01*
X192982073Y-97927370D01*
X192982066Y-97927376D01*
X192787376Y-98122066D01*
X192787370Y-98122073D01*
X192619754Y-98340516D01*
X192482080Y-98578971D01*
X192482075Y-98578982D01*
X192376704Y-98833369D01*
X192305441Y-99099331D01*
X192305438Y-99099344D01*
X192269501Y-99372315D01*
X192269500Y-99372332D01*
X176419704Y-99372332D01*
X175850176Y-99121717D01*
X175812438Y-99095901D01*
X175089598Y-98373061D01*
X175063782Y-98335323D01*
X175025049Y-98247301D01*
X174697924Y-97503901D01*
X174695815Y-97493294D01*
X174634642Y-97345610D01*
X174615415Y-97316835D01*
X174615404Y-97316813D01*
X174611055Y-97306951D01*
X174610748Y-97304599D01*
X174610315Y-97304789D01*
X174253399Y-96489088D01*
X174243000Y-96439381D01*
X174243000Y-93271517D01*
X174262685Y-93204478D01*
X174279319Y-93183836D01*
X175251336Y-92211819D01*
X175312659Y-92178334D01*
X175339017Y-92175500D01*
X175783493Y-92175500D01*
X175883121Y-92159720D01*
X175883121Y-92159719D01*
X175883126Y-92159719D01*
X176003220Y-92098528D01*
X176098528Y-92003220D01*
X176159719Y-91883126D01*
X176159720Y-91883121D01*
X176175500Y-91783493D01*
X176175500Y-91266506D01*
X176159720Y-91166878D01*
X176159719Y-91166876D01*
X176159719Y-91166874D01*
X176098528Y-91046780D01*
X176098526Y-91046778D01*
X176098523Y-91046774D01*
X176003225Y-90951476D01*
X176003222Y-90951474D01*
X176003220Y-90951472D01*
X175917283Y-90907685D01*
X175883123Y-90890279D01*
X175873842Y-90887264D01*
X175874373Y-90885628D01*
X175821585Y-90860601D01*
X175784656Y-90801288D01*
X175784376Y-90800264D01*
X175780021Y-90784011D01*
X175754877Y-90740460D01*
X175740464Y-90715495D01*
X175740458Y-90715487D01*
X175360992Y-90336021D01*
X175327507Y-90274698D01*
X175332348Y-90206996D01*
X175320769Y-90211315D01*
X175305809Y-90222248D01*
X175288712Y-90223272D01*
X175272665Y-90229258D01*
X175250030Y-90225590D01*
X175236065Y-90226428D01*
X175228298Y-90222070D01*
X175224027Y-90221378D01*
X175223839Y-90222083D01*
X175216898Y-90220223D01*
X175216372Y-90220138D01*
X175215990Y-90219979D01*
X175183655Y-90211315D01*
X175139562Y-90199500D01*
X175139560Y-90199500D01*
X174299500Y-90199500D01*
X174232461Y-90179815D01*
X174186706Y-90127011D01*
X174175500Y-90075501D01*
X174175499Y-89843482D01*
X174171809Y-89820185D01*
X174160646Y-89749696D01*
X174103050Y-89636658D01*
X174103046Y-89636654D01*
X174103045Y-89636652D01*
X174013347Y-89546954D01*
X174013344Y-89546952D01*
X174013342Y-89546950D01*
X173936517Y-89507805D01*
X173900301Y-89489352D01*
X173891020Y-89486337D01*
X173891836Y-89483825D01*
X173841963Y-89460180D01*
X173805034Y-89400866D01*
X173800500Y-89367640D01*
X173800500Y-89030588D01*
X173820185Y-88963549D01*
X173872989Y-88917794D01*
X173942147Y-88907850D01*
X173986497Y-88923199D01*
X173998590Y-88930181D01*
X173998591Y-88930181D01*
X174000115Y-88931061D01*
X174025797Y-88950768D01*
X174664540Y-89589511D01*
X174759540Y-89684511D01*
X174815489Y-89740460D01*
X174815491Y-89740461D01*
X174815495Y-89740464D01*
X174848424Y-89759475D01*
X174884011Y-89780021D01*
X174960438Y-89800500D01*
X175039562Y-89800500D01*
X175167640Y-89800500D01*
X175234679Y-89820185D01*
X175277150Y-89866333D01*
X175286872Y-89884638D01*
X175289354Y-89900304D01*
X175346950Y-90013342D01*
X175364621Y-90031013D01*
X175373329Y-90047407D01*
X175376776Y-90064183D01*
X175384985Y-90079216D01*
X175383663Y-90097696D01*
X175387393Y-90115846D01*
X175381222Y-90131823D01*
X175380143Y-90146917D01*
X175439827Y-90124656D01*
X175504967Y-90137855D01*
X175549694Y-90160645D01*
X175549696Y-90160646D01*
X175549698Y-90160647D01*
X175643475Y-90175499D01*
X175643481Y-90175500D01*
X176106518Y-90175499D01*
X176200304Y-90160646D01*
X176313342Y-90103050D01*
X176403050Y-90013342D01*
X176460646Y-89900304D01*
X176460646Y-89900302D01*
X176460647Y-89900301D01*
X176471282Y-89833147D01*
X176475500Y-89806519D01*
X176475499Y-89193482D01*
X176475248Y-89191900D01*
X176467646Y-89143896D01*
X176470042Y-89125355D01*
X176467382Y-89106853D01*
X176474427Y-89091424D01*
X176476602Y-89074603D01*
X176488641Y-89060302D01*
X176496407Y-89043297D01*
X176510676Y-89034126D01*
X176521599Y-89021152D01*
X176539457Y-89015630D01*
X176555185Y-89005523D01*
X176586891Y-89000964D01*
X176588351Y-89000513D01*
X176590120Y-89000500D01*
X176809879Y-89000500D01*
X176876918Y-89020185D01*
X176922673Y-89072989D01*
X176932617Y-89142147D01*
X176932352Y-89143897D01*
X176924500Y-89193474D01*
X176924500Y-89806517D01*
X176930355Y-89843482D01*
X176939354Y-89900304D01*
X176996950Y-90013342D01*
X176996952Y-90013344D01*
X176996954Y-90013347D01*
X177086652Y-90103045D01*
X177086654Y-90103046D01*
X177086658Y-90103050D01*
X177156796Y-90138787D01*
X177207591Y-90186761D01*
X177224500Y-90249271D01*
X177224500Y-90835992D01*
X177204815Y-90903031D01*
X177152011Y-90948786D01*
X177119900Y-90958465D01*
X177076877Y-90965279D01*
X176956778Y-91026473D01*
X176956774Y-91026476D01*
X176861476Y-91121774D01*
X176861473Y-91121778D01*
X176800279Y-91241878D01*
X176784500Y-91341506D01*
X176784500Y-91858493D01*
X176800279Y-91958121D01*
X176800280Y-91958124D01*
X176800281Y-91958126D01*
X176861472Y-92078220D01*
X176861473Y-92078221D01*
X176861476Y-92078225D01*
X176956774Y-92173523D01*
X176956778Y-92173526D01*
X176956780Y-92173528D01*
X177076874Y-92234719D01*
X177076876Y-92234719D01*
X177076878Y-92234720D01*
X177176507Y-92250500D01*
X177176512Y-92250500D01*
X177743493Y-92250500D01*
X177843121Y-92234720D01*
X177843121Y-92234719D01*
X177843126Y-92234719D01*
X177963220Y-92173528D01*
X178058528Y-92078220D01*
X178119719Y-91958126D01*
X178121679Y-91945750D01*
X178135500Y-91858493D01*
X178135500Y-91341506D01*
X178119720Y-91241878D01*
X178119719Y-91241876D01*
X178119719Y-91241874D01*
X178058528Y-91121780D01*
X178058526Y-91121778D01*
X178058523Y-91121774D01*
X177963225Y-91026476D01*
X177963222Y-91026474D01*
X177963220Y-91026472D01*
X177893203Y-90990797D01*
X177842409Y-90942823D01*
X177825500Y-90880313D01*
X177825500Y-90249271D01*
X177845185Y-90182232D01*
X177893203Y-90138787D01*
X177963342Y-90103050D01*
X178053050Y-90013342D01*
X178110646Y-89900304D01*
X178110646Y-89900302D01*
X178110647Y-89900301D01*
X178121282Y-89833147D01*
X178125500Y-89806519D01*
X178125499Y-89193482D01*
X178125248Y-89191900D01*
X178117646Y-89143896D01*
X178120042Y-89125355D01*
X178117382Y-89106853D01*
X178124427Y-89091424D01*
X178126602Y-89074603D01*
X178138641Y-89060302D01*
X178146407Y-89043297D01*
X178160676Y-89034126D01*
X178171599Y-89021152D01*
X178189457Y-89015630D01*
X178205185Y-89005523D01*
X178236891Y-89000964D01*
X178238351Y-89000513D01*
X178240120Y-89000500D01*
X178414167Y-89000500D01*
X178481206Y-89020185D01*
X178501848Y-89036819D01*
X179163181Y-89698152D01*
X179196666Y-89759475D01*
X179199500Y-89785833D01*
X179199500Y-90682384D01*
X179179815Y-90749423D01*
X179131795Y-90792868D01*
X179016780Y-90851472D01*
X179016779Y-90851473D01*
X179016774Y-90851476D01*
X178921476Y-90946774D01*
X178921473Y-90946778D01*
X178921472Y-90946780D01*
X178888149Y-91012181D01*
X178860279Y-91066878D01*
X178844500Y-91166506D01*
X178844500Y-91683493D01*
X178860279Y-91783121D01*
X178860280Y-91783124D01*
X178860281Y-91783126D01*
X178911234Y-91883126D01*
X178921473Y-91903221D01*
X178921476Y-91903225D01*
X179016774Y-91998523D01*
X179016778Y-91998526D01*
X179016780Y-91998528D01*
X179136874Y-92059719D01*
X179136876Y-92059719D01*
X179136878Y-92059720D01*
X179236507Y-92075500D01*
X179770500Y-92075500D01*
X179837539Y-92095185D01*
X179883294Y-92147989D01*
X179894500Y-92199500D01*
X179894500Y-92430955D01*
X179894582Y-92436790D01*
X179894780Y-92443800D01*
X179906610Y-92506949D01*
X179923867Y-92555399D01*
X179925519Y-92560368D01*
X179926495Y-92563525D01*
X179930993Y-92581375D01*
X179933594Y-92586480D01*
X179934418Y-92588097D01*
X179934616Y-92588557D01*
X179934971Y-92589183D01*
X179972924Y-92663671D01*
X179973651Y-92665909D01*
X179974484Y-92666843D01*
X179984912Y-92700562D01*
X179988473Y-92723039D01*
X179990000Y-92742442D01*
X179990000Y-93207556D01*
X179988473Y-93226957D01*
X179984912Y-93249436D01*
X179972924Y-93286329D01*
X179938168Y-93354540D01*
X179938169Y-93354541D01*
X179935420Y-93359935D01*
X179935417Y-93359940D01*
X179930988Y-93368634D01*
X179930986Y-93368638D01*
X179929405Y-93371742D01*
X179923390Y-93383545D01*
X179923491Y-93386651D01*
X179919550Y-93399122D01*
X179914813Y-93411748D01*
X179912833Y-93422014D01*
X179912284Y-93421908D01*
X179909984Y-93436722D01*
X179902825Y-93461107D01*
X179902823Y-93461117D01*
X179894500Y-93519010D01*
X179894500Y-96163518D01*
X179874815Y-96230557D01*
X179858181Y-96251199D01*
X179451199Y-96658181D01*
X179389876Y-96691666D01*
X179363518Y-96694500D01*
X177623992Y-96694500D01*
X177580313Y-96699197D01*
X177528825Y-96710397D01*
X177518627Y-96712890D01*
X177518624Y-96712891D01*
X177437916Y-96755899D01*
X177437913Y-96755901D01*
X177385104Y-96801660D01*
X177367160Y-96819242D01*
X177367154Y-96819249D01*
X177322511Y-96899059D01*
X177322509Y-96899064D01*
X177302826Y-96966096D01*
X177294500Y-97024003D01*
X177294500Y-98576007D01*
X177299197Y-98619686D01*
X177310397Y-98671174D01*
X177312890Y-98681372D01*
X177312891Y-98681375D01*
X177355899Y-98762083D01*
X177355901Y-98762086D01*
X177401660Y-98814895D01*
X177419242Y-98832839D01*
X177419246Y-98832843D01*
X177419247Y-98832844D01*
X177419249Y-98832845D01*
X177420186Y-98833369D01*
X177499063Y-98877490D01*
X177566102Y-98897175D01*
X177624000Y-98905500D01*
X177624004Y-98905500D01*
X180348639Y-98905500D01*
X180351180Y-98905363D01*
X180370607Y-98904322D01*
X180370614Y-98904321D01*
X180370618Y-98904321D01*
X180396965Y-98901488D01*
X180473482Y-98877529D01*
X180534805Y-98844044D01*
X180581629Y-98808991D01*
X181593991Y-97796629D01*
X181608693Y-97780262D01*
X181625327Y-97759620D01*
X181662490Y-97688575D01*
X181682175Y-97621536D01*
X181690500Y-97563638D01*
X181690500Y-92089892D01*
X181690393Y-92083248D01*
X181690134Y-92075241D01*
X181677767Y-92011377D01*
X181653795Y-91945750D01*
X181637993Y-91916338D01*
X181630189Y-91898616D01*
X181611958Y-91846516D01*
X181605000Y-91805562D01*
X181605000Y-91114438D01*
X181611958Y-91073485D01*
X181621304Y-91046774D01*
X181626453Y-91032058D01*
X181632734Y-91018384D01*
X181632395Y-91018223D01*
X181645459Y-90990798D01*
X181662490Y-90955044D01*
X181682175Y-90888005D01*
X181690500Y-90830107D01*
X181690500Y-90314500D01*
X181710185Y-90247461D01*
X181762989Y-90201706D01*
X181814500Y-90190500D01*
X187963639Y-90190500D01*
X187966180Y-90190363D01*
X187985607Y-90189322D01*
X187985614Y-90189321D01*
X187985618Y-90189321D01*
X188011965Y-90186488D01*
X188088482Y-90162529D01*
X188149805Y-90129044D01*
X188196629Y-90093991D01*
X190737741Y-87552875D01*
X190799062Y-87519392D01*
X190860356Y-87521581D01*
X190913456Y-87537173D01*
X190913458Y-87537173D01*
X190913464Y-87537175D01*
X190971362Y-87545500D01*
X190971366Y-87545500D01*
X195315991Y-87545500D01*
X195316000Y-87545500D01*
X195359684Y-87540803D01*
X195388875Y-87534452D01*
X195411174Y-87529602D01*
X195411190Y-87529598D01*
X195411195Y-87529597D01*
X195421373Y-87527110D01*
X195502085Y-87484100D01*
X195554889Y-87438345D01*
X195572843Y-87420754D01*
X195617490Y-87340937D01*
X195637175Y-87273898D01*
X195645500Y-87216000D01*
X195645500Y-84216055D01*
X195643661Y-84188627D01*
X195639243Y-84155822D01*
X195610415Y-84075252D01*
X195610412Y-84075248D01*
X195610412Y-84075246D01*
X195573701Y-84015817D01*
X195573692Y-84015803D01*
X195559203Y-83995272D01*
X195559199Y-83995267D01*
X195511104Y-83957114D01*
X195487554Y-83938431D01*
X195459790Y-83925147D01*
X195424521Y-83908273D01*
X195401231Y-83898835D01*
X195401224Y-83898833D01*
X195342186Y-83892942D01*
X195277433Y-83866697D01*
X195237148Y-83809611D01*
X195230500Y-83769555D01*
X195230500Y-82340249D01*
X195230499Y-82340247D01*
X195218868Y-82281770D01*
X195218867Y-82281769D01*
X195174552Y-82215447D01*
X195108230Y-82171132D01*
X195108229Y-82171131D01*
X195049752Y-82159500D01*
X195049748Y-82159500D01*
X192419222Y-82159500D01*
X192352183Y-82139815D01*
X192309790Y-82093814D01*
X192290662Y-82057919D01*
X192290660Y-82057915D01*
X192244905Y-82005111D01*
X192244899Y-82005104D01*
X192227317Y-81987160D01*
X192227316Y-81987159D01*
X192227314Y-81987157D01*
X192227312Y-81987156D01*
X192227310Y-81987154D01*
X192147500Y-81942511D01*
X192147495Y-81942509D01*
X192080463Y-81922826D01*
X192080459Y-81922825D01*
X192080458Y-81922825D01*
X192022560Y-81914500D01*
X190101362Y-81914500D01*
X190101361Y-81914500D01*
X190079381Y-81915678D01*
X190053034Y-81918511D01*
X190053032Y-81918512D01*
X189976521Y-81942470D01*
X189976516Y-81942471D01*
X189915188Y-81975960D01*
X189868384Y-82010998D01*
X189868363Y-82011016D01*
X189481013Y-82398365D01*
X189481012Y-82398366D01*
X189466325Y-82414716D01*
X189466313Y-82414730D01*
X189449672Y-82435379D01*
X189412509Y-82506424D01*
X189392826Y-82573456D01*
X189392825Y-82573464D01*
X189388317Y-82604820D01*
X189384500Y-82631365D01*
X189384500Y-84378055D01*
X189364815Y-84445094D01*
X189312011Y-84490849D01*
X189260500Y-84502055D01*
X187843566Y-84502055D01*
X187835686Y-84501804D01*
X187812358Y-84500318D01*
X187809093Y-84500169D01*
X187804979Y-84499981D01*
X187800018Y-84499843D01*
X187796168Y-84499736D01*
X187788835Y-84499662D01*
X181999738Y-84544496D01*
X181998778Y-84544500D01*
X174629500Y-84544500D01*
X174562461Y-84524815D01*
X174516706Y-84472011D01*
X174505500Y-84420500D01*
X174505500Y-79124008D01*
X174505499Y-79123992D01*
X174500803Y-79080316D01*
X174494261Y-79050245D01*
X174489602Y-79028825D01*
X174489348Y-79027789D01*
X174487110Y-79018627D01*
X174444100Y-78937915D01*
X174398345Y-78885111D01*
X174398339Y-78885104D01*
X174380757Y-78867160D01*
X174380756Y-78867159D01*
X174380754Y-78867157D01*
X174380752Y-78867156D01*
X174380750Y-78867154D01*
X174300940Y-78822511D01*
X174300935Y-78822509D01*
X174233903Y-78802826D01*
X174233899Y-78802825D01*
X174233898Y-78802825D01*
X174176000Y-78794500D01*
X155124000Y-78794500D01*
X155123992Y-78794500D01*
X155080313Y-78799197D01*
X155028825Y-78810397D01*
X155018627Y-78812890D01*
X155018624Y-78812891D01*
X154937916Y-78855899D01*
X154937913Y-78855901D01*
X154885104Y-78901660D01*
X154867160Y-78919242D01*
X154867154Y-78919249D01*
X154822511Y-78999059D01*
X154822509Y-78999064D01*
X154802826Y-79066096D01*
X154802825Y-79066101D01*
X154802825Y-79066102D01*
X154794502Y-79123992D01*
X154794500Y-79124003D01*
X154794500Y-82460500D01*
X154774815Y-82527539D01*
X154722011Y-82573294D01*
X154670500Y-82584500D01*
X154562623Y-82584500D01*
X154517156Y-82589593D01*
X154470307Y-82600223D01*
X154463639Y-82601737D01*
X154463634Y-82601738D01*
X154463622Y-82601741D01*
X154451720Y-82604819D01*
X154451717Y-82604820D01*
X154371786Y-82649263D01*
X154319820Y-82695941D01*
X154319810Y-82695951D01*
X154302166Y-82713866D01*
X154258953Y-82794469D01*
X154249671Y-82828305D01*
X154212952Y-82887748D01*
X154149925Y-82917903D01*
X154130089Y-82919500D01*
X151792392Y-82919500D01*
X151725353Y-82899815D01*
X151679598Y-82847011D01*
X151670963Y-82820622D01*
X151668482Y-82808627D01*
X151625472Y-82727915D01*
X151579717Y-82675111D01*
X151579711Y-82675104D01*
X151562129Y-82657160D01*
X151562128Y-82657159D01*
X151562126Y-82657157D01*
X151562124Y-82657156D01*
X151562122Y-82657154D01*
X151482312Y-82612511D01*
X151482307Y-82612509D01*
X151415275Y-82592826D01*
X151415271Y-82592825D01*
X151415270Y-82592825D01*
X151357372Y-82584500D01*
X150354000Y-82584500D01*
X150353992Y-82584500D01*
X150310313Y-82589197D01*
X150258825Y-82600397D01*
X150248627Y-82602890D01*
X150248624Y-82602891D01*
X150167916Y-82645899D01*
X150167913Y-82645901D01*
X150115104Y-82691660D01*
X150097160Y-82709242D01*
X150097154Y-82709249D01*
X150052511Y-82789059D01*
X150052509Y-82789064D01*
X150032826Y-82856096D01*
X150032825Y-82856101D01*
X150032825Y-82856102D01*
X150028462Y-82886450D01*
X150024500Y-82914003D01*
X149400500Y-82914003D01*
X149400500Y-77262332D01*
X149999500Y-77262332D01*
X149999500Y-77537667D01*
X149999501Y-77537684D01*
X150035438Y-77810655D01*
X150035439Y-77810660D01*
X150035440Y-77810666D01*
X150035441Y-77810668D01*
X150106704Y-78076630D01*
X150212075Y-78331017D01*
X150212080Y-78331028D01*
X150292016Y-78469479D01*
X150349751Y-78569479D01*
X150349753Y-78569482D01*
X150349754Y-78569483D01*
X150517370Y-78787926D01*
X150517376Y-78787933D01*
X150712066Y-78982623D01*
X150712073Y-78982629D01*
X150733492Y-78999064D01*
X150930521Y-79150249D01*
X151083778Y-79238732D01*
X151168971Y-79287919D01*
X151168976Y-79287921D01*
X151168979Y-79287923D01*
X151423368Y-79393295D01*
X151689334Y-79464560D01*
X151962326Y-79500500D01*
X151962333Y-79500500D01*
X152237667Y-79500500D01*
X152237674Y-79500500D01*
X152510666Y-79464560D01*
X152776632Y-79393295D01*
X153031021Y-79287923D01*
X153269479Y-79150249D01*
X153487928Y-78982628D01*
X153682628Y-78787928D01*
X153850249Y-78569479D01*
X153987923Y-78331021D01*
X154093295Y-78076632D01*
X154164560Y-77810666D01*
X154200500Y-77537674D01*
X154200500Y-77262326D01*
X154187336Y-77162332D01*
X192539500Y-77162332D01*
X192539500Y-77437667D01*
X192539501Y-77437684D01*
X192575438Y-77710655D01*
X192575439Y-77710660D01*
X192575440Y-77710666D01*
X192575441Y-77710668D01*
X192646704Y-77976630D01*
X192752075Y-78231017D01*
X192752080Y-78231028D01*
X192809812Y-78331021D01*
X192889751Y-78469479D01*
X192889753Y-78469482D01*
X192889754Y-78469483D01*
X193057370Y-78687926D01*
X193057376Y-78687933D01*
X193252066Y-78882623D01*
X193252073Y-78882629D01*
X193324121Y-78937913D01*
X193470521Y-79050249D01*
X193598275Y-79124008D01*
X193708971Y-79187919D01*
X193708976Y-79187921D01*
X193708979Y-79187923D01*
X193963368Y-79293295D01*
X194229334Y-79364560D01*
X194502326Y-79400500D01*
X194502333Y-79400500D01*
X194777667Y-79400500D01*
X194777674Y-79400500D01*
X195050666Y-79364560D01*
X195316632Y-79293295D01*
X195571021Y-79187923D01*
X195809479Y-79050249D01*
X196027928Y-78882628D01*
X196222628Y-78687928D01*
X196390249Y-78469479D01*
X196527923Y-78231021D01*
X196633295Y-77976632D01*
X196704560Y-77710666D01*
X196740500Y-77437674D01*
X196740500Y-77162326D01*
X196704560Y-76889334D01*
X196633295Y-76623368D01*
X196527923Y-76368979D01*
X196527921Y-76368976D01*
X196527919Y-76368971D01*
X196447981Y-76230516D01*
X196390249Y-76130521D01*
X196222628Y-75912072D01*
X196222623Y-75912066D01*
X196027933Y-75717376D01*
X196027926Y-75717370D01*
X195809483Y-75549754D01*
X195809482Y-75549753D01*
X195809479Y-75549751D01*
X195714407Y-75494861D01*
X195571028Y-75412080D01*
X195571017Y-75412075D01*
X195316630Y-75306704D01*
X195183649Y-75271072D01*
X195050666Y-75235440D01*
X195050660Y-75235439D01*
X195050655Y-75235438D01*
X194777684Y-75199501D01*
X194777679Y-75199500D01*
X194777674Y-75199500D01*
X194502326Y-75199500D01*
X194502320Y-75199500D01*
X194502315Y-75199501D01*
X194229344Y-75235438D01*
X194229337Y-75235439D01*
X194229334Y-75235440D01*
X194173125Y-75250500D01*
X193963369Y-75306704D01*
X193708982Y-75412075D01*
X193708971Y-75412080D01*
X193470516Y-75549754D01*
X193252073Y-75717370D01*
X193252066Y-75717376D01*
X193057376Y-75912066D01*
X193057370Y-75912073D01*
X192889754Y-76130516D01*
X192752080Y-76368971D01*
X192752075Y-76368982D01*
X192646704Y-76623369D01*
X192575441Y-76889331D01*
X192575438Y-76889344D01*
X192539501Y-77162315D01*
X192539500Y-77162332D01*
X154187336Y-77162332D01*
X154164560Y-76989334D01*
X154093295Y-76723368D01*
X153987923Y-76468979D01*
X153987921Y-76468976D01*
X153987919Y-76468971D01*
X153930183Y-76368971D01*
X153850249Y-76230521D01*
X153682628Y-76012072D01*
X153682623Y-76012066D01*
X153487933Y-75817376D01*
X153487926Y-75817370D01*
X153269483Y-75649754D01*
X153269482Y-75649753D01*
X153269479Y-75649751D01*
X153174407Y-75594861D01*
X153031028Y-75512080D01*
X153031017Y-75512075D01*
X152776630Y-75406704D01*
X152643649Y-75371072D01*
X152510666Y-75335440D01*
X152510660Y-75335439D01*
X152510655Y-75335438D01*
X152237684Y-75299501D01*
X152237679Y-75299500D01*
X152237674Y-75299500D01*
X151962326Y-75299500D01*
X151962320Y-75299500D01*
X151962315Y-75299501D01*
X151689344Y-75335438D01*
X151689337Y-75335439D01*
X151689334Y-75335440D01*
X151633125Y-75350500D01*
X151423369Y-75406704D01*
X151168982Y-75512075D01*
X151168971Y-75512080D01*
X150930516Y-75649754D01*
X150712073Y-75817370D01*
X150712066Y-75817376D01*
X150517376Y-76012066D01*
X150517370Y-76012073D01*
X150349754Y-76230516D01*
X150212080Y-76468971D01*
X150212075Y-76468982D01*
X150106704Y-76723369D01*
X150035441Y-76989331D01*
X150035438Y-76989344D01*
X149999501Y-77262315D01*
X149999500Y-77262332D01*
X149400500Y-77262332D01*
X149400500Y-75306961D01*
X149401280Y-75293077D01*
X149407774Y-75235440D01*
X149411460Y-75202729D01*
X149417635Y-75175670D01*
X149445353Y-75096456D01*
X149457396Y-75071450D01*
X149502046Y-75000389D01*
X149519351Y-74978690D01*
X149578690Y-74919351D01*
X149600389Y-74902046D01*
X149671450Y-74857396D01*
X149696456Y-74845353D01*
X149775670Y-74817635D01*
X149802733Y-74811459D01*
X149865419Y-74804396D01*
X149893079Y-74801280D01*
X149906962Y-74800500D01*
X149965892Y-74800500D01*
X196434108Y-74800500D01*
X196493038Y-74800500D01*
X196506922Y-74801280D01*
G37*
%TD.AperFunction*%
%TD*%
%TA.AperFunction,Conductor*%
%TO.N,Net-(TPS1-FB)*%
G36*
X175730784Y-99293696D02*
G01*
X176782210Y-99756365D01*
X176788403Y-99762833D01*
X176788207Y-99771785D01*
X176787237Y-99773558D01*
X176457507Y-100268753D01*
X176454253Y-100272007D01*
X175959058Y-100601737D01*
X175950272Y-100603470D01*
X175942834Y-100598483D01*
X175941866Y-100596715D01*
X175479196Y-99545285D01*
X175479001Y-99536334D01*
X175481631Y-99532303D01*
X175717802Y-99296132D01*
X175726074Y-99292706D01*
X175730784Y-99293696D01*
G37*
%TD.AperFunction*%
%TD*%
%TA.AperFunction,Conductor*%
%TO.N,Net-(TPS1-FB)*%
G36*
X174428165Y-97401516D02*
G01*
X174429135Y-97403289D01*
X174891802Y-98454713D01*
X174891998Y-98463665D01*
X174889366Y-98467698D01*
X174653198Y-98703866D01*
X174644925Y-98707293D01*
X174640213Y-98706302D01*
X173588789Y-98243635D01*
X173582596Y-98237166D01*
X173582792Y-98228214D01*
X173583762Y-98226441D01*
X173913493Y-97731244D01*
X173916744Y-97727993D01*
X174411941Y-97398261D01*
X174420727Y-97396529D01*
X174428165Y-97401516D01*
G37*
%TD.AperFunction*%
%TD*%
%TA.AperFunction,Conductor*%
%TO.N,Net-(TPS1-FB)*%
G36*
X174043121Y-96523167D02*
G01*
X174045567Y-96526750D01*
X174419606Y-97381584D01*
X174419783Y-97390537D01*
X174415400Y-97395993D01*
X173922013Y-97726635D01*
X173913233Y-97728394D01*
X173908987Y-97726635D01*
X173415599Y-97395993D01*
X173410634Y-97388541D01*
X173411392Y-97381586D01*
X173785433Y-96526750D01*
X173791889Y-96520544D01*
X173796152Y-96519740D01*
X174034848Y-96519740D01*
X174043121Y-96523167D01*
G37*
%TD.AperFunction*%
%TD*%
M02*
