%TF.GenerationSoftware,KiCad,Pcbnew,9.0.4*%
%TF.CreationDate,2025-09-16T11:07:58+03:00*%
%TF.ProjectId,5 to 15v,3520746f-2031-4357-962e-6b696361645f,rev?*%
%TF.SameCoordinates,Original*%
%TF.FileFunction,Legend,Top*%
%TF.FilePolarity,Positive*%
%FSLAX46Y46*%
G04 Gerber Fmt 4.6, Leading zero omitted, Abs format (unit mm)*
G04 Created by KiCad (PCBNEW 9.0.4) date 2025-09-16 11:07:58*
%MOMM*%
%LPD*%
G01*
G04 APERTURE LIST*
%ADD10C,0.125000*%
%ADD11C,0.100000*%
%ADD12C,0.150000*%
%ADD13C,0.000000*%
%ADD14C,0.120000*%
%ADD15C,0.127000*%
%ADD16C,0.200000*%
G04 APERTURE END LIST*
D10*
X177486997Y-88832309D02*
X177320331Y-88594214D01*
X177201283Y-88832309D02*
X177201283Y-88332309D01*
X177201283Y-88332309D02*
X177391759Y-88332309D01*
X177391759Y-88332309D02*
X177439378Y-88356119D01*
X177439378Y-88356119D02*
X177463188Y-88379928D01*
X177463188Y-88379928D02*
X177486997Y-88427547D01*
X177486997Y-88427547D02*
X177486997Y-88498976D01*
X177486997Y-88498976D02*
X177463188Y-88546595D01*
X177463188Y-88546595D02*
X177439378Y-88570404D01*
X177439378Y-88570404D02*
X177391759Y-88594214D01*
X177391759Y-88594214D02*
X177201283Y-88594214D01*
X177653664Y-88332309D02*
X177963188Y-88332309D01*
X177963188Y-88332309D02*
X177796521Y-88522785D01*
X177796521Y-88522785D02*
X177867950Y-88522785D01*
X177867950Y-88522785D02*
X177915569Y-88546595D01*
X177915569Y-88546595D02*
X177939378Y-88570404D01*
X177939378Y-88570404D02*
X177963188Y-88618023D01*
X177963188Y-88618023D02*
X177963188Y-88737071D01*
X177963188Y-88737071D02*
X177939378Y-88784690D01*
X177939378Y-88784690D02*
X177915569Y-88808500D01*
X177915569Y-88808500D02*
X177867950Y-88832309D01*
X177867950Y-88832309D02*
X177725093Y-88832309D01*
X177725093Y-88832309D02*
X177677474Y-88808500D01*
X177677474Y-88808500D02*
X177653664Y-88784690D01*
D11*
X172021309Y-87369046D02*
X172021309Y-87083332D01*
X172521309Y-87226189D02*
X172021309Y-87226189D01*
X172521309Y-86916666D02*
X172021309Y-86916666D01*
X172021309Y-86916666D02*
X172021309Y-86726190D01*
X172021309Y-86726190D02*
X172045119Y-86678571D01*
X172045119Y-86678571D02*
X172068928Y-86654761D01*
X172068928Y-86654761D02*
X172116547Y-86630952D01*
X172116547Y-86630952D02*
X172187976Y-86630952D01*
X172187976Y-86630952D02*
X172235595Y-86654761D01*
X172235595Y-86654761D02*
X172259404Y-86678571D01*
X172259404Y-86678571D02*
X172283214Y-86726190D01*
X172283214Y-86726190D02*
X172283214Y-86916666D01*
X172497500Y-86440475D02*
X172521309Y-86369047D01*
X172521309Y-86369047D02*
X172521309Y-86249999D01*
X172521309Y-86249999D02*
X172497500Y-86202380D01*
X172497500Y-86202380D02*
X172473690Y-86178571D01*
X172473690Y-86178571D02*
X172426071Y-86154761D01*
X172426071Y-86154761D02*
X172378452Y-86154761D01*
X172378452Y-86154761D02*
X172330833Y-86178571D01*
X172330833Y-86178571D02*
X172307023Y-86202380D01*
X172307023Y-86202380D02*
X172283214Y-86249999D01*
X172283214Y-86249999D02*
X172259404Y-86345237D01*
X172259404Y-86345237D02*
X172235595Y-86392856D01*
X172235595Y-86392856D02*
X172211785Y-86416666D01*
X172211785Y-86416666D02*
X172164166Y-86440475D01*
X172164166Y-86440475D02*
X172116547Y-86440475D01*
X172116547Y-86440475D02*
X172068928Y-86416666D01*
X172068928Y-86416666D02*
X172045119Y-86392856D01*
X172045119Y-86392856D02*
X172021309Y-86345237D01*
X172021309Y-86345237D02*
X172021309Y-86226190D01*
X172021309Y-86226190D02*
X172045119Y-86154761D01*
X172521309Y-85678571D02*
X172521309Y-85964285D01*
X172521309Y-85821428D02*
X172021309Y-85821428D01*
X172021309Y-85821428D02*
X172092738Y-85869047D01*
X172092738Y-85869047D02*
X172140357Y-85916666D01*
X172140357Y-85916666D02*
X172164166Y-85964285D01*
X175188571Y-90688490D02*
X175164762Y-90712300D01*
X175164762Y-90712300D02*
X175093333Y-90736109D01*
X175093333Y-90736109D02*
X175045714Y-90736109D01*
X175045714Y-90736109D02*
X174974286Y-90712300D01*
X174974286Y-90712300D02*
X174926667Y-90664680D01*
X174926667Y-90664680D02*
X174902857Y-90617061D01*
X174902857Y-90617061D02*
X174879048Y-90521823D01*
X174879048Y-90521823D02*
X174879048Y-90450395D01*
X174879048Y-90450395D02*
X174902857Y-90355157D01*
X174902857Y-90355157D02*
X174926667Y-90307538D01*
X174926667Y-90307538D02*
X174974286Y-90259919D01*
X174974286Y-90259919D02*
X175045714Y-90236109D01*
X175045714Y-90236109D02*
X175093333Y-90236109D01*
X175093333Y-90236109D02*
X175164762Y-90259919D01*
X175164762Y-90259919D02*
X175188571Y-90283728D01*
X175664762Y-90736109D02*
X175379048Y-90736109D01*
X175521905Y-90736109D02*
X175521905Y-90236109D01*
X175521905Y-90236109D02*
X175474286Y-90307538D01*
X175474286Y-90307538D02*
X175426667Y-90355157D01*
X175426667Y-90355157D02*
X175379048Y-90378966D01*
X176140952Y-90736109D02*
X175855238Y-90736109D01*
X175998095Y-90736109D02*
X175998095Y-90236109D01*
X175998095Y-90236109D02*
X175950476Y-90307538D01*
X175950476Y-90307538D02*
X175902857Y-90355157D01*
X175902857Y-90355157D02*
X175855238Y-90378966D01*
D12*
X1413095Y220180D02*
X1413095Y1220180D01*
X1413095Y743990D02*
X1984523Y743990D01*
X1984523Y220180D02*
X1984523Y1220180D01*
X2984523Y220180D02*
X2413095Y220180D01*
X2698809Y220180D02*
X2698809Y1220180D01*
X2698809Y1220180D02*
X2603571Y1077323D01*
X2603571Y1077323D02*
X2508333Y982085D01*
X2508333Y982085D02*
X2413095Y934466D01*
D11*
X171426666Y-81698490D02*
X171402857Y-81722300D01*
X171402857Y-81722300D02*
X171331428Y-81746109D01*
X171331428Y-81746109D02*
X171283809Y-81746109D01*
X171283809Y-81746109D02*
X171212381Y-81722300D01*
X171212381Y-81722300D02*
X171164762Y-81674680D01*
X171164762Y-81674680D02*
X171140952Y-81627061D01*
X171140952Y-81627061D02*
X171117143Y-81531823D01*
X171117143Y-81531823D02*
X171117143Y-81460395D01*
X171117143Y-81460395D02*
X171140952Y-81365157D01*
X171140952Y-81365157D02*
X171164762Y-81317538D01*
X171164762Y-81317538D02*
X171212381Y-81269919D01*
X171212381Y-81269919D02*
X171283809Y-81246109D01*
X171283809Y-81246109D02*
X171331428Y-81246109D01*
X171331428Y-81246109D02*
X171402857Y-81269919D01*
X171402857Y-81269919D02*
X171426666Y-81293728D01*
X171902857Y-81746109D02*
X171617143Y-81746109D01*
X171760000Y-81746109D02*
X171760000Y-81246109D01*
X171760000Y-81246109D02*
X171712381Y-81317538D01*
X171712381Y-81317538D02*
X171664762Y-81365157D01*
X171664762Y-81365157D02*
X171617143Y-81388966D01*
X172816666Y-89326109D02*
X172650000Y-89088014D01*
X172530952Y-89326109D02*
X172530952Y-88826109D01*
X172530952Y-88826109D02*
X172721428Y-88826109D01*
X172721428Y-88826109D02*
X172769047Y-88849919D01*
X172769047Y-88849919D02*
X172792857Y-88873728D01*
X172792857Y-88873728D02*
X172816666Y-88921347D01*
X172816666Y-88921347D02*
X172816666Y-88992776D01*
X172816666Y-88992776D02*
X172792857Y-89040395D01*
X172792857Y-89040395D02*
X172769047Y-89064204D01*
X172769047Y-89064204D02*
X172721428Y-89088014D01*
X172721428Y-89088014D02*
X172530952Y-89088014D01*
X173245238Y-88992776D02*
X173245238Y-89326109D01*
X173126190Y-88802300D02*
X173007143Y-89159442D01*
X173007143Y-89159442D02*
X173316666Y-89159442D01*
X163016666Y-93478490D02*
X162992857Y-93502300D01*
X162992857Y-93502300D02*
X162921428Y-93526109D01*
X162921428Y-93526109D02*
X162873809Y-93526109D01*
X162873809Y-93526109D02*
X162802381Y-93502300D01*
X162802381Y-93502300D02*
X162754762Y-93454680D01*
X162754762Y-93454680D02*
X162730952Y-93407061D01*
X162730952Y-93407061D02*
X162707143Y-93311823D01*
X162707143Y-93311823D02*
X162707143Y-93240395D01*
X162707143Y-93240395D02*
X162730952Y-93145157D01*
X162730952Y-93145157D02*
X162754762Y-93097538D01*
X162754762Y-93097538D02*
X162802381Y-93049919D01*
X162802381Y-93049919D02*
X162873809Y-93026109D01*
X162873809Y-93026109D02*
X162921428Y-93026109D01*
X162921428Y-93026109D02*
X162992857Y-93049919D01*
X162992857Y-93049919D02*
X163016666Y-93073728D01*
X163254762Y-93526109D02*
X163350000Y-93526109D01*
X163350000Y-93526109D02*
X163397619Y-93502300D01*
X163397619Y-93502300D02*
X163421428Y-93478490D01*
X163421428Y-93478490D02*
X163469047Y-93407061D01*
X163469047Y-93407061D02*
X163492857Y-93311823D01*
X163492857Y-93311823D02*
X163492857Y-93121347D01*
X163492857Y-93121347D02*
X163469047Y-93073728D01*
X163469047Y-93073728D02*
X163445238Y-93049919D01*
X163445238Y-93049919D02*
X163397619Y-93026109D01*
X163397619Y-93026109D02*
X163302381Y-93026109D01*
X163302381Y-93026109D02*
X163254762Y-93049919D01*
X163254762Y-93049919D02*
X163230952Y-93073728D01*
X163230952Y-93073728D02*
X163207143Y-93121347D01*
X163207143Y-93121347D02*
X163207143Y-93240395D01*
X163207143Y-93240395D02*
X163230952Y-93288014D01*
X163230952Y-93288014D02*
X163254762Y-93311823D01*
X163254762Y-93311823D02*
X163302381Y-93335633D01*
X163302381Y-93335633D02*
X163397619Y-93335633D01*
X163397619Y-93335633D02*
X163445238Y-93311823D01*
X163445238Y-93311823D02*
X163469047Y-93288014D01*
X163469047Y-93288014D02*
X163492857Y-93240395D01*
X187416666Y-92678490D02*
X187392857Y-92702300D01*
X187392857Y-92702300D02*
X187321428Y-92726109D01*
X187321428Y-92726109D02*
X187273809Y-92726109D01*
X187273809Y-92726109D02*
X187202381Y-92702300D01*
X187202381Y-92702300D02*
X187154762Y-92654680D01*
X187154762Y-92654680D02*
X187130952Y-92607061D01*
X187130952Y-92607061D02*
X187107143Y-92511823D01*
X187107143Y-92511823D02*
X187107143Y-92440395D01*
X187107143Y-92440395D02*
X187130952Y-92345157D01*
X187130952Y-92345157D02*
X187154762Y-92297538D01*
X187154762Y-92297538D02*
X187202381Y-92249919D01*
X187202381Y-92249919D02*
X187273809Y-92226109D01*
X187273809Y-92226109D02*
X187321428Y-92226109D01*
X187321428Y-92226109D02*
X187392857Y-92249919D01*
X187392857Y-92249919D02*
X187416666Y-92273728D01*
X187607143Y-92273728D02*
X187630952Y-92249919D01*
X187630952Y-92249919D02*
X187678571Y-92226109D01*
X187678571Y-92226109D02*
X187797619Y-92226109D01*
X187797619Y-92226109D02*
X187845238Y-92249919D01*
X187845238Y-92249919D02*
X187869047Y-92273728D01*
X187869047Y-92273728D02*
X187892857Y-92321347D01*
X187892857Y-92321347D02*
X187892857Y-92368966D01*
X187892857Y-92368966D02*
X187869047Y-92440395D01*
X187869047Y-92440395D02*
X187583333Y-92726109D01*
X187583333Y-92726109D02*
X187892857Y-92726109D01*
X171416666Y-90658490D02*
X171392857Y-90682300D01*
X171392857Y-90682300D02*
X171321428Y-90706109D01*
X171321428Y-90706109D02*
X171273809Y-90706109D01*
X171273809Y-90706109D02*
X171202381Y-90682300D01*
X171202381Y-90682300D02*
X171154762Y-90634680D01*
X171154762Y-90634680D02*
X171130952Y-90587061D01*
X171130952Y-90587061D02*
X171107143Y-90491823D01*
X171107143Y-90491823D02*
X171107143Y-90420395D01*
X171107143Y-90420395D02*
X171130952Y-90325157D01*
X171130952Y-90325157D02*
X171154762Y-90277538D01*
X171154762Y-90277538D02*
X171202381Y-90229919D01*
X171202381Y-90229919D02*
X171273809Y-90206109D01*
X171273809Y-90206109D02*
X171321428Y-90206109D01*
X171321428Y-90206109D02*
X171392857Y-90229919D01*
X171392857Y-90229919D02*
X171416666Y-90253728D01*
X171583333Y-90206109D02*
X171916666Y-90206109D01*
X171916666Y-90206109D02*
X171702381Y-90706109D01*
X179178571Y-90478490D02*
X179154762Y-90502300D01*
X179154762Y-90502300D02*
X179083333Y-90526109D01*
X179083333Y-90526109D02*
X179035714Y-90526109D01*
X179035714Y-90526109D02*
X178964286Y-90502300D01*
X178964286Y-90502300D02*
X178916667Y-90454680D01*
X178916667Y-90454680D02*
X178892857Y-90407061D01*
X178892857Y-90407061D02*
X178869048Y-90311823D01*
X178869048Y-90311823D02*
X178869048Y-90240395D01*
X178869048Y-90240395D02*
X178892857Y-90145157D01*
X178892857Y-90145157D02*
X178916667Y-90097538D01*
X178916667Y-90097538D02*
X178964286Y-90049919D01*
X178964286Y-90049919D02*
X179035714Y-90026109D01*
X179035714Y-90026109D02*
X179083333Y-90026109D01*
X179083333Y-90026109D02*
X179154762Y-90049919D01*
X179154762Y-90049919D02*
X179178571Y-90073728D01*
X179654762Y-90526109D02*
X179369048Y-90526109D01*
X179511905Y-90526109D02*
X179511905Y-90026109D01*
X179511905Y-90026109D02*
X179464286Y-90097538D01*
X179464286Y-90097538D02*
X179416667Y-90145157D01*
X179416667Y-90145157D02*
X179369048Y-90168966D01*
X179964285Y-90026109D02*
X180011904Y-90026109D01*
X180011904Y-90026109D02*
X180059523Y-90049919D01*
X180059523Y-90049919D02*
X180083333Y-90073728D01*
X180083333Y-90073728D02*
X180107142Y-90121347D01*
X180107142Y-90121347D02*
X180130952Y-90216585D01*
X180130952Y-90216585D02*
X180130952Y-90335633D01*
X180130952Y-90335633D02*
X180107142Y-90430871D01*
X180107142Y-90430871D02*
X180083333Y-90478490D01*
X180083333Y-90478490D02*
X180059523Y-90502300D01*
X180059523Y-90502300D02*
X180011904Y-90526109D01*
X180011904Y-90526109D02*
X179964285Y-90526109D01*
X179964285Y-90526109D02*
X179916666Y-90502300D01*
X179916666Y-90502300D02*
X179892857Y-90478490D01*
X179892857Y-90478490D02*
X179869047Y-90430871D01*
X179869047Y-90430871D02*
X179845238Y-90335633D01*
X179845238Y-90335633D02*
X179845238Y-90216585D01*
X179845238Y-90216585D02*
X179869047Y-90121347D01*
X179869047Y-90121347D02*
X179892857Y-90073728D01*
X179892857Y-90073728D02*
X179916666Y-90049919D01*
X179916666Y-90049919D02*
X179964285Y-90026109D01*
X173602381Y-93826109D02*
X173435715Y-93588014D01*
X173316667Y-93826109D02*
X173316667Y-93326109D01*
X173316667Y-93326109D02*
X173507143Y-93326109D01*
X173507143Y-93326109D02*
X173554762Y-93349919D01*
X173554762Y-93349919D02*
X173578572Y-93373728D01*
X173578572Y-93373728D02*
X173602381Y-93421347D01*
X173602381Y-93421347D02*
X173602381Y-93492776D01*
X173602381Y-93492776D02*
X173578572Y-93540395D01*
X173578572Y-93540395D02*
X173554762Y-93564204D01*
X173554762Y-93564204D02*
X173507143Y-93588014D01*
X173507143Y-93588014D02*
X173316667Y-93588014D01*
X173745239Y-93326109D02*
X173911905Y-93826109D01*
X173911905Y-93826109D02*
X174078572Y-93326109D01*
X174507143Y-93826109D02*
X174221429Y-93826109D01*
X174364286Y-93826109D02*
X174364286Y-93326109D01*
X174364286Y-93326109D02*
X174316667Y-93397538D01*
X174316667Y-93397538D02*
X174269048Y-93445157D01*
X174269048Y-93445157D02*
X174221429Y-93468966D01*
X177088571Y-90718490D02*
X177064762Y-90742300D01*
X177064762Y-90742300D02*
X176993333Y-90766109D01*
X176993333Y-90766109D02*
X176945714Y-90766109D01*
X176945714Y-90766109D02*
X176874286Y-90742300D01*
X176874286Y-90742300D02*
X176826667Y-90694680D01*
X176826667Y-90694680D02*
X176802857Y-90647061D01*
X176802857Y-90647061D02*
X176779048Y-90551823D01*
X176779048Y-90551823D02*
X176779048Y-90480395D01*
X176779048Y-90480395D02*
X176802857Y-90385157D01*
X176802857Y-90385157D02*
X176826667Y-90337538D01*
X176826667Y-90337538D02*
X176874286Y-90289919D01*
X176874286Y-90289919D02*
X176945714Y-90266109D01*
X176945714Y-90266109D02*
X176993333Y-90266109D01*
X176993333Y-90266109D02*
X177064762Y-90289919D01*
X177064762Y-90289919D02*
X177088571Y-90313728D01*
X177564762Y-90766109D02*
X177279048Y-90766109D01*
X177421905Y-90766109D02*
X177421905Y-90266109D01*
X177421905Y-90266109D02*
X177374286Y-90337538D01*
X177374286Y-90337538D02*
X177326667Y-90385157D01*
X177326667Y-90385157D02*
X177279048Y-90408966D01*
X177755238Y-90313728D02*
X177779047Y-90289919D01*
X177779047Y-90289919D02*
X177826666Y-90266109D01*
X177826666Y-90266109D02*
X177945714Y-90266109D01*
X177945714Y-90266109D02*
X177993333Y-90289919D01*
X177993333Y-90289919D02*
X178017142Y-90313728D01*
X178017142Y-90313728D02*
X178040952Y-90361347D01*
X178040952Y-90361347D02*
X178040952Y-90408966D01*
X178040952Y-90408966D02*
X178017142Y-90480395D01*
X178017142Y-90480395D02*
X177731428Y-90766109D01*
X177731428Y-90766109D02*
X178040952Y-90766109D01*
X174376666Y-82878490D02*
X174352857Y-82902300D01*
X174352857Y-82902300D02*
X174281428Y-82926109D01*
X174281428Y-82926109D02*
X174233809Y-82926109D01*
X174233809Y-82926109D02*
X174162381Y-82902300D01*
X174162381Y-82902300D02*
X174114762Y-82854680D01*
X174114762Y-82854680D02*
X174090952Y-82807061D01*
X174090952Y-82807061D02*
X174067143Y-82711823D01*
X174067143Y-82711823D02*
X174067143Y-82640395D01*
X174067143Y-82640395D02*
X174090952Y-82545157D01*
X174090952Y-82545157D02*
X174114762Y-82497538D01*
X174114762Y-82497538D02*
X174162381Y-82449919D01*
X174162381Y-82449919D02*
X174233809Y-82426109D01*
X174233809Y-82426109D02*
X174281428Y-82426109D01*
X174281428Y-82426109D02*
X174352857Y-82449919D01*
X174352857Y-82449919D02*
X174376666Y-82473728D01*
X174662381Y-82640395D02*
X174614762Y-82616585D01*
X174614762Y-82616585D02*
X174590952Y-82592776D01*
X174590952Y-82592776D02*
X174567143Y-82545157D01*
X174567143Y-82545157D02*
X174567143Y-82521347D01*
X174567143Y-82521347D02*
X174590952Y-82473728D01*
X174590952Y-82473728D02*
X174614762Y-82449919D01*
X174614762Y-82449919D02*
X174662381Y-82426109D01*
X174662381Y-82426109D02*
X174757619Y-82426109D01*
X174757619Y-82426109D02*
X174805238Y-82449919D01*
X174805238Y-82449919D02*
X174829047Y-82473728D01*
X174829047Y-82473728D02*
X174852857Y-82521347D01*
X174852857Y-82521347D02*
X174852857Y-82545157D01*
X174852857Y-82545157D02*
X174829047Y-82592776D01*
X174829047Y-82592776D02*
X174805238Y-82616585D01*
X174805238Y-82616585D02*
X174757619Y-82640395D01*
X174757619Y-82640395D02*
X174662381Y-82640395D01*
X174662381Y-82640395D02*
X174614762Y-82664204D01*
X174614762Y-82664204D02*
X174590952Y-82688014D01*
X174590952Y-82688014D02*
X174567143Y-82735633D01*
X174567143Y-82735633D02*
X174567143Y-82830871D01*
X174567143Y-82830871D02*
X174590952Y-82878490D01*
X174590952Y-82878490D02*
X174614762Y-82902300D01*
X174614762Y-82902300D02*
X174662381Y-82926109D01*
X174662381Y-82926109D02*
X174757619Y-82926109D01*
X174757619Y-82926109D02*
X174805238Y-82902300D01*
X174805238Y-82902300D02*
X174829047Y-82878490D01*
X174829047Y-82878490D02*
X174852857Y-82830871D01*
X174852857Y-82830871D02*
X174852857Y-82735633D01*
X174852857Y-82735633D02*
X174829047Y-82688014D01*
X174829047Y-82688014D02*
X174805238Y-82664204D01*
X174805238Y-82664204D02*
X174757619Y-82640395D01*
X182416666Y-92578490D02*
X182392857Y-92602300D01*
X182392857Y-92602300D02*
X182321428Y-92626109D01*
X182321428Y-92626109D02*
X182273809Y-92626109D01*
X182273809Y-92626109D02*
X182202381Y-92602300D01*
X182202381Y-92602300D02*
X182154762Y-92554680D01*
X182154762Y-92554680D02*
X182130952Y-92507061D01*
X182130952Y-92507061D02*
X182107143Y-92411823D01*
X182107143Y-92411823D02*
X182107143Y-92340395D01*
X182107143Y-92340395D02*
X182130952Y-92245157D01*
X182130952Y-92245157D02*
X182154762Y-92197538D01*
X182154762Y-92197538D02*
X182202381Y-92149919D01*
X182202381Y-92149919D02*
X182273809Y-92126109D01*
X182273809Y-92126109D02*
X182321428Y-92126109D01*
X182321428Y-92126109D02*
X182392857Y-92149919D01*
X182392857Y-92149919D02*
X182416666Y-92173728D01*
X182845238Y-92292776D02*
X182845238Y-92626109D01*
X182726190Y-92102300D02*
X182607143Y-92459442D01*
X182607143Y-92459442D02*
X182916666Y-92459442D01*
X187416666Y-82578490D02*
X187392857Y-82602300D01*
X187392857Y-82602300D02*
X187321428Y-82626109D01*
X187321428Y-82626109D02*
X187273809Y-82626109D01*
X187273809Y-82626109D02*
X187202381Y-82602300D01*
X187202381Y-82602300D02*
X187154762Y-82554680D01*
X187154762Y-82554680D02*
X187130952Y-82507061D01*
X187130952Y-82507061D02*
X187107143Y-82411823D01*
X187107143Y-82411823D02*
X187107143Y-82340395D01*
X187107143Y-82340395D02*
X187130952Y-82245157D01*
X187130952Y-82245157D02*
X187154762Y-82197538D01*
X187154762Y-82197538D02*
X187202381Y-82149919D01*
X187202381Y-82149919D02*
X187273809Y-82126109D01*
X187273809Y-82126109D02*
X187321428Y-82126109D01*
X187321428Y-82126109D02*
X187392857Y-82149919D01*
X187392857Y-82149919D02*
X187416666Y-82173728D01*
X187845238Y-82126109D02*
X187750000Y-82126109D01*
X187750000Y-82126109D02*
X187702381Y-82149919D01*
X187702381Y-82149919D02*
X187678571Y-82173728D01*
X187678571Y-82173728D02*
X187630952Y-82245157D01*
X187630952Y-82245157D02*
X187607143Y-82340395D01*
X187607143Y-82340395D02*
X187607143Y-82530871D01*
X187607143Y-82530871D02*
X187630952Y-82578490D01*
X187630952Y-82578490D02*
X187654762Y-82602300D01*
X187654762Y-82602300D02*
X187702381Y-82626109D01*
X187702381Y-82626109D02*
X187797619Y-82626109D01*
X187797619Y-82626109D02*
X187845238Y-82602300D01*
X187845238Y-82602300D02*
X187869047Y-82578490D01*
X187869047Y-82578490D02*
X187892857Y-82530871D01*
X187892857Y-82530871D02*
X187892857Y-82411823D01*
X187892857Y-82411823D02*
X187869047Y-82364204D01*
X187869047Y-82364204D02*
X187845238Y-82340395D01*
X187845238Y-82340395D02*
X187797619Y-82316585D01*
X187797619Y-82316585D02*
X187702381Y-82316585D01*
X187702381Y-82316585D02*
X187654762Y-82340395D01*
X187654762Y-82340395D02*
X187630952Y-82364204D01*
X187630952Y-82364204D02*
X187607143Y-82411823D01*
X157778571Y-93478490D02*
X157754762Y-93502300D01*
X157754762Y-93502300D02*
X157683333Y-93526109D01*
X157683333Y-93526109D02*
X157635714Y-93526109D01*
X157635714Y-93526109D02*
X157564286Y-93502300D01*
X157564286Y-93502300D02*
X157516667Y-93454680D01*
X157516667Y-93454680D02*
X157492857Y-93407061D01*
X157492857Y-93407061D02*
X157469048Y-93311823D01*
X157469048Y-93311823D02*
X157469048Y-93240395D01*
X157469048Y-93240395D02*
X157492857Y-93145157D01*
X157492857Y-93145157D02*
X157516667Y-93097538D01*
X157516667Y-93097538D02*
X157564286Y-93049919D01*
X157564286Y-93049919D02*
X157635714Y-93026109D01*
X157635714Y-93026109D02*
X157683333Y-93026109D01*
X157683333Y-93026109D02*
X157754762Y-93049919D01*
X157754762Y-93049919D02*
X157778571Y-93073728D01*
X158254762Y-93526109D02*
X157969048Y-93526109D01*
X158111905Y-93526109D02*
X158111905Y-93026109D01*
X158111905Y-93026109D02*
X158064286Y-93097538D01*
X158064286Y-93097538D02*
X158016667Y-93145157D01*
X158016667Y-93145157D02*
X157969048Y-93168966D01*
X158683333Y-93192776D02*
X158683333Y-93526109D01*
X158564285Y-93002300D02*
X158445238Y-93359442D01*
X158445238Y-93359442D02*
X158754761Y-93359442D01*
X182178571Y-82578490D02*
X182154762Y-82602300D01*
X182154762Y-82602300D02*
X182083333Y-82626109D01*
X182083333Y-82626109D02*
X182035714Y-82626109D01*
X182035714Y-82626109D02*
X181964286Y-82602300D01*
X181964286Y-82602300D02*
X181916667Y-82554680D01*
X181916667Y-82554680D02*
X181892857Y-82507061D01*
X181892857Y-82507061D02*
X181869048Y-82411823D01*
X181869048Y-82411823D02*
X181869048Y-82340395D01*
X181869048Y-82340395D02*
X181892857Y-82245157D01*
X181892857Y-82245157D02*
X181916667Y-82197538D01*
X181916667Y-82197538D02*
X181964286Y-82149919D01*
X181964286Y-82149919D02*
X182035714Y-82126109D01*
X182035714Y-82126109D02*
X182083333Y-82126109D01*
X182083333Y-82126109D02*
X182154762Y-82149919D01*
X182154762Y-82149919D02*
X182178571Y-82173728D01*
X182654762Y-82626109D02*
X182369048Y-82626109D01*
X182511905Y-82626109D02*
X182511905Y-82126109D01*
X182511905Y-82126109D02*
X182464286Y-82197538D01*
X182464286Y-82197538D02*
X182416667Y-82245157D01*
X182416667Y-82245157D02*
X182369048Y-82268966D01*
X183107142Y-82126109D02*
X182869047Y-82126109D01*
X182869047Y-82126109D02*
X182845238Y-82364204D01*
X182845238Y-82364204D02*
X182869047Y-82340395D01*
X182869047Y-82340395D02*
X182916666Y-82316585D01*
X182916666Y-82316585D02*
X183035714Y-82316585D01*
X183035714Y-82316585D02*
X183083333Y-82340395D01*
X183083333Y-82340395D02*
X183107142Y-82364204D01*
X183107142Y-82364204D02*
X183130952Y-82411823D01*
X183130952Y-82411823D02*
X183130952Y-82530871D01*
X183130952Y-82530871D02*
X183107142Y-82578490D01*
X183107142Y-82578490D02*
X183083333Y-82602300D01*
X183083333Y-82602300D02*
X183035714Y-82626109D01*
X183035714Y-82626109D02*
X182916666Y-82626109D01*
X182916666Y-82626109D02*
X182869047Y-82602300D01*
X182869047Y-82602300D02*
X182845238Y-82578490D01*
X160278571Y-93478490D02*
X160254762Y-93502300D01*
X160254762Y-93502300D02*
X160183333Y-93526109D01*
X160183333Y-93526109D02*
X160135714Y-93526109D01*
X160135714Y-93526109D02*
X160064286Y-93502300D01*
X160064286Y-93502300D02*
X160016667Y-93454680D01*
X160016667Y-93454680D02*
X159992857Y-93407061D01*
X159992857Y-93407061D02*
X159969048Y-93311823D01*
X159969048Y-93311823D02*
X159969048Y-93240395D01*
X159969048Y-93240395D02*
X159992857Y-93145157D01*
X159992857Y-93145157D02*
X160016667Y-93097538D01*
X160016667Y-93097538D02*
X160064286Y-93049919D01*
X160064286Y-93049919D02*
X160135714Y-93026109D01*
X160135714Y-93026109D02*
X160183333Y-93026109D01*
X160183333Y-93026109D02*
X160254762Y-93049919D01*
X160254762Y-93049919D02*
X160278571Y-93073728D01*
X160754762Y-93526109D02*
X160469048Y-93526109D01*
X160611905Y-93526109D02*
X160611905Y-93026109D01*
X160611905Y-93026109D02*
X160564286Y-93097538D01*
X160564286Y-93097538D02*
X160516667Y-93145157D01*
X160516667Y-93145157D02*
X160469048Y-93168966D01*
X160921428Y-93026109D02*
X161230952Y-93026109D01*
X161230952Y-93026109D02*
X161064285Y-93216585D01*
X161064285Y-93216585D02*
X161135714Y-93216585D01*
X161135714Y-93216585D02*
X161183333Y-93240395D01*
X161183333Y-93240395D02*
X161207142Y-93264204D01*
X161207142Y-93264204D02*
X161230952Y-93311823D01*
X161230952Y-93311823D02*
X161230952Y-93430871D01*
X161230952Y-93430871D02*
X161207142Y-93478490D01*
X161207142Y-93478490D02*
X161183333Y-93502300D01*
X161183333Y-93502300D02*
X161135714Y-93526109D01*
X161135714Y-93526109D02*
X160992857Y-93526109D01*
X160992857Y-93526109D02*
X160945238Y-93502300D01*
X160945238Y-93502300D02*
X160921428Y-93478490D01*
X184916666Y-92578490D02*
X184892857Y-92602300D01*
X184892857Y-92602300D02*
X184821428Y-92626109D01*
X184821428Y-92626109D02*
X184773809Y-92626109D01*
X184773809Y-92626109D02*
X184702381Y-92602300D01*
X184702381Y-92602300D02*
X184654762Y-92554680D01*
X184654762Y-92554680D02*
X184630952Y-92507061D01*
X184630952Y-92507061D02*
X184607143Y-92411823D01*
X184607143Y-92411823D02*
X184607143Y-92340395D01*
X184607143Y-92340395D02*
X184630952Y-92245157D01*
X184630952Y-92245157D02*
X184654762Y-92197538D01*
X184654762Y-92197538D02*
X184702381Y-92149919D01*
X184702381Y-92149919D02*
X184773809Y-92126109D01*
X184773809Y-92126109D02*
X184821428Y-92126109D01*
X184821428Y-92126109D02*
X184892857Y-92149919D01*
X184892857Y-92149919D02*
X184916666Y-92173728D01*
X185083333Y-92126109D02*
X185392857Y-92126109D01*
X185392857Y-92126109D02*
X185226190Y-92316585D01*
X185226190Y-92316585D02*
X185297619Y-92316585D01*
X185297619Y-92316585D02*
X185345238Y-92340395D01*
X185345238Y-92340395D02*
X185369047Y-92364204D01*
X185369047Y-92364204D02*
X185392857Y-92411823D01*
X185392857Y-92411823D02*
X185392857Y-92530871D01*
X185392857Y-92530871D02*
X185369047Y-92578490D01*
X185369047Y-92578490D02*
X185345238Y-92602300D01*
X185345238Y-92602300D02*
X185297619Y-92626109D01*
X185297619Y-92626109D02*
X185154762Y-92626109D01*
X185154762Y-92626109D02*
X185107143Y-92602300D01*
X185107143Y-92602300D02*
X185083333Y-92578490D01*
X163916666Y-80726109D02*
X163678571Y-80726109D01*
X163678571Y-80726109D02*
X163678571Y-80226109D01*
X164345238Y-80726109D02*
X164059524Y-80726109D01*
X164202381Y-80726109D02*
X164202381Y-80226109D01*
X164202381Y-80226109D02*
X164154762Y-80297538D01*
X164154762Y-80297538D02*
X164107143Y-80345157D01*
X164107143Y-80345157D02*
X164059524Y-80368966D01*
X184916666Y-82578490D02*
X184892857Y-82602300D01*
X184892857Y-82602300D02*
X184821428Y-82626109D01*
X184821428Y-82626109D02*
X184773809Y-82626109D01*
X184773809Y-82626109D02*
X184702381Y-82602300D01*
X184702381Y-82602300D02*
X184654762Y-82554680D01*
X184654762Y-82554680D02*
X184630952Y-82507061D01*
X184630952Y-82507061D02*
X184607143Y-82411823D01*
X184607143Y-82411823D02*
X184607143Y-82340395D01*
X184607143Y-82340395D02*
X184630952Y-82245157D01*
X184630952Y-82245157D02*
X184654762Y-82197538D01*
X184654762Y-82197538D02*
X184702381Y-82149919D01*
X184702381Y-82149919D02*
X184773809Y-82126109D01*
X184773809Y-82126109D02*
X184821428Y-82126109D01*
X184821428Y-82126109D02*
X184892857Y-82149919D01*
X184892857Y-82149919D02*
X184916666Y-82173728D01*
X185369047Y-82126109D02*
X185130952Y-82126109D01*
X185130952Y-82126109D02*
X185107143Y-82364204D01*
X185107143Y-82364204D02*
X185130952Y-82340395D01*
X185130952Y-82340395D02*
X185178571Y-82316585D01*
X185178571Y-82316585D02*
X185297619Y-82316585D01*
X185297619Y-82316585D02*
X185345238Y-82340395D01*
X185345238Y-82340395D02*
X185369047Y-82364204D01*
X185369047Y-82364204D02*
X185392857Y-82411823D01*
X185392857Y-82411823D02*
X185392857Y-82530871D01*
X185392857Y-82530871D02*
X185369047Y-82578490D01*
X185369047Y-82578490D02*
X185345238Y-82602300D01*
X185345238Y-82602300D02*
X185297619Y-82626109D01*
X185297619Y-82626109D02*
X185178571Y-82626109D01*
X185178571Y-82626109D02*
X185130952Y-82602300D01*
X185130952Y-82602300D02*
X185107143Y-82578490D01*
D13*
%TO.C,kibuzzard-68C918EC*%
G36*
X153509247Y-95281050D02*
G01*
X153338014Y-95281050D01*
X153226370Y-95281050D01*
X152963356Y-95281050D01*
X152495548Y-95281050D01*
X152285274Y-95281050D01*
X152052397Y-95281050D01*
X151856507Y-95281050D01*
X151456507Y-95281050D01*
X151074315Y-95281050D01*
X150908562Y-95281050D01*
X150661986Y-95281050D01*
X150490753Y-95281050D01*
X150490753Y-94638584D01*
X150661986Y-94638584D01*
X150661986Y-94702968D01*
X150700571Y-94680518D01*
X150735959Y-94667047D01*
X150768151Y-94662557D01*
X150813014Y-94681050D01*
X150824058Y-94705023D01*
X150827740Y-94739954D01*
X150824357Y-94777486D01*
X150814209Y-94817282D01*
X150797295Y-94859342D01*
X150773616Y-94903667D01*
X150743172Y-94950256D01*
X150705962Y-94999110D01*
X150661986Y-95050228D01*
X150661986Y-95109817D01*
X150908562Y-95109817D01*
X151074315Y-95109817D01*
X151183904Y-95109817D01*
X151183904Y-94993379D01*
X151074315Y-94993379D01*
X151074315Y-95109817D01*
X150908562Y-95109817D01*
X150908562Y-95050228D01*
X150741438Y-95050228D01*
X150741438Y-95048858D01*
X150781614Y-95000999D01*
X150815839Y-94956050D01*
X150844114Y-94914013D01*
X150866438Y-94874886D01*
X150887938Y-94826027D01*
X150900837Y-94779909D01*
X150905137Y-94736530D01*
X150897346Y-94678739D01*
X150873973Y-94636872D01*
X150835873Y-94611444D01*
X150825897Y-94609817D01*
X151343493Y-94609817D01*
X151343493Y-94669406D01*
X151530479Y-94669406D01*
X151530479Y-94670776D01*
X151510312Y-94715567D01*
X151490906Y-94761356D01*
X151472260Y-94808143D01*
X151454376Y-94855928D01*
X151437253Y-94904710D01*
X151420890Y-94954490D01*
X151405289Y-95005268D01*
X151390449Y-95057044D01*
X151376370Y-95109817D01*
X151456507Y-95109817D01*
X151470011Y-95054997D01*
X151484039Y-95001649D01*
X151498592Y-94949772D01*
X151513669Y-94899366D01*
X151529270Y-94850431D01*
X151545396Y-94802968D01*
X151562045Y-94756976D01*
X151579220Y-94712456D01*
X151596918Y-94669406D01*
X151596918Y-94609817D01*
X151656507Y-94609817D01*
X151767466Y-95109817D01*
X151856507Y-95109817D01*
X151895353Y-94935845D01*
X152052397Y-94935845D01*
X152257877Y-94935845D01*
X152257877Y-94878995D01*
X152052397Y-94878995D01*
X152052397Y-94935845D01*
X151895353Y-94935845D01*
X151952551Y-94679680D01*
X152376370Y-94679680D01*
X152376370Y-94746804D01*
X152494178Y-94681050D01*
X152495548Y-94681735D01*
X152495548Y-95109817D01*
X152572260Y-95109817D01*
X152572260Y-94638584D01*
X152716781Y-94638584D01*
X152716781Y-94702968D01*
X152755365Y-94680518D01*
X152790753Y-94667047D01*
X152822945Y-94662557D01*
X152867808Y-94681050D01*
X152878853Y-94705023D01*
X152882534Y-94739954D01*
X152879152Y-94777486D01*
X152869003Y-94817282D01*
X152852090Y-94859342D01*
X152828411Y-94903667D01*
X152797966Y-94950256D01*
X152760756Y-94999110D01*
X152716781Y-95050228D01*
X152716781Y-95109817D01*
X152963356Y-95109817D01*
X152963356Y-95050228D01*
X152796233Y-95050228D01*
X152796233Y-95048858D01*
X152836408Y-95000999D01*
X152870634Y-94956050D01*
X152898908Y-94914013D01*
X152921233Y-94874886D01*
X152942732Y-94826027D01*
X152955632Y-94779909D01*
X152959932Y-94736530D01*
X152952140Y-94678739D01*
X152928767Y-94636872D01*
X152890668Y-94611444D01*
X152880692Y-94609817D01*
X153026370Y-94609817D01*
X153137329Y-95109817D01*
X153226370Y-95109817D01*
X153338014Y-94609817D01*
X153261986Y-94609817D01*
X153183904Y-95041324D01*
X153183219Y-95041324D01*
X153105137Y-94609817D01*
X153026370Y-94609817D01*
X152880692Y-94609817D01*
X152838699Y-94602968D01*
X152795320Y-94606925D01*
X152754680Y-94618798D01*
X152716781Y-94638584D01*
X152572260Y-94638584D01*
X152572260Y-94609817D01*
X152496233Y-94609817D01*
X152376370Y-94679680D01*
X151952551Y-94679680D01*
X151968151Y-94609817D01*
X151892123Y-94609817D01*
X151874315Y-94708231D01*
X151814041Y-95041324D01*
X151813356Y-95041324D01*
X151735274Y-94609817D01*
X151656507Y-94609817D01*
X151596918Y-94609817D01*
X151514041Y-94609817D01*
X151343493Y-94609817D01*
X150825897Y-94609817D01*
X150783904Y-94602968D01*
X150740525Y-94606925D01*
X150699886Y-94618798D01*
X150661986Y-94638584D01*
X150490753Y-94638584D01*
X150490753Y-93810731D01*
X151314041Y-93810731D01*
X151425000Y-94310731D01*
X151514041Y-94310731D01*
X151593568Y-93954566D01*
X151706507Y-93954566D01*
X151706507Y-94010046D01*
X151797603Y-94010046D01*
X151797603Y-94310731D01*
X151874315Y-94310731D01*
X151874315Y-93976484D01*
X152025000Y-93976484D01*
X152025000Y-94310731D01*
X152100342Y-94310731D01*
X152100342Y-94018950D01*
X152146918Y-94003881D01*
X152197603Y-94017580D01*
X152211301Y-94067580D01*
X152211301Y-94310731D01*
X152285274Y-94310731D01*
X152285274Y-94071005D01*
X152278168Y-94010217D01*
X152256849Y-93973059D01*
X152231773Y-93958980D01*
X152194444Y-93950533D01*
X152144863Y-93947717D01*
X152100799Y-93950913D01*
X152060845Y-93960502D01*
X152025000Y-93976484D01*
X151874315Y-93976484D01*
X151874315Y-93954566D01*
X151783904Y-93954566D01*
X151706507Y-93954566D01*
X151593568Y-93954566D01*
X151611156Y-93875799D01*
X151783904Y-93875799D01*
X151874315Y-93875799D01*
X151874315Y-93790183D01*
X151783904Y-93790183D01*
X151783904Y-93875799D01*
X151611156Y-93875799D01*
X151625685Y-93810731D01*
X151549658Y-93810731D01*
X151471575Y-94242237D01*
X151470890Y-94242237D01*
X151392808Y-93810731D01*
X151314041Y-93810731D01*
X150490753Y-93810731D01*
X150490753Y-93618950D01*
X150661986Y-93618950D01*
X153338014Y-93618950D01*
X153509247Y-93618950D01*
X153509247Y-95281050D01*
G37*
%TO.C,kibuzzard-68C9177F*%
G36*
X196636712Y-95277397D02*
G01*
X196362740Y-95277397D01*
X196184110Y-95277397D01*
X195533151Y-95277397D01*
X195014795Y-95277397D01*
X194305753Y-95277397D01*
X193992329Y-95277397D01*
X193341370Y-95277397D01*
X192740822Y-95277397D01*
X192429589Y-95277397D01*
X192037260Y-95277397D01*
X191763288Y-95277397D01*
X191763288Y-94720685D01*
X192037260Y-94720685D01*
X192037260Y-94814932D01*
X192309041Y-94814932D01*
X192309041Y-94992466D01*
X192429589Y-94992466D01*
X192740822Y-94992466D01*
X192916164Y-94992466D01*
X192916164Y-94866438D01*
X193184658Y-94866438D01*
X193184658Y-94970548D01*
X193260000Y-94995205D01*
X193341370Y-95003425D01*
X193416499Y-94996606D01*
X193476773Y-94976149D01*
X193522192Y-94942055D01*
X193553851Y-94892131D01*
X193572846Y-94824186D01*
X193579178Y-94738219D01*
X193572164Y-94645507D01*
X193551123Y-94573397D01*
X193516055Y-94521890D01*
X193466959Y-94490986D01*
X193403836Y-94480685D01*
X193351781Y-94487534D01*
X193307397Y-94508082D01*
X193305205Y-94508082D01*
X193312877Y-94286712D01*
X193557260Y-94286712D01*
X193557260Y-94192466D01*
X193672329Y-94192466D01*
X193849863Y-94992466D01*
X193992329Y-94992466D01*
X194074792Y-94623151D01*
X194305753Y-94623151D01*
X194305753Y-94714110D01*
X194634521Y-94714110D01*
X194634521Y-94623151D01*
X194481096Y-94623151D01*
X194305753Y-94623151D01*
X194074792Y-94623151D01*
X194146000Y-94304247D01*
X194824110Y-94304247D01*
X194824110Y-94411644D01*
X195012603Y-94306438D01*
X195014795Y-94307534D01*
X195014795Y-94992466D01*
X195137534Y-94992466D01*
X195137534Y-94866438D01*
X195376438Y-94866438D01*
X195376438Y-94970548D01*
X195451781Y-94995205D01*
X195533151Y-95003425D01*
X195608280Y-94996606D01*
X195668554Y-94976149D01*
X195713973Y-94942055D01*
X195745632Y-94892131D01*
X195764627Y-94824186D01*
X195770959Y-94738219D01*
X195763945Y-94645507D01*
X195742904Y-94573397D01*
X195707836Y-94521890D01*
X195658740Y-94490986D01*
X195595616Y-94480685D01*
X195543562Y-94487534D01*
X195499178Y-94508082D01*
X195496986Y-94508082D01*
X195504658Y-94286712D01*
X195749041Y-94286712D01*
X195749041Y-94192466D01*
X195864110Y-94192466D01*
X196041644Y-94992466D01*
X196184110Y-94992466D01*
X196362740Y-94192466D01*
X196241096Y-94192466D01*
X196116164Y-94882877D01*
X196115068Y-94882877D01*
X195990137Y-94192466D01*
X195864110Y-94192466D01*
X195749041Y-94192466D01*
X195392877Y-94192466D01*
X195381918Y-94617671D01*
X195482740Y-94617671D01*
X195520822Y-94584795D01*
X195562740Y-94573836D01*
X195627397Y-94611644D01*
X195643014Y-94662192D01*
X195648219Y-94738219D01*
X195640822Y-94818356D01*
X195618630Y-94870274D01*
X195580274Y-94898630D01*
X195524384Y-94908082D01*
X195451233Y-94897671D01*
X195376438Y-94866438D01*
X195137534Y-94866438D01*
X195137534Y-94192466D01*
X195094795Y-94192466D01*
X195015890Y-94192466D01*
X194824110Y-94304247D01*
X194146000Y-94304247D01*
X194170959Y-94192466D01*
X194049315Y-94192466D01*
X193924384Y-94882877D01*
X193923288Y-94882877D01*
X193922192Y-94876820D01*
X193798356Y-94192466D01*
X193672329Y-94192466D01*
X193557260Y-94192466D01*
X193444384Y-94192466D01*
X193201096Y-94192466D01*
X193190137Y-94617671D01*
X193290959Y-94617671D01*
X193329041Y-94584795D01*
X193370959Y-94573836D01*
X193435616Y-94611644D01*
X193451233Y-94662192D01*
X193456438Y-94738219D01*
X193449041Y-94818356D01*
X193426849Y-94870274D01*
X193388493Y-94898630D01*
X193332603Y-94908082D01*
X193259452Y-94897671D01*
X193184658Y-94866438D01*
X192916164Y-94866438D01*
X192916164Y-94806164D01*
X192740822Y-94806164D01*
X192740822Y-94992466D01*
X192429589Y-94992466D01*
X192429589Y-94814932D01*
X192519452Y-94814932D01*
X192519452Y-94720685D01*
X192429589Y-94720685D01*
X192429589Y-94192466D01*
X192296986Y-94192466D01*
X192037260Y-94720685D01*
X191763288Y-94720685D01*
X191763288Y-93096575D01*
X193124384Y-93096575D01*
X193301918Y-93896575D01*
X193444384Y-93896575D01*
X193508006Y-93611644D01*
X193692055Y-93611644D01*
X193698387Y-93705890D01*
X193717382Y-93781142D01*
X193749041Y-93837397D01*
X193793607Y-93876362D01*
X193851324Y-93899741D01*
X193922192Y-93907534D01*
X193993059Y-93899741D01*
X194050776Y-93876362D01*
X194095342Y-93837397D01*
X194127002Y-93781142D01*
X194143507Y-93715753D01*
X194267397Y-93715753D01*
X194278630Y-93808904D01*
X194312329Y-93866986D01*
X194351050Y-93889513D01*
X194407306Y-93903029D01*
X194481096Y-93907534D01*
X194551598Y-93902420D01*
X194615525Y-93887078D01*
X194672877Y-93861507D01*
X194672877Y-93348630D01*
X194804384Y-93348630D01*
X194804384Y-93437397D01*
X194917260Y-93437397D01*
X194917260Y-93732192D01*
X194926986Y-93817123D01*
X194956164Y-93870274D01*
X195010274Y-93898219D01*
X195094795Y-93907534D01*
X195155342Y-93904247D01*
X195209863Y-93894384D01*
X195209863Y-93794658D01*
X195163014Y-93806986D01*
X195116712Y-93811096D01*
X195050959Y-93793014D01*
X195036712Y-93710274D01*
X195036712Y-93437397D01*
X195220822Y-93437397D01*
X195220822Y-93348630D01*
X195036712Y-93348630D01*
X195036712Y-93140411D01*
X194917260Y-93140411D01*
X194917260Y-93348630D01*
X194804384Y-93348630D01*
X194672877Y-93348630D01*
X194672877Y-93326712D01*
X194552329Y-93326712D01*
X194553425Y-93795753D01*
X194478904Y-93817671D01*
X194404932Y-93796301D01*
X194384658Y-93715753D01*
X194384658Y-93326712D01*
X194267397Y-93326712D01*
X194267397Y-93715753D01*
X194143507Y-93715753D01*
X194145997Y-93705890D01*
X194152329Y-93611644D01*
X194145997Y-93517397D01*
X194127002Y-93442146D01*
X194095342Y-93385890D01*
X194050776Y-93346925D01*
X193993059Y-93323546D01*
X193922192Y-93315753D01*
X193851324Y-93323546D01*
X193793607Y-93346925D01*
X193749041Y-93385890D01*
X193717382Y-93442146D01*
X193698387Y-93517397D01*
X193692055Y-93611644D01*
X193508006Y-93611644D01*
X193623014Y-93096575D01*
X193501370Y-93096575D01*
X193376438Y-93786986D01*
X193375342Y-93786986D01*
X193250411Y-93096575D01*
X193124384Y-93096575D01*
X191763288Y-93096575D01*
X191763288Y-92822603D01*
X192037260Y-92822603D01*
X196362740Y-92822603D01*
X196636712Y-92822603D01*
X196636712Y-95277397D01*
G37*
G36*
X193971918Y-93416438D02*
G01*
X194004932Y-93448904D01*
X194023425Y-93511233D01*
X194029589Y-93611644D01*
X194023425Y-93712055D01*
X194004932Y-93774384D01*
X193971918Y-93806849D01*
X193922192Y-93817671D01*
X193872466Y-93806849D01*
X193839452Y-93774384D01*
X193820959Y-93712055D01*
X193814795Y-93611644D01*
X193820959Y-93511233D01*
X193839452Y-93448904D01*
X193872466Y-93416438D01*
X193922192Y-93405616D01*
X193971918Y-93416438D01*
G37*
G36*
X192309041Y-94720685D02*
G01*
X192133699Y-94720685D01*
X192133699Y-94717397D01*
X192306849Y-94362329D01*
X192309041Y-94362329D01*
X192309041Y-94720685D01*
G37*
%TO.C,kibuzzard-68C91755*%
G36*
X191199087Y-101467580D02*
G01*
X190742466Y-101467580D01*
X190139726Y-101467580D01*
X189459178Y-101467580D01*
X188833425Y-101467580D01*
X188301918Y-101467580D01*
X187753973Y-101467580D01*
X187184110Y-101467580D01*
X186162740Y-101467580D01*
X185517260Y-101467580D01*
X184466301Y-101467580D01*
X183979726Y-101467580D01*
X182875068Y-101467580D01*
X182229589Y-101467580D01*
X182057534Y-101467580D01*
X181600913Y-101467580D01*
X181600913Y-100210959D01*
X182057534Y-100210959D01*
X182057534Y-100989041D01*
X182140000Y-101005479D01*
X182229589Y-101010959D01*
X182320548Y-101001507D01*
X182391781Y-100973151D01*
X182445890Y-100921507D01*
X182485479Y-100842192D01*
X182503440Y-100772664D01*
X182514216Y-100688280D01*
X182517808Y-100589041D01*
X182597808Y-100589041D01*
X182602140Y-100687928D01*
X182615137Y-100773630D01*
X182636798Y-100846147D01*
X182667123Y-100905479D01*
X182706113Y-100951627D01*
X182753767Y-100984589D01*
X182810086Y-101004366D01*
X182875068Y-101010959D01*
X182948219Y-101004110D01*
X183014247Y-100983562D01*
X183014247Y-100882740D01*
X182951781Y-100908219D01*
X182893699Y-100916712D01*
X182840122Y-100907610D01*
X182796286Y-100880304D01*
X182762192Y-100834795D01*
X182737839Y-100771081D01*
X182723227Y-100689163D01*
X182718356Y-100589041D01*
X182722770Y-100496286D01*
X182736012Y-100420396D01*
X182758082Y-100361370D01*
X182788980Y-100319209D01*
X182828706Y-100293912D01*
X182877260Y-100285479D01*
X182902466Y-100289863D01*
X182902466Y-100460822D01*
X183019726Y-100460822D01*
X183019726Y-100295342D01*
X183693699Y-100295342D01*
X183856986Y-100295342D01*
X183856986Y-101000000D01*
X183979726Y-101000000D01*
X183979726Y-100600000D01*
X184225205Y-100600000D01*
X184228189Y-100695951D01*
X184237139Y-100777778D01*
X184252055Y-100845479D01*
X184285068Y-100923014D01*
X184330411Y-100973699D01*
X184390137Y-101001644D01*
X184466301Y-101010959D01*
X184542466Y-101001644D01*
X184602192Y-100973699D01*
X184647534Y-100923014D01*
X184680548Y-100845479D01*
X184695464Y-100777778D01*
X184704414Y-100695951D01*
X184707397Y-100600000D01*
X184704414Y-100504049D01*
X184695464Y-100422222D01*
X184680548Y-100354521D01*
X184647534Y-100276986D01*
X184602192Y-100226301D01*
X184569402Y-100210959D01*
X185345205Y-100210959D01*
X185345205Y-100989041D01*
X185427671Y-101005479D01*
X185517260Y-101010959D01*
X185608219Y-101001507D01*
X185679452Y-100973151D01*
X185733562Y-100921507D01*
X185773151Y-100842192D01*
X185791111Y-100772664D01*
X185801887Y-100688280D01*
X185805479Y-100589041D01*
X185885479Y-100589041D01*
X185889812Y-100687928D01*
X185902808Y-100773630D01*
X185924469Y-100846147D01*
X185954795Y-100905479D01*
X185993784Y-100951627D01*
X186041438Y-100984589D01*
X186097757Y-101004366D01*
X186162740Y-101010959D01*
X186235890Y-101004110D01*
X186301918Y-100983562D01*
X186301918Y-100882740D01*
X186239452Y-100908219D01*
X186181370Y-100916712D01*
X186127793Y-100907610D01*
X186083957Y-100880304D01*
X186049863Y-100834795D01*
X186025510Y-100771081D01*
X186010898Y-100689163D01*
X186006027Y-100589041D01*
X186010441Y-100496286D01*
X186023683Y-100420396D01*
X186045753Y-100361370D01*
X186076651Y-100319209D01*
X186116377Y-100293912D01*
X186164932Y-100285479D01*
X186190137Y-100289863D01*
X186190137Y-100460822D01*
X186307397Y-100460822D01*
X186307397Y-100213151D01*
X186298928Y-100210959D01*
X187000000Y-100210959D01*
X187000000Y-100989041D01*
X187060396Y-101001218D01*
X187121766Y-101008524D01*
X187184110Y-101010959D01*
X187261796Y-101004262D01*
X187325358Y-100984170D01*
X187374795Y-100950685D01*
X187410107Y-100903805D01*
X187431294Y-100843531D01*
X187438356Y-100769863D01*
X187427808Y-100696438D01*
X187396164Y-100633973D01*
X187360869Y-100600000D01*
X187512877Y-100600000D01*
X187515860Y-100695951D01*
X187524810Y-100777778D01*
X187539726Y-100845479D01*
X187572740Y-100923014D01*
X187618082Y-100973699D01*
X187677808Y-101001644D01*
X187753973Y-101010959D01*
X187830137Y-101001644D01*
X187889863Y-100973699D01*
X187935205Y-100923014D01*
X187968219Y-100845479D01*
X187983135Y-100777778D01*
X187992085Y-100695951D01*
X187995068Y-100600000D01*
X188060822Y-100600000D01*
X188063805Y-100695951D01*
X188072755Y-100777778D01*
X188087671Y-100845479D01*
X188120685Y-100923014D01*
X188166027Y-100973699D01*
X188225753Y-101001644D01*
X188301918Y-101010959D01*
X188378082Y-101001644D01*
X188437808Y-100973699D01*
X188483151Y-100923014D01*
X188516164Y-100845479D01*
X188531081Y-100777778D01*
X188540030Y-100695951D01*
X188543014Y-100600000D01*
X188540030Y-100504049D01*
X188531081Y-100422222D01*
X188525581Y-100397260D01*
X188641644Y-100397260D01*
X188653014Y-100475068D01*
X188687123Y-100539726D01*
X188724810Y-100577717D01*
X188777230Y-100614247D01*
X188844384Y-100649315D01*
X188891370Y-100677534D01*
X188922740Y-100709589D01*
X188940411Y-100748493D01*
X188946301Y-100797260D01*
X188938630Y-100848356D01*
X188915616Y-100885479D01*
X188878904Y-100908082D01*
X188830137Y-100915616D01*
X188765967Y-100907702D01*
X188704962Y-100883957D01*
X188647123Y-100844384D01*
X188647123Y-100958356D01*
X188703379Y-100987580D01*
X188765479Y-101005114D01*
X188833425Y-101010959D01*
X188918247Y-101002192D01*
X188984219Y-100975890D01*
X189031342Y-100932055D01*
X189059616Y-100870685D01*
X189069041Y-100791781D01*
X189057260Y-100707123D01*
X189021918Y-100639452D01*
X188981857Y-100600365D01*
X188924505Y-100562009D01*
X188849863Y-100524384D01*
X188801157Y-100491629D01*
X188771933Y-100447428D01*
X188762192Y-100391781D01*
X188769863Y-100346849D01*
X188792877Y-100312877D01*
X188829315Y-100291507D01*
X188877260Y-100284384D01*
X188962466Y-100296164D01*
X189047123Y-100331507D01*
X189047123Y-100295342D01*
X189173151Y-100295342D01*
X189336438Y-100295342D01*
X189336438Y-101000000D01*
X189459178Y-101000000D01*
X189756164Y-101000000D01*
X190139726Y-101000000D01*
X190139726Y-100904658D01*
X189878904Y-100904658D01*
X189878904Y-100616438D01*
X190128767Y-100616438D01*
X190128767Y-100523288D01*
X189878904Y-100523288D01*
X189878904Y-100295342D01*
X190139726Y-100295342D01*
X190139726Y-100210959D01*
X190282192Y-100210959D01*
X190282192Y-101000000D01*
X190404932Y-101000000D01*
X190404932Y-100667945D01*
X190447671Y-100667945D01*
X190513973Y-100689315D01*
X190534932Y-100720137D01*
X190552877Y-100769863D01*
X190616438Y-101000000D01*
X190742466Y-101000000D01*
X190674521Y-100776438D01*
X190639452Y-100690411D01*
X190597808Y-100636164D01*
X190597808Y-100633973D01*
X190651507Y-100602603D01*
X190689863Y-100557808D01*
X190712877Y-100499589D01*
X190720548Y-100427945D01*
X190713790Y-100352755D01*
X190693516Y-100292298D01*
X190659726Y-100246575D01*
X190611446Y-100214612D01*
X190547702Y-100195434D01*
X190468493Y-100189041D01*
X190405419Y-100191476D01*
X190343318Y-100198782D01*
X190282192Y-100210959D01*
X190139726Y-100210959D01*
X190139726Y-100200000D01*
X189756164Y-100200000D01*
X189756164Y-101000000D01*
X189459178Y-101000000D01*
X189459178Y-100295342D01*
X189622466Y-100295342D01*
X189622466Y-100200000D01*
X189173151Y-100200000D01*
X189173151Y-100295342D01*
X189047123Y-100295342D01*
X189047123Y-100221918D01*
X188988189Y-100203653D01*
X188926819Y-100192694D01*
X188863014Y-100189041D01*
X188797565Y-100195129D01*
X188742953Y-100213394D01*
X188699178Y-100243836D01*
X188656027Y-100309589D01*
X188641644Y-100397260D01*
X188525581Y-100397260D01*
X188516164Y-100354521D01*
X188483151Y-100276986D01*
X188437808Y-100226301D01*
X188378082Y-100198356D01*
X188301918Y-100189041D01*
X188225753Y-100198356D01*
X188166027Y-100226301D01*
X188120685Y-100276986D01*
X188087671Y-100354521D01*
X188072755Y-100422222D01*
X188063805Y-100504049D01*
X188060822Y-100600000D01*
X187995068Y-100600000D01*
X187992085Y-100504049D01*
X187983135Y-100422222D01*
X187968219Y-100354521D01*
X187935205Y-100276986D01*
X187889863Y-100226301D01*
X187830137Y-100198356D01*
X187753973Y-100189041D01*
X187677808Y-100198356D01*
X187618082Y-100226301D01*
X187572740Y-100276986D01*
X187539726Y-100354521D01*
X187524810Y-100422222D01*
X187515860Y-100504049D01*
X187512877Y-100600000D01*
X187360869Y-100600000D01*
X187348630Y-100588219D01*
X187290411Y-100564932D01*
X187290411Y-100563836D01*
X187341781Y-100541370D01*
X187381918Y-100502466D01*
X187407808Y-100450411D01*
X187416438Y-100388493D01*
X187406882Y-100316690D01*
X187378214Y-100260844D01*
X187330433Y-100220953D01*
X187263540Y-100197019D01*
X187177534Y-100189041D01*
X187087123Y-100194521D01*
X187000000Y-100210959D01*
X186298928Y-100210959D01*
X186237534Y-100195068D01*
X186159452Y-100189041D01*
X186095240Y-100195291D01*
X186039589Y-100214041D01*
X185992500Y-100245291D01*
X185953973Y-100289041D01*
X185924007Y-100345291D01*
X185902603Y-100414041D01*
X185889760Y-100495291D01*
X185885479Y-100589041D01*
X185805479Y-100589041D01*
X185801267Y-100486610D01*
X185788630Y-100400685D01*
X185767568Y-100331267D01*
X185738082Y-100278356D01*
X185683592Y-100228737D01*
X185609985Y-100198965D01*
X185517260Y-100189041D01*
X185430959Y-100194521D01*
X185345205Y-100210959D01*
X184569402Y-100210959D01*
X184542466Y-100198356D01*
X184466301Y-100189041D01*
X184390137Y-100198356D01*
X184330411Y-100226301D01*
X184285068Y-100276986D01*
X184252055Y-100354521D01*
X184237139Y-100422222D01*
X184228189Y-100504049D01*
X184225205Y-100600000D01*
X183979726Y-100600000D01*
X183979726Y-100295342D01*
X184143014Y-100295342D01*
X184143014Y-100200000D01*
X183693699Y-100200000D01*
X183693699Y-100295342D01*
X183019726Y-100295342D01*
X183019726Y-100213151D01*
X182949863Y-100195068D01*
X182871781Y-100189041D01*
X182807568Y-100195291D01*
X182751918Y-100214041D01*
X182704829Y-100245291D01*
X182666301Y-100289041D01*
X182636336Y-100345291D01*
X182614932Y-100414041D01*
X182602089Y-100495291D01*
X182597808Y-100589041D01*
X182517808Y-100589041D01*
X182513596Y-100486610D01*
X182500959Y-100400685D01*
X182479897Y-100331267D01*
X182450411Y-100278356D01*
X182395921Y-100228737D01*
X182322314Y-100198965D01*
X182229589Y-100189041D01*
X182143288Y-100194521D01*
X182057534Y-100210959D01*
X181600913Y-100210959D01*
X181600913Y-99732420D01*
X182057534Y-99732420D01*
X190742466Y-99732420D01*
X191199087Y-99732420D01*
X191199087Y-101467580D01*
G37*
G36*
X184523014Y-100301233D02*
G01*
X184561644Y-100351781D01*
X184578082Y-100409315D01*
X184587945Y-100492055D01*
X184591233Y-100600000D01*
X184587945Y-100707945D01*
X184578082Y-100790685D01*
X184561644Y-100848219D01*
X184523014Y-100898767D01*
X184466301Y-100915616D01*
X184409589Y-100898767D01*
X184370959Y-100848219D01*
X184354521Y-100790685D01*
X184344658Y-100707945D01*
X184341370Y-100600000D01*
X184344658Y-100492055D01*
X184354521Y-100409315D01*
X184370959Y-100351781D01*
X184409589Y-100301233D01*
X184466301Y-100284384D01*
X184523014Y-100301233D01*
G37*
G36*
X187810685Y-100301233D02*
G01*
X187849315Y-100351781D01*
X187865753Y-100409315D01*
X187875616Y-100492055D01*
X187878904Y-100600000D01*
X187875616Y-100707945D01*
X187865753Y-100790685D01*
X187849315Y-100848219D01*
X187810685Y-100898767D01*
X187753973Y-100915616D01*
X187697260Y-100898767D01*
X187658630Y-100848219D01*
X187642192Y-100790685D01*
X187632329Y-100707945D01*
X187629041Y-100600000D01*
X187632329Y-100492055D01*
X187642192Y-100409315D01*
X187658630Y-100351781D01*
X187697260Y-100301233D01*
X187753973Y-100284384D01*
X187810685Y-100301233D01*
G37*
G36*
X188358630Y-100301233D02*
G01*
X188397260Y-100351781D01*
X188413699Y-100409315D01*
X188423562Y-100492055D01*
X188426849Y-100600000D01*
X188423562Y-100707945D01*
X188413699Y-100790685D01*
X188397260Y-100848219D01*
X188358630Y-100898767D01*
X188301918Y-100915616D01*
X188245205Y-100898767D01*
X188206575Y-100848219D01*
X188190137Y-100790685D01*
X188180274Y-100707945D01*
X188176986Y-100600000D01*
X188180274Y-100492055D01*
X188190137Y-100409315D01*
X188206575Y-100351781D01*
X188245205Y-100301233D01*
X188301918Y-100284384D01*
X188358630Y-100301233D01*
G37*
G36*
X182305479Y-100301370D02*
G01*
X182357808Y-100352329D01*
X182380335Y-100408828D01*
X182393851Y-100487732D01*
X182398356Y-100589041D01*
X182393912Y-100700944D01*
X182380578Y-100786788D01*
X182358356Y-100846575D01*
X182306164Y-100899178D01*
X182229589Y-100916712D01*
X182180274Y-100906849D01*
X182180274Y-100294247D01*
X182229589Y-100284384D01*
X182305479Y-100301370D01*
G37*
G36*
X185593151Y-100301370D02*
G01*
X185645479Y-100352329D01*
X185668006Y-100408828D01*
X185681522Y-100487732D01*
X185686027Y-100589041D01*
X185681583Y-100700944D01*
X185668250Y-100786788D01*
X185646027Y-100846575D01*
X185593836Y-100899178D01*
X185517260Y-100916712D01*
X185467945Y-100906849D01*
X185467945Y-100294247D01*
X185517260Y-100284384D01*
X185593151Y-100301370D01*
G37*
G36*
X187236164Y-100625479D02*
G01*
X187282740Y-100652603D01*
X187309863Y-100699452D01*
X187318904Y-100767671D01*
X187310548Y-100834932D01*
X187285479Y-100881096D01*
X187243425Y-100907808D01*
X187184110Y-100916712D01*
X187122740Y-100907945D01*
X187122740Y-100616438D01*
X187168767Y-100616438D01*
X187236164Y-100625479D01*
G37*
G36*
X190526849Y-100293014D02*
G01*
X190568219Y-100318904D01*
X190592877Y-100363425D01*
X190601096Y-100427945D01*
X190592329Y-100495342D01*
X190566027Y-100539726D01*
X190518904Y-100564384D01*
X190447671Y-100572603D01*
X190404932Y-100572603D01*
X190404932Y-100293151D01*
X190468493Y-100284384D01*
X190526849Y-100293014D01*
G37*
G36*
X187245114Y-100295830D02*
G01*
X187285662Y-100333455D01*
X187299178Y-100396164D01*
X187290411Y-100453836D01*
X187264110Y-100493151D01*
X187219178Y-100515753D01*
X187154521Y-100523288D01*
X187122740Y-100523288D01*
X187122740Y-100292055D01*
X187177534Y-100283288D01*
X187245114Y-100295830D01*
G37*
D14*
%TO.C,J1*%
X151550000Y-88225000D02*
X151550000Y-85575000D01*
X154310000Y-85575000D02*
X151550000Y-85575000D01*
X154310000Y-88225000D02*
X151550000Y-88225000D01*
X154310000Y-88225000D02*
X154310000Y-85575000D01*
X154310000Y-89495000D02*
X154310000Y-90875000D01*
X154310000Y-90875000D02*
X152930000Y-90875000D01*
D15*
%TO.C,TPS1*%
X175220000Y-85000000D02*
X175750000Y-85000000D01*
X175220000Y-88000000D02*
X175700000Y-88000000D01*
X175750000Y-85000000D02*
X175750000Y-85330000D01*
X175750000Y-88000000D02*
X175750000Y-87670000D01*
D16*
X173775000Y-88937500D02*
G75*
G02*
X173575000Y-88937500I-100000J0D01*
G01*
X173575000Y-88937500D02*
G75*
G02*
X173775000Y-88937500I100000J0D01*
G01*
D14*
%TO.C,C11*%
X174990000Y-92159420D02*
X174990000Y-92440580D01*
X176010000Y-92159420D02*
X176010000Y-92440580D01*
%TO.C,C1*%
X170990000Y-83259420D02*
X170990000Y-83540580D01*
X172010000Y-83259420D02*
X172010000Y-83540580D01*
%TO.C,R4*%
X172977500Y-90662742D02*
X172977500Y-91137258D01*
X174022500Y-90662742D02*
X174022500Y-91137258D01*
%TO.C,C9*%
X162355000Y-95038748D02*
X162355000Y-95561252D01*
X163825000Y-95038748D02*
X163825000Y-95561252D01*
D13*
%TO.C,kibuzzard-68C91470*%
G36*
X151413607Y-86053059D02*
G01*
X150956986Y-86053059D01*
X150299452Y-86053059D01*
X149723014Y-86053059D01*
X149403014Y-86053059D01*
X148946393Y-86053059D01*
X148946393Y-84796438D01*
X149403014Y-84796438D01*
X149580548Y-85596438D01*
X149723014Y-85596438D01*
X149850257Y-85026575D01*
X150030959Y-85026575D01*
X150030959Y-85115342D01*
X150176712Y-85115342D01*
X150176712Y-85596438D01*
X150299452Y-85596438D01*
X150299452Y-85061644D01*
X150540548Y-85061644D01*
X150540548Y-85596438D01*
X150661096Y-85596438D01*
X150661096Y-85129589D01*
X150735616Y-85105479D01*
X150816712Y-85127397D01*
X150838630Y-85207397D01*
X150838630Y-85596438D01*
X150956986Y-85596438D01*
X150956986Y-85212877D01*
X150945616Y-85115616D01*
X150911507Y-85056164D01*
X150871385Y-85033638D01*
X150811659Y-85020122D01*
X150732329Y-85015616D01*
X150661826Y-85020731D01*
X150597900Y-85036073D01*
X150540548Y-85061644D01*
X150299452Y-85061644D01*
X150299452Y-85026575D01*
X150154795Y-85026575D01*
X150030959Y-85026575D01*
X149850257Y-85026575D01*
X149878397Y-84900548D01*
X150154795Y-84900548D01*
X150299452Y-84900548D01*
X150299452Y-84763562D01*
X150154795Y-84763562D01*
X150154795Y-84900548D01*
X149878397Y-84900548D01*
X149901644Y-84796438D01*
X149780000Y-84796438D01*
X149655068Y-85486849D01*
X149653973Y-85486849D01*
X149529041Y-84796438D01*
X149403014Y-84796438D01*
X148946393Y-84796438D01*
X148946393Y-84306941D01*
X149403014Y-84306941D01*
X150956986Y-84306941D01*
X151413607Y-84306941D01*
X151413607Y-86053059D01*
G37*
D14*
%TO.C,C2*%
X186590000Y-89273748D02*
X186590000Y-90696252D01*
X188410000Y-89273748D02*
X188410000Y-90696252D01*
%TO.C,C7*%
X170815000Y-92218748D02*
X170815000Y-92741252D01*
X172285000Y-92218748D02*
X172285000Y-92741252D01*
%TO.C,C10*%
X179010000Y-92059420D02*
X179010000Y-92340580D01*
X180030000Y-92059420D02*
X180030000Y-92340580D01*
%TO.C,R3*%
X176462742Y-88977500D02*
X176937258Y-88977500D01*
X176462742Y-90022500D02*
X176937258Y-90022500D01*
D15*
%TO.C,RV1*%
X173155500Y-94200000D02*
X179755500Y-94200000D01*
X173155500Y-96495000D02*
X173155500Y-94210000D01*
X173155500Y-101200000D02*
X173155500Y-99035000D01*
X179755500Y-94210000D02*
X179755500Y-96495000D01*
X179755500Y-99035000D02*
X179755500Y-101200000D01*
X179755500Y-101200000D02*
X173155500Y-101200000D01*
D16*
X180619500Y-97730000D02*
G75*
G02*
X180419500Y-97730000I-100000J0D01*
G01*
X180419500Y-97730000D02*
G75*
G02*
X180619500Y-97730000I100000J0D01*
G01*
D14*
%TO.C,C12*%
X176950000Y-92234420D02*
X176950000Y-92515580D01*
X177970000Y-92234420D02*
X177970000Y-92515580D01*
%TO.C,C8*%
X174259420Y-83290000D02*
X174540580Y-83290000D01*
X174259420Y-84310000D02*
X174540580Y-84310000D01*
%TO.C,C4*%
X181590000Y-89273748D02*
X181590000Y-90696252D01*
X183410000Y-89273748D02*
X183410000Y-90696252D01*
D13*
%TO.C,kibuzzard-68C91464*%
G36*
X190514401Y-84605086D02*
G01*
X190543288Y-84633493D01*
X190559469Y-84688031D01*
X190564863Y-84775890D01*
X190559469Y-84863750D01*
X190543288Y-84918288D01*
X190514401Y-84946695D01*
X190470890Y-84956164D01*
X190427380Y-84946695D01*
X190398493Y-84918288D01*
X190382312Y-84863750D01*
X190376918Y-84775890D01*
X190382312Y-84688031D01*
X190398493Y-84633493D01*
X190427380Y-84605086D01*
X190470890Y-84595616D01*
X190514401Y-84605086D01*
G37*
G36*
X192006735Y-85434338D02*
G01*
X191607192Y-85434338D01*
X191496918Y-85434338D01*
X190959932Y-85434338D01*
X190470890Y-85434338D01*
X190052808Y-85434338D01*
X189772808Y-85434338D01*
X189373265Y-85434338D01*
X189373265Y-84325205D01*
X189772808Y-84325205D01*
X189928151Y-85025205D01*
X190052808Y-85025205D01*
X190108477Y-84775890D01*
X190269521Y-84775890D01*
X190275061Y-84858356D01*
X190291682Y-84924201D01*
X190319384Y-84973425D01*
X190358379Y-85007519D01*
X190408881Y-85027976D01*
X190470890Y-85034795D01*
X190532900Y-85027976D01*
X190583402Y-85007519D01*
X190622397Y-84973425D01*
X190650099Y-84924201D01*
X190664542Y-84866986D01*
X190772945Y-84866986D01*
X190782774Y-84948493D01*
X190812260Y-84999315D01*
X190846142Y-85019026D01*
X190895365Y-85030852D01*
X190959932Y-85034795D01*
X191021621Y-85030320D01*
X191077557Y-85016895D01*
X191127740Y-84994521D01*
X191127740Y-84545753D01*
X191242808Y-84545753D01*
X191242808Y-84623425D01*
X191341575Y-84623425D01*
X191341575Y-84881370D01*
X191350086Y-84955685D01*
X191375616Y-85002192D01*
X191422962Y-85026644D01*
X191496918Y-85034795D01*
X191549897Y-85031918D01*
X191597603Y-85023288D01*
X191597603Y-84936027D01*
X191556610Y-84946815D01*
X191516096Y-84950411D01*
X191458562Y-84934589D01*
X191446096Y-84862192D01*
X191446096Y-84623425D01*
X191607192Y-84623425D01*
X191607192Y-84545753D01*
X191446096Y-84545753D01*
X191446096Y-84363562D01*
X191341575Y-84363562D01*
X191341575Y-84545753D01*
X191242808Y-84545753D01*
X191127740Y-84545753D01*
X191127740Y-84526575D01*
X191022260Y-84526575D01*
X191023219Y-84936986D01*
X190958014Y-84956164D01*
X190893288Y-84937466D01*
X190875548Y-84866986D01*
X190875548Y-84526575D01*
X190772945Y-84526575D01*
X190772945Y-84866986D01*
X190664542Y-84866986D01*
X190666720Y-84858356D01*
X190672260Y-84775890D01*
X190666720Y-84693425D01*
X190650099Y-84627580D01*
X190622397Y-84578356D01*
X190583402Y-84544262D01*
X190532900Y-84523805D01*
X190470890Y-84516986D01*
X190408881Y-84523805D01*
X190358379Y-84544262D01*
X190319384Y-84578356D01*
X190291682Y-84627580D01*
X190275061Y-84693425D01*
X190269521Y-84775890D01*
X190108477Y-84775890D01*
X190209110Y-84325205D01*
X190102671Y-84325205D01*
X189993356Y-84929315D01*
X189992397Y-84929315D01*
X189883082Y-84325205D01*
X189772808Y-84325205D01*
X189373265Y-84325205D01*
X189373265Y-83925662D01*
X189772808Y-83925662D01*
X191607192Y-83925662D01*
X192006735Y-83925662D01*
X192006735Y-85434338D01*
G37*
D14*
%TO.C,C6*%
X186590000Y-85711252D02*
X186590000Y-84288748D01*
X188410000Y-85711252D02*
X188410000Y-84288748D01*
%TO.C,J2*%
X192290000Y-84785000D02*
X193670000Y-84785000D01*
X192290000Y-86165000D02*
X192290000Y-84785000D01*
X192290000Y-87435000D02*
X192290000Y-90085000D01*
X192290000Y-87435000D02*
X195050000Y-87435000D01*
X192290000Y-90085000D02*
X195050000Y-90085000D01*
X195050000Y-87435000D02*
X195050000Y-90085000D01*
%TO.C,C14*%
X157415000Y-95038748D02*
X157415000Y-95561252D01*
X158885000Y-95038748D02*
X158885000Y-95561252D01*
%TO.C,C15*%
X181590000Y-85696252D02*
X181590000Y-84273748D01*
X183410000Y-85696252D02*
X183410000Y-84273748D01*
D13*
%TO.C,kibuzzard-68C90A12*%
G36*
X191483185Y-90258699D02*
G01*
X191528973Y-90303288D01*
X191548683Y-90352725D01*
X191560510Y-90421766D01*
X191564452Y-90510411D01*
X191560563Y-90608326D01*
X191548896Y-90683440D01*
X191529452Y-90735753D01*
X191483784Y-90781781D01*
X191416781Y-90797123D01*
X191373630Y-90788493D01*
X191373630Y-90252466D01*
X191416781Y-90243836D01*
X191483185Y-90258699D01*
G37*
G36*
X192068516Y-91279132D02*
G01*
X191668973Y-91279132D01*
X191416781Y-91279132D01*
X190794452Y-91279132D01*
X190530753Y-91279132D01*
X190291027Y-91279132D01*
X189891484Y-91279132D01*
X189891484Y-90515205D01*
X190291027Y-90515205D01*
X190294773Y-90600608D01*
X190306010Y-90674623D01*
X190324739Y-90737252D01*
X190350959Y-90788493D01*
X190384670Y-90828348D01*
X190425873Y-90856815D01*
X190474568Y-90873896D01*
X190530753Y-90879589D01*
X190588075Y-90875860D01*
X190616538Y-90870000D01*
X190794452Y-90870000D01*
X190899932Y-90870000D01*
X190899932Y-90361781D01*
X190901849Y-90361781D01*
X191051438Y-90870000D01*
X191158836Y-90870000D01*
X191158836Y-90179589D01*
X191266233Y-90179589D01*
X191266233Y-90860411D01*
X191338390Y-90874795D01*
X191416781Y-90879589D01*
X191496370Y-90871318D01*
X191558699Y-90846507D01*
X191606045Y-90801318D01*
X191640685Y-90731918D01*
X191656400Y-90671081D01*
X191665830Y-90597245D01*
X191668973Y-90510411D01*
X191665287Y-90420783D01*
X191654229Y-90345599D01*
X191635801Y-90284859D01*
X191610000Y-90238562D01*
X191562321Y-90195145D01*
X191497915Y-90169094D01*
X191416781Y-90160411D01*
X191341267Y-90165205D01*
X191266233Y-90179589D01*
X191158836Y-90179589D01*
X191158836Y-90170000D01*
X191058151Y-90170000D01*
X191058151Y-90678219D01*
X191055274Y-90678219D01*
X190905685Y-90170000D01*
X190794452Y-90170000D01*
X190794452Y-90870000D01*
X190616538Y-90870000D01*
X190642412Y-90864673D01*
X190693767Y-90846027D01*
X190693767Y-90452877D01*
X190470342Y-90452877D01*
X190470342Y-90534384D01*
X190591164Y-90534384D01*
X190591164Y-90785616D01*
X190533630Y-90797123D01*
X190475137Y-90780822D01*
X190431986Y-90731918D01*
X190412275Y-90678858D01*
X190400449Y-90606621D01*
X190396507Y-90515205D01*
X190400662Y-90425868D01*
X190413128Y-90356027D01*
X190433904Y-90305685D01*
X190481610Y-90260017D01*
X190549932Y-90244795D01*
X190608664Y-90250548D01*
X190669795Y-90267808D01*
X190669795Y-90181507D01*
X190611062Y-90165685D01*
X190549932Y-90160411D01*
X190470822Y-90169893D01*
X190406096Y-90198341D01*
X190355753Y-90245753D01*
X190327436Y-90294598D01*
X190307209Y-90355788D01*
X190295073Y-90429324D01*
X190291027Y-90515205D01*
X189891484Y-90515205D01*
X189891484Y-89760868D01*
X190291027Y-89760868D01*
X191668973Y-89760868D01*
X192068516Y-89760868D01*
X192068516Y-91279132D01*
G37*
D14*
%TO.C,C13*%
X159885000Y-95038748D02*
X159885000Y-95561252D01*
X161355000Y-95038748D02*
X161355000Y-95561252D01*
%TO.C,C3*%
X184090000Y-89273748D02*
X184090000Y-90696252D01*
X185910000Y-89273748D02*
X185910000Y-90696252D01*
D15*
%TO.C,L1*%
X158250000Y-81000000D02*
X169750000Y-81000000D01*
X158250000Y-83630000D02*
X158250000Y-81000000D01*
X158250000Y-88370000D02*
X158250000Y-91000000D01*
X158250000Y-91000000D02*
X169750000Y-91000000D01*
X169750000Y-81000000D02*
X169750000Y-83630000D01*
X169750000Y-91000000D02*
X169750000Y-88370000D01*
D13*
%TO.C,kibuzzard-68C90A33*%
G36*
X151103185Y-90448699D02*
G01*
X151148973Y-90493288D01*
X151168683Y-90542725D01*
X151180510Y-90611766D01*
X151184452Y-90700411D01*
X151180563Y-90798326D01*
X151168896Y-90873440D01*
X151149452Y-90925753D01*
X151103784Y-90971781D01*
X151036781Y-90987123D01*
X150993630Y-90978493D01*
X150993630Y-90442466D01*
X151036781Y-90433836D01*
X151103185Y-90448699D01*
G37*
G36*
X151688516Y-91469132D02*
G01*
X151288973Y-91469132D01*
X151036781Y-91469132D01*
X150414452Y-91469132D01*
X150150753Y-91469132D01*
X149911027Y-91469132D01*
X149511484Y-91469132D01*
X149511484Y-90705205D01*
X149911027Y-90705205D01*
X149914773Y-90790608D01*
X149926010Y-90864623D01*
X149944739Y-90927252D01*
X149970959Y-90978493D01*
X150004670Y-91018348D01*
X150045873Y-91046815D01*
X150094568Y-91063896D01*
X150150753Y-91069589D01*
X150208075Y-91065860D01*
X150236538Y-91060000D01*
X150414452Y-91060000D01*
X150519932Y-91060000D01*
X150519932Y-90551781D01*
X150521849Y-90551781D01*
X150671438Y-91060000D01*
X150778836Y-91060000D01*
X150778836Y-90369589D01*
X150886233Y-90369589D01*
X150886233Y-91050411D01*
X150958390Y-91064795D01*
X151036781Y-91069589D01*
X151116370Y-91061318D01*
X151178699Y-91036507D01*
X151226045Y-90991318D01*
X151260685Y-90921918D01*
X151276400Y-90861081D01*
X151285830Y-90787245D01*
X151288973Y-90700411D01*
X151285287Y-90610783D01*
X151274229Y-90535599D01*
X151255801Y-90474859D01*
X151230000Y-90428562D01*
X151182321Y-90385145D01*
X151117915Y-90359094D01*
X151036781Y-90350411D01*
X150961267Y-90355205D01*
X150886233Y-90369589D01*
X150778836Y-90369589D01*
X150778836Y-90360000D01*
X150678151Y-90360000D01*
X150678151Y-90868219D01*
X150675274Y-90868219D01*
X150525685Y-90360000D01*
X150414452Y-90360000D01*
X150414452Y-91060000D01*
X150236538Y-91060000D01*
X150262412Y-91054673D01*
X150313767Y-91036027D01*
X150313767Y-90642877D01*
X150090342Y-90642877D01*
X150090342Y-90724384D01*
X150211164Y-90724384D01*
X150211164Y-90975616D01*
X150153630Y-90987123D01*
X150095137Y-90970822D01*
X150051986Y-90921918D01*
X150032275Y-90868858D01*
X150020449Y-90796621D01*
X150016507Y-90705205D01*
X150020662Y-90615868D01*
X150033128Y-90546027D01*
X150053904Y-90495685D01*
X150101610Y-90450017D01*
X150169932Y-90434795D01*
X150228664Y-90440548D01*
X150289795Y-90457808D01*
X150289795Y-90371507D01*
X150231062Y-90355685D01*
X150169932Y-90350411D01*
X150090822Y-90359893D01*
X150026096Y-90388341D01*
X149975753Y-90435753D01*
X149947436Y-90484598D01*
X149927209Y-90545788D01*
X149915073Y-90619324D01*
X149911027Y-90705205D01*
X149511484Y-90705205D01*
X149511484Y-89950868D01*
X149911027Y-89950868D01*
X151288973Y-89950868D01*
X151688516Y-89950868D01*
X151688516Y-91469132D01*
G37*
D14*
%TO.C,C5*%
X184090000Y-85711252D02*
X184090000Y-84288748D01*
X185910000Y-85711252D02*
X185910000Y-84288748D01*
D13*
%TO.C,kibuzzard-68C90B1F*%
G36*
X161041735Y-99279635D02*
G01*
X161059269Y-99330457D01*
X161065845Y-99407306D01*
X160870776Y-99407306D01*
X160880091Y-99328402D01*
X160899269Y-99277991D01*
X160929680Y-99250868D01*
X160972694Y-99241826D01*
X161041735Y-99279635D01*
G37*
G36*
X156668037Y-99647306D02*
G01*
X156595708Y-99661553D01*
X156515708Y-99635799D01*
X156487215Y-99562922D01*
X156496119Y-99513333D01*
X156522831Y-99478539D01*
X156569269Y-99457991D01*
X156637352Y-99451142D01*
X156668037Y-99451142D01*
X156668037Y-99647306D01*
G37*
G36*
X158859817Y-99647306D02*
G01*
X158787489Y-99661553D01*
X158707489Y-99635799D01*
X158678995Y-99562922D01*
X158687900Y-99513333D01*
X158714612Y-99478539D01*
X158761050Y-99457991D01*
X158829132Y-99451142D01*
X158859817Y-99451142D01*
X158859817Y-99647306D01*
G37*
G36*
X156075890Y-99031903D02*
G01*
X156116438Y-99069528D01*
X156129954Y-99132237D01*
X156121187Y-99189909D01*
X156094886Y-99229224D01*
X156049954Y-99251826D01*
X155985297Y-99259361D01*
X155953516Y-99259361D01*
X155953516Y-99028128D01*
X156008311Y-99019361D01*
X156075890Y-99031903D01*
G37*
G36*
X156066941Y-99361553D02*
G01*
X156113516Y-99388676D01*
X156140639Y-99435525D01*
X156149680Y-99503744D01*
X156141324Y-99571005D01*
X156116256Y-99617169D01*
X156074201Y-99643881D01*
X156014886Y-99652785D01*
X155953516Y-99644018D01*
X155953516Y-99352511D01*
X155999543Y-99352511D01*
X156066941Y-99361553D01*
G37*
G36*
X162734521Y-100251142D02*
G01*
X162277900Y-100251142D01*
X161564475Y-100251142D01*
X160997900Y-100251142D01*
X160481735Y-100251142D01*
X159308037Y-100251142D01*
X158787489Y-100251142D01*
X158289954Y-100251142D01*
X157595160Y-100251142D01*
X157194064Y-100251142D01*
X156595708Y-100251142D01*
X156014886Y-100251142D01*
X155830776Y-100251142D01*
X155465479Y-100251142D01*
X155465479Y-99977169D01*
X157477900Y-99977169D01*
X157595160Y-99977169D01*
X157595160Y-99738265D01*
X157636804Y-99744840D01*
X157691598Y-99747032D01*
X157762100Y-99741918D01*
X157826027Y-99726575D01*
X157883379Y-99701005D01*
X157883379Y-99166210D01*
X157762831Y-99166210D01*
X157763927Y-99635251D01*
X157689406Y-99657169D01*
X157615434Y-99635799D01*
X157595160Y-99555251D01*
X157595160Y-99166210D01*
X157477900Y-99166210D01*
X157477900Y-99977169D01*
X155465479Y-99977169D01*
X155465479Y-98947032D01*
X155830776Y-98947032D01*
X155830776Y-99725114D01*
X155891172Y-99737291D01*
X155952542Y-99744597D01*
X156014886Y-99747032D01*
X156092572Y-99740335D01*
X156156134Y-99720244D01*
X156205571Y-99686758D01*
X156240883Y-99639878D01*
X156262070Y-99579604D01*
X156263669Y-99562922D01*
X156371050Y-99562922D01*
X156385708Y-99640731D01*
X156429680Y-99698813D01*
X156474186Y-99725601D01*
X156529528Y-99741674D01*
X156595708Y-99747032D01*
X156662314Y-99743135D01*
X156726240Y-99731446D01*
X156787489Y-99711963D01*
X156787489Y-99372237D01*
X156782801Y-99295525D01*
X156768737Y-99237808D01*
X156745297Y-99199087D01*
X156683516Y-99166210D01*
X156582557Y-99155251D01*
X156523623Y-99159148D01*
X156462253Y-99170837D01*
X156398447Y-99190320D01*
X156398447Y-99284566D01*
X156462009Y-99262648D01*
X156521187Y-99249498D01*
X156575982Y-99245114D01*
X156651050Y-99265388D01*
X156668037Y-99350320D01*
X156668037Y-99368950D01*
X156637352Y-99368950D01*
X156555708Y-99374490D01*
X156489041Y-99391111D01*
X156437352Y-99418813D01*
X156387626Y-99479772D01*
X156371050Y-99562922D01*
X156263669Y-99562922D01*
X156269132Y-99505936D01*
X156258584Y-99432511D01*
X156226941Y-99370046D01*
X156179406Y-99324292D01*
X156121187Y-99301005D01*
X156121187Y-99299909D01*
X156172557Y-99277443D01*
X156212694Y-99238539D01*
X156238584Y-99186484D01*
X156247215Y-99124566D01*
X156237658Y-99052763D01*
X156226700Y-99031416D01*
X156908037Y-99031416D01*
X157071324Y-99031416D01*
X157071324Y-99736073D01*
X157194064Y-99736073D01*
X157194064Y-99031416D01*
X157357352Y-99031416D01*
X158003927Y-99031416D01*
X158167215Y-99031416D01*
X158167215Y-99736073D01*
X158289954Y-99736073D01*
X158289954Y-99562922D01*
X158562831Y-99562922D01*
X158577489Y-99640731D01*
X158621461Y-99698813D01*
X158665967Y-99725601D01*
X158721309Y-99741674D01*
X158787489Y-99747032D01*
X158854094Y-99743135D01*
X158918021Y-99731446D01*
X158979269Y-99711963D01*
X158979269Y-99372237D01*
X158974581Y-99295525D01*
X158960518Y-99237808D01*
X158937078Y-99199087D01*
X158875297Y-99166210D01*
X158774338Y-99155251D01*
X158715403Y-99159148D01*
X158654033Y-99170837D01*
X158590228Y-99190320D01*
X158590228Y-99284566D01*
X158653790Y-99262648D01*
X158712968Y-99249498D01*
X158767763Y-99245114D01*
X158842831Y-99265388D01*
X158859817Y-99350320D01*
X158859817Y-99368950D01*
X158829132Y-99368950D01*
X158747489Y-99374490D01*
X158680822Y-99391111D01*
X158629132Y-99418813D01*
X158579406Y-99479772D01*
X158562831Y-99562922D01*
X158289954Y-99562922D01*
X158289954Y-99133333D01*
X159116256Y-99133333D01*
X159127626Y-99211142D01*
X159161735Y-99275799D01*
X159199422Y-99313790D01*
X159251842Y-99350320D01*
X159318995Y-99385388D01*
X159365982Y-99413607D01*
X159397352Y-99445662D01*
X159415023Y-99484566D01*
X159420913Y-99533333D01*
X159413242Y-99584429D01*
X159390228Y-99621553D01*
X159353516Y-99644155D01*
X159304749Y-99651689D01*
X159240578Y-99643775D01*
X159179574Y-99620030D01*
X159121735Y-99580457D01*
X159121735Y-99694429D01*
X159177991Y-99723653D01*
X159240091Y-99741187D01*
X159308037Y-99747032D01*
X159392858Y-99738265D01*
X159458831Y-99711963D01*
X159505954Y-99668128D01*
X159534228Y-99606758D01*
X159543653Y-99527854D01*
X159531872Y-99443196D01*
X159496530Y-99375525D01*
X159456469Y-99336438D01*
X159399117Y-99298082D01*
X159324475Y-99260457D01*
X159275769Y-99227702D01*
X159246545Y-99183501D01*
X159236804Y-99127854D01*
X159244475Y-99082922D01*
X159267489Y-99048950D01*
X159303927Y-99027580D01*
X159351872Y-99020457D01*
X159437078Y-99032237D01*
X159521735Y-99067580D01*
X159521735Y-99031416D01*
X160195708Y-99031416D01*
X160358995Y-99031416D01*
X160358995Y-99736073D01*
X160481735Y-99736073D01*
X160481735Y-99451142D01*
X160745845Y-99451142D01*
X160752846Y-99541553D01*
X160773851Y-99615525D01*
X160808858Y-99673059D01*
X160857869Y-99714155D01*
X160920883Y-99738813D01*
X160997900Y-99747032D01*
X161074338Y-99740183D01*
X161154612Y-99719635D01*
X161154612Y-99628676D01*
X161079543Y-99650868D01*
X161012146Y-99658265D01*
X160953379Y-99648813D01*
X160910776Y-99620457D01*
X160883516Y-99569635D01*
X160870776Y-99492785D01*
X161182009Y-99492785D01*
X161184091Y-99451142D01*
X161304749Y-99451142D01*
X161312298Y-99541005D01*
X161334947Y-99614795D01*
X161372694Y-99672511D01*
X161424201Y-99713912D01*
X161488128Y-99738752D01*
X161564475Y-99747032D01*
X161633242Y-99740183D01*
X161646449Y-99736073D01*
X161861461Y-99736073D01*
X161982009Y-99736073D01*
X161982009Y-99288950D01*
X162026667Y-99256073D01*
X162077352Y-99245114D01*
X162144201Y-99272511D01*
X162157352Y-99314429D01*
X162161735Y-99385388D01*
X162160639Y-99736073D01*
X162277900Y-99736073D01*
X162277900Y-99354703D01*
X162267763Y-99263333D01*
X162237352Y-99201826D01*
X162184749Y-99166895D01*
X162108037Y-99155251D01*
X162043653Y-99163470D01*
X161982009Y-99188128D01*
X161982009Y-98914155D01*
X161861461Y-98914155D01*
X161861461Y-99736073D01*
X161646449Y-99736073D01*
X161699269Y-99719635D01*
X161699269Y-99629772D01*
X161637900Y-99653607D01*
X161578721Y-99661553D01*
X161515982Y-99648402D01*
X161468037Y-99608950D01*
X161437626Y-99543196D01*
X161427489Y-99451142D01*
X161436256Y-99361689D01*
X161462557Y-99297169D01*
X161504475Y-99258128D01*
X161560091Y-99245114D01*
X161589680Y-99248402D01*
X161589680Y-99374429D01*
X161704749Y-99374429D01*
X161704749Y-99177169D01*
X161637352Y-99160731D01*
X161562283Y-99155251D01*
X161493958Y-99161290D01*
X161436144Y-99179405D01*
X161388842Y-99209598D01*
X161352051Y-99251868D01*
X161325772Y-99306216D01*
X161310005Y-99372640D01*
X161304749Y-99451142D01*
X161184091Y-99451142D01*
X161184201Y-99448950D01*
X161178478Y-99355373D01*
X161161309Y-99280670D01*
X161132694Y-99224840D01*
X161092390Y-99186180D01*
X161040152Y-99162983D01*
X160975982Y-99155251D01*
X160905662Y-99163470D01*
X160848128Y-99188128D01*
X160803379Y-99229224D01*
X160771416Y-99286758D01*
X160752237Y-99360731D01*
X160745845Y-99451142D01*
X160481735Y-99451142D01*
X160481735Y-99031416D01*
X160645023Y-99031416D01*
X160645023Y-98936073D01*
X160195708Y-98936073D01*
X160195708Y-99031416D01*
X159521735Y-99031416D01*
X159521735Y-98957991D01*
X159462801Y-98939726D01*
X159401431Y-98928767D01*
X159337626Y-98925114D01*
X159272177Y-98931202D01*
X159217565Y-98949467D01*
X159173790Y-98979909D01*
X159130639Y-99045662D01*
X159116256Y-99133333D01*
X158289954Y-99133333D01*
X158289954Y-99031416D01*
X158453242Y-99031416D01*
X158453242Y-98936073D01*
X158003927Y-98936073D01*
X158003927Y-99031416D01*
X157357352Y-99031416D01*
X157357352Y-98936073D01*
X156908037Y-98936073D01*
X156908037Y-99031416D01*
X156226700Y-99031416D01*
X156208990Y-98996917D01*
X156161209Y-98957026D01*
X156094316Y-98933092D01*
X156008311Y-98925114D01*
X155917900Y-98930594D01*
X155830776Y-98947032D01*
X155465479Y-98947032D01*
X155465479Y-98548858D01*
X155830776Y-98548858D01*
X162277900Y-98548858D01*
X162734521Y-98548858D01*
X162734521Y-100251142D01*
G37*
%TD*%
M02*
