%TF.GenerationSoftware,KiCad,Pcbnew,9.0.4*%
%TF.CreationDate,2025-09-16T11:07:58+03:00*%
%TF.ProjectId,5 to 15v,3520746f-2031-4357-962e-6b696361645f,rev?*%
%TF.SameCoordinates,Original*%
%TF.FileFunction,Paste,Top*%
%TF.FilePolarity,Positive*%
%FSLAX46Y46*%
G04 Gerber Fmt 4.6, Leading zero omitted, Abs format (unit mm)*
G04 Created by KiCad (PCBNEW 9.0.4) date 2025-09-16 11:07:58*
%MOMM*%
%LPD*%
G01*
G04 APERTURE LIST*
G04 Aperture macros list*
%AMRoundRect*
0 Rectangle with rounded corners*
0 $1 Rounding radius*
0 $2 $3 $4 $5 $6 $7 $8 $9 X,Y pos of 4 corners*
0 Add a 4 corners polygon primitive as box body*
4,1,4,$2,$3,$4,$5,$6,$7,$8,$9,$2,$3,0*
0 Add four circle primitives for the rounded corners*
1,1,$1+$1,$2,$3*
1,1,$1+$1,$4,$5*
1,1,$1+$1,$6,$7*
1,1,$1+$1,$8,$9*
0 Add four rect primitives between the rounded corners*
20,1,$1+$1,$2,$3,$4,$5,0*
20,1,$1+$1,$4,$5,$6,$7,0*
20,1,$1+$1,$6,$7,$8,$9,0*
20,1,$1+$1,$8,$9,$2,$3,0*%
G04 Aperture macros list end*
%ADD10C,0.010000*%
%ADD11R,2.700000X1.700000*%
%ADD12RoundRect,0.018750X0.106250X-0.256250X0.106250X0.256250X-0.106250X0.256250X-0.106250X-0.256250X0*%
%ADD13RoundRect,0.030000X0.470000X-0.170000X0.470000X0.170000X-0.470000X0.170000X-0.470000X-0.170000X0*%
%ADD14RoundRect,0.018750X0.256250X-0.106250X0.256250X0.106250X-0.256250X0.106250X-0.256250X-0.106250X0*%
%ADD15RoundRect,0.225000X-0.250000X0.225000X-0.250000X-0.225000X0.250000X-0.225000X0.250000X0.225000X0*%
%ADD16RoundRect,0.200000X-0.275000X0.200000X-0.275000X-0.200000X0.275000X-0.200000X0.275000X0.200000X0*%
%ADD17RoundRect,0.250000X-0.475000X0.250000X-0.475000X-0.250000X0.475000X-0.250000X0.475000X0.250000X0*%
%ADD18RoundRect,0.250000X-0.650000X0.325000X-0.650000X-0.325000X0.650000X-0.325000X0.650000X0.325000X0*%
%ADD19RoundRect,0.200000X-0.200000X-0.275000X0.200000X-0.275000X0.200000X0.275000X-0.200000X0.275000X0*%
%ADD20RoundRect,0.225000X-0.225000X-0.250000X0.225000X-0.250000X0.225000X0.250000X-0.225000X0.250000X0*%
%ADD21RoundRect,0.250000X0.650000X-0.325000X0.650000X0.325000X-0.650000X0.325000X-0.650000X-0.325000X0*%
%ADD22R,4.100000X4.100000*%
G04 APERTURE END LIST*
D10*
%TO.C,TPS1*%
X173730000Y-87626000D02*
X173731000Y-87626000D01*
X173733000Y-87626000D01*
X173734000Y-87627000D01*
X173735000Y-87627000D01*
X173736000Y-87628000D01*
X173738000Y-87628000D01*
X173739000Y-87629000D01*
X173740000Y-87630000D01*
X173741000Y-87631000D01*
X173742000Y-87631000D01*
X173743000Y-87632000D01*
X173744000Y-87633000D01*
X173744000Y-87634000D01*
X173745000Y-87635000D01*
X173746000Y-87636000D01*
X173747000Y-87637000D01*
X173747000Y-87639000D01*
X173748000Y-87640000D01*
X173748000Y-87641000D01*
X173749000Y-87642000D01*
X173749000Y-87644000D01*
X173749000Y-87645000D01*
X173750000Y-87646000D01*
X173750000Y-87647000D01*
X173750000Y-87649000D01*
X173750000Y-87650000D01*
X173750000Y-88175000D01*
X173750000Y-88176000D01*
X173750000Y-88178000D01*
X173750000Y-88179000D01*
X173749000Y-88180000D01*
X173749000Y-88181000D01*
X173749000Y-88183000D01*
X173748000Y-88184000D01*
X173748000Y-88185000D01*
X173747000Y-88186000D01*
X173747000Y-88188000D01*
X173746000Y-88189000D01*
X173745000Y-88190000D01*
X173744000Y-88191000D01*
X173744000Y-88192000D01*
X173743000Y-88193000D01*
X173742000Y-88194000D01*
X173741000Y-88194000D01*
X173740000Y-88195000D01*
X173739000Y-88196000D01*
X173738000Y-88197000D01*
X173736000Y-88197000D01*
X173735000Y-88198000D01*
X173734000Y-88198000D01*
X173733000Y-88199000D01*
X173731000Y-88199000D01*
X173730000Y-88199000D01*
X173729000Y-88200000D01*
X173728000Y-88200000D01*
X173726000Y-88200000D01*
X173725000Y-88200000D01*
X173525000Y-88200000D01*
X173524000Y-88200000D01*
X173522000Y-88200000D01*
X173521000Y-88200000D01*
X173520000Y-88199000D01*
X173519000Y-88199000D01*
X173517000Y-88199000D01*
X173516000Y-88198000D01*
X173515000Y-88198000D01*
X173514000Y-88197000D01*
X173512000Y-88197000D01*
X173511000Y-88196000D01*
X173510000Y-88195000D01*
X173509000Y-88194000D01*
X173508000Y-88194000D01*
X173507000Y-88193000D01*
X173506000Y-88192000D01*
X173506000Y-88191000D01*
X173505000Y-88190000D01*
X173504000Y-88189000D01*
X173503000Y-88188000D01*
X173503000Y-88186000D01*
X173502000Y-88185000D01*
X173502000Y-88184000D01*
X173501000Y-88183000D01*
X173501000Y-88181000D01*
X173501000Y-88180000D01*
X173500000Y-88179000D01*
X173500000Y-88178000D01*
X173500000Y-88176000D01*
X173500000Y-88175000D01*
X173500000Y-87875000D01*
X173500000Y-87874000D01*
X173500000Y-87872000D01*
X173500000Y-87871000D01*
X173499000Y-87870000D01*
X173499000Y-87869000D01*
X173499000Y-87867000D01*
X173498000Y-87866000D01*
X173498000Y-87865000D01*
X173497000Y-87864000D01*
X173497000Y-87863000D01*
X173496000Y-87861000D01*
X173495000Y-87860000D01*
X173494000Y-87859000D01*
X173494000Y-87858000D01*
X173493000Y-87857000D01*
X173492000Y-87856000D01*
X173491000Y-87856000D01*
X173490000Y-87855000D01*
X173489000Y-87854000D01*
X173488000Y-87853000D01*
X173486000Y-87853000D01*
X173485000Y-87852000D01*
X173484000Y-87852000D01*
X173483000Y-87851000D01*
X173481000Y-87851000D01*
X173480000Y-87851000D01*
X173479000Y-87850000D01*
X173478000Y-87850000D01*
X173476000Y-87850000D01*
X173475000Y-87850000D01*
X173075000Y-87850000D01*
X173074000Y-87850000D01*
X173072000Y-87850000D01*
X173071000Y-87850000D01*
X173070000Y-87849000D01*
X173069000Y-87849000D01*
X173067000Y-87849000D01*
X173066000Y-87848000D01*
X173065000Y-87848000D01*
X173064000Y-87847000D01*
X173063000Y-87847000D01*
X173061000Y-87846000D01*
X173060000Y-87845000D01*
X173059000Y-87844000D01*
X173058000Y-87844000D01*
X173057000Y-87843000D01*
X173056000Y-87842000D01*
X173056000Y-87841000D01*
X173055000Y-87840000D01*
X173054000Y-87839000D01*
X173053000Y-87837000D01*
X173053000Y-87836000D01*
X173052000Y-87835000D01*
X173052000Y-87834000D01*
X173051000Y-87833000D01*
X173051000Y-87831000D01*
X173051000Y-87830000D01*
X173050000Y-87829000D01*
X173050000Y-87828000D01*
X173050000Y-87826000D01*
X173050000Y-87825000D01*
X173050000Y-87650000D01*
X173050000Y-87649000D01*
X173050000Y-87647000D01*
X173050000Y-87646000D01*
X173051000Y-87645000D01*
X173051000Y-87644000D01*
X173051000Y-87642000D01*
X173052000Y-87641000D01*
X173052000Y-87640000D01*
X173053000Y-87639000D01*
X173053000Y-87637000D01*
X173054000Y-87636000D01*
X173055000Y-87635000D01*
X173056000Y-87634000D01*
X173056000Y-87633000D01*
X173057000Y-87632000D01*
X173058000Y-87631000D01*
X173059000Y-87631000D01*
X173060000Y-87630000D01*
X173061000Y-87629000D01*
X173062000Y-87628000D01*
X173064000Y-87628000D01*
X173065000Y-87627000D01*
X173066000Y-87627000D01*
X173067000Y-87626000D01*
X173069000Y-87626000D01*
X173070000Y-87626000D01*
X173071000Y-87625000D01*
X173072000Y-87625000D01*
X173074000Y-87625000D01*
X173075000Y-87625000D01*
X173725000Y-87625000D01*
X173726000Y-87625000D01*
X173728000Y-87625000D01*
X173729000Y-87625000D01*
X173730000Y-87626000D01*
G36*
X173730000Y-87626000D02*
G01*
X173731000Y-87626000D01*
X173733000Y-87626000D01*
X173734000Y-87627000D01*
X173735000Y-87627000D01*
X173736000Y-87628000D01*
X173738000Y-87628000D01*
X173739000Y-87629000D01*
X173740000Y-87630000D01*
X173741000Y-87631000D01*
X173742000Y-87631000D01*
X173743000Y-87632000D01*
X173744000Y-87633000D01*
X173744000Y-87634000D01*
X173745000Y-87635000D01*
X173746000Y-87636000D01*
X173747000Y-87637000D01*
X173747000Y-87639000D01*
X173748000Y-87640000D01*
X173748000Y-87641000D01*
X173749000Y-87642000D01*
X173749000Y-87644000D01*
X173749000Y-87645000D01*
X173750000Y-87646000D01*
X173750000Y-87647000D01*
X173750000Y-87649000D01*
X173750000Y-87650000D01*
X173750000Y-88175000D01*
X173750000Y-88176000D01*
X173750000Y-88178000D01*
X173750000Y-88179000D01*
X173749000Y-88180000D01*
X173749000Y-88181000D01*
X173749000Y-88183000D01*
X173748000Y-88184000D01*
X173748000Y-88185000D01*
X173747000Y-88186000D01*
X173747000Y-88188000D01*
X173746000Y-88189000D01*
X173745000Y-88190000D01*
X173744000Y-88191000D01*
X173744000Y-88192000D01*
X173743000Y-88193000D01*
X173742000Y-88194000D01*
X173741000Y-88194000D01*
X173740000Y-88195000D01*
X173739000Y-88196000D01*
X173738000Y-88197000D01*
X173736000Y-88197000D01*
X173735000Y-88198000D01*
X173734000Y-88198000D01*
X173733000Y-88199000D01*
X173731000Y-88199000D01*
X173730000Y-88199000D01*
X173729000Y-88200000D01*
X173728000Y-88200000D01*
X173726000Y-88200000D01*
X173725000Y-88200000D01*
X173525000Y-88200000D01*
X173524000Y-88200000D01*
X173522000Y-88200000D01*
X173521000Y-88200000D01*
X173520000Y-88199000D01*
X173519000Y-88199000D01*
X173517000Y-88199000D01*
X173516000Y-88198000D01*
X173515000Y-88198000D01*
X173514000Y-88197000D01*
X173512000Y-88197000D01*
X173511000Y-88196000D01*
X173510000Y-88195000D01*
X173509000Y-88194000D01*
X173508000Y-88194000D01*
X173507000Y-88193000D01*
X173506000Y-88192000D01*
X173506000Y-88191000D01*
X173505000Y-88190000D01*
X173504000Y-88189000D01*
X173503000Y-88188000D01*
X173503000Y-88186000D01*
X173502000Y-88185000D01*
X173502000Y-88184000D01*
X173501000Y-88183000D01*
X173501000Y-88181000D01*
X173501000Y-88180000D01*
X173500000Y-88179000D01*
X173500000Y-88178000D01*
X173500000Y-88176000D01*
X173500000Y-88175000D01*
X173500000Y-87875000D01*
X173500000Y-87874000D01*
X173500000Y-87872000D01*
X173500000Y-87871000D01*
X173499000Y-87870000D01*
X173499000Y-87869000D01*
X173499000Y-87867000D01*
X173498000Y-87866000D01*
X173498000Y-87865000D01*
X173497000Y-87864000D01*
X173497000Y-87863000D01*
X173496000Y-87861000D01*
X173495000Y-87860000D01*
X173494000Y-87859000D01*
X173494000Y-87858000D01*
X173493000Y-87857000D01*
X173492000Y-87856000D01*
X173491000Y-87856000D01*
X173490000Y-87855000D01*
X173489000Y-87854000D01*
X173488000Y-87853000D01*
X173486000Y-87853000D01*
X173485000Y-87852000D01*
X173484000Y-87852000D01*
X173483000Y-87851000D01*
X173481000Y-87851000D01*
X173480000Y-87851000D01*
X173479000Y-87850000D01*
X173478000Y-87850000D01*
X173476000Y-87850000D01*
X173475000Y-87850000D01*
X173075000Y-87850000D01*
X173074000Y-87850000D01*
X173072000Y-87850000D01*
X173071000Y-87850000D01*
X173070000Y-87849000D01*
X173069000Y-87849000D01*
X173067000Y-87849000D01*
X173066000Y-87848000D01*
X173065000Y-87848000D01*
X173064000Y-87847000D01*
X173063000Y-87847000D01*
X173061000Y-87846000D01*
X173060000Y-87845000D01*
X173059000Y-87844000D01*
X173058000Y-87844000D01*
X173057000Y-87843000D01*
X173056000Y-87842000D01*
X173056000Y-87841000D01*
X173055000Y-87840000D01*
X173054000Y-87839000D01*
X173053000Y-87837000D01*
X173053000Y-87836000D01*
X173052000Y-87835000D01*
X173052000Y-87834000D01*
X173051000Y-87833000D01*
X173051000Y-87831000D01*
X173051000Y-87830000D01*
X173050000Y-87829000D01*
X173050000Y-87828000D01*
X173050000Y-87826000D01*
X173050000Y-87825000D01*
X173050000Y-87650000D01*
X173050000Y-87649000D01*
X173050000Y-87647000D01*
X173050000Y-87646000D01*
X173051000Y-87645000D01*
X173051000Y-87644000D01*
X173051000Y-87642000D01*
X173052000Y-87641000D01*
X173052000Y-87640000D01*
X173053000Y-87639000D01*
X173053000Y-87637000D01*
X173054000Y-87636000D01*
X173055000Y-87635000D01*
X173056000Y-87634000D01*
X173056000Y-87633000D01*
X173057000Y-87632000D01*
X173058000Y-87631000D01*
X173059000Y-87631000D01*
X173060000Y-87630000D01*
X173061000Y-87629000D01*
X173062000Y-87628000D01*
X173064000Y-87628000D01*
X173065000Y-87627000D01*
X173066000Y-87627000D01*
X173067000Y-87626000D01*
X173069000Y-87626000D01*
X173070000Y-87626000D01*
X173071000Y-87625000D01*
X173072000Y-87625000D01*
X173074000Y-87625000D01*
X173075000Y-87625000D01*
X173725000Y-87625000D01*
X173726000Y-87625000D01*
X173728000Y-87625000D01*
X173729000Y-87625000D01*
X173730000Y-87626000D01*
G37*
X173730000Y-84801000D02*
X173731000Y-84801000D01*
X173733000Y-84801000D01*
X173734000Y-84802000D01*
X173735000Y-84802000D01*
X173736000Y-84803000D01*
X173738000Y-84803000D01*
X173739000Y-84804000D01*
X173740000Y-84805000D01*
X173741000Y-84806000D01*
X173742000Y-84806000D01*
X173743000Y-84807000D01*
X173744000Y-84808000D01*
X173744000Y-84809000D01*
X173745000Y-84810000D01*
X173746000Y-84811000D01*
X173747000Y-84812000D01*
X173747000Y-84814000D01*
X173748000Y-84815000D01*
X173748000Y-84816000D01*
X173749000Y-84817000D01*
X173749000Y-84819000D01*
X173749000Y-84820000D01*
X173750000Y-84821000D01*
X173750000Y-84822000D01*
X173750000Y-84824000D01*
X173750000Y-84825000D01*
X173750000Y-85350000D01*
X173750000Y-85351000D01*
X173750000Y-85353000D01*
X173750000Y-85354000D01*
X173749000Y-85355000D01*
X173749000Y-85356000D01*
X173749000Y-85358000D01*
X173748000Y-85359000D01*
X173748000Y-85360000D01*
X173747000Y-85361000D01*
X173747000Y-85363000D01*
X173746000Y-85364000D01*
X173745000Y-85365000D01*
X173744000Y-85366000D01*
X173744000Y-85367000D01*
X173743000Y-85368000D01*
X173742000Y-85369000D01*
X173741000Y-85369000D01*
X173740000Y-85370000D01*
X173739000Y-85371000D01*
X173738000Y-85372000D01*
X173736000Y-85372000D01*
X173735000Y-85373000D01*
X173734000Y-85373000D01*
X173733000Y-85374000D01*
X173731000Y-85374000D01*
X173730000Y-85374000D01*
X173729000Y-85375000D01*
X173728000Y-85375000D01*
X173726000Y-85375000D01*
X173725000Y-85375000D01*
X173075000Y-85375000D01*
X173074000Y-85375000D01*
X173072000Y-85375000D01*
X173071000Y-85375000D01*
X173070000Y-85374000D01*
X173069000Y-85374000D01*
X173067000Y-85374000D01*
X173066000Y-85373000D01*
X173065000Y-85373000D01*
X173064000Y-85372000D01*
X173062000Y-85372000D01*
X173061000Y-85371000D01*
X173060000Y-85370000D01*
X173059000Y-85369000D01*
X173058000Y-85369000D01*
X173057000Y-85368000D01*
X173056000Y-85367000D01*
X173056000Y-85366000D01*
X173055000Y-85365000D01*
X173054000Y-85364000D01*
X173053000Y-85363000D01*
X173053000Y-85361000D01*
X173052000Y-85360000D01*
X173052000Y-85359000D01*
X173051000Y-85358000D01*
X173051000Y-85356000D01*
X173051000Y-85355000D01*
X173050000Y-85354000D01*
X173050000Y-85353000D01*
X173050000Y-85351000D01*
X173050000Y-85350000D01*
X173050000Y-85175000D01*
X173050000Y-85174000D01*
X173050000Y-85172000D01*
X173050000Y-85171000D01*
X173051000Y-85170000D01*
X173051000Y-85169000D01*
X173051000Y-85167000D01*
X173052000Y-85166000D01*
X173052000Y-85165000D01*
X173053000Y-85164000D01*
X173053000Y-85163000D01*
X173054000Y-85161000D01*
X173055000Y-85160000D01*
X173056000Y-85159000D01*
X173056000Y-85158000D01*
X173057000Y-85157000D01*
X173058000Y-85156000D01*
X173059000Y-85156000D01*
X173060000Y-85155000D01*
X173061000Y-85154000D01*
X173063000Y-85153000D01*
X173064000Y-85153000D01*
X173065000Y-85152000D01*
X173066000Y-85152000D01*
X173067000Y-85151000D01*
X173069000Y-85151000D01*
X173070000Y-85151000D01*
X173071000Y-85150000D01*
X173072000Y-85150000D01*
X173074000Y-85150000D01*
X173075000Y-85150000D01*
X173475000Y-85150000D01*
X173476000Y-85150000D01*
X173478000Y-85150000D01*
X173479000Y-85150000D01*
X173480000Y-85149000D01*
X173481000Y-85149000D01*
X173483000Y-85149000D01*
X173484000Y-85148000D01*
X173485000Y-85148000D01*
X173486000Y-85147000D01*
X173488000Y-85147000D01*
X173489000Y-85146000D01*
X173490000Y-85145000D01*
X173491000Y-85144000D01*
X173492000Y-85144000D01*
X173493000Y-85143000D01*
X173494000Y-85142000D01*
X173494000Y-85141000D01*
X173495000Y-85140000D01*
X173496000Y-85139000D01*
X173497000Y-85137000D01*
X173497000Y-85136000D01*
X173498000Y-85135000D01*
X173498000Y-85134000D01*
X173499000Y-85133000D01*
X173499000Y-85131000D01*
X173499000Y-85130000D01*
X173500000Y-85129000D01*
X173500000Y-85128000D01*
X173500000Y-85126000D01*
X173500000Y-85125000D01*
X173500000Y-84825000D01*
X173500000Y-84824000D01*
X173500000Y-84822000D01*
X173500000Y-84821000D01*
X173501000Y-84820000D01*
X173501000Y-84819000D01*
X173501000Y-84817000D01*
X173502000Y-84816000D01*
X173502000Y-84815000D01*
X173503000Y-84814000D01*
X173503000Y-84812000D01*
X173504000Y-84811000D01*
X173505000Y-84810000D01*
X173506000Y-84809000D01*
X173506000Y-84808000D01*
X173507000Y-84807000D01*
X173508000Y-84806000D01*
X173509000Y-84806000D01*
X173510000Y-84805000D01*
X173511000Y-84804000D01*
X173512000Y-84803000D01*
X173514000Y-84803000D01*
X173515000Y-84802000D01*
X173516000Y-84802000D01*
X173517000Y-84801000D01*
X173519000Y-84801000D01*
X173520000Y-84801000D01*
X173521000Y-84800000D01*
X173522000Y-84800000D01*
X173524000Y-84800000D01*
X173525000Y-84800000D01*
X173725000Y-84800000D01*
X173726000Y-84800000D01*
X173728000Y-84800000D01*
X173729000Y-84800000D01*
X173730000Y-84801000D01*
G36*
X173730000Y-84801000D02*
G01*
X173731000Y-84801000D01*
X173733000Y-84801000D01*
X173734000Y-84802000D01*
X173735000Y-84802000D01*
X173736000Y-84803000D01*
X173738000Y-84803000D01*
X173739000Y-84804000D01*
X173740000Y-84805000D01*
X173741000Y-84806000D01*
X173742000Y-84806000D01*
X173743000Y-84807000D01*
X173744000Y-84808000D01*
X173744000Y-84809000D01*
X173745000Y-84810000D01*
X173746000Y-84811000D01*
X173747000Y-84812000D01*
X173747000Y-84814000D01*
X173748000Y-84815000D01*
X173748000Y-84816000D01*
X173749000Y-84817000D01*
X173749000Y-84819000D01*
X173749000Y-84820000D01*
X173750000Y-84821000D01*
X173750000Y-84822000D01*
X173750000Y-84824000D01*
X173750000Y-84825000D01*
X173750000Y-85350000D01*
X173750000Y-85351000D01*
X173750000Y-85353000D01*
X173750000Y-85354000D01*
X173749000Y-85355000D01*
X173749000Y-85356000D01*
X173749000Y-85358000D01*
X173748000Y-85359000D01*
X173748000Y-85360000D01*
X173747000Y-85361000D01*
X173747000Y-85363000D01*
X173746000Y-85364000D01*
X173745000Y-85365000D01*
X173744000Y-85366000D01*
X173744000Y-85367000D01*
X173743000Y-85368000D01*
X173742000Y-85369000D01*
X173741000Y-85369000D01*
X173740000Y-85370000D01*
X173739000Y-85371000D01*
X173738000Y-85372000D01*
X173736000Y-85372000D01*
X173735000Y-85373000D01*
X173734000Y-85373000D01*
X173733000Y-85374000D01*
X173731000Y-85374000D01*
X173730000Y-85374000D01*
X173729000Y-85375000D01*
X173728000Y-85375000D01*
X173726000Y-85375000D01*
X173725000Y-85375000D01*
X173075000Y-85375000D01*
X173074000Y-85375000D01*
X173072000Y-85375000D01*
X173071000Y-85375000D01*
X173070000Y-85374000D01*
X173069000Y-85374000D01*
X173067000Y-85374000D01*
X173066000Y-85373000D01*
X173065000Y-85373000D01*
X173064000Y-85372000D01*
X173062000Y-85372000D01*
X173061000Y-85371000D01*
X173060000Y-85370000D01*
X173059000Y-85369000D01*
X173058000Y-85369000D01*
X173057000Y-85368000D01*
X173056000Y-85367000D01*
X173056000Y-85366000D01*
X173055000Y-85365000D01*
X173054000Y-85364000D01*
X173053000Y-85363000D01*
X173053000Y-85361000D01*
X173052000Y-85360000D01*
X173052000Y-85359000D01*
X173051000Y-85358000D01*
X173051000Y-85356000D01*
X173051000Y-85355000D01*
X173050000Y-85354000D01*
X173050000Y-85353000D01*
X173050000Y-85351000D01*
X173050000Y-85350000D01*
X173050000Y-85175000D01*
X173050000Y-85174000D01*
X173050000Y-85172000D01*
X173050000Y-85171000D01*
X173051000Y-85170000D01*
X173051000Y-85169000D01*
X173051000Y-85167000D01*
X173052000Y-85166000D01*
X173052000Y-85165000D01*
X173053000Y-85164000D01*
X173053000Y-85163000D01*
X173054000Y-85161000D01*
X173055000Y-85160000D01*
X173056000Y-85159000D01*
X173056000Y-85158000D01*
X173057000Y-85157000D01*
X173058000Y-85156000D01*
X173059000Y-85156000D01*
X173060000Y-85155000D01*
X173061000Y-85154000D01*
X173063000Y-85153000D01*
X173064000Y-85153000D01*
X173065000Y-85152000D01*
X173066000Y-85152000D01*
X173067000Y-85151000D01*
X173069000Y-85151000D01*
X173070000Y-85151000D01*
X173071000Y-85150000D01*
X173072000Y-85150000D01*
X173074000Y-85150000D01*
X173075000Y-85150000D01*
X173475000Y-85150000D01*
X173476000Y-85150000D01*
X173478000Y-85150000D01*
X173479000Y-85150000D01*
X173480000Y-85149000D01*
X173481000Y-85149000D01*
X173483000Y-85149000D01*
X173484000Y-85148000D01*
X173485000Y-85148000D01*
X173486000Y-85147000D01*
X173488000Y-85147000D01*
X173489000Y-85146000D01*
X173490000Y-85145000D01*
X173491000Y-85144000D01*
X173492000Y-85144000D01*
X173493000Y-85143000D01*
X173494000Y-85142000D01*
X173494000Y-85141000D01*
X173495000Y-85140000D01*
X173496000Y-85139000D01*
X173497000Y-85137000D01*
X173497000Y-85136000D01*
X173498000Y-85135000D01*
X173498000Y-85134000D01*
X173499000Y-85133000D01*
X173499000Y-85131000D01*
X173499000Y-85130000D01*
X173500000Y-85129000D01*
X173500000Y-85128000D01*
X173500000Y-85126000D01*
X173500000Y-85125000D01*
X173500000Y-84825000D01*
X173500000Y-84824000D01*
X173500000Y-84822000D01*
X173500000Y-84821000D01*
X173501000Y-84820000D01*
X173501000Y-84819000D01*
X173501000Y-84817000D01*
X173502000Y-84816000D01*
X173502000Y-84815000D01*
X173503000Y-84814000D01*
X173503000Y-84812000D01*
X173504000Y-84811000D01*
X173505000Y-84810000D01*
X173506000Y-84809000D01*
X173506000Y-84808000D01*
X173507000Y-84807000D01*
X173508000Y-84806000D01*
X173509000Y-84806000D01*
X173510000Y-84805000D01*
X173511000Y-84804000D01*
X173512000Y-84803000D01*
X173514000Y-84803000D01*
X173515000Y-84802000D01*
X173516000Y-84802000D01*
X173517000Y-84801000D01*
X173519000Y-84801000D01*
X173520000Y-84801000D01*
X173521000Y-84800000D01*
X173522000Y-84800000D01*
X173524000Y-84800000D01*
X173525000Y-84800000D01*
X173725000Y-84800000D01*
X173726000Y-84800000D01*
X173728000Y-84800000D01*
X173729000Y-84800000D01*
X173730000Y-84801000D01*
G37*
X174830000Y-84801000D02*
X174831000Y-84801000D01*
X174833000Y-84801000D01*
X174834000Y-84802000D01*
X174835000Y-84802000D01*
X174836000Y-84803000D01*
X174838000Y-84803000D01*
X174839000Y-84804000D01*
X174840000Y-84805000D01*
X174841000Y-84806000D01*
X174842000Y-84806000D01*
X174843000Y-84807000D01*
X174844000Y-84808000D01*
X174844000Y-84809000D01*
X174845000Y-84810000D01*
X174846000Y-84811000D01*
X174847000Y-84812000D01*
X174847000Y-84814000D01*
X174848000Y-84815000D01*
X174848000Y-84816000D01*
X174849000Y-84817000D01*
X174849000Y-84819000D01*
X174849000Y-84820000D01*
X174850000Y-84821000D01*
X174850000Y-84822000D01*
X174850000Y-84824000D01*
X174850000Y-84825000D01*
X174850000Y-85675000D01*
X174850000Y-85676000D01*
X174850000Y-85678000D01*
X174850000Y-85679000D01*
X174851000Y-85680000D01*
X174851000Y-85681000D01*
X174851000Y-85683000D01*
X174852000Y-85684000D01*
X174852000Y-85685000D01*
X174853000Y-85686000D01*
X174853000Y-85687000D01*
X174854000Y-85689000D01*
X174855000Y-85690000D01*
X174856000Y-85691000D01*
X174856000Y-85692000D01*
X174857000Y-85693000D01*
X174858000Y-85694000D01*
X174859000Y-85694000D01*
X174860000Y-85695000D01*
X174861000Y-85696000D01*
X174862000Y-85697000D01*
X174864000Y-85697000D01*
X174865000Y-85698000D01*
X174866000Y-85698000D01*
X174867000Y-85699000D01*
X174869000Y-85699000D01*
X174870000Y-85699000D01*
X174871000Y-85700000D01*
X174872000Y-85700000D01*
X174874000Y-85700000D01*
X174875000Y-85700000D01*
X175925000Y-85700000D01*
X175926000Y-85700000D01*
X175928000Y-85700000D01*
X175929000Y-85700000D01*
X175930000Y-85701000D01*
X175931000Y-85701000D01*
X175933000Y-85701000D01*
X175934000Y-85702000D01*
X175935000Y-85702000D01*
X175936000Y-85703000D01*
X175938000Y-85703000D01*
X175939000Y-85704000D01*
X175940000Y-85705000D01*
X175941000Y-85706000D01*
X175942000Y-85706000D01*
X175943000Y-85707000D01*
X175944000Y-85708000D01*
X175944000Y-85709000D01*
X175945000Y-85710000D01*
X175946000Y-85711000D01*
X175947000Y-85712000D01*
X175947000Y-85714000D01*
X175948000Y-85715000D01*
X175948000Y-85716000D01*
X175949000Y-85717000D01*
X175949000Y-85719000D01*
X175949000Y-85720000D01*
X175950000Y-85721000D01*
X175950000Y-85722000D01*
X175950000Y-85724000D01*
X175950000Y-85725000D01*
X175950000Y-86025000D01*
X175950000Y-86026000D01*
X175950000Y-86028000D01*
X175950000Y-86029000D01*
X175949000Y-86030000D01*
X175949000Y-86031000D01*
X175949000Y-86033000D01*
X175948000Y-86034000D01*
X175948000Y-86035000D01*
X175947000Y-86036000D01*
X175947000Y-86037000D01*
X175946000Y-86039000D01*
X175945000Y-86040000D01*
X175944000Y-86041000D01*
X175944000Y-86042000D01*
X175943000Y-86043000D01*
X175942000Y-86044000D01*
X175941000Y-86044000D01*
X175940000Y-86045000D01*
X175939000Y-86046000D01*
X175938000Y-86047000D01*
X175936000Y-86047000D01*
X175935000Y-86048000D01*
X175934000Y-86048000D01*
X175933000Y-86049000D01*
X175931000Y-86049000D01*
X175930000Y-86049000D01*
X175929000Y-86050000D01*
X175928000Y-86050000D01*
X175926000Y-86050000D01*
X175925000Y-86050000D01*
X174525000Y-86050000D01*
X174524000Y-86050000D01*
X174522000Y-86050000D01*
X174521000Y-86050000D01*
X174520000Y-86049000D01*
X174519000Y-86049000D01*
X174517000Y-86049000D01*
X174516000Y-86048000D01*
X174515000Y-86048000D01*
X174514000Y-86047000D01*
X174512000Y-86047000D01*
X174511000Y-86046000D01*
X174510000Y-86045000D01*
X174509000Y-86044000D01*
X174508000Y-86044000D01*
X174507000Y-86043000D01*
X174506000Y-86042000D01*
X174506000Y-86041000D01*
X174505000Y-86040000D01*
X174504000Y-86039000D01*
X174503000Y-86037000D01*
X174503000Y-86036000D01*
X174502000Y-86035000D01*
X174502000Y-86034000D01*
X174501000Y-86033000D01*
X174501000Y-86031000D01*
X174501000Y-86030000D01*
X174500000Y-86029000D01*
X174500000Y-86028000D01*
X174500000Y-86026000D01*
X174500000Y-86025000D01*
X174500000Y-84825000D01*
X174500000Y-84824000D01*
X174500000Y-84822000D01*
X174500000Y-84821000D01*
X174501000Y-84820000D01*
X174501000Y-84819000D01*
X174501000Y-84817000D01*
X174502000Y-84816000D01*
X174502000Y-84815000D01*
X174503000Y-84814000D01*
X174503000Y-84812000D01*
X174504000Y-84811000D01*
X174505000Y-84810000D01*
X174506000Y-84809000D01*
X174506000Y-84808000D01*
X174507000Y-84807000D01*
X174508000Y-84806000D01*
X174509000Y-84806000D01*
X174510000Y-84805000D01*
X174511000Y-84804000D01*
X174512000Y-84803000D01*
X174514000Y-84803000D01*
X174515000Y-84802000D01*
X174516000Y-84802000D01*
X174517000Y-84801000D01*
X174519000Y-84801000D01*
X174520000Y-84801000D01*
X174521000Y-84800000D01*
X174522000Y-84800000D01*
X174524000Y-84800000D01*
X174525000Y-84800000D01*
X174825000Y-84800000D01*
X174826000Y-84800000D01*
X174828000Y-84800000D01*
X174829000Y-84800000D01*
X174830000Y-84801000D01*
G36*
X174830000Y-84801000D02*
G01*
X174831000Y-84801000D01*
X174833000Y-84801000D01*
X174834000Y-84802000D01*
X174835000Y-84802000D01*
X174836000Y-84803000D01*
X174838000Y-84803000D01*
X174839000Y-84804000D01*
X174840000Y-84805000D01*
X174841000Y-84806000D01*
X174842000Y-84806000D01*
X174843000Y-84807000D01*
X174844000Y-84808000D01*
X174844000Y-84809000D01*
X174845000Y-84810000D01*
X174846000Y-84811000D01*
X174847000Y-84812000D01*
X174847000Y-84814000D01*
X174848000Y-84815000D01*
X174848000Y-84816000D01*
X174849000Y-84817000D01*
X174849000Y-84819000D01*
X174849000Y-84820000D01*
X174850000Y-84821000D01*
X174850000Y-84822000D01*
X174850000Y-84824000D01*
X174850000Y-84825000D01*
X174850000Y-85675000D01*
X174850000Y-85676000D01*
X174850000Y-85678000D01*
X174850000Y-85679000D01*
X174851000Y-85680000D01*
X174851000Y-85681000D01*
X174851000Y-85683000D01*
X174852000Y-85684000D01*
X174852000Y-85685000D01*
X174853000Y-85686000D01*
X174853000Y-85687000D01*
X174854000Y-85689000D01*
X174855000Y-85690000D01*
X174856000Y-85691000D01*
X174856000Y-85692000D01*
X174857000Y-85693000D01*
X174858000Y-85694000D01*
X174859000Y-85694000D01*
X174860000Y-85695000D01*
X174861000Y-85696000D01*
X174862000Y-85697000D01*
X174864000Y-85697000D01*
X174865000Y-85698000D01*
X174866000Y-85698000D01*
X174867000Y-85699000D01*
X174869000Y-85699000D01*
X174870000Y-85699000D01*
X174871000Y-85700000D01*
X174872000Y-85700000D01*
X174874000Y-85700000D01*
X174875000Y-85700000D01*
X175925000Y-85700000D01*
X175926000Y-85700000D01*
X175928000Y-85700000D01*
X175929000Y-85700000D01*
X175930000Y-85701000D01*
X175931000Y-85701000D01*
X175933000Y-85701000D01*
X175934000Y-85702000D01*
X175935000Y-85702000D01*
X175936000Y-85703000D01*
X175938000Y-85703000D01*
X175939000Y-85704000D01*
X175940000Y-85705000D01*
X175941000Y-85706000D01*
X175942000Y-85706000D01*
X175943000Y-85707000D01*
X175944000Y-85708000D01*
X175944000Y-85709000D01*
X175945000Y-85710000D01*
X175946000Y-85711000D01*
X175947000Y-85712000D01*
X175947000Y-85714000D01*
X175948000Y-85715000D01*
X175948000Y-85716000D01*
X175949000Y-85717000D01*
X175949000Y-85719000D01*
X175949000Y-85720000D01*
X175950000Y-85721000D01*
X175950000Y-85722000D01*
X175950000Y-85724000D01*
X175950000Y-85725000D01*
X175950000Y-86025000D01*
X175950000Y-86026000D01*
X175950000Y-86028000D01*
X175950000Y-86029000D01*
X175949000Y-86030000D01*
X175949000Y-86031000D01*
X175949000Y-86033000D01*
X175948000Y-86034000D01*
X175948000Y-86035000D01*
X175947000Y-86036000D01*
X175947000Y-86037000D01*
X175946000Y-86039000D01*
X175945000Y-86040000D01*
X175944000Y-86041000D01*
X175944000Y-86042000D01*
X175943000Y-86043000D01*
X175942000Y-86044000D01*
X175941000Y-86044000D01*
X175940000Y-86045000D01*
X175939000Y-86046000D01*
X175938000Y-86047000D01*
X175936000Y-86047000D01*
X175935000Y-86048000D01*
X175934000Y-86048000D01*
X175933000Y-86049000D01*
X175931000Y-86049000D01*
X175930000Y-86049000D01*
X175929000Y-86050000D01*
X175928000Y-86050000D01*
X175926000Y-86050000D01*
X175925000Y-86050000D01*
X174525000Y-86050000D01*
X174524000Y-86050000D01*
X174522000Y-86050000D01*
X174521000Y-86050000D01*
X174520000Y-86049000D01*
X174519000Y-86049000D01*
X174517000Y-86049000D01*
X174516000Y-86048000D01*
X174515000Y-86048000D01*
X174514000Y-86047000D01*
X174512000Y-86047000D01*
X174511000Y-86046000D01*
X174510000Y-86045000D01*
X174509000Y-86044000D01*
X174508000Y-86044000D01*
X174507000Y-86043000D01*
X174506000Y-86042000D01*
X174506000Y-86041000D01*
X174505000Y-86040000D01*
X174504000Y-86039000D01*
X174503000Y-86037000D01*
X174503000Y-86036000D01*
X174502000Y-86035000D01*
X174502000Y-86034000D01*
X174501000Y-86033000D01*
X174501000Y-86031000D01*
X174501000Y-86030000D01*
X174500000Y-86029000D01*
X174500000Y-86028000D01*
X174500000Y-86026000D01*
X174500000Y-86025000D01*
X174500000Y-84825000D01*
X174500000Y-84824000D01*
X174500000Y-84822000D01*
X174500000Y-84821000D01*
X174501000Y-84820000D01*
X174501000Y-84819000D01*
X174501000Y-84817000D01*
X174502000Y-84816000D01*
X174502000Y-84815000D01*
X174503000Y-84814000D01*
X174503000Y-84812000D01*
X174504000Y-84811000D01*
X174505000Y-84810000D01*
X174506000Y-84809000D01*
X174506000Y-84808000D01*
X174507000Y-84807000D01*
X174508000Y-84806000D01*
X174509000Y-84806000D01*
X174510000Y-84805000D01*
X174511000Y-84804000D01*
X174512000Y-84803000D01*
X174514000Y-84803000D01*
X174515000Y-84802000D01*
X174516000Y-84802000D01*
X174517000Y-84801000D01*
X174519000Y-84801000D01*
X174520000Y-84801000D01*
X174521000Y-84800000D01*
X174522000Y-84800000D01*
X174524000Y-84800000D01*
X174525000Y-84800000D01*
X174825000Y-84800000D01*
X174826000Y-84800000D01*
X174828000Y-84800000D01*
X174829000Y-84800000D01*
X174830000Y-84801000D01*
G37*
X175930000Y-86951000D02*
X175931000Y-86951000D01*
X175933000Y-86951000D01*
X175934000Y-86952000D01*
X175935000Y-86952000D01*
X175936000Y-86953000D01*
X175938000Y-86953000D01*
X175939000Y-86954000D01*
X175940000Y-86955000D01*
X175941000Y-86956000D01*
X175942000Y-86956000D01*
X175943000Y-86957000D01*
X175944000Y-86958000D01*
X175944000Y-86959000D01*
X175945000Y-86960000D01*
X175946000Y-86961000D01*
X175947000Y-86963000D01*
X175947000Y-86964000D01*
X175948000Y-86965000D01*
X175948000Y-86966000D01*
X175949000Y-86967000D01*
X175949000Y-86969000D01*
X175949000Y-86970000D01*
X175950000Y-86971000D01*
X175950000Y-86972000D01*
X175950000Y-86974000D01*
X175950000Y-86975000D01*
X175950000Y-87275000D01*
X175950000Y-87276000D01*
X175950000Y-87278000D01*
X175950000Y-87279000D01*
X175949000Y-87280000D01*
X175949000Y-87281000D01*
X175949000Y-87283000D01*
X175948000Y-87284000D01*
X175948000Y-87285000D01*
X175947000Y-87286000D01*
X175947000Y-87288000D01*
X175946000Y-87289000D01*
X175945000Y-87290000D01*
X175944000Y-87291000D01*
X175944000Y-87292000D01*
X175943000Y-87293000D01*
X175942000Y-87294000D01*
X175941000Y-87294000D01*
X175940000Y-87295000D01*
X175939000Y-87296000D01*
X175938000Y-87297000D01*
X175936000Y-87297000D01*
X175935000Y-87298000D01*
X175934000Y-87298000D01*
X175933000Y-87299000D01*
X175931000Y-87299000D01*
X175930000Y-87299000D01*
X175929000Y-87300000D01*
X175928000Y-87300000D01*
X175926000Y-87300000D01*
X175925000Y-87300000D01*
X174875000Y-87300000D01*
X174874000Y-87300000D01*
X174872000Y-87300000D01*
X174871000Y-87300000D01*
X174870000Y-87301000D01*
X174869000Y-87301000D01*
X174867000Y-87301000D01*
X174866000Y-87302000D01*
X174865000Y-87302000D01*
X174864000Y-87303000D01*
X174862000Y-87303000D01*
X174861000Y-87304000D01*
X174860000Y-87305000D01*
X174859000Y-87306000D01*
X174858000Y-87306000D01*
X174857000Y-87307000D01*
X174856000Y-87308000D01*
X174856000Y-87309000D01*
X174855000Y-87310000D01*
X174854000Y-87311000D01*
X174853000Y-87313000D01*
X174853000Y-87314000D01*
X174852000Y-87315000D01*
X174852000Y-87316000D01*
X174851000Y-87317000D01*
X174851000Y-87319000D01*
X174851000Y-87320000D01*
X174850000Y-87321000D01*
X174850000Y-87322000D01*
X174850000Y-87324000D01*
X174850000Y-87325000D01*
X174850000Y-88175000D01*
X174850000Y-88176000D01*
X174850000Y-88178000D01*
X174850000Y-88179000D01*
X174849000Y-88180000D01*
X174849000Y-88181000D01*
X174849000Y-88183000D01*
X174848000Y-88184000D01*
X174848000Y-88185000D01*
X174847000Y-88186000D01*
X174847000Y-88188000D01*
X174846000Y-88189000D01*
X174845000Y-88190000D01*
X174844000Y-88191000D01*
X174844000Y-88192000D01*
X174843000Y-88193000D01*
X174842000Y-88194000D01*
X174841000Y-88194000D01*
X174840000Y-88195000D01*
X174839000Y-88196000D01*
X174838000Y-88197000D01*
X174836000Y-88197000D01*
X174835000Y-88198000D01*
X174834000Y-88198000D01*
X174833000Y-88199000D01*
X174831000Y-88199000D01*
X174830000Y-88199000D01*
X174829000Y-88200000D01*
X174828000Y-88200000D01*
X174826000Y-88200000D01*
X174825000Y-88200000D01*
X174525000Y-88200000D01*
X174524000Y-88200000D01*
X174522000Y-88200000D01*
X174521000Y-88200000D01*
X174520000Y-88199000D01*
X174519000Y-88199000D01*
X174517000Y-88199000D01*
X174516000Y-88198000D01*
X174515000Y-88198000D01*
X174514000Y-88197000D01*
X174512000Y-88197000D01*
X174511000Y-88196000D01*
X174510000Y-88195000D01*
X174509000Y-88194000D01*
X174508000Y-88194000D01*
X174507000Y-88193000D01*
X174506000Y-88192000D01*
X174506000Y-88191000D01*
X174505000Y-88190000D01*
X174504000Y-88189000D01*
X174503000Y-88188000D01*
X174503000Y-88186000D01*
X174502000Y-88185000D01*
X174502000Y-88184000D01*
X174501000Y-88183000D01*
X174501000Y-88181000D01*
X174501000Y-88180000D01*
X174500000Y-88179000D01*
X174500000Y-88178000D01*
X174500000Y-88176000D01*
X174500000Y-88175000D01*
X174500000Y-86975000D01*
X174500000Y-86974000D01*
X174500000Y-86972000D01*
X174500000Y-86971000D01*
X174501000Y-86970000D01*
X174501000Y-86969000D01*
X174501000Y-86967000D01*
X174502000Y-86966000D01*
X174502000Y-86965000D01*
X174503000Y-86964000D01*
X174503000Y-86963000D01*
X174504000Y-86961000D01*
X174505000Y-86960000D01*
X174506000Y-86959000D01*
X174506000Y-86958000D01*
X174507000Y-86957000D01*
X174508000Y-86956000D01*
X174509000Y-86956000D01*
X174510000Y-86955000D01*
X174511000Y-86954000D01*
X174512000Y-86953000D01*
X174514000Y-86953000D01*
X174515000Y-86952000D01*
X174516000Y-86952000D01*
X174517000Y-86951000D01*
X174519000Y-86951000D01*
X174520000Y-86951000D01*
X174521000Y-86950000D01*
X174522000Y-86950000D01*
X174524000Y-86950000D01*
X174525000Y-86950000D01*
X175925000Y-86950000D01*
X175926000Y-86950000D01*
X175928000Y-86950000D01*
X175929000Y-86950000D01*
X175930000Y-86951000D01*
G36*
X175930000Y-86951000D02*
G01*
X175931000Y-86951000D01*
X175933000Y-86951000D01*
X175934000Y-86952000D01*
X175935000Y-86952000D01*
X175936000Y-86953000D01*
X175938000Y-86953000D01*
X175939000Y-86954000D01*
X175940000Y-86955000D01*
X175941000Y-86956000D01*
X175942000Y-86956000D01*
X175943000Y-86957000D01*
X175944000Y-86958000D01*
X175944000Y-86959000D01*
X175945000Y-86960000D01*
X175946000Y-86961000D01*
X175947000Y-86963000D01*
X175947000Y-86964000D01*
X175948000Y-86965000D01*
X175948000Y-86966000D01*
X175949000Y-86967000D01*
X175949000Y-86969000D01*
X175949000Y-86970000D01*
X175950000Y-86971000D01*
X175950000Y-86972000D01*
X175950000Y-86974000D01*
X175950000Y-86975000D01*
X175950000Y-87275000D01*
X175950000Y-87276000D01*
X175950000Y-87278000D01*
X175950000Y-87279000D01*
X175949000Y-87280000D01*
X175949000Y-87281000D01*
X175949000Y-87283000D01*
X175948000Y-87284000D01*
X175948000Y-87285000D01*
X175947000Y-87286000D01*
X175947000Y-87288000D01*
X175946000Y-87289000D01*
X175945000Y-87290000D01*
X175944000Y-87291000D01*
X175944000Y-87292000D01*
X175943000Y-87293000D01*
X175942000Y-87294000D01*
X175941000Y-87294000D01*
X175940000Y-87295000D01*
X175939000Y-87296000D01*
X175938000Y-87297000D01*
X175936000Y-87297000D01*
X175935000Y-87298000D01*
X175934000Y-87298000D01*
X175933000Y-87299000D01*
X175931000Y-87299000D01*
X175930000Y-87299000D01*
X175929000Y-87300000D01*
X175928000Y-87300000D01*
X175926000Y-87300000D01*
X175925000Y-87300000D01*
X174875000Y-87300000D01*
X174874000Y-87300000D01*
X174872000Y-87300000D01*
X174871000Y-87300000D01*
X174870000Y-87301000D01*
X174869000Y-87301000D01*
X174867000Y-87301000D01*
X174866000Y-87302000D01*
X174865000Y-87302000D01*
X174864000Y-87303000D01*
X174862000Y-87303000D01*
X174861000Y-87304000D01*
X174860000Y-87305000D01*
X174859000Y-87306000D01*
X174858000Y-87306000D01*
X174857000Y-87307000D01*
X174856000Y-87308000D01*
X174856000Y-87309000D01*
X174855000Y-87310000D01*
X174854000Y-87311000D01*
X174853000Y-87313000D01*
X174853000Y-87314000D01*
X174852000Y-87315000D01*
X174852000Y-87316000D01*
X174851000Y-87317000D01*
X174851000Y-87319000D01*
X174851000Y-87320000D01*
X174850000Y-87321000D01*
X174850000Y-87322000D01*
X174850000Y-87324000D01*
X174850000Y-87325000D01*
X174850000Y-88175000D01*
X174850000Y-88176000D01*
X174850000Y-88178000D01*
X174850000Y-88179000D01*
X174849000Y-88180000D01*
X174849000Y-88181000D01*
X174849000Y-88183000D01*
X174848000Y-88184000D01*
X174848000Y-88185000D01*
X174847000Y-88186000D01*
X174847000Y-88188000D01*
X174846000Y-88189000D01*
X174845000Y-88190000D01*
X174844000Y-88191000D01*
X174844000Y-88192000D01*
X174843000Y-88193000D01*
X174842000Y-88194000D01*
X174841000Y-88194000D01*
X174840000Y-88195000D01*
X174839000Y-88196000D01*
X174838000Y-88197000D01*
X174836000Y-88197000D01*
X174835000Y-88198000D01*
X174834000Y-88198000D01*
X174833000Y-88199000D01*
X174831000Y-88199000D01*
X174830000Y-88199000D01*
X174829000Y-88200000D01*
X174828000Y-88200000D01*
X174826000Y-88200000D01*
X174825000Y-88200000D01*
X174525000Y-88200000D01*
X174524000Y-88200000D01*
X174522000Y-88200000D01*
X174521000Y-88200000D01*
X174520000Y-88199000D01*
X174519000Y-88199000D01*
X174517000Y-88199000D01*
X174516000Y-88198000D01*
X174515000Y-88198000D01*
X174514000Y-88197000D01*
X174512000Y-88197000D01*
X174511000Y-88196000D01*
X174510000Y-88195000D01*
X174509000Y-88194000D01*
X174508000Y-88194000D01*
X174507000Y-88193000D01*
X174506000Y-88192000D01*
X174506000Y-88191000D01*
X174505000Y-88190000D01*
X174504000Y-88189000D01*
X174503000Y-88188000D01*
X174503000Y-88186000D01*
X174502000Y-88185000D01*
X174502000Y-88184000D01*
X174501000Y-88183000D01*
X174501000Y-88181000D01*
X174501000Y-88180000D01*
X174500000Y-88179000D01*
X174500000Y-88178000D01*
X174500000Y-88176000D01*
X174500000Y-88175000D01*
X174500000Y-86975000D01*
X174500000Y-86974000D01*
X174500000Y-86972000D01*
X174500000Y-86971000D01*
X174501000Y-86970000D01*
X174501000Y-86969000D01*
X174501000Y-86967000D01*
X174502000Y-86966000D01*
X174502000Y-86965000D01*
X174503000Y-86964000D01*
X174503000Y-86963000D01*
X174504000Y-86961000D01*
X174505000Y-86960000D01*
X174506000Y-86959000D01*
X174506000Y-86958000D01*
X174507000Y-86957000D01*
X174508000Y-86956000D01*
X174509000Y-86956000D01*
X174510000Y-86955000D01*
X174511000Y-86954000D01*
X174512000Y-86953000D01*
X174514000Y-86953000D01*
X174515000Y-86952000D01*
X174516000Y-86952000D01*
X174517000Y-86951000D01*
X174519000Y-86951000D01*
X174520000Y-86951000D01*
X174521000Y-86950000D01*
X174522000Y-86950000D01*
X174524000Y-86950000D01*
X174525000Y-86950000D01*
X175925000Y-86950000D01*
X175926000Y-86950000D01*
X175928000Y-86950000D01*
X175929000Y-86950000D01*
X175930000Y-86951000D01*
G37*
%TD*%
D11*
%TO.C,*%
X193800000Y-91680000D03*
%TD*%
D12*
%TO.C,TPS1*%
X174125000Y-87925000D03*
D13*
X174750000Y-86500000D03*
D12*
X174125000Y-85075000D03*
D14*
X173325000Y-85750000D03*
X173325000Y-86250000D03*
X173325000Y-86750000D03*
X173325000Y-87250000D03*
%TD*%
D15*
%TO.C,C11*%
X175500000Y-91525000D03*
X175500000Y-93075000D03*
%TD*%
%TO.C,C1*%
X171500000Y-82625000D03*
X171500000Y-84175000D03*
%TD*%
D16*
%TO.C,R4*%
X173500000Y-90075000D03*
X173500000Y-91725000D03*
%TD*%
D17*
%TO.C,C9*%
X163090000Y-94350000D03*
X163090000Y-96250000D03*
%TD*%
D18*
%TO.C,C2*%
X187500000Y-88510000D03*
X187500000Y-91460000D03*
%TD*%
D17*
%TO.C,C7*%
X171550000Y-91530000D03*
X171550000Y-93430000D03*
%TD*%
D15*
%TO.C,C10*%
X179520000Y-91425000D03*
X179520000Y-92975000D03*
%TD*%
D19*
%TO.C,R3*%
X175875000Y-89500000D03*
X177525000Y-89500000D03*
%TD*%
D15*
%TO.C,C12*%
X177460000Y-91600000D03*
X177460000Y-93150000D03*
%TD*%
D11*
%TO.C,*%
X153000000Y-92470000D03*
%TD*%
D20*
%TO.C,C8*%
X173625000Y-83800000D03*
X175175000Y-83800000D03*
%TD*%
D18*
%TO.C,C4*%
X182500000Y-88510000D03*
X182500000Y-91460000D03*
%TD*%
D21*
%TO.C,C6*%
X187500000Y-86475000D03*
X187500000Y-83525000D03*
%TD*%
D17*
%TO.C,C14*%
X158150000Y-94350000D03*
X158150000Y-96250000D03*
%TD*%
D21*
%TO.C,C15*%
X182500000Y-86460000D03*
X182500000Y-83510000D03*
%TD*%
D11*
%TO.C,*%
X152960000Y-83970000D03*
%TD*%
D17*
%TO.C,C13*%
X160620000Y-94350000D03*
X160620000Y-96250000D03*
%TD*%
D18*
%TO.C,C3*%
X185000000Y-88510000D03*
X185000000Y-91460000D03*
%TD*%
D22*
%TO.C,L1*%
X159250000Y-86000000D03*
X168750000Y-86000000D03*
%TD*%
D21*
%TO.C,C5*%
X185000000Y-86475000D03*
X185000000Y-83525000D03*
%TD*%
D11*
%TO.C,*%
X193680000Y-83210000D03*
%TD*%
M02*
